<svg width="120" height="41" viewBox="0 0 120 41" fill="none" xmlns="http://www.w3.org/2000/svg">
<g clip-path="url(#clip0_92_5678)">
<path d="M110.303 0.499886H9.70265C9.33595 0.499886 8.97365 0.499886 8.60792 0.501886C8.30177 0.503886 7.99806 0.509696 7.68897 0.514586C7.01748 0.522488 6.34758 0.581562 5.68507 0.691296C5.02349 0.803418 4.38264 1.0148 3.78419 1.3183C3.18647 1.62436 2.64031 2.02205 2.16554 2.49696C1.68827 2.97052 1.29043 3.5179 0.987319 4.11805C0.683369 4.71699 0.472609 5.35882 0.362319 6.02137C0.25098 6.68307 0.191067 7.35241 0.183119 8.02337C0.173839 8.32997 0.172859 8.63759 0.167969 8.94423V32.0585C0.172859 32.369 0.173839 32.6698 0.183119 32.9804C0.19107 33.6513 0.250982 34.3206 0.362319 34.9823C0.472305 35.6452 0.683077 36.2874 0.987319 36.8866C1.29029 37.4848 1.68819 38.03 2.16554 38.5009C2.63851 38.9779 3.18502 39.3759 3.78419 39.6796C4.38264 39.9839 5.02342 40.1965 5.68507 40.3104C6.34769 40.4192 7.01753 40.4783 7.68897 40.4872C7.99806 40.494 8.30177 40.4979 8.60792 40.4979C8.97364 40.4999 9.33597 40.4999 9.70265 40.4999H110.303C110.662 40.4999 111.027 40.4999 111.387 40.4979C111.691 40.4979 112.004 40.494 112.309 40.4872C112.979 40.4788 113.647 40.4197 114.309 40.3104C114.972 40.1957 115.616 39.9831 116.217 39.6796C116.815 39.3757 117.361 38.9777 117.834 38.5009C118.31 38.0281 118.709 37.4833 119.016 36.8866C119.318 36.287 119.526 35.6448 119.635 34.9823C119.746 34.3205 119.808 33.6514 119.82 32.9804C119.824 32.6698 119.824 32.369 119.824 32.0585C119.832 31.6952 119.832 31.3339 119.832 30.9647V10.036C119.832 9.66981 119.832 9.30653 119.824 8.94423C119.824 8.63759 119.824 8.32997 119.82 8.02333C119.808 7.35231 119.746 6.68312 119.635 6.02133C119.526 5.35917 119.317 4.71739 119.016 4.11801C118.398 2.91508 117.42 1.93591 116.217 1.31821C115.615 1.01545 114.972 0.804126 114.309 0.691206C113.648 0.580989 112.979 0.521894 112.309 0.514446C112.004 0.509566 111.691 0.503706 111.387 0.501756C111.027 0.499756 110.662 0.499756 110.303 0.499756V0.499886Z" fill="#A6A6A6"/>
<path d="M8.61284 39.625C8.30816 39.625 8.01084 39.6211 7.70855 39.6143C7.08233 39.6061 6.45757 39.5516 5.83941 39.4512C5.263 39.3519 4.70461 39.1673 4.18267 38.9033C3.66551 38.6415 3.19382 38.2983 2.78567 37.8867C2.37161 37.48 2.02688 37.0082 1.76516 36.4902C1.50054 35.9688 1.31742 35.4099 1.22216 34.833C1.11928 34.2131 1.06362 33.5863 1.05566 32.958C1.04932 32.7471 1.04102 32.0449 1.04102 32.0449V8.94434C1.04102 8.94434 1.04986 8.25293 1.05571 8.0498C1.06333 7.42248 1.11867 6.79665 1.22124 6.17773C1.31667 5.59925 1.49994 5.03875 1.7647 4.51563C2.02546 3.99794 2.36827 3.52586 2.77984 3.11768C3.19094 2.70562 3.66414 2.3606 4.18218 2.09521C4.70292 1.83209 5.26025 1.64873 5.8355 1.55127C6.45569 1.44984 7.08262 1.395 7.71101 1.38721L8.61333 1.375H111.382L112.295 1.3877C112.918 1.3951 113.539 1.44945 114.153 1.55029C114.734 1.64898 115.298 1.83362 115.824 2.09814C116.862 2.63299 117.707 3.47916 118.239 4.51807C118.5 5.03758 118.68 5.59351 118.774 6.16699C118.878 6.79099 118.936 7.42174 118.948 8.0542C118.951 8.3374 118.951 8.6416 118.951 8.94434C118.959 9.31934 118.959 9.67627 118.959 10.0361V30.9648C118.959 31.3281 118.959 31.6826 118.951 32.04C118.951 32.3652 118.951 32.6631 118.947 32.9697C118.936 33.5909 118.878 34.2104 118.776 34.8232C118.683 35.4043 118.501 35.9675 118.236 36.4932C117.973 37.0056 117.63 37.4733 117.221 37.8789C116.812 38.2927 116.34 38.6379 115.821 38.9014C115.296 39.1674 114.734 39.3527 114.153 39.4512C113.535 39.5522 112.91 39.6067 112.284 39.6143C111.991 39.6211 111.685 39.625 111.387 39.625L110.303 39.627L8.61284 39.625Z" fill="black"/>
<path d="M24.936 20.8006C24.9467 19.9659 25.1684 19.1475 25.5805 18.4216C25.9925 17.6956 26.5815 17.0857 27.2925 16.6485C26.8408 16.0034 26.2449 15.4724 25.552 15.0979C24.8592 14.7233 24.0886 14.5155 23.3014 14.4908C21.6221 14.3146 19.9942 15.4957 19.1385 15.4957C18.2662 15.4957 16.9487 14.5083 15.53 14.5375C14.6123 14.5672 13.718 14.834 12.9341 15.3121C12.1502 15.7901 11.5035 16.4631 11.0571 17.2654C9.12306 20.6138 10.5657 25.5349 12.4183 28.2415C13.3452 29.5668 14.4284 31.0473 15.8459 30.9948C17.233 30.9372 17.751 30.1103 19.4253 30.1103C21.0841 30.1103 21.5701 30.9948 23.0163 30.9614C24.5047 30.9372 25.4424 29.6302 26.3368 28.2923C27.0028 27.3479 27.5152 26.3042 27.8552 25.1997C26.9905 24.834 26.2526 24.2218 25.7335 23.4395C25.2144 22.6572 24.937 21.7394 24.936 20.8006Z" fill="white"/>
<path d="M22.2036 12.7108C23.0151 11.7366 23.4149 10.4844 23.3181 9.22021C22.0783 9.35044 20.933 9.94299 20.1105 10.8798C19.7084 11.3375 19.4004 11.8699 19.2041 12.4467C19.0079 13.0235 18.9273 13.6333 18.9668 14.2412C19.587 14.2476 20.2005 14.1132 20.7611 13.8481C21.3218 13.583 21.815 13.1942 22.2036 12.7108Z" fill="white"/>
<path d="M42.4688 27.6397H37.7354L36.5986 30.9961H34.5938L39.0772 18.5781H41.1602L45.6436 30.9961H43.6045L42.4688 27.6397ZM38.2256 26.0908H41.9776L40.128 20.6436H40.0762L38.2256 26.0908Z" fill="white"/>
<path d="M55.3252 26.4697C55.3252 29.2832 53.8194 31.0908 51.5469 31.0908C50.9713 31.1209 50.3988 30.9883 49.895 30.7082C49.3912 30.428 48.9764 30.0117 48.6983 29.5068H48.6553V33.9912H46.7969V21.9423H48.5957V23.4482H48.6299C48.9209 22.9457 49.3426 22.5316 49.8502 22.2497C50.3579 21.9679 50.9324 21.8289 51.5127 21.8476C53.8105 21.8476 55.3252 23.664 55.3252 26.4697ZM53.4151 26.4697C53.4151 24.6367 52.4678 23.4316 51.0225 23.4316C49.6026 23.4316 48.6475 24.6621 48.6475 26.4697C48.6475 28.2939 49.6026 29.5156 51.0225 29.5156C52.4678 29.5156 53.4151 28.3193 53.4151 26.4697Z" fill="white"/>
<path d="M65.2901 26.4697C65.2901 29.2832 63.7842 31.0908 61.5117 31.0908C60.9361 31.1209 60.3636 30.9883 59.8598 30.7081C59.356 30.428 58.9413 30.0117 58.6631 29.5068H58.6201V33.9912H56.7617V21.9423H58.5605V23.4482H58.5947C58.8857 22.9457 59.3074 22.5315 59.815 22.2497C60.3227 21.9679 60.8972 21.8289 61.4775 21.8476C63.7754 21.8476 65.2901 23.664 65.2901 26.4697ZM63.3799 26.4697C63.3799 24.6367 62.4326 23.4316 60.9873 23.4316C59.5674 23.4316 58.6123 24.6621 58.6123 26.4697C58.6123 28.2939 59.5674 29.5156 60.9873 29.5156C62.4326 29.5156 63.3799 28.3193 63.3799 26.4697H63.3799Z" fill="white"/>
<path d="M71.877 27.5362C72.0147 28.7676 73.211 29.5762 74.8457 29.5762C76.4121 29.5762 77.5391 28.7676 77.5391 27.6572C77.5391 26.6934 76.8594 26.1162 75.25 25.7207L73.6407 25.333C71.3604 24.7822 70.3018 23.7158 70.3018 21.9854C70.3018 19.8428 72.169 18.3711 74.8203 18.3711C77.4443 18.3711 79.2432 19.8428 79.3037 21.9854H77.4277C77.3154 20.7461 76.291 19.9981 74.794 19.9981C73.2969 19.9981 72.2725 20.7549 72.2725 21.8565C72.2725 22.7344 72.9268 23.251 74.5274 23.6465L75.8955 23.9824C78.4434 24.5849 79.502 25.6084 79.502 27.4248C79.502 29.748 77.6514 31.2031 74.708 31.2031C71.9541 31.2031 70.0947 29.7822 69.9746 27.5361L71.877 27.5362Z" fill="white"/>
<path d="M83.5117 19.7998V21.9424H85.2334V23.4141H83.5117V28.4053C83.5117 29.1807 83.8564 29.542 84.6133 29.542C84.8177 29.5384 85.0217 29.5241 85.2246 29.499V30.9619C84.8843 31.0255 84.5385 31.0543 84.1924 31.0478C82.3594 31.0478 81.6445 30.3593 81.6445 28.6035V23.4141H80.3281V21.9424H81.6445V19.7998H83.5117Z" fill="white"/>
<path d="M86.2324 26.4697C86.2324 23.6211 87.9101 21.8311 90.5264 21.8311C93.1514 21.8311 94.8213 23.6211 94.8213 26.4697C94.8213 29.3262 93.1602 31.1084 90.5264 31.1084C87.8935 31.1084 86.2324 29.3262 86.2324 26.4697ZM92.9277 26.4697C92.9277 24.5156 92.0322 23.3623 90.5264 23.3623C89.0205 23.3623 88.126 24.5244 88.126 26.4697C88.126 28.4316 89.0205 29.5762 90.5264 29.5762C92.0322 29.5762 92.9277 28.4316 92.9277 26.4697H92.9277Z" fill="white"/>
<path d="M96.3516 21.9425H98.124V23.4835H98.167C98.287 23.0022 98.5689 22.5769 98.9655 22.279C99.3621 21.9811 99.8491 21.8288 100.345 21.8478C100.559 21.847 100.773 21.8703 100.981 21.9171V23.6554C100.711 23.5728 100.429 23.5348 100.146 23.5431C99.8765 23.5321 99.6074 23.5797 99.3575 23.6826C99.1077 23.7855 98.883 23.9412 98.6991 24.1391C98.5151 24.337 98.3761 24.5724 98.2917 24.8291C98.2073 25.0857 98.1794 25.3576 98.21 25.6261V30.9962H96.3516L96.3516 21.9425Z" fill="white"/>
<path d="M109.55 28.3369C109.3 29.9805 107.699 31.1084 105.651 31.1084C103.018 31.1084 101.383 29.3437 101.383 26.5127C101.383 23.6729 103.026 21.8311 105.573 21.8311C108.078 21.8311 109.653 23.5518 109.653 26.2969V26.9336H103.259V27.0459C103.229 27.3791 103.271 27.7148 103.381 28.0306C103.491 28.3464 103.667 28.6352 103.898 28.8778C104.128 29.1203 104.408 29.3111 104.717 29.4374C105.027 29.5637 105.36 29.6226 105.694 29.6103C106.134 29.6515 106.574 29.5498 106.951 29.3203C107.328 29.0909 107.62 28.746 107.785 28.3369L109.55 28.3369ZM103.268 25.6348H107.794C107.811 25.3352 107.765 25.0354 107.661 24.7541C107.556 24.4729 107.394 24.2164 107.186 24.0006C106.977 23.7849 106.726 23.6145 106.449 23.5003C106.171 23.3861 105.873 23.3305 105.573 23.3369C105.271 23.3351 104.971 23.3933 104.691 23.508C104.411 23.6227 104.156 23.7918 103.942 24.0054C103.727 24.2191 103.557 24.473 103.442 24.7527C103.326 25.0323 103.267 25.3321 103.268 25.6348V25.6348Z" fill="white"/>
<path d="M37.9951 9.23065C38.3847 9.20269 38.7757 9.26155 39.1398 9.40298C39.5039 9.54441 39.8321 9.76489 40.1007 10.0485C40.3693 10.3321 40.5716 10.6718 40.693 11.0431C40.8144 11.4144 40.8519 11.808 40.8027 12.1955C40.8027 14.1017 39.7725 15.1975 37.9951 15.1975H35.8398V9.23065H37.9951ZM36.7666 14.3536H37.8916C38.17 14.3703 38.4486 14.3246 38.7071 14.22C38.9657 14.1154 39.1976 13.9545 39.3861 13.7489C39.5746 13.5433 39.7149 13.2983 39.7968 13.0317C39.8786 12.7651 39.9 12.4836 39.8594 12.2076C39.8971 11.9328 39.8735 11.653 39.7904 11.3884C39.7073 11.1237 39.5667 10.8807 39.3786 10.6768C39.1905 10.4729 38.9597 10.313 38.7026 10.2088C38.4455 10.1046 38.1686 10.0585 37.8916 10.0739H36.7666V14.3536Z" fill="white"/>
<path d="M41.8499 12.944C41.8216 12.6481 41.8554 12.3496 41.9493 12.0675C42.0431 11.7854 42.1949 11.5261 42.3948 11.3061C42.5948 11.0861 42.8385 10.9103 43.1103 10.7901C43.3822 10.6698 43.6762 10.6077 43.9734 10.6077C44.2707 10.6077 44.5647 10.6698 44.8365 10.7901C45.1084 10.9103 45.3521 11.0861 45.552 11.3061C45.752 11.5261 45.9037 11.7854 45.9976 12.0675C46.0914 12.3496 46.1253 12.6481 46.097 12.944C46.1258 13.2403 46.0924 13.5392 45.9988 13.8218C45.9052 14.1043 45.7535 14.3641 45.5535 14.5845C45.3535 14.8049 45.1096 14.9811 44.8375 15.1016C44.5654 15.2221 44.271 15.2844 43.9734 15.2844C43.6758 15.2844 43.3815 15.2221 43.1093 15.1016C42.8372 14.9811 42.5933 14.8049 42.3933 14.5845C42.1933 14.3641 42.0417 14.1043 41.9481 13.8218C41.8545 13.5392 41.821 13.2403 41.8499 12.944ZM45.1829 12.944C45.1829 11.968 44.7444 11.3972 43.9749 11.3972C43.2024 11.3972 42.7679 11.968 42.7679 12.9441C42.7679 13.9279 43.2025 14.4943 43.9749 14.4943C44.7444 14.4943 45.1829 13.924 45.1829 12.944H45.1829Z" fill="white"/>
<path d="M51.7422 15.1975H50.8203L49.8897 11.8811H49.8193L48.8926 15.1975H47.9795L46.7383 10.6946H47.6397L48.4463 14.1306H48.5127L49.4385 10.6946H50.291L51.2168 14.1306H51.2871L52.0898 10.6946H52.9785L51.7422 15.1975Z" fill="white"/>
<path d="M54.0215 10.6946H54.877V11.41H54.9434C55.056 11.153 55.246 10.9377 55.4869 10.7939C55.7278 10.65 56.0075 10.585 56.2871 10.6077C56.5062 10.5912 56.7262 10.6243 56.9308 10.7044C57.1354 10.7845 57.3194 10.9096 57.469 11.0704C57.6187 11.2313 57.7303 11.4237 57.7955 11.6335C57.8607 11.8434 57.8779 12.0652 57.8457 12.2825V15.1975H56.957V12.5057C56.957 11.782 56.6426 11.4222 55.9854 11.4222C55.8366 11.4152 55.6881 11.4406 55.55 11.4964C55.412 11.5522 55.2876 11.6372 55.1855 11.7456C55.0834 11.854 55.0059 11.9832 54.9584 12.1243C54.9108 12.2655 54.8944 12.4152 54.9102 12.5633V15.1976H54.0215L54.0215 10.6946Z" fill="white"/>
<path d="M59.2617 8.93677H60.1504V15.1975H59.2617V8.93677Z" fill="white"/>
<path d="M61.387 12.9441C61.3587 12.6482 61.3926 12.3496 61.4864 12.0675C61.5803 11.7854 61.7321 11.5261 61.932 11.3061C62.132 11.0861 62.3757 10.9104 62.6476 10.7901C62.9195 10.6698 63.2135 10.6077 63.5108 10.6077C63.808 10.6077 64.1021 10.6698 64.3739 10.7901C64.6458 10.9104 64.8895 11.0861 65.0895 11.3061C65.2894 11.5261 65.4412 11.7854 65.5351 12.0675C65.6289 12.3496 65.6628 12.6482 65.6345 12.9441C65.6633 13.2404 65.6299 13.5393 65.5362 13.8219C65.4426 14.1044 65.2909 14.3642 65.0909 14.5846C64.8909 14.805 64.647 14.9811 64.3749 15.1017C64.1027 15.2222 63.8084 15.2845 63.5108 15.2845C63.2131 15.2845 62.9188 15.2222 62.6466 15.1017C62.3745 14.9811 62.1306 14.805 61.9306 14.5846C61.7306 14.3642 61.5789 14.1044 61.4853 13.8219C61.3916 13.5393 61.3582 13.2404 61.387 12.9441ZM64.72 12.9441C64.72 11.9681 64.2815 11.3973 63.512 11.3973C62.7395 11.3973 62.305 11.9681 62.305 12.9441C62.305 13.928 62.7395 14.4944 63.512 14.4944C64.2815 14.4944 64.72 13.9241 64.72 12.9441H64.72Z" fill="white"/>
<path d="M66.5703 13.9241C66.5703 13.1135 67.1738 12.6462 68.2451 12.5798L69.4648 12.5095V12.1208C69.4648 11.6453 69.1504 11.3767 68.543 11.3767C68.0469 11.3767 67.7031 11.5588 67.6045 11.8772H66.7441C66.835 11.1038 67.5625 10.6077 68.584 10.6077C69.7129 10.6077 70.3496 11.1697 70.3496 12.1208V15.1975H69.4941V14.5647H69.4238C69.2811 14.7917 69.0807 14.9767 68.8431 15.1009C68.6055 15.2252 68.3391 15.2841 68.0713 15.2717C67.8823 15.2914 67.6912 15.2712 67.5104 15.2125C67.3297 15.1538 67.1632 15.0579 67.0218 14.9309C66.8804 14.8039 66.7671 14.6487 66.6894 14.4753C66.6116 14.3019 66.5711 14.1141 66.5703 13.9241ZM69.4648 13.5393V13.1628L68.3652 13.2331C67.7451 13.2746 67.4639 13.4856 67.4639 13.8826C67.4639 14.2878 67.8154 14.5237 68.2989 14.5237C68.4405 14.538 68.5836 14.5237 68.7196 14.4816C68.8556 14.4395 68.9817 14.3705 69.0905 14.2787C69.1993 14.1868 69.2885 14.074 69.3528 13.947C69.4171 13.82 69.4552 13.6813 69.4648 13.5393Z" fill="white"/>
<path d="M71.5176 12.9441C71.5176 11.5213 72.249 10.6199 73.3867 10.6199C73.6681 10.6069 73.9474 10.6743 74.192 10.8142C74.4365 10.9541 74.6361 11.1607 74.7676 11.4099H74.834V8.93677H75.7227V15.1975H74.8711V14.4861H74.8008C74.6592 14.7336 74.4526 14.9376 74.2033 15.0761C73.9541 15.2146 73.6717 15.2822 73.3867 15.2717C72.2412 15.2718 71.5176 14.3704 71.5176 12.9441ZM72.4356 12.9441C72.4356 13.8992 72.8858 14.4739 73.6387 14.4739C74.3877 14.4739 74.8506 13.8909 74.8506 12.948C74.8506 12.0095 74.3829 11.4182 73.6387 11.4182C72.8906 11.4182 72.4355 11.9968 72.4355 12.9441H72.4356Z" fill="white"/>
<path d="M79.3987 12.944C79.3704 12.6481 79.4043 12.3496 79.4981 12.0675C79.5919 11.7854 79.7437 11.5261 79.9436 11.3061C80.1436 11.0861 80.3873 10.9103 80.6591 10.7901C80.931 10.6698 81.225 10.6077 81.5223 10.6077C81.8195 10.6077 82.1135 10.6698 82.3854 10.7901C82.6572 10.9103 82.9009 11.0861 83.1009 11.3061C83.3008 11.5261 83.4526 11.7854 83.5464 12.0675C83.6402 12.3496 83.6741 12.6481 83.6458 12.944C83.6746 13.2403 83.6412 13.5392 83.5476 13.8218C83.454 14.1043 83.3023 14.3641 83.1023 14.5845C82.9023 14.8049 82.6585 14.9811 82.3863 15.1016C82.1142 15.2221 81.8199 15.2844 81.5223 15.2844C81.2246 15.2844 80.9303 15.2221 80.6582 15.1016C80.386 14.9811 80.1422 14.8049 79.9422 14.5845C79.7422 14.3641 79.5905 14.1043 79.4969 13.8218C79.4033 13.5392 79.3699 13.2403 79.3987 12.944ZM82.7317 12.944C82.7317 11.968 82.2932 11.3972 81.5237 11.3972C80.7513 11.3972 80.3167 11.968 80.3167 12.9441C80.3167 13.9279 80.7513 14.4943 81.5237 14.4943C82.2932 14.4943 82.7317 13.924 82.7317 12.944Z" fill="white"/>
<path d="M84.8379 10.6946H85.6934V11.41H85.7598C85.8724 11.153 86.0624 10.9377 86.3033 10.7939C86.5442 10.65 86.8239 10.585 87.1035 10.6077C87.3226 10.5912 87.5426 10.6243 87.7472 10.7044C87.9518 10.7845 88.1358 10.9096 88.2855 11.0704C88.4351 11.2313 88.5467 11.4237 88.6119 11.6335C88.6771 11.8434 88.6943 12.0652 88.6621 12.2825V15.1975H87.7734V12.5057C87.7734 11.782 87.459 11.4222 86.8018 11.4222C86.653 11.4152 86.5045 11.4406 86.3664 11.4964C86.2284 11.5522 86.104 11.6372 86.0019 11.7456C85.8998 11.854 85.8223 11.9832 85.7748 12.1243C85.7273 12.2655 85.7108 12.4152 85.7266 12.5633V15.1976H84.8379V10.6946Z" fill="white"/>
<path d="M93.6846 9.57349V10.7151H94.6602V11.4636H93.6846V13.7791C93.6846 14.2507 93.8789 14.4573 94.3213 14.4573C94.4345 14.4569 94.5477 14.4501 94.6602 14.4368V15.177C94.5006 15.2055 94.3389 15.2207 94.1768 15.2224C93.1885 15.2224 92.7949 14.8747 92.7949 14.0066V11.4636H92.0801V10.715H92.7949V9.57349H93.6846Z" fill="white"/>
<path d="M95.873 8.93677H96.7539V11.4182H96.8242C96.9423 11.1589 97.1376 10.9423 97.3833 10.798C97.629 10.6536 97.9132 10.5885 98.1972 10.6116C98.4152 10.5997 98.6331 10.6361 98.8353 10.7181C99.0376 10.8002 99.2193 10.9259 99.3674 11.0862C99.5155 11.2465 99.6265 11.4376 99.6922 11.6457C99.758 11.8539 99.7771 12.0739 99.748 12.2903V15.1975H98.8584V12.5095C98.8584 11.7903 98.5234 11.426 97.8955 11.426C97.7428 11.4135 97.5892 11.4345 97.4454 11.4875C97.3016 11.5406 97.1712 11.6244 97.0632 11.7332C96.9552 11.8419 96.8723 11.9729 96.8202 12.1171C96.7681 12.2612 96.7482 12.415 96.7618 12.5676V15.1975H95.8731L95.873 8.93677Z" fill="white"/>
<path d="M104.929 13.9818C104.809 14.3933 104.547 14.7493 104.19 14.9874C103.834 15.2256 103.405 15.3307 102.978 15.2845C102.682 15.2923 102.387 15.2355 102.114 15.118C101.842 15.0004 101.598 14.825 101.4 14.6039C101.202 14.3827 101.055 14.1212 100.968 13.8374C100.881 13.5535 100.858 13.2543 100.898 12.9603C100.859 12.6654 100.883 12.3655 100.969 12.0808C101.056 11.7961 101.203 11.5334 101.399 11.3103C101.596 11.0872 101.839 10.909 102.11 10.7878C102.382 10.6666 102.677 10.6052 102.974 10.6077C104.227 10.6077 104.983 11.4637 104.983 12.8777V13.1878H101.803V13.2376C101.789 13.4029 101.81 13.5692 101.864 13.726C101.918 13.8827 102.005 14.0264 102.118 14.1479C102.231 14.2693 102.368 14.3658 102.52 14.4312C102.672 14.4966 102.837 14.5295 103.003 14.5276C103.215 14.5532 103.431 14.5149 103.621 14.4177C103.812 14.3205 103.97 14.1687 104.074 13.9817L104.929 13.9818ZM101.803 12.5306H104.078C104.089 12.3795 104.068 12.2277 104.017 12.0849C103.967 11.9422 103.886 11.8117 103.782 11.7019C103.677 11.592 103.551 11.5052 103.411 11.4471C103.271 11.3889 103.121 11.3606 102.969 11.3641C102.816 11.3622 102.663 11.391 102.521 11.449C102.378 11.5069 102.249 11.5928 102.14 11.7015C102.032 11.8102 101.946 11.9396 101.888 12.082C101.83 12.2244 101.801 12.3769 101.803 12.5306H101.803Z" fill="white"/>
</g>
<defs>
<clipPath id="clip0_92_5678">
<rect width="119.664" height="40" fill="white" transform="translate(0.167969 0.5)"/>
</clipPath>
</defs>
</svg>
