<svg width="24" height="25" viewBox="0 0 24 25" fill="none" xmlns="http://www.w3.org/2000/svg">
<path d="M12 10.25H4C4.0625 7.9375 5.28125 5.90625 7.09375 4.71875C7.5 4.4375 8.03125 4.5625 8.3125 4.96875L12 10.25ZM16 9.25C16 8.15625 16.875 7.25 18 7.25H19C19.5312 7.25 20 7.71875 20 8.25C20 8.8125 19.5312 9.25 19 9.25H18V11.25C18 12.0625 17.8125 12.8438 17.4688 13.5625C17.0938 14.2812 16.5938 14.9375 15.9375 15.5C15.2812 16.0625 14.5 16.5 13.6562 16.8125C12.8125 17.0938 11.9062 17.25 11 17.25C10.0625 17.25 9.15625 17.0938 8.3125 16.8125C7.46875 16.5 6.6875 16.0625 6.03125 15.5C5.375 14.9375 4.875 14.2812 4.53125 13.5625C4.15625 12.8438 4 12.0625 4 11.25H11H16V9.25ZM6.5 17.25C7.03125 17.25 7.5 17.5625 7.78125 18C8.0625 18.4688 8.0625 19.0625 7.78125 19.5C7.5 19.9688 7.03125 20.25 6.5 20.25C5.9375 20.25 5.46875 19.9688 5.1875 19.5C4.90625 19.0625 4.90625 18.4688 5.1875 18C5.46875 17.5625 5.9375 17.25 6.5 17.25ZM14 18.75C14 18.2188 14.2812 17.75 14.75 17.4688C15.1875 17.1875 15.7812 17.1875 16.25 17.4688C16.6875 17.75 17 18.2188 17 18.75C17 19.3125 16.6875 19.7812 16.25 20.0625C15.7812 20.3438 15.1875 20.3438 14.75 20.0625C14.2812 19.7812 14 19.3125 14 18.75Z" fill="#6D5FF0"/>
</svg>
