<svg width="24" height="25" viewBox="0 0 24 25" fill="none" xmlns="http://www.w3.org/2000/svg">
<path d="M8.3125 4.96875L12 10.25H16.5V9C16.5 8.0625 17.2812 7.25 18.25 7.25H19.25C19.6562 7.25 20 7.59375 20 8C20 8.4375 19.6562 8.75 19.25 8.75H18.25C18.0938 8.75 18 8.875 18 9V10.25V11.25C18 12.125 17.7812 13 17.4375 13.8125C17.0625 14.5938 16.5312 15.3125 15.875 15.9062C15.2188 16.5 14.4688 16.9688 13.625 17.2812C12.7812 17.5938 11.875 17.75 11 17.75C10.0938 17.75 9.1875 17.5938 8.34375 17.2812C7.5 16.9688 6.75 16.5 6.09375 15.9062C5.4375 15.3125 4.90625 14.5938 4.53125 13.8125C4.1875 13 4 12.125 4 11.25V10.25C4.0625 7.9375 5.28125 5.90625 7.09375 4.71875C7.5 4.4375 8.03125 4.5625 8.3125 4.96875ZM6.5 17.25C7.03125 17.25 7.5 17.5625 7.78125 18C8.0625 18.4688 8.0625 19.0625 7.78125 19.5C7.5 19.9688 7.03125 20.25 6.5 20.25C5.9375 20.25 5.46875 19.9688 5.1875 19.5C4.90625 19.0625 4.90625 18.4688 5.1875 18C5.46875 17.5625 5.9375 17.25 6.5 17.25ZM14 18.75C14 18.2188 14.2812 17.75 14.75 17.4688C15.1875 17.1875 15.7812 17.1875 16.25 17.4688C16.6875 17.75 17 18.2188 17 18.75C17 19.3125 16.6875 19.7812 16.25 20.0625C15.7812 20.3438 15.1875 20.3438 14.75 20.0625C14.2812 19.7812 14 19.3125 14 18.75ZM5.75 12.75C5.78125 12.9062 5.84375 13.0312 5.90625 13.1875C6.1875 13.7812 6.59375 14.3438 7.09375 14.8125C7.625 15.25 8.21875 15.625 8.875 15.875C9.5625 16.125 10.25 16.25 11 16.25C11.7188 16.25 12.4375 16.125 13.0938 15.875C13.75 15.625 14.375 15.25 14.875 14.8125C15.375 14.3438 15.7812 13.7812 16.0625 13.1875C16.125 13.0312 16.1875 12.9062 16.25 12.75C16.3438 12.4375 16.4375 12.0938 16.4688 11.75H5.5C5.5625 12.0938 5.625 12.4375 5.75 12.75Z" fill="#6D5FF0"/>
</svg>
