<svg width="25" height="26" viewBox="0 0 25 26" fill="none" xmlns="http://www.w3.org/2000/svg">
<path d="M7.89062 3.89844L12.5 10.5H18.125V8.9375C18.125 7.76562 19.1016 6.75 20.3125 6.75H21.5625C22.0703 6.75 22.5 7.17969 22.5 7.6875C22.5 8.23438 22.0703 8.625 21.5625 8.625H20.3125C20.1172 8.625 20 8.78125 20 8.9375V10.5V11.75C20 12.8438 19.7266 13.9375 19.2969 14.9531C18.8281 15.9297 18.1641 16.8281 17.3438 17.5703C16.5234 18.3125 15.5859 18.8984 14.5312 19.2891C13.4766 19.6797 12.3438 19.875 11.25 19.875C10.1172 19.875 8.98438 19.6797 7.92969 19.2891C6.875 18.8984 5.9375 18.3125 5.11719 17.5703C4.29688 16.8281 3.63281 15.9297 3.16406 14.9531C2.73438 13.9375 2.5 12.8438 2.5 11.75V10.5C2.57812 7.60938 4.10156 5.07031 6.36719 3.58594C6.875 3.23438 7.53906 3.39062 7.89062 3.89844ZM5.625 19.25C6.28906 19.25 6.875 19.6406 7.22656 20.1875C7.57812 20.7734 7.57812 21.5156 7.22656 22.0625C6.875 22.6484 6.28906 23 5.625 23C4.92188 23 4.33594 22.6484 3.98438 22.0625C3.63281 21.5156 3.63281 20.7734 3.98438 20.1875C4.33594 19.6406 4.92188 19.25 5.625 19.25ZM15 21.125C15 20.4609 15.3516 19.875 15.9375 19.5234C16.4844 19.1719 17.2266 19.1719 17.8125 19.5234C18.3594 19.875 18.75 20.4609 18.75 21.125C18.75 21.8281 18.3594 22.4141 17.8125 22.7656C17.2266 23.1172 16.4844 23.1172 15.9375 22.7656C15.3516 22.4141 15 21.8281 15 21.125ZM4.6875 13.625C4.72656 13.8203 4.80469 13.9766 4.88281 14.1719C5.23438 14.9141 5.74219 15.6172 6.36719 16.2031C7.03125 16.75 7.77344 17.2188 8.59375 17.5312C9.45312 17.8438 10.3125 18 11.25 18C12.1484 18 13.0469 17.8438 13.8672 17.5312C14.6875 17.2188 15.4688 16.75 16.0938 16.2031C16.7188 15.6172 17.2266 14.9141 17.5781 14.1719C17.6562 13.9766 17.7344 13.8203 17.8125 13.625C17.9297 13.2344 18.0469 12.8047 18.0859 12.375H4.375C4.45312 12.8047 4.53125 13.2344 4.6875 13.625Z" fill="#6D5FF0"/>
</svg>
