<svg width="25" height="25" viewBox="0 0 25 25" fill="none" xmlns="http://www.w3.org/2000/svg">
<path d="M1.25 3.4375C1.25 2.92969 1.64062 2.5 2.1875 2.5H3.94531C4.80469 2.5 5.58594 3.00781 5.9375 3.75H21.9922C23.0078 3.75 23.75 4.72656 23.4766 5.74219L21.875 11.6797C21.5625 12.9297 20.4297 13.75 19.1797 13.75H7.89062L8.125 14.8828C8.20312 15.3125 8.59375 15.625 9.02344 15.625H20.3125C20.8203 15.625 21.25 16.0547 21.25 16.5625C21.25 17.1094 20.8203 17.5 20.3125 17.5H9.02344C7.69531 17.5 6.52344 16.5625 6.28906 15.2344L4.25781 4.64844C4.21875 4.49219 4.10156 4.375 3.94531 4.375H2.1875C1.64062 4.375 1.25 3.98438 1.25 3.4375ZM6.25 20.625C6.25 19.9609 6.60156 19.375 7.1875 19.0234C7.73438 18.6719 8.47656 18.6719 9.0625 19.0234C9.60938 19.375 10 19.9609 10 20.625C10 21.3281 9.60938 21.9141 9.0625 22.2656C8.47656 22.6172 7.73438 22.6172 7.1875 22.2656C6.60156 21.9141 6.25 21.3281 6.25 20.625ZM19.375 18.75C20.0391 18.75 20.625 19.1406 20.9766 19.6875C21.3281 20.2734 21.3281 21.0156 20.9766 21.5625C20.625 22.1484 20.0391 22.5 19.375 22.5C18.6719 22.5 18.0859 22.1484 17.7344 21.5625C17.3828 21.0156 17.3828 20.2734 17.7344 19.6875C18.0859 19.1406 18.6719 18.75 19.375 18.75Z" fill="#6D5FF0"/>
</svg>
