<svg width="20" height="20" viewBox="0 0 20 20" fill="none" xmlns="http://www.w3.org/2000/svg">
<path d="M16.5 10C16.5 7.6875 15.25 5.5625 13.25 4.375C11.2188 3.21875 8.75 3.21875 6.75 4.375C4.71875 5.5625 3.5 7.6875 3.5 10C3.5 12.3438 4.71875 14.4688 6.75 15.6562C8.75 16.8125 11.2188 16.8125 13.25 15.6562C15.25 14.4688 16.5 12.3438 16.5 10ZM2 10C2 7.15625 3.5 4.53125 6 3.09375C8.46875 1.65625 11.5 1.65625 14 3.09375C16.4688 4.53125 18 7.15625 18 10C18 12.875 16.4688 15.5 14 16.9375C11.5 18.375 8.46875 18.375 6 16.9375C3.5 15.5 2 12.875 2 10ZM9.25 5.75C9.25 5.34375 9.5625 5 10 5C10.4062 5 10.75 5.34375 10.75 5.75V9.625L13.4062 11.375C13.75 11.625 13.8438 12.0938 13.625 12.4375C13.375 12.7812 12.9062 12.875 12.5625 12.625L9.5625 10.625C9.375 10.5 9.25 10.25 9.25 10V5.75Z" fill="#8A898C"/>
</svg>
