<svg width="32" height="32" viewBox="0 0 32 32" fill="none" xmlns="http://www.w3.org/2000/svg">
<path d="M0.5 16C0.5 7.43959 7.43959 0.5 16 0.5C24.5604 0.5 31.5 7.43959 31.5 16C31.5 24.5604 24.5604 31.5 16 31.5C7.43959 31.5 0.5 24.5604 0.5 16Z" fill="white"/>
<path d="M0.5 16C0.5 7.43959 7.43959 0.5 16 0.5C24.5604 0.5 31.5 7.43959 31.5 16C31.5 24.5604 24.5604 31.5 16 31.5C7.43959 31.5 0.5 24.5604 0.5 16Z" stroke="#D5D4D9"/>
<path d="M9 10.75C9 10.3438 9.3125 10 9.75 10H22.25C22.6562 10 23 10.3438 23 10.75C23 11.1875 22.6562 11.5 22.25 11.5H9.75C9.3125 11.5 9 11.1875 9 10.75ZM9 15.75C9 15.3438 9.3125 15 9.75 15H22.25C22.6562 15 23 15.3438 23 15.75C23 16.1875 22.6562 16.5 22.25 16.5H9.75C9.3125 16.5 9 16.1875 9 15.75ZM23 20.75C23 21.1875 22.6562 21.5 22.25 21.5H9.75C9.3125 21.5 9 21.1875 9 20.75C9 20.3438 9.3125 20 9.75 20H22.25C22.6562 20 23 20.3438 23 20.75Z" fill="#323233"/>
</svg>
