<svg width="24" height="25" viewBox="0 0 24 25" fill="none" xmlns="http://www.w3.org/2000/svg">
<path d="M12 5.25C12.25 5.25 12.5 5.3125 12.7188 5.40625L21.5 8.5625C21.7812 8.65625 22 8.9375 22 9.25C22 9.59375 21.7812 9.875 21.5 9.96875L12.7188 13.125C12.5 13.2188 12.25 13.25 11.9688 13.25C11.7188 13.25 11.4688 13.2188 11.25 13.125L6.25 11.3125C6.53125 11.0312 6.875 10.8125 7.25 10.6562L12.1562 8.71875C12.4375 8.625 12.5625 8.34375 12.4375 8.0625C12.3438 7.8125 12.0625 7.6875 11.8125 7.78125L6.90625 9.71875C6.28125 9.96875 5.75 10.3438 5.34375 10.8438C4.8125 11.5625 4.5 12.4375 4.5 13.375V14.1562C4.6875 14.5625 4.8125 15.0312 4.90625 15.4688C5.09375 16.3125 5.25 17.5312 4.96875 18.875C4.9375 19 4.875 19.125 4.75 19.1875C4.625 19.25 4.5 19.2812 4.375 19.25L2.375 18.75C2.1875 18.7188 2.0625 18.5938 2 18.4375C1.96875 18.2812 2 18.0938 2.09375 17.9688C2.34375 17.5938 2.59375 17.1875 2.78125 16.7812C3.15625 16.0625 3.5 15.1562 3.5 14.25V13.375C3.5 12.375 3.78125 11.4375 4.28125 10.625L2.46875 9.96875C2.1875 9.875 2 9.59375 2 9.25C2 8.9375 2.1875 8.65625 2.46875 8.5625L11.25 5.40625C11.4688 5.3125 11.7188 5.25 12 5.25ZM6 17L6.46875 12.4688L10.9062 14.0625C11.25 14.1875 11.625 14.25 12 14.25C12.3438 14.25 12.7188 14.1875 13.0625 14.0625L17.5 12.4688L18 17C18 18.125 15.3125 19.25 12 19.25C8.6875 19.25 6 18.125 6 17Z" fill="#6D5FF0"/>
</svg>
