<svg width="24" height="25" viewBox="0 0 24 25" fill="none" xmlns="http://www.w3.org/2000/svg">
<path d="M12 6.75C11.9062 6.75 11.8438 6.78125 11.75 6.8125L4.9375 9.25L6.34375 9.78125C6.5 9.6875 6.65625 9.625 6.8125 9.5625L11.8125 7.6875C12.0625 7.59375 12.375 7.71875 12.4688 8C12.5625 8.25 12.4375 8.53125 12.1562 8.625L7.75 10.2812L11.75 11.7188C11.8438 11.75 11.9062 11.75 12 11.75C12.0625 11.75 12.1562 11.75 12.2188 11.7188L19.0312 9.25L12.2188 6.8125C12.1562 6.78125 12.0625 6.75 12 6.75ZM2.46875 9.96875C2.1875 9.875 2 9.59375 2 9.25C2 8.9375 2.1875 8.65625 2.46875 8.5625L11.25 5.40625C11.4688 5.3125 11.7188 5.25 12 5.25C12.25 5.25 12.5 5.3125 12.7188 5.40625L21.5 8.5625C21.7812 8.65625 22 8.9375 22 9.25C22 9.59375 21.7812 9.875 21.5 9.96875L12.7188 13.125C12.5 13.2188 12.25 13.2812 12 13.2812C11.7188 13.2812 11.4688 13.2188 11.25 13.125L5.9375 11.2188C5.09375 11.9688 4.5625 13 4.5 14.1562C4.6875 14.5938 4.8125 15.0312 4.90625 15.4688C5.09375 16.3125 5.25 17.5312 4.96875 18.875C4.9375 19 4.875 19.125 4.75 19.1875C4.625 19.25 4.5 19.2812 4.375 19.25L2.375 18.75C2.1875 18.7188 2.0625 18.5938 2 18.4375C1.96875 18.2812 2 18.0938 2.09375 17.9688C2.34375 17.5938 2.59375 17.1875 2.78125 16.7812C3.15625 16.0625 3.5 15.1562 3.5 14.25V14.2188C3.53125 12.9375 4.0625 11.75 4.90625 10.8438L2.46875 9.96875ZM17.5 12.4688L18 17C18 18.125 15.3125 19.25 12 19.25C8.6875 19.25 6 18.125 6 17L6.46875 12.4688L7.90625 13L7.53125 16.75C7.65625 16.875 7.90625 17 8.28125 17.1562C9.1875 17.5 10.5 17.75 12 17.75C13.5 17.75 14.8125 17.5 15.6875 17.1562C16.0625 17 16.3125 16.875 16.4375 16.75L16.0625 13L17.5 12.4688ZM16.5938 16.625C16.5938 16.6562 16.5938 16.6562 16.5625 16.6562C16.5625 16.625 16.5625 16.625 16.5625 16.625V16.5938C16.5938 16.5938 16.5938 16.625 16.5938 16.625ZM7.375 16.625C7.375 16.5938 7.375 16.5938 7.40625 16.5938V16.625C7.4375 16.625 7.4375 16.625 7.40625 16.6562C7.375 16.6562 7.375 16.6562 7.375 16.625Z" fill="#6D5FF0"/>
</svg>
