<svg width="26" height="26" viewBox="0 0 26 26" fill="none" xmlns="http://www.w3.org/2000/svg">
<path d="M13.5 6.125C13.3828 6.125 13.3047 6.16406 13.1875 6.20312L4.67188 9.25L6.42969 9.91406C6.625 9.79688 6.82031 9.71875 7.01562 9.64062L13.2656 7.29688C13.5781 7.17969 13.9688 7.33594 14.0859 7.6875C14.2031 8 14.0469 8.35156 13.6953 8.46875L8.1875 10.5391L13.1875 12.3359C13.3047 12.375 13.3828 12.375 13.5 12.375C13.5781 12.375 13.6953 12.375 13.7734 12.3359L22.2891 9.25L13.7734 6.20312C13.6953 6.16406 13.5781 6.125 13.5 6.125ZM1.58594 10.1484C1.23438 10.0312 1 9.67969 1 9.25C1 8.85938 1.23438 8.50781 1.58594 8.39062L12.5625 4.44531C12.8359 4.32812 13.1484 4.25 13.5 4.25C13.8125 4.25 14.125 4.32812 14.3984 4.44531L25.375 8.39062C25.7266 8.50781 26 8.85938 26 9.25C26 9.67969 25.7266 10.0312 25.375 10.1484L14.3984 14.0938C14.125 14.2109 13.8125 14.2891 13.5 14.2891C13.1484 14.2891 12.8359 14.2109 12.5625 14.0938L5.92188 11.7109C4.86719 12.6484 4.20312 13.9375 4.125 15.3828C4.35938 15.9297 4.51562 16.4766 4.63281 17.0234C4.86719 18.0781 5.0625 19.6016 4.71094 21.2812C4.67188 21.4375 4.59375 21.5938 4.4375 21.6719C4.28125 21.75 4.125 21.7891 3.96875 21.75L1.46875 21.125C1.23438 21.0859 1.07812 20.9297 1 20.7344C0.960938 20.5391 1 20.3047 1.11719 20.1484C1.42969 19.6797 1.74219 19.1719 1.97656 18.6641C2.44531 17.7656 2.875 16.6328 2.875 15.5V15.4609C2.91406 13.8594 3.57812 12.375 4.63281 11.2422L1.58594 10.1484ZM20.375 13.2734L21 18.9375C21 20.3438 17.6406 21.75 13.5 21.75C9.35938 21.75 6 20.3438 6 18.9375L6.58594 13.2734L8.38281 13.9375L7.91406 18.625C8.07031 18.7812 8.38281 18.9375 8.85156 19.1328C9.98438 19.5625 11.625 19.875 13.5 19.875C15.375 19.875 17.0156 19.5625 18.1094 19.1328C18.5781 18.9375 18.8906 18.7812 19.0469 18.625L18.5781 13.9375L20.375 13.2734ZM19.2422 18.4688C19.2422 18.5078 19.2422 18.5078 19.2031 18.5078C19.2031 18.4688 19.2031 18.4688 19.2031 18.4688V18.4297C19.2422 18.4297 19.2422 18.4688 19.2422 18.4688ZM7.71875 18.4688C7.71875 18.4297 7.71875 18.4297 7.75781 18.4297V18.4688C7.79688 18.4688 7.79688 18.4688 7.75781 18.5078C7.71875 18.5078 7.71875 18.5078 7.71875 18.4688Z" fill="#6D5FF0"/>
</svg>
