<svg width="27" height="22" viewBox="0 0 27 22" fill="none" xmlns="http://www.w3.org/2000/svg">
<path d="M2.48438 1.23438L6.85938 4.63281C8.61719 3.30469 10.8047 2.25 13.5 2.25C16.625 2.25 19.1641 3.69531 21 5.41406C22.8359 7.09375 24.0469 9.125 24.6328 10.5312C24.75 10.8438 24.75 11.1953 24.6328 11.5078C24.125 12.7578 23.0703 14.5547 21.5078 16.1172L25.6094 19.3594C26.0391 19.6719 26.1172 20.2578 25.7656 20.6484C25.4531 21.0781 24.8672 21.1562 24.4766 20.8047L1.35156 2.67969C0.921875 2.36719 0.84375 1.78125 1.19531 1.39062C1.50781 0.960938 2.09375 0.882812 2.48438 1.23438ZM8.38281 5.84375L10.1797 7.25C11.0781 6.46875 12.2109 6 13.5 6C16.2344 6 18.5 8.26562 18.5 11C18.5 11.8594 18.3047 12.6406 17.9141 13.3047L20.0234 14.9453C21.3906 13.6172 22.3281 12.0938 22.7969 11C22.2891 9.82812 21.2344 8.1875 19.7109 6.78125C18.1094 5.29688 16.0391 4.125 13.5 4.125C11.5078 4.125 9.82812 4.82812 8.38281 5.84375ZM16.3906 12.1328C16.5469 11.7812 16.625 11.3906 16.625 11C16.625 9.28125 15.2188 7.875 13.5 7.875C13.4609 7.875 13.4219 7.875 13.4219 7.875C13.4609 8.10938 13.5 8.30469 13.5 8.5C13.5 8.92969 13.3828 9.28125 13.2266 9.63281L16.3906 12.1328ZM16.7812 17.2109L18.4219 18.5C16.9766 19.2812 15.3359 19.75 13.5 19.75C10.3359 19.75 7.79688 18.3438 5.96094 16.625C4.125 14.9062 2.91406 12.875 2.32812 11.5078C2.21094 11.1953 2.21094 10.8438 2.32812 10.5312C2.71875 9.63281 3.34375 8.5 4.24219 7.32812L5.6875 8.5C4.98438 9.39844 4.47656 10.2969 4.16406 11C4.71094 12.1719 5.72656 13.8516 7.25 15.2578C8.85156 16.7422 10.9219 17.875 13.5 17.875C14.6719 17.875 15.7656 17.6406 16.7812 17.2109ZM8.5 11H8.46094C8.46094 10.9219 8.5 10.8047 8.5 10.6875L10.6875 12.4062C11.0781 13.2266 11.8594 13.8516 12.7969 14.0469L14.9844 15.8047C14.5156 15.9219 14.0078 16 13.5 16C10.7266 16 8.5 13.7734 8.5 11Z" fill="white"/>
</svg>
