<svg width="25" height="26" viewBox="0 0 25 26" fill="none" xmlns="http://www.w3.org/2000/svg">
<path d="M5.85938 6.125C5.42969 6.125 5.03906 6.4375 4.92188 6.90625L3.47656 13.1562C4.45312 12.8438 5.50781 12.6875 6.52344 12.6875C8.08594 12.6875 9.72656 13.0781 11.1719 13.7812C11.4062 13.8984 11.5625 14.0547 11.6797 14.25H13.2812C13.3984 14.0547 13.5938 13.8984 13.7891 13.7812C15.2344 13.0781 16.875 12.6875 18.4375 12.6875C19.4531 12.6875 20.5078 12.8828 21.4844 13.1562L20.0391 6.90625C19.9219 6.4375 19.5312 6.125 19.1016 6.125C18.9844 6.125 18.8672 6.16406 18.75 6.20312L17.5 6.71094C17.0312 6.90625 16.4844 6.67188 16.2891 6.16406C16.0938 5.69531 16.3281 5.14844 16.8359 4.95312L18.0469 4.48438C18.3984 4.32812 18.75 4.25 19.1016 4.25C20.4297 4.25 21.5625 5.1875 21.875 6.47656L23.5938 13.8203C23.6328 14.0938 23.7109 14.3672 23.7109 14.6797C23.7109 14.7578 23.75 14.8359 23.75 14.875V15.1094V15.1484V16.75C23.75 16.7891 23.75 16.7891 23.75 16.7891V17.375C23.75 19.7969 21.7969 21.75 19.375 21.75H17.6172C15.3125 21.75 13.3984 19.9531 13.2422 17.6484L13.2031 16.75H11.7578L11.7188 17.6484C11.5625 19.9531 9.64844 21.75 7.34375 21.75H5.625C3.20312 21.75 1.25 19.7969 1.25 17.375V16.75V15.1484V14.875C1.25 14.8359 1.25 14.7578 1.25 14.6797C1.28906 14.3672 1.32812 14.0938 1.40625 13.8203L3.08594 6.47656C3.39844 5.1875 4.53125 4.25 5.85938 4.25C6.21094 4.25 6.60156 4.32812 6.91406 4.48438L8.125 4.95312C8.63281 5.14844 8.86719 5.69531 8.67188 6.16406C8.47656 6.67188 7.92969 6.90625 7.46094 6.71094L6.21094 6.20312C6.09375 6.16406 5.97656 6.125 5.85938 6.125ZM3.125 16.75V17.375C3.125 18.7812 4.21875 19.875 5.625 19.875H7.34375C8.67188 19.875 9.76562 18.8594 9.84375 17.5312L9.96094 15.2656C8.90625 14.8359 7.69531 14.5625 6.52344 14.5625C5.39062 14.5625 4.17969 14.8359 3.125 15.3047V16.75ZM18.4375 14.5625C17.2656 14.5625 16.0547 14.8359 15 15.2656L15.1172 17.5312C15.1953 18.8594 16.2891 19.875 17.6172 19.875H19.375C20.7422 19.875 21.875 18.7812 21.875 17.375V15.3047C20.7812 14.8359 19.5703 14.5625 18.4375 14.5625Z" fill="#6D5FF0"/>
</svg>
