<svg width="24" height="25" viewBox="0 0 24 25" fill="none" xmlns="http://www.w3.org/2000/svg">
<path d="M6.6875 6.75C6.34375 6.75 6.03125 7 5.9375 7.375L4.78125 12.375C5.5625 12.125 6.40625 12 7.21875 12C8.46875 12 9.78125 12.3125 10.9375 12.875C11.125 12.9688 11.25 13.0938 11.3438 13.25H12.625C12.7188 13.0938 12.875 12.9688 13.0312 12.875C14.1875 12.3125 15.5 12 16.75 12C17.5625 12 18.4062 12.1562 19.1875 12.375L18.0312 7.375C17.9375 7 17.625 6.75 17.2812 6.75C17.1875 6.75 17.0938 6.78125 17 6.8125L16 7.21875C15.625 7.375 15.1875 7.1875 15.0312 6.78125C14.875 6.40625 15.0625 5.96875 15.4688 5.8125L16.4375 5.4375C16.7188 5.3125 17 5.25 17.2812 5.25C18.3438 5.25 19.25 6 19.5 7.03125L20.875 12.9062C20.9062 13.125 20.9688 13.3438 20.9688 13.5938C20.9688 13.6562 21 13.7188 21 13.75V13.9375V13.9688V15.25C21 15.2812 21 15.2812 21 15.2812V15.75C21 17.6875 19.4375 19.25 17.5 19.25H16.0938C14.25 19.25 12.7188 17.8125 12.5938 15.9688L12.5625 15.25H11.4062L11.375 15.9688C11.25 17.8125 9.71875 19.25 7.875 19.25H6.5C4.5625 19.25 3 17.6875 3 15.75V15.25V13.9688V13.75C3 13.7188 3 13.6562 3 13.5938C3.03125 13.3438 3.0625 13.125 3.125 12.9062L4.46875 7.03125C4.71875 6 5.625 5.25 6.6875 5.25C6.96875 5.25 7.28125 5.3125 7.53125 5.4375L8.5 5.8125C8.90625 5.96875 9.09375 6.40625 8.9375 6.78125C8.78125 7.1875 8.34375 7.375 7.96875 7.21875L6.96875 6.8125C6.875 6.78125 6.78125 6.75 6.6875 6.75ZM4.5 15.25V15.75C4.5 16.875 5.375 17.75 6.5 17.75H7.875C8.9375 17.75 9.8125 16.9375 9.875 15.875L9.96875 14.0625C9.125 13.7188 8.15625 13.5 7.21875 13.5C6.3125 13.5 5.34375 13.7188 4.5 14.0938V15.25ZM16.75 13.5C15.8125 13.5 14.8438 13.7188 14 14.0625L14.0938 15.875C14.1562 16.9375 15.0312 17.75 16.0938 17.75H17.5C18.5938 17.75 19.5 16.875 19.5 15.75V14.0938C18.625 13.7188 17.6562 13.5 16.75 13.5Z" fill="#6D5FF0"/>
</svg>
