<svg width="24" height="25" viewBox="0 0 24 25" fill="none" xmlns="http://www.w3.org/2000/svg">
<path d="M6.6875 6.75C6.34375 6.75 6.03125 7 5.9375 7.375L4.78125 12.4062C5.40625 12.2188 6.28125 12 7.21875 12C8.25 12 9.15625 12.2188 9.8125 12.4375C10.1562 12.5312 10.4062 12.6562 10.5938 12.7188C10.7188 12.75 10.7812 12.8125 10.8438 12.8125C10.875 12.8438 10.875 12.8438 10.9062 12.8438V12.875H10.9375C10.9375 12.875 10.9375 12.875 10.7188 13.25L10.9375 12.875C11.125 12.9688 11.25 13.0938 11.3438 13.25H12.625C12.7188 13.0938 12.875 12.9688 13.0312 12.875L13.25 13.25C13.0312 12.875 13.0312 12.875 13.0312 12.875H13.0625V12.8438C13.0938 12.8438 13.0938 12.8438 13.125 12.8125C13.1875 12.8125 13.2812 12.75 13.375 12.7188C13.5625 12.6562 13.8125 12.5312 14.1562 12.4375C14.8125 12.2188 15.7188 12 16.75 12C17.6875 12 18.5625 12.2188 19.2188 12.4062L18.0312 7.375C17.9375 7 17.625 6.75 17.2812 6.75C17.1875 6.75 17.0938 6.78125 17 6.8125L16 7.21875C15.625 7.375 15.1875 7.1875 15.0312 6.78125C14.875 6.40625 15.0625 5.96875 15.4688 5.8125L16.4375 5.4375C16.7188 5.3125 17 5.25 17.2812 5.25C18.3438 5.25 19.25 6 19.5 7.03125L20.875 12.9062C20.9062 13.125 20.9688 13.3438 20.9688 13.5938C20.9688 13.6562 21 13.7188 21 13.75V13.9688V15.25V15.75C21 17.6875 19.4375 19.25 17.5 19.25H16.0938C14.25 19.25 12.7188 17.8125 12.5938 15.9688L12.5625 15.25H11.4062L11.375 15.9688C11.25 17.8125 9.71875 19.25 7.875 19.25H6.5C4.5625 19.25 3 17.6875 3 15.75V15.25V13.9688V13.75C3 13.7188 3 13.6562 3 13.5938C3.03125 13.3438 3.0625 13.125 3.125 12.9062L4.46875 7.03125C4.71875 6 5.625 5.25 6.6875 5.25C6.96875 5.25 7.28125 5.3125 7.53125 5.4375L8.5 5.8125C8.90625 5.96875 9.09375 6.40625 8.9375 6.78125C8.78125 7.1875 8.34375 7.375 7.96875 7.21875L6.96875 6.8125C6.875 6.78125 6.78125 6.75 6.6875 6.75ZM5 14.4375V15.75C5 16.5938 5.65625 17.25 6.5 17.25H7.875C8.65625 17.25 9.3125 16.6562 9.375 15.8438L9.4375 14.4375C9.375 14.4062 9.28125 14.375 9.21875 14.3438C8.6875 14.1875 7.96875 14.0312 7.21875 14.0312C6.46875 14.0312 5.78125 14.1875 5.25 14.3438C5.15625 14.375 5.0625 14.4062 4.96875 14.4375H5ZM19 15.75V14.4375C18.9062 14.4062 18.8125 14.375 18.7188 14.3438C18.1875 14.1875 17.5 14 16.75 14C16 14 15.2812 14.1875 14.75 14.3438C14.6875 14.375 14.5938 14.4062 14.5312 14.4062L14.5938 15.8438C14.6562 16.625 15.3125 17.25 16.0938 17.25H17.5C18.3125 17.25 19 16.5938 19 15.75Z" fill="#6D5FF0"/>
</svg>
