<svg width="24" height="25" viewBox="0 0 24 25" fill="none" xmlns="http://www.w3.org/2000/svg">
<path d="M9.5 5V6.5C9.5 7.90625 10.5938 9 12 9C13.375 9 14.5 7.90625 14.5 6.5V5C14.5 4.59375 14.8125 4.25 15.25 4.25C15.6562 4.25 16 4.59375 16 5C16 9 16.8125 10.6562 17.2812 11.2812C17.5938 11.6875 18 12.3125 18 13.0312V18.25C18 19.375 17.0938 20.25 16 20.25H8C6.875 20.25 6 19.375 6 18.25V13.0312C6 12.3125 6.375 11.6875 6.6875 11.2812C7.15625 10.6562 8 9 8 5C8 4.59375 8.3125 4.25 8.75 4.25C9.15625 4.25 9.5 4.59375 9.5 5ZM9.09375 9.28125C8.78125 10.7188 8.3125 11.625 7.875 12.1875C7.625 12.5312 7.5 12.8125 7.5 13.0312V18.25C7.5 18.5312 7.71875 18.75 8 18.75H16C16.25 18.75 16.5 18.5312 16.5 18.25V13.0312C16.5 12.8125 16.3438 12.5312 16.0938 12.1875C15.6562 11.625 15.2188 10.7188 14.875 9.28125C14.1562 10.0312 13.125 10.5 12 10.5C10.8438 10.5 9.8125 10.0312 9.09375 9.28125Z" fill="#6D5FF0"/>
</svg>
