<svg width="25" height="26" viewBox="0 0 25 26" fill="none" xmlns="http://www.w3.org/2000/svg">
<path d="M9.375 3.9375V5.8125C9.375 7.57031 10.7422 8.9375 12.5 8.9375C14.2188 8.9375 15.625 7.57031 15.625 5.8125V3.9375C15.625 3.42969 16.0156 3 16.5625 3C17.0703 3 17.5 3.42969 17.5 3.9375C17.5 8.9375 18.5156 11.0078 19.1016 11.7891C19.4922 12.2969 20 13.0781 20 13.9766V20.5C20 21.9062 18.8672 23 17.5 23H7.5C6.09375 23 5 21.9062 5 20.5V13.9766C5 13.0781 5.46875 12.2969 5.85938 11.7891C6.44531 11.0078 7.5 8.9375 7.5 3.9375C7.5 3.42969 7.89062 3 8.4375 3C8.94531 3 9.375 3.42969 9.375 3.9375ZM8.86719 9.28906C8.47656 11.0859 7.89062 12.2188 7.34375 12.9219C7.03125 13.3516 6.875 13.7031 6.875 13.9766V20.5C6.875 20.8516 7.14844 21.125 7.5 21.125H17.5C17.8125 21.125 18.125 20.8516 18.125 20.5V13.9766C18.125 13.7031 17.9297 13.3516 17.6172 12.9219C17.0703 12.2188 16.5234 11.0859 16.0938 9.28906C15.1953 10.2266 13.9062 10.8125 12.5 10.8125C11.0547 10.8125 9.76562 10.2266 8.86719 9.28906Z" fill="#6D5FF0"/>
</svg>
