<svg width="14" height="17" viewBox="0 0 14 17" fill="none" xmlns="http://www.w3.org/2000/svg">
<path d="M4.96875 1.1875C5.21875 0.96875 5.59375 0.96875 5.84375 1.1875C6.6875 2 7.5 2.875 8.25 3.8125C8.59375 3.375 9 2.875 9.40625 2.46875C9.65625 2.25 10.0312 2.25 10.2812 2.46875C11.375 3.5 12.2812 4.875 12.9375 6.15625C13.5625 7.4375 14 8.75 14 9.65625C14 13.6562 10.875 17 7 17C3.0625 17 0 13.6562 0 9.65625C0 8.46875 0.53125 7 1.40625 5.53125C2.28125 4.0625 3.5 2.53125 4.96875 1.1875ZM7.03125 14C7.84375 14 8.53125 13.7812 9.1875 13.3438C10.5 12.4375 10.8438 10.5938 10.0625 9.15625C9.9375 8.875 9.5625 8.84375 9.375 9.09375L8.5625 10C8.375 10.25 8 10.25 7.8125 10C7.28125 9.34375 6.375 8.15625 5.84375 7.5C5.65625 7.25 5.28125 7.25 5.0625 7.5C4 8.8125 3.46875 9.65625 3.46875 10.5938C3.5 12.75 5.0625 14 7.03125 14Z" fill="#D44333"/>
</svg>
