<svg width="25" height="26" viewBox="0 0 25 26" fill="none" xmlns="http://www.w3.org/2000/svg">
<path d="M12.5 6.63281C11.6406 7.57031 10.4688 9.32812 9.80469 11.8672C9.29688 11.4766 8.75 11.125 8.16406 10.7734C9.21875 7.21875 11.25 5.10938 11.9531 4.48438C12.1094 4.32812 12.3047 4.25 12.5 4.25C12.6953 4.25 12.8906 4.32812 13.0469 4.48438C13.7109 5.10938 15.7422 7.21875 16.7969 10.7734C16.25 11.125 15.6641 11.4766 15.1562 11.8672C14.5312 9.32812 13.3203 7.57031 12.5 6.63281ZM8.75 21.3594C4.41406 20.0703 1.25 16.0469 1.25 11.3203C1.25 10.8516 1.60156 10.5 2.03125 10.5C4.41406 10.5 6.75781 11.2031 8.75 12.6484C10.3516 13.8203 11.6797 15.4219 12.5 17.2578C13.2812 15.4219 14.6094 13.8203 16.25 12.6484C18.2031 11.2031 20.5469 10.5 22.9297 10.5C23.3984 10.5 23.75 10.8516 23.75 11.3203C23.75 16.0469 20.5859 20.0703 16.25 21.3594C15.3516 21.5938 14.4141 21.75 13.4375 21.75H11.5625C10.5859 21.75 9.60938 21.5938 8.75 21.3594ZM8.75 19.3672C9.57031 19.6797 10.4297 19.8359 11.3672 19.875C10.9766 18.0391 10.0391 16.3594 8.75 15.0703C7.26562 13.625 5.35156 12.6875 3.16406 12.4531C3.59375 15.6562 5.78125 18.2734 8.75 19.3672ZM16.25 19.3672C19.1797 18.2734 21.3672 15.6562 21.7969 12.4531C19.6484 12.6875 17.6953 13.625 16.25 15.0703C14.9219 16.3594 13.9844 18.0391 13.5938 19.875C14.5312 19.8359 15.3906 19.6797 16.25 19.3672Z" fill="#6D5FF0"/>
</svg>
