<svg width="24" height="25" viewBox="0 0 24 25" fill="none" xmlns="http://www.w3.org/2000/svg">
<path d="M12 7.65625C11.3125 8.40625 10.375 9.8125 9.84375 11.8438C9.4375 11.5312 9 11.25 8.53125 10.9688C9.375 8.125 11 6.4375 11.5625 5.9375C11.6875 5.8125 11.8438 5.75 12 5.75C12.1562 5.75 12.3125 5.8125 12.4375 5.9375C12.9688 6.4375 14.5938 8.125 15.4375 10.9688C15 11.25 14.5312 11.5312 14.125 11.8438C13.625 9.8125 12.6562 8.40625 12 7.65625ZM9 19.4375C5.53125 18.4062 3 15.1875 3 11.4062C3 11.0312 3.28125 10.75 3.625 10.75C5.53125 10.75 7.40625 11.3125 9 12.4688C10.2812 13.4062 11.3438 14.6875 12 16.1562C12.625 14.6875 13.6875 13.4062 15 12.4688C16.5625 11.3125 18.4375 10.75 20.3438 10.75C20.7188 10.75 21 11.0312 21 11.4062C21 15.1875 18.4688 18.4062 15 19.4375C14.2812 19.625 13.5312 19.75 12.75 19.75H11.25C10.4688 19.75 9.6875 19.625 9 19.4375ZM9 17.8438C9.65625 18.0938 10.3438 18.2188 11.0938 18.25C10.7812 16.7812 10.0312 15.4375 9 14.4062C7.8125 13.25 6.28125 12.5 4.53125 12.3125C4.875 14.875 6.625 16.9688 9 17.8438ZM15 17.8438C17.3438 16.9688 19.0938 14.875 19.4375 12.3125C17.7188 12.5 16.1562 13.25 15 14.4062C13.9375 15.4375 13.1875 16.7812 12.875 18.25C13.625 18.2188 14.3125 18.0938 15 17.8438Z" fill="#6D5FF0"/>
</svg>
