<svg width="24" height="25" viewBox="0 0 24 25" fill="none" xmlns="http://www.w3.org/2000/svg">
<path d="M8.71875 12.125C9.75 12.75 10.6875 13.625 11.375 14.625C11.5938 14.9375 11.8125 15.2812 12 15.5938C12.1562 15.25 12.375 14.9375 12.5938 14.625C13.3125 13.625 14.2188 12.75 15.25 12.125C16.6562 11.25 18.3125 10.75 20.0625 10.75H20.3438C20.7188 10.75 21 11.0312 21 11.4062C21 16.0312 17.25 19.75 12.625 19.75H12H11.3438C6.71875 19.75 3 16.0312 3 11.4062C3 11.0312 3.28125 10.75 3.625 10.75H3.9375C5.65625 10.75 7.3125 11.25 8.71875 12.125ZM12.4062 5.9375C12.9062 6.46875 14.3125 8.1875 15.0312 11.0938C13.8438 11.75 12.8125 12.6562 12 13.75C11.1562 12.6562 10.125 11.75 8.9375 11.0938C9.65625 8.1875 11.0625 6.46875 11.5625 5.9375C11.6875 5.8125 11.8125 5.75 12 5.75C12.1562 5.75 12.3125 5.8125 12.4062 5.9375Z" fill="#6D5FF0"/>
</svg>
