<svg width="20" height="20" viewBox="0 0 20 20" fill="none" xmlns="http://www.w3.org/2000/svg">
<path d="M3.5 10V11.25C3.5 11.6875 3.15625 12 2.75 12C2.3125 12 2 11.6875 2 11.25V10C2 5.59375 5.5625 2 10 2C14.4062 2 18 5.59375 18 10V14.5312C18 16.0312 16.75 17.2812 15.25 17.2812L11.7812 17.25C11.5312 17.7188 11.0312 18 10.5 18H9.5C8.65625 18 8 17.3438 8 16.5C8 15.6875 8.65625 15 9.5 15H10.5C11.0312 15 11.5312 15.3125 11.7812 15.75L15.25 15.7812C15.9375 15.7812 16.5 15.2188 16.5 14.5312V10C16.5 6.4375 13.5625 3.5 10 3.5C6.40625 3.5 3.5 6.4375 3.5 10ZM7 9C6.4375 9 6 9.46875 6 10V11.5C6 12.0625 6.4375 12.5 7 12.5V9ZM4.5 10C4.5 8.625 5.59375 7.5 7 7.5H7.5C8.03125 7.5 8.5 7.96875 8.5 8.5V13C8.5 13.5625 8.03125 14 7.5 14H7C5.59375 14 4.5 12.9062 4.5 11.5V10ZM13 9V12.5C13.5312 12.5 14 12.0625 14 11.5V10C14 9.46875 13.5312 9 13 9ZM15.5 10V11.5C15.5 12.9062 14.375 14 13 14H12.5C11.9375 14 11.5 13.5625 11.5 13V8.5C11.5 7.96875 11.9375 7.5 12.5 7.5H13C14.375 7.5 15.5 8.625 15.5 10Z" fill="#8A898C"/>
</svg>
