<svg width="24" height="25" viewBox="0 0 24 25" fill="none" xmlns="http://www.w3.org/2000/svg">
<path d="M12.4688 4.9375L20.7188 11.9375C21.0312 12.2188 21.0625 12.6875 20.8125 13C20.5312 13.3125 20.0625 13.3438 19.75 13.0938L19 12.4375V18.25C19 19.6562 17.875 20.75 16.5 20.75H7.5C6.09375 20.75 5 19.6562 5 18.25V12.4375L4.21875 13.0938C3.90625 13.3438 3.4375 13.3125 3.15625 13C2.90625 12.6875 2.9375 12.2188 3.25 11.9375L11.5 4.9375C11.7812 4.71875 12.1875 4.71875 12.4688 4.9375ZM6.5 18.25C6.5 18.8125 6.9375 19.25 7.5 19.25H16.5C17.0312 19.25 17.5 18.8125 17.5 18.25V11.1562L12 6.5L6.5 11.1562V18.25ZM8.5 13.1875H8.46875C8.46875 12.125 9.34375 11.25 10.4062 11.25C10.9062 11.25 11.375 11.4688 11.75 11.8125L11.9688 12.0625L12.2188 11.8125C12.5625 11.4688 13.0625 11.25 13.5625 11.25C14.625 11.25 15.4688 12.125 15.4688 13.1875C15.4688 13.6875 15.2812 14.1875 14.9062 14.5312L12.3438 17.125C12.1562 17.3125 11.8125 17.3125 11.625 17.125L9.03125 14.5312C8.6875 14.1875 8.5 13.6875 8.5 13.1875Z" fill="#6D5FF0"/>
</svg>
