<svg width="25" height="26" viewBox="0 0 25 26" fill="none" xmlns="http://www.w3.org/2000/svg">
<path d="M13.0859 3.23438L23.3984 11.9844C23.7891 12.3359 23.8281 12.9219 23.5156 13.3125C23.1641 13.7031 22.5781 13.7422 22.1875 13.4297L21.25 12.6094V19.875C21.25 21.6328 19.8438 23 18.125 23H6.875C5.11719 23 3.75 21.6328 3.75 19.875V12.6094L2.77344 13.4297C2.38281 13.7422 1.79688 13.7031 1.44531 13.3125C1.13281 12.9219 1.17188 12.3359 1.5625 11.9844L11.875 3.23438C12.2266 2.96094 12.7344 2.96094 13.0859 3.23438ZM5.625 19.875C5.625 20.5781 6.17188 21.125 6.875 21.125H18.125C18.7891 21.125 19.375 20.5781 19.375 19.875V11.0078L12.5 5.1875L5.625 11.0078V19.875ZM8.125 13.5469H8.08594C8.08594 12.2188 9.17969 11.125 10.5078 11.125C11.1328 11.125 11.7188 11.3984 12.1875 11.8281L12.4609 12.1406L12.7734 11.8281C13.2031 11.3984 13.8281 11.125 14.4531 11.125C15.7812 11.125 16.8359 12.2188 16.8359 13.5469C16.8359 14.1719 16.6016 14.7969 16.1328 15.2266L12.9297 18.4688C12.6953 18.7031 12.2656 18.7031 12.0312 18.4688L8.78906 15.2266C8.35938 14.7969 8.125 14.1719 8.125 13.5469Z" fill="#6D5FF0"/>
</svg>
