<svg width="24" height="25" viewBox="0 0 24 25" fill="none" xmlns="http://www.w3.org/2000/svg">
<path d="M19.9688 13.75H18.9688L19 18.75C19 19.875 18.125 20.75 17 20.75H7C5.875 20.75 5 19.875 5 18.75V13.75H4C3.4375 13.75 3 13.3125 3 12.75C3 12.4688 3.09375 12.2188 3.3125 12L11.3125 5C11.5312 4.78125 11.7812 4.75 12 4.75C12.2188 4.75 12.4688 4.8125 12.6562 4.96875L20.625 12C20.875 12.2188 21 12.4688 20.9688 12.75C20.9688 13.3125 20.5 13.75 19.9688 13.75ZM8.5 13.1875C8.5 13.6875 8.6875 14.1875 9.0625 14.5312L11.625 17.125C11.8438 17.3125 12.1562 17.3125 12.3438 17.125L14.9375 14.5312C15.2812 14.1875 15.5 13.6875 15.5 13.1875C15.5 12.125 14.625 11.25 13.5625 11.25C13.0625 11.25 12.5625 11.4688 12.2188 11.8125L12 12.0625L11.75 11.8125C11.4062 11.4688 10.9062 11.25 10.4062 11.25C9.34375 11.25 8.5 12.125 8.5 13.1875Z" fill="#6D5FF0"/>
</svg>
