<svg width="24" height="25" viewBox="0 0 24 25" fill="none" xmlns="http://www.w3.org/2000/svg">
<path d="M14.2188 6.9375L16 6.25L16.6562 4.5C16.6875 4.34375 16.8438 4.25 17 4.25C17.125 4.25 17.2812 4.34375 17.3125 4.5L18 6.25L19.75 6.9375C19.9062 6.96875 20 7.125 20 7.25C20 7.40625 19.9062 7.5625 19.75 7.59375L18 8.25L17.3125 10.0312C17.2812 10.1562 17.125 10.25 17 10.25C16.8438 10.25 16.6875 10.1562 16.6562 10.0312L16 8.25L14.2188 7.59375C14.0938 7.5625 14 7.40625 14 7.25C14 7.125 14.0938 6.96875 14.2188 6.9375ZM4.28125 11.75L4.8125 11.5312L5.0625 11.4062H5.09375L7.84375 10.125L9.125 7.34375L9.25 7.09375L9.5 6.5625C9.5625 6.375 9.75 6.25 9.9375 6.25C10.125 6.25 10.3125 6.375 10.4062 6.5625L10.6562 7.09375L10.75 7.34375L10.7812 7.375L12.0312 10.125L14.8125 11.4062L15.0625 11.5312L15.5938 11.7812C15.7812 11.8438 15.9062 12.0312 15.9062 12.2188C15.9062 12.4062 15.7812 12.5938 15.5938 12.6875L15.0625 12.9062L14.8125 13.0312L12.0312 14.3125L10.75 17.0625V17.0938L10.625 17.3438L10.4062 17.875C10.3125 18.0625 10.125 18.1875 9.9375 18.1875C9.75 18.1875 9.5625 18.0625 9.5 17.875L9.25 17.3438L9.125 17.0938V17.0625L7.84375 14.3125L5.09375 13.0312H5.0625L4.8125 12.9062L4.28125 12.6875C4.09375 12.5938 4 12.4062 4 12.2188C4 12.0312 4.09375 11.8438 4.28125 11.75ZM6.875 12.2188L8.46875 12.9688C8.78125 13.0938 9.0625 13.375 9.21875 13.6875L9.9375 15.2812L10.6875 13.6875C10.8438 13.375 11.0938 13.0938 11.4062 12.9688L13 12.2188L11.4062 11.4688C11.0938 11.3438 10.8438 11.0625 10.6875 10.75L9.9375 9.15625L9.21875 10.75C9.0625 11.0625 8.78125 11.3438 8.46875 11.4688L6.875 12.2188ZM16 16.25L16.6562 14.5C16.6875 14.3438 16.8438 14.25 17 14.25C17.125 14.25 17.2812 14.3438 17.3125 14.5L18 16.25L19.75 16.9375C19.9062 16.9688 20 17.125 20 17.25C20 17.4062 19.9062 17.5625 19.75 17.5938L18 18.25L17.3125 20.0312C17.2812 20.1562 17.125 20.25 17 20.25C16.8438 20.25 16.6875 20.1562 16.6562 20.0312L16 18.25L14.2188 17.5938C14.0938 17.5625 14 17.4062 14 17.25C14 17.125 14.0938 16.9688 14.2188 16.9375L16 16.25Z" fill="#6D5FF0"/>
</svg>
