<svg width="25" height="26" viewBox="0 0 25 26" fill="none" xmlns="http://www.w3.org/2000/svg">
<path d="M15.2734 6.35938L17.5 5.5L18.3203 3.3125C18.3594 3.11719 18.5547 3 18.75 3C18.9062 3 19.1016 3.11719 19.1406 3.3125L20 5.5L22.1875 6.35938C22.3828 6.39844 22.5 6.59375 22.5 6.75C22.5 6.94531 22.3828 7.14062 22.1875 7.17969L20 8L19.1406 10.2266C19.1016 10.3828 18.9062 10.5 18.75 10.5C18.5547 10.5 18.3594 10.3828 18.3203 10.2266L17.5 8L15.2734 7.17969C15.1172 7.14062 15 6.94531 15 6.75C15 6.59375 15.1172 6.39844 15.2734 6.35938ZM10.5078 5.89062L12.5391 10.3438L16.9922 12.375C17.2266 12.4922 17.3828 12.7266 17.3828 12.9609C17.3828 13.1953 17.2266 13.4297 16.9922 13.5078L12.5391 15.5781L10.5078 20.0312C10.3906 20.2656 10.1562 20.4219 9.92188 20.4219C9.6875 20.4219 9.45312 20.2656 9.375 20.0312L7.30469 15.5781L2.85156 13.5469C2.61719 13.4297 2.5 13.1953 2.5 12.9609C2.5 12.7266 2.61719 12.4922 2.85156 12.375L7.30469 10.3438L9.375 5.89062C9.45312 5.65625 9.6875 5.5 9.92188 5.5C10.1562 5.5 10.3906 5.65625 10.5078 5.89062ZM17.5 18L18.3203 15.8125C18.3594 15.6172 18.5547 15.5 18.75 15.5C18.9062 15.5 19.1016 15.6172 19.1406 15.8125L20 18L22.1875 18.8594C22.3828 18.8984 22.5 19.0938 22.5 19.25C22.5 19.4453 22.3828 19.6406 22.1875 19.6797L20 20.5L19.1406 22.7266C19.1016 22.8828 18.9062 23 18.75 23C18.5547 23 18.3594 22.8828 18.3203 22.7266L17.5 20.5L15.2734 19.6797C15.1172 19.6406 15 19.4453 15 19.25C15 19.0938 15.1172 18.8984 15.2734 18.8594L17.5 18Z" fill="#6D5FF0"/>
</svg>
