<svg width="24" height="25" viewBox="0 0 24 25" fill="none" xmlns="http://www.w3.org/2000/svg">
<path d="M14.2188 6.9375L16 6.25L16.6562 4.5C16.6875 4.34375 16.8438 4.25 17 4.25C17.125 4.25 17.2812 4.34375 17.3125 4.5L18 6.25L19.75 6.9375C19.9062 6.96875 20 7.125 20 7.25C20 7.40625 19.9062 7.5625 19.75 7.59375L18 8.25L17.3125 10.0312C17.2812 10.1562 17.125 10.25 17 10.25C16.8438 10.25 16.6875 10.1562 16.6562 10.0312L16 8.25L14.2188 7.59375C14.0938 7.5625 14 7.40625 14 7.25C14 7.125 14.0938 6.96875 14.2188 6.9375ZM10.4062 6.5625L12.0312 10.125L15.5938 11.75C15.7812 11.8438 15.9062 12.0312 15.9062 12.2188C15.9062 12.4062 15.7812 12.5938 15.5938 12.6562L12.0312 14.3125L10.4062 17.875C10.3125 18.0625 10.125 18.1875 9.9375 18.1875C9.75 18.1875 9.5625 18.0625 9.5 17.875L7.84375 14.3125L4.28125 12.6875C4.09375 12.5938 4 12.4062 4 12.2188C4 12.0312 4.09375 11.8438 4.28125 11.75L7.84375 10.125L9.5 6.5625C9.5625 6.375 9.75 6.25 9.9375 6.25C10.125 6.25 10.3125 6.375 10.4062 6.5625ZM16 16.25L16.6562 14.5C16.6875 14.3438 16.8438 14.25 17 14.25C17.125 14.25 17.2812 14.3438 17.3125 14.5L18 16.25L19.75 16.9375C19.9062 16.9688 20 17.125 20 17.25C20 17.4062 19.9062 17.5625 19.75 17.5938L18 18.25L17.3125 20.0312C17.2812 20.1562 17.125 20.25 17 20.25C16.8438 20.25 16.6875 20.1562 16.6562 20.0312L16 18.25L14.2188 17.5938C14.0938 17.5625 14 17.4062 14 17.25C14 17.125 14.0938 16.9688 14.2188 16.9375L16 16.25Z" fill="#6D5FF0"/>
</svg>
