<svg width="25" height="25" viewBox="0 0 25 25" fill="none" xmlns="http://www.w3.org/2000/svg">
<path d="M15.2734 5.85938L17.5 5L18.3203 2.8125C18.3594 2.61719 18.5547 2.5 18.75 2.5C18.9062 2.5 19.1016 2.61719 19.1406 2.8125L20 5L22.1875 5.85938C22.3828 5.89844 22.5 6.09375 22.5 6.25C22.5 6.44531 22.3828 6.64062 22.1875 6.67969L20 7.5L19.1406 9.72656C19.1016 9.88281 18.9062 10 18.75 10C18.5547 10 18.3594 9.88281 18.3203 9.72656L17.5 7.5L15.2734 6.67969C15.1172 6.64062 15 6.44531 15 6.25C15 6.09375 15.1172 5.89844 15.2734 5.85938ZM2.85156 11.875L3.51562 11.6016L3.82812 11.4453H3.86719L7.30469 9.84375L8.90625 6.36719L9.0625 6.05469L9.375 5.39062C9.45312 5.15625 9.6875 5 9.92188 5C10.1562 5 10.3906 5.15625 10.5078 5.39062L10.8203 6.05469L10.9375 6.36719L10.9766 6.40625L12.5391 9.84375L16.0156 11.4453L16.3281 11.6016L16.9922 11.9141C17.2266 11.9922 17.3828 12.2266 17.3828 12.4609C17.3828 12.6953 17.2266 12.9297 16.9922 13.0469L16.3281 13.3203L16.0156 13.4766L12.5391 15.0781L10.9375 18.5156V18.5547L10.7812 18.8672L10.5078 19.5312C10.3906 19.7656 10.1562 19.9219 9.92188 19.9219C9.6875 19.9219 9.45312 19.7656 9.375 19.5312L9.0625 18.8672L8.90625 18.5547V18.5156L7.30469 15.0781L3.86719 13.4766H3.82812L3.51562 13.3203L2.85156 13.0469C2.61719 12.9297 2.5 12.6953 2.5 12.4609C2.5 12.2266 2.61719 11.9922 2.85156 11.875ZM6.09375 12.4609L8.08594 13.3984C8.47656 13.5547 8.82812 13.9062 9.02344 14.2969L9.92188 16.2891L10.8594 14.2969C11.0547 13.9062 11.3672 13.5547 11.7578 13.3984L13.75 12.4609L11.7578 11.5234C11.3672 11.3672 11.0547 11.0156 10.8594 10.625L9.92188 8.63281L9.02344 10.625C8.82812 11.0156 8.47656 11.3672 8.08594 11.5234L6.09375 12.4609ZM17.5 17.5L18.3203 15.3125C18.3594 15.1172 18.5547 15 18.75 15C18.9062 15 19.1016 15.1172 19.1406 15.3125L20 17.5L22.1875 18.3594C22.3828 18.3984 22.5 18.5938 22.5 18.75C22.5 18.9453 22.3828 19.1406 22.1875 19.1797L20 20L19.1406 22.2266C19.1016 22.3828 18.9062 22.5 18.75 22.5C18.5547 22.5 18.3594 22.3828 18.3203 22.2266L17.5 20L15.2734 19.1797C15.1172 19.1406 15 18.9453 15 18.75C15 18.5938 15.1172 18.3984 15.2734 18.3594L17.5 17.5Z" fill="#6D5FF0"/>
</svg>
