<svg width="27" height="26" viewBox="0 0 27 26" fill="none" xmlns="http://www.w3.org/2000/svg">
<path d="M6.70312 4.09375C7.52344 3.39062 8.61719 3 9.71094 3C10.4141 3 10.9219 3.54688 11.0391 4.13281C11.2734 5.26562 12.25 6.125 13.5 6.125C14.7109 6.125 15.7266 5.26562 15.9219 4.13281C16.0391 3.54688 16.5469 3 17.25 3C18.3438 3 19.4375 3.39062 20.2578 4.09375L19.6719 4.83594L20.2578 4.09375L25.1797 8.19531C25.6484 8.58594 25.9219 9.13281 25.9609 9.71875C26.0391 10.3047 25.8438 10.8906 25.4531 11.3203L23.2656 13.8203C22.4844 14.7188 21.1172 14.8359 20.2188 14.0547L19.75 13.6641V20.5C19.75 21.9062 18.6172 23 17.25 23H9.75C8.34375 23 7.25 21.9062 7.25 20.5V13.6641L6.74219 14.0547C5.84375 14.8359 4.47656 14.7188 3.69531 13.8203L1.50781 11.3203C1.11719 10.8906 0.960938 10.3047 1 9.71875C1.03906 9.13281 1.3125 8.58594 1.78125 8.19531L6.70312 4.09375ZM9.28125 4.91406C8.77344 4.99219 8.30469 5.22656 7.91406 5.53906L2.95312 9.64062C2.91406 9.71875 2.875 9.79688 2.875 9.875C2.83594 9.95312 2.875 10.0312 2.95312 10.1094L2.21094 10.7344L2.95312 10.1094L5.14062 12.6094C5.21875 12.7266 5.41406 12.7266 5.57031 12.6484L7.5625 10.9688C7.83594 10.7344 8.22656 10.6953 8.57812 10.8125C8.89062 10.9688 9.08594 11.3203 9.08594 11.6719V20.5C9.08594 20.8516 9.39844 21.125 9.71094 21.125H17.25C17.5625 21.125 17.875 20.8516 17.875 20.5V11.6719C17.875 11.3203 18.0703 10.9688 18.3828 10.8125C18.7344 10.6953 19.125 10.7344 19.3984 10.9688L21.3906 12.6484C21.5469 12.7266 21.7422 12.7266 21.8203 12.6094L24.0078 10.1094C24.0859 10.0312 24.125 9.95312 24.0859 9.875C24.0859 9.79688 24.0469 9.71875 24.0078 9.64062L19.0469 5.53906C18.6562 5.22656 18.1875 4.99219 17.6797 4.91406C17.1328 6.71094 15.4531 8 13.5 8C11.5078 8 9.82812 6.71094 9.28125 4.91406Z" fill="#6D5FF0"/>
</svg>
