<svg width="24" height="25" viewBox="0 0 24 25" fill="none" xmlns="http://www.w3.org/2000/svg">
<path d="M8.59375 4.75C8.84375 4.75 9.0625 4.9375 9.125 5.1875C9.5 6.375 10.6562 7.25 12 7.25C13.3125 7.25 14.4688 6.375 14.8438 5.1875C14.9062 4.9375 15.125 4.75 15.375 4.75H15.75C16.4688 4.75 17.1562 5 17.6875 5.46875L21.625 8.75C21.8438 8.90625 21.9688 9.15625 21.9688 9.4375C22 9.71875 21.9062 9.96875 21.75 10.1875L20 12.1875C19.625 12.5938 19 12.625 18.5938 12.2812L17 10.9375V18.75C17 19.875 16.0938 20.75 15 20.75H9C7.875 20.75 7 19.875 7 18.75V10.9375L5.375 12.2812C4.96875 12.625 4.34375 12.5938 3.96875 12.1875L2.21875 10.1875C2.0625 9.96875 1.96875 9.71875 2 9.4375C2 9.15625 2.125 8.90625 2.34375 8.75L6.28125 5.46875C6.84375 5 7.5 4.75 8.21875 4.75H8.59375Z" fill="#6D5FF0"/>
</svg>
