<svg width="24" height="25" viewBox="0 0 24 25" fill="none" xmlns="http://www.w3.org/2000/svg">
<path d="M6.5625 5.625C7.21875 5.0625 8.09375 4.75 8.96875 4.75C9.53125 4.75 9.9375 5.1875 10.0312 5.65625C10.2188 6.5625 11 7.25 12 7.25C12.9688 7.25 13.7812 6.5625 13.9375 5.65625C14.0312 5.1875 14.4375 4.75 15 4.75C15.875 4.75 16.75 5.0625 17.4062 5.625L16.9375 6.21875L17.4062 5.625L21.3438 8.90625C21.7188 9.21875 21.9375 9.65625 21.9688 10.125C22.0312 10.5938 21.875 11.0625 21.5625 11.4062L19.8125 13.4062C19.1875 14.125 18.0938 14.2188 17.375 13.5938L17 13.2812V18.75C17 19.875 16.0938 20.75 15 20.75H9C7.875 20.75 7 19.875 7 18.75V13.2812L6.59375 13.5938C5.875 14.2188 4.78125 14.125 4.15625 13.4062L2.40625 11.4062C2.09375 11.0625 1.96875 10.5938 2 10.125C2.03125 9.65625 2.25 9.21875 2.625 8.90625L6.5625 5.625ZM8.625 6.28125C8.21875 6.34375 7.84375 6.53125 7.53125 6.78125L3.5625 10.0625C3.53125 10.125 3.5 10.1875 3.5 10.25C3.46875 10.3125 3.5 10.375 3.5625 10.4375L2.96875 10.9375L3.5625 10.4375L5.3125 12.4375C5.375 12.5312 5.53125 12.5312 5.65625 12.4688L7.25 11.125C7.46875 10.9375 7.78125 10.9062 8.0625 11C8.3125 11.125 8.46875 11.4062 8.46875 11.6875V18.75C8.46875 19.0312 8.71875 19.25 8.96875 19.25H15C15.25 19.25 15.5 19.0312 15.5 18.75V11.6875C15.5 11.4062 15.6562 11.125 15.9062 11C16.1875 10.9062 16.5 10.9375 16.7188 11.125L18.3125 12.4688C18.4375 12.5312 18.5938 12.5312 18.6562 12.4375L20.4062 10.4375C20.4688 10.375 20.5 10.3125 20.4688 10.25C20.4688 10.1875 20.4375 10.125 20.4062 10.0625L16.4375 6.78125C16.125 6.53125 15.75 6.34375 15.3438 6.28125C14.9062 7.71875 13.5625 8.75 12 8.75C10.4062 8.75 9.0625 7.71875 8.625 6.28125Z" fill="#6D5FF0"/>
</svg>
