<svg width="25" height="25" viewBox="0 0 25 25" fill="none" xmlns="http://www.w3.org/2000/svg">
<path d="M13.4375 3.4375V3.86719C13.6719 3.90625 13.9062 3.98438 14.1406 4.02344C14.6484 4.17969 14.9219 4.6875 14.8047 5.19531C14.6484 5.66406 14.1406 5.97656 13.6328 5.85938C13.2031 5.74219 12.8125 5.66406 12.4609 5.66406C12.1875 5.625 11.875 5.70312 11.7188 5.82031C11.6406 5.85938 11.6016 5.89844 11.5625 5.9375C11.5625 5.9375 11.5625 5.97656 11.5625 6.05469C11.5625 6.09375 11.5625 6.13281 11.6797 6.17188C11.9141 6.28906 12.2266 6.40625 12.7344 6.5625H12.7734C13.2031 6.71875 13.7891 6.875 14.2578 7.1875C14.8047 7.5 15.2734 8.08594 15.2734 8.94531C15.3125 9.80469 14.8438 10.4297 14.2578 10.8203C13.9844 10.9766 13.7109 11.0938 13.3984 11.1719V11.5625C13.3984 12.1094 13.0078 12.5 12.4609 12.5C11.9531 12.5 11.5234 12.1094 11.5234 11.5625V11.1328C11.1719 11.0547 10.8203 10.9375 10.5469 10.8203C10.4688 10.8203 10.3906 10.7812 10.3125 10.7422C9.80469 10.5859 9.53125 10.0391 9.72656 9.57031C9.88281 9.0625 10.3906 8.78906 10.8984 8.98438C11.0156 9.02344 11.0938 9.02344 11.1719 9.0625C11.7188 9.25781 12.1094 9.375 12.5 9.375C12.8125 9.41406 13.0859 9.33594 13.2422 9.21875C13.3203 9.17969 13.3594 9.14062 13.3984 9.10156C13.3984 9.10156 13.4375 9.0625 13.3984 8.94531C13.3984 8.90625 13.3984 8.86719 13.2422 8.78906C13.0469 8.63281 12.6953 8.51562 12.1875 8.35938H12.1094C11.7188 8.20312 11.1328 8.04688 10.7031 7.77344C10.1953 7.46094 9.6875 6.91406 9.64844 6.05469C9.64844 5.15625 10.1562 4.57031 10.7422 4.21875C11.0156 4.0625 11.25 3.94531 11.5234 3.90625V3.4375C11.5234 2.92969 11.9531 2.5 12.4609 2.5C13.0078 2.5 13.3984 2.92969 13.3984 3.4375H13.4375ZM8.55469 16.25C8.24219 16.25 7.92969 16.3672 7.69531 16.5234L4.57031 18.5938C4.41406 18.7109 4.21875 18.75 4.0625 18.75H2.1875C1.64062 18.75 1.25 18.3594 1.25 17.8125C1.25 17.3047 1.64062 16.875 2.1875 16.875H3.75L6.64062 14.9609C7.22656 14.6094 7.89062 14.375 8.55469 14.375H14.6875C16.0547 14.375 17.1875 15.5078 17.1875 16.875C17.1875 16.9141 17.1875 16.9531 17.1875 16.9531L19.6875 15.3906C20.1172 15.1562 20.5859 15 21.0938 15H21.3672C22.6953 15 23.75 16.0547 23.75 17.3828C23.75 18.1641 23.3203 18.9062 22.6562 19.3359L18.9453 21.7578C18.1641 22.2656 17.2656 22.5391 16.3672 22.5391H2.1875C1.64062 22.5391 1.25 22.1094 1.25 21.6016C1.25 21.0547 1.64062 20.6641 2.1875 20.6641H16.3672C16.9141 20.6641 17.4609 20.5078 17.8906 20.1953L21.6406 17.7734C21.7578 17.6953 21.875 17.5391 21.875 17.3828C21.875 17.1094 21.6406 16.875 21.3672 16.875H21.0938C20.9375 16.875 20.8203 16.9141 20.7031 16.9922L17.0312 19.2578C16.875 19.3359 16.7188 19.375 16.5234 19.375H14.6875H13.75H11.25C10.7031 19.375 10.3125 18.9844 10.3125 18.4375C10.3125 17.9297 10.7031 17.5 11.25 17.5H13.75H14.6875C15 17.5 15.3125 17.2266 15.3125 16.875C15.3125 16.5625 15 16.25 14.6875 16.25H8.55469Z" fill="#575759"/>
</svg>
