<svg width="25" height="25" viewBox="0 0 25 25" fill="none" xmlns="http://www.w3.org/2000/svg">
<path d="M13.4375 3.4375V3.86719C13.6719 3.90625 13.9062 3.98438 14.1406 4.02344C14.6484 4.17969 14.9219 4.6875 14.8047 5.19531C14.6484 5.66406 14.1406 5.97656 13.6328 5.85938C13.2031 5.74219 12.8125 5.66406 12.4609 5.66406C12.1875 5.625 11.875 5.70312 11.7188 5.82031C11.6406 5.85938 11.6016 5.89844 11.5625 5.9375C11.5625 5.9375 11.5625 5.97656 11.5625 6.05469C11.5625 6.09375 11.5625 6.13281 11.6797 6.17188C11.9141 6.28906 12.2266 6.40625 12.7344 6.5625H12.7734C13.2031 6.71875 13.7891 6.875 14.2578 7.1875C14.8047 7.5 15.2734 8.08594 15.2734 8.94531C15.3125 9.80469 14.8438 10.4297 14.2578 10.8203C13.9844 10.9766 13.7109 11.0938 13.3984 11.1719V11.5625C13.3984 12.1094 13.0078 12.5 12.4609 12.5C11.9531 12.5 11.5234 12.1094 11.5234 11.5625V11.1328C11.1719 11.0547 10.8203 10.9375 10.5469 10.8203C10.4688 10.8203 10.3906 10.7812 10.3125 10.7422C9.80469 10.5859 9.53125 10.0391 9.72656 9.57031C9.88281 9.0625 10.3906 8.78906 10.8984 8.98438C11.0156 9.02344 11.0938 9.02344 11.1719 9.0625C11.7188 9.25781 12.1094 9.375 12.5 9.375C12.8125 9.41406 13.0859 9.33594 13.2422 9.21875C13.3203 9.17969 13.3594 9.14062 13.3984 9.10156C13.3984 9.10156 13.4375 9.0625 13.3984 8.94531C13.3984 8.90625 13.3984 8.86719 13.2422 8.78906C13.0469 8.63281 12.6953 8.51562 12.1875 8.35938H12.1094C11.7188 8.20312 11.1328 8.04688 10.7031 7.77344C10.1953 7.46094 9.6875 6.91406 9.64844 6.05469C9.64844 5.15625 10.1562 4.57031 10.7422 4.21875C11.0156 4.0625 11.25 3.94531 11.5234 3.90625V3.4375C11.5234 2.92969 11.9531 2.5 12.4609 2.5C13.0078 2.5 13.3984 2.92969 13.3984 3.4375H13.4375ZM23.4375 15.6641C23.9453 16.3672 23.7891 17.3438 23.0859 17.8516L18.1641 21.4844C17.2266 22.1484 16.1328 22.5 15 22.5H8.75H2.5C1.79688 22.5 1.25 21.9531 1.25 21.25V18.75C1.25 18.0859 1.79688 17.5 2.5 17.5H3.90625L5.66406 16.0938C6.5625 15.3906 7.65625 15 8.78906 15H11.875H12.5H15C15.6641 15 16.25 15.5859 16.25 16.25C16.25 16.9531 15.6641 17.5 15 17.5H12.5H11.875C11.5234 17.5 11.25 17.8125 11.25 18.125C11.25 18.4766 11.5234 18.75 11.875 18.75H16.5625L21.25 15.3125C21.9531 14.8047 22.9297 14.9609 23.4375 15.6641ZM8.78906 17.5H8.75C8.78906 17.5 8.78906 17.5 8.78906 17.5Z" fill="#6D5FF0"/>
</svg>
