<svg width="25" height="24" viewBox="0 0 25 24" fill="none" xmlns="http://www.w3.org/2000/svg">
<path d="M9.875 3.84375C9.59375 4.3125 9.07812 4.54688 8.5625 4.40625C7.53125 4.07812 6.40625 4.3125 5.5625 5.10938C4.76562 5.90625 4.53125 7.07812 4.85938 8.0625C5 8.57812 4.76562 9.14062 4.29688 9.42188C3.35938 9.89062 2.75 10.875 2.75 12C2.75 13.1719 3.35938 14.1562 4.29688 14.625C4.76562 14.9062 5 15.4219 4.85938 15.9375C4.53125 16.9688 4.8125 18.0938 5.60938 18.8906C6.40625 19.6875 7.53125 19.9688 8.5625 19.6406C9.07812 19.5 9.64062 19.7344 9.875 20.2031C10.3906 21.1406 11.375 21.75 12.5 21.75C13.625 21.75 14.6094 21.1406 15.0781 20.2031C15.3594 19.7344 15.9219 19.5 16.4375 19.6406C17.4219 19.9688 18.5938 19.6875 19.3906 18.8906C20.1875 18.0938 20.4219 16.9688 20.0938 15.9375C19.9531 15.4219 20.1875 14.8594 20.6562 14.625C21.5938 14.1094 22.25 13.125 22.25 12C22.25 10.875 21.5938 9.89062 20.6562 9.42188C20.1875 9.14062 19.9531 8.57812 20.0938 8.0625C20.4219 7.07812 20.1875 5.90625 19.3906 5.10938C18.5938 4.3125 17.4219 4.07812 16.4375 4.40625C15.9219 4.54688 15.3594 4.3125 15.0781 3.84375C14.6094 2.90625 13.625 2.25 12.5 2.25C11.3281 2.25 10.3438 2.90625 9.875 3.84375ZM12.5 0C14.1406 0 15.6406 0.796875 16.625 2.0625C18.1719 1.82812 19.7656 2.34375 20.9844 3.51562C22.1562 4.73438 22.625 6.32812 22.4375 7.875C23.7031 8.85938 24.5 10.3594 24.5 12C24.5 13.6875 23.7031 15.1875 22.4375 16.125C22.6719 17.6719 22.1562 19.3125 20.9844 20.4844C19.7656 21.7031 18.1719 22.1719 16.625 21.9844C15.6406 23.2031 14.1406 24 12.5 24C10.8125 24 9.3125 23.2031 8.375 21.9844C6.82812 22.1719 5.1875 21.7031 4.01562 20.5312C2.79688 19.3125 2.32812 17.7188 2.51562 16.1719C1.29688 15.1875 0.5 13.6875 0.5 12C0.5 10.3594 1.29688 8.85938 2.51562 7.875C2.32812 6.32812 2.79688 4.73438 3.96875 3.51562C5.1875 2.34375 6.78125 1.875 8.32812 2.0625C9.3125 0.796875 10.8125 0 12.5 0ZM9.5 10.5C8.65625 10.5 8 9.84375 8 9C8 8.20312 8.65625 7.5 9.5 7.5C10.2969 7.5 11 8.20312 11 9C11 9.84375 10.2969 10.5 9.5 10.5ZM17 15C17 15.8438 16.2969 16.5 15.5 16.5C14.6562 16.5 14 15.8438 14 15C14 14.2031 14.6562 13.5 15.5 13.5C16.2969 13.5 17 14.2031 17 15ZM16.2969 9.79688L10.25 15.7969C9.82812 16.2656 9.125 16.2656 8.70312 15.7969C8.23438 15.375 8.23438 14.6719 8.70312 14.2031L14.7031 8.25C15.125 7.78125 15.8281 7.78125 16.2969 8.25C16.7188 8.67188 16.7188 9.375 16.2969 9.79688Z" fill="white"/>
</svg>
