<svg width="16" height="18" viewBox="0 0 16 18" fill="none" xmlns="http://www.w3.org/2000/svg">
<path d="M14.5 9C14.5 6.6875 13.25 4.5625 11.25 3.375C9.21875 2.21875 6.75 2.21875 4.75 3.375C2.71875 4.5625 1.5 6.6875 1.5 9C1.5 11.3438 2.71875 13.4688 4.75 14.6562C6.75 15.8125 9.21875 15.8125 11.25 14.6562C13.25 13.4688 14.5 11.3438 14.5 9ZM0 9C0 6.15625 1.5 3.53125 4 2.09375C6.46875 0.65625 9.5 0.65625 12 2.09375C14.4688 3.53125 16 6.15625 16 9C16 11.875 14.4688 14.5 12 15.9375C9.5 17.375 6.46875 17.375 4 15.9375C1.5 14.5 0 11.875 0 9ZM5.53125 10.9688C6 11.4688 6.8125 12 8 12C9.15625 12 9.96875 11.4688 10.4375 10.9688C10.7188 10.6562 11.1875 10.625 11.5 10.9062C11.8125 11.1875 11.8125 11.6562 11.5312 11.9688C10.8438 12.7188 9.65625 13.5 8 13.5C6.3125 13.5 5.125 12.7188 4.4375 11.9688C4.15625 11.6562 4.1875 11.1875 4.46875 10.9062C4.78125 10.625 5.25 10.6562 5.53125 10.9688ZM4.5 7.5C4.5 6.96875 4.9375 6.5 5.5 6.5C6.0625 6.5 6.5 6.96875 6.5 7.5C6.5 8.0625 6.0625 8.5 5.5 8.5C4.9375 8.5 4.5 8.0625 4.5 7.5ZM10.5 6.5C11.0625 6.5 11.5 6.96875 11.5 7.5C11.5 8.0625 11.0625 8.5 10.5 8.5C9.9375 8.5 9.5 8.0625 9.5 7.5C9.5 6.96875 9.9375 6.5 10.5 6.5Z" fill="#575759"/>
</svg>
