<svg width="25" height="24" viewBox="0 0 25 24" fill="none" xmlns="http://www.w3.org/2000/svg">
<path d="M0.5 2.625C0.5 1.21875 1.67188 0 3.125 0H6.875C7.48438 0 8 0.515625 8 1.125C8 1.78125 7.48438 2.25 6.875 2.25H3.125C2.89062 2.25 2.75 2.4375 2.75 2.625V6.375C2.75 7.03125 2.23438 7.5 1.625 7.5C0.96875 7.5 0.5 7.03125 0.5 6.375V2.625ZM17 1.125C17 0.515625 17.4688 0 18.125 0H21.875C23.2812 0 24.5 1.21875 24.5 2.625V6.375C24.5 7.03125 23.9844 7.5 23.375 7.5C22.7188 7.5 22.25 7.03125 22.25 6.375V2.625C22.25 2.4375 22.0625 2.25 21.875 2.25H18.125C17.4688 2.25 17 1.78125 17 1.125ZM1.625 16.5C2.23438 16.5 2.75 17.0156 2.75 17.625V21.375C2.75 21.6094 2.89062 21.75 3.125 21.75H6.875C7.48438 21.75 8 22.2656 8 22.875C8 23.5312 7.48438 24 6.875 24H3.125C1.67188 24 0.5 22.8281 0.5 21.375V17.625C0.5 17.0156 0.96875 16.5 1.625 16.5ZM23.375 16.5C23.9844 16.5 24.5 17.0156 24.5 17.625V21.375C24.5 22.8281 23.2812 24 21.875 24H18.125C17.4688 24 17 23.5312 17 22.875C17 22.2656 17.4688 21.75 18.125 21.75H21.875C22.0625 21.75 22.25 21.6094 22.25 21.375V17.625C22.25 17.0156 22.7188 16.5 23.375 16.5ZM11.75 10.125C11.75 10.7812 11.2344 11.25 10.625 11.25C9.96875 11.25 9.5 10.7812 9.5 10.125C9.5 9.51562 9.96875 9 10.625 9C11.2344 9 11.75 9.51562 11.75 10.125ZM14.375 11.25C13.7188 11.25 13.25 10.7812 13.25 10.125C13.25 9.51562 13.7188 9 14.375 9C14.9844 9 15.5 9.51562 15.5 10.125C15.5 10.7812 14.9844 11.25 14.375 11.25ZM12.5 6.75C10.5781 6.75 8.89062 7.78125 7.95312 9.375C6.96875 11.0156 6.96875 13.0312 7.95312 14.625C8.89062 16.2656 10.5781 17.25 12.5 17.25C14.375 17.25 16.0625 16.2656 17 14.625C17.9844 13.0312 17.9844 11.0156 17 9.375C16.0625 7.78125 14.375 6.75 12.5 6.75ZM12.5 19.5C9.78125 19.5 7.34375 18.0938 5.98438 15.75C4.625 13.4531 4.625 10.5938 5.98438 8.25C7.34375 5.95312 9.78125 4.5 12.5 4.5C15.1719 4.5 17.6094 5.95312 18.9688 8.25C20.3281 10.5938 20.3281 13.4531 18.9688 15.75C17.6094 18.0938 15.1719 19.5 12.5 19.5ZM10.5312 13.125C10.9062 13.8281 11.6562 14.25 12.5 14.25C13.2969 14.25 14.0469 13.8281 14.4219 13.125C14.6562 12.7969 15.0781 12.6562 15.4531 12.8906C15.8281 13.0781 15.9219 13.5469 15.7344 13.9219C15.0781 15 13.8594 15.7969 12.5 15.7969C11.0938 15.7969 9.875 15 9.21875 13.9219C9.03125 13.5469 9.125 13.0781 9.5 12.8906C9.875 12.6562 10.3438 12.7969 10.5312 13.125Z" fill="white"/>
</svg>
