<svg width="25" height="26" viewBox="0 0 25 26" fill="none" xmlns="http://www.w3.org/2000/svg">
<path d="M18.75 6.125C18.75 5.03125 19.3359 4.01562 20.3125 3.42969C21.25 2.88281 22.4609 2.88281 23.4375 3.42969C24.375 4.01562 25 5.03125 25 6.125C25 7.25781 24.375 8.27344 23.4375 8.85938C22.4609 9.40625 21.25 9.40625 20.3125 8.85938C19.3359 8.27344 18.75 7.25781 18.75 6.125ZM16.0938 14.0156L17.9688 10.9297C18.1641 10.6953 18.4375 10.5 18.75 10.5C19.0234 10.5 19.3359 10.6953 19.4922 10.9297L24.6484 19.3672C24.8438 19.7578 25 20.1875 25 20.6172C25 21.9453 23.9062 23 22.5781 23H17.8125H2.14844C0.976562 23 0 22.0234 0 20.8516C0 20.4219 0.117188 20.0312 0.3125 19.6797L8.78906 6.16406C9.02344 5.77344 9.49219 5.5 10 5.5C10.4688 5.5 10.9375 5.77344 11.1719 6.16406L16.0938 14.0156ZM17.2266 15.8125L19.6484 19.6797C19.8828 20.0312 20 20.4219 20 20.8125C20 20.9297 19.9609 21.0469 19.9609 21.125H22.5781C22.8906 21.125 23.0859 20.8906 23.0859 20.6172C23.0859 20.5391 23.0859 20.4219 23.0469 20.3438L18.75 13.3125L17.2266 15.8125ZM17.8125 21.125C17.9688 21.125 18.125 21.0078 18.125 20.8516C18.125 20.7734 18.0859 20.7344 18.0469 20.6562L10 7.80469L1.91406 20.6562C1.875 20.7344 1.875 20.7734 1.875 20.8516C1.875 21.0078 1.99219 21.125 2.14844 21.125H17.8125Z" fill="#6D5FF0"/>
</svg>
