<svg width="24" height="25" viewBox="0 0 24 25" fill="none" xmlns="http://www.w3.org/2000/svg">
<path d="M19.5 9.75C18.5938 9.75 17.7812 9.28125 17.3125 8.5C16.875 7.75 16.875 6.78125 17.3125 6C17.7812 5.25 18.5938 4.75 19.5 4.75C20.375 4.75 21.1875 5.25 21.6562 6C22.0938 6.78125 22.0938 7.75 21.6562 8.5C21.1875 9.28125 20.375 9.75 19.5 9.75ZM3.71875 20.75C2.78125 20.75 2 19.9688 2 19.0312C2 18.6875 2.09375 18.375 2.25 18.0938L9.03125 7.28125C9.21875 6.96875 9.59375 6.75 10 6.75C10.375 6.75 10.75 6.96875 10.9375 7.28125L14.875 13.5625L16.375 11.0938C16.5312 10.9062 16.75 10.75 17 10.75C17.2188 10.75 17.4688 10.9062 17.5938 11.0938L21.7188 17.875C21.875 18.1562 22 18.5 22 18.8438C22 19.9062 21.125 20.75 20.0625 20.75H16.25H13.9062H3.71875Z" fill="#6D5FF0"/>
</svg>
