<svg width="24" height="25" viewBox="0 0 24 25" fill="none" xmlns="http://www.w3.org/2000/svg">
<path d="M17 7.25C17 6.375 17.4688 5.5625 18.25 5.09375C19 4.65625 19.9688 4.65625 20.75 5.09375C21.5 5.5625 22 6.375 22 7.25C22 8.15625 21.5 8.96875 20.75 9.4375C19.9688 9.875 19 9.875 18.25 9.4375C17.4688 8.96875 17 8.15625 17 7.25ZM14.875 13.5625L16.375 11.0938C16.5312 10.9062 16.75 10.75 17 10.75C17.2188 10.75 17.4688 10.9062 17.5938 11.0938L21.7188 17.8438C21.875 18.1562 22 18.5 22 18.8438C22 19.9062 21.125 20.75 20.0625 20.75H16.25H3.71875C2.78125 20.75 2 19.9688 2 19.0312C2 18.6875 2.09375 18.375 2.25 18.0938L9.03125 7.28125C9.21875 6.96875 9.59375 6.75 10 6.75C10.375 6.75 10.75 6.96875 10.9375 7.28125L14.875 13.5625ZM15.7812 15L17.7188 18.0938C17.9062 18.375 18 18.6875 18 19C18 19.0938 17.9688 19.1875 17.9688 19.25H20.0625C20.3125 19.25 20.4688 19.0625 20.4688 18.8438C20.4688 18.7812 20.4688 18.6875 20.4375 18.625L17 13L15.7812 15ZM16.25 19.25C16.375 19.25 16.5 19.1562 16.5 19.0312C16.5 18.9688 16.4688 18.9375 16.4375 18.875L10 8.59375L3.53125 18.875C3.5 18.9375 3.5 18.9688 3.5 19.0312C3.5 19.1562 3.59375 19.25 3.71875 19.25H16.25Z" fill="#6D5FF0"/>
</svg>
