<svg width="34" height="32" viewBox="0 0 34 32" fill="none" xmlns="http://www.w3.org/2000/svg">
<path d="M17 32C11.25 32 6 29 3.125 24C0.25 19.0625 0.25 13 3.125 8C6 3.0625 11.25 0 17 0C22.6875 0 27.9375 3.0625 30.8125 8C33.6875 13 33.6875 19.0625 30.8125 24C27.9375 29 22.6875 32 17 32ZM14.875 11.5625C15.375 11.25 15.875 11.0625 16.5 11.0625H16.6875C17.9375 11.0625 19 12.125 19 13.375C19 14 18.6875 14.625 18.25 15.0625L11.4375 21.4375C11 21.875 10.875 22.5 11.0625 23.0625C11.3125 23.625 11.875 24 12.5 24H21.5C22.3125 24 23 23.375 23 22.5C23 21.6875 22.3125 21 21.5 21H16.25L20.3125 17.25C21.375 16.25 21.9375 14.875 21.9375 13.375C21.9375 10.5 19.625 8.125 16.75 8.0625H16.5C15.25 8.0625 14.0625 8.4375 13.0625 9.1875L11.5625 10.3125C10.875 10.8125 10.75 11.8125 11.25 12.4375C11.75 13.125 12.75 13.25 13.375 12.75L14.875 11.5625Z" fill="#6D5FF0"/>
</svg>
