<svg width="34" height="32" viewBox="0 0 34 32" fill="none" xmlns="http://www.w3.org/2000/svg">
<path d="M17 32C11.25 32 6 29 3.125 24C0.25 19.0625 0.25 13 3.125 8C6 3.0625 11.25 0 17 0C22.6875 0 27.9375 3.0625 30.8125 8C33.6875 13 33.6875 19.0625 30.8125 24C27.9375 29 22.6875 32 17 32ZM12.5 8C11.625 8 11 8.6875 11 9.5C11 10.375 11.625 11 12.5 11H16.625L13.4375 13.9375C13 14.3125 12.8125 15 13.0625 15.5625C13.3125 16.125 13.875 16.5 14.5 16.5H17.6875C18.9375 16.5 19.9375 17.5 19.9375 18.75C19.9375 20 18.9375 21 17.6875 21H15.9375C15.125 21 14.375 20.625 13.875 19.875L13.75 19.625C13.3125 18.9375 12.375 18.6875 11.6875 19.125C11 19.5625 10.75 20.5 11.1875 21.1875L11.375 21.4375C12.3125 23.0625 14.0625 24 16 24H17.6875C20.625 24 23 21.6875 23 18.75C23 16.0625 20.9375 13.8125 18.3125 13.5625L21.5 10.625C21.9375 10.1875 22.125 9.5625 21.875 9C21.625 8.4375 21.0625 8 20.5 8H12.5Z" fill="#6D5FF0"/>
</svg>
