<svg width="33" height="34" viewBox="0 0 33 34" fill="none" xmlns="http://www.w3.org/2000/svg">
<path d="M30 17C30 12.375 27.5 8.125 23.5 5.75C19.4375 3.4375 14.5 3.4375 10.5 5.75C6.4375 8.125 4 12.375 4 17C4 21.6875 6.4375 25.9375 10.5 28.3125C14.5 30.625 19.4375 30.625 23.5 28.3125C27.5 25.9375 30 21.6875 30 17ZM1 17C1 11.3125 4 6.0625 9 3.1875C13.9375 0.3125 20 0.3125 25 3.1875C29.9375 6.0625 33 11.3125 33 17C33 22.75 29.9375 28 25 30.875C20 33.75 13.9375 33.75 9 30.875C4 28 1 22.75 1 17ZM17.75 9.25C18.1875 9.5 18.5 10 18.5 10.5V22H21C21.8125 22 22.5 22.6875 22.5 23.5C22.5 24.375 21.8125 25 21 25H17H13C12.125 25 11.5 24.375 11.5 23.5C11.5 22.6875 12.125 22 13 22H15.5V13.125L14.1875 13.8125C13.5 14.25 12.5625 14 12.1875 13.25C11.75 12.5625 12 11.625 12.75 11.25L16.25 9.25C16.6875 9 17.25 9 17.75 9.25Z" fill="#6D5FF0"/>
</svg>
