<svg width="34" height="32" viewBox="0 0 34 32" fill="none" xmlns="http://www.w3.org/2000/svg">
<path d="M17 3C12.3125 3 8.0625 5.5 5.6875 9.5C3.375 13.5625 3.375 18.5 5.6875 22.5C8.0625 26.5625 12.3125 29 17 29C21.625 29 25.875 26.5625 28.25 22.5C30.5625 18.5 30.5625 13.5625 28.25 9.5C25.875 5.5 21.625 3 17 3ZM17 32C11.25 32 6 29 3.125 24C0.25 19.0625 0.25 13 3.125 8C6 3.0625 11.25 0 17 0C22.6875 0 27.9375 3.0625 30.8125 8C33.6875 13 33.6875 19.0625 30.8125 24C27.9375 29 22.6875 32 17 32ZM12.5 8H20.5C21.0625 8 21.625 8.4375 21.875 9C22.0625 9.5625 21.9375 10.1875 21.5 10.625L18.3125 13.5625C20.9375 13.8125 23 16.0625 23 18.75C23 21.6875 20.625 24 17.6875 24H16C14.0625 24 12.375 23.0625 11.375 21.4375L11.1875 21.1875C10.75 20.5 11 19.5625 11.6875 19.125C12.375 18.6875 13.3125 18.9375 13.75 19.625L13.9375 19.875C14.375 20.625 15.125 21.0625 16 21.0625H17.6875C18.9375 21.0625 20 20 20 18.75C20 17.5 18.9375 16.5 17.6875 16.5H14.5C13.875 16.5625 13.3125 16.1875 13.0625 15.5625C12.875 15 13 14.3125 13.4375 13.9375L16.625 11H12.5C11.625 11 11 10.375 11 9.5C11 8.6875 11.625 8 12.5 8Z" fill="#6D5FF0"/>
</svg>
