<svg width="34" height="32" viewBox="0 0 34 32" fill="none" xmlns="http://www.w3.org/2000/svg">
<path d="M17 3C12.3125 3 8.0625 5.5 5.6875 9.5C3.375 13.5625 3.375 18.5 5.6875 22.5C8.0625 26.5625 12.3125 29 17 29C21.625 29 25.875 26.5625 28.25 22.5C30.5625 18.5 30.5625 13.5625 28.25 9.5C25.875 5.5 21.625 3 17 3ZM17 32C11.25 32 6 29 3.125 24C0.25 19.0625 0.25 13 3.125 8C6 3.0625 11.25 0 17 0C22.6875 0 27.9375 3.0625 30.8125 8C33.6875 13 33.6875 19.0625 30.8125 24C27.9375 29 22.6875 32 17 32ZM14.875 11.5625L13.375 12.6875C12.75 13.1875 11.8125 13.0625 11.3125 12.4375C10.75 11.75 10.9375 10.8125 11.5625 10.3125L13.0625 9.1875C14.0625 8.4375 15.25 8 16.5 8.0625H16.75C19.625 8.125 22 10.4375 22 13.375C22 14.8125 21.375 16.25 20.3125 17.25L16.25 21H21.5C22.3125 21 23 21.6875 23 22.5C23 23.375 22.3125 24 21.5 24H12.5C11.875 24 11.3125 23.625 11.0625 23.0625C10.875 22.5 11 21.875 11.4375 21.4375L18.25 15.0625C18.6875 14.625 19 14 19 13.375C19 12.125 17.9375 11.0625 16.6875 11.0625H16.5C15.875 11.0625 15.3125 11.25 14.875 11.5625Z" fill="#6D5FF0"/>
</svg>
