<svg width="33" height="34" viewBox="0 0 33 34" fill="none" xmlns="http://www.w3.org/2000/svg">
<path d="M1 17C1 11.3125 4 6.0625 9 3.1875C13.9375 0.3125 20 0.3125 25 3.1875C29.9375 6.0625 33 11.3125 33 17C33 22.75 29.9375 28 25 30.875C20 33.75 13.9375 33.75 9 30.875C4 28 1 22.75 1 17ZM17.75 9.25C17.25 8.9375 16.6875 8.9375 16.25 9.25L12.75 11.25C12 11.625 11.75 12.5625 12.1875 13.25C12.5625 14 13.5 14.25 14.1875 13.8125L15.5 13.125V22H13C12.125 22 11.5 22.6875 11.5 23.5C11.5 24.375 12.125 25 13 25H17H21C21.8125 25 22.5 24.375 22.5 23.5C22.5 22.6875 21.8125 22 21 22H18.5V10.5C18.5 10 18.1875 9.5 17.75 9.25Z" fill="#6D5FF0"/>
</svg>
