<?xml version="1.0" encoding="UTF-8"?>
<svg xmlns="http://www.w3.org/2000/svg" xmlns:xlink="http://www.w3.org/1999/xlink" version="1.2" >
<font id="Cabin Italic">
<font-face  font-family="Cabin" units-per-em="1000" ascent="965" descent="-250" font-style="italic" font-weight="400" font-stretch="normal" slope="-7" cap-height="700" x-height="490" underline-position="-75" underline-thickness="50" />
<missing-glyph  horiz-adv-x="603" d="M50 700 L553 700 L553 0 L50 0 L50 700 Z M473 70 L473 630 L130 630 L130 70 L473 70 Z " />
<glyph glyph-name="nonmarkingreturn" unicode="&#xd;" horiz-adv-x="203" d="" />
<glyph glyph-name="space" unicode="&#x20;" horiz-adv-x="203" d="" />
<glyph glyph-name="A" unicode="A" horiz-adv-x="568" d="M312 700 L408 700 L510 0 L410 0 L385 189 L154 189 L63 0 L-37 0 L312 700 Z M369 275 L336 567 L200 275 L369 275 Z " />
<glyph glyph-name="Aacute" unicode="&#xc1;" horiz-adv-x="568" d="M312 700 L408 700 L510 0 L410 0 L385 189 L154 189 L63 0 L-37 0 L312 700 Z M369 275 L336 567 L200 275 L369 275 Z M305 853 L488 957 L471 846 L293 785 L305 853 Z " />
<glyph glyph-name="Abreve" unicode="&#x102;" horiz-adv-x="568" d="M312 700 L408 700 L510 0 L410 0 L385 189 L154 189 L63 0 L-37 0 L312 700 Z M369 275 L336 567 L200 275 L369 275 Z M382 786 Q321 786 289.5 814.5 Q258 843 258 887 Q258 901 262 913 L340 913 Q337 906 337 896 Q337 875 351 863.5 Q365 852 390 852 Q418 852 438 867.5 Q458 883 463 913 L546 913 Q537 857 494.5 821.5 Q452 786 382 786 Z " />
<glyph glyph-name="uni1EAE" unicode="&#x1eae;" horiz-adv-x="568" d="M312 700 L408 700 L510 0 L410 0 L385 189 L154 189 L63 0 L-37 0 L312 700 Z M369 275 L336 567 L200 275 L369 275 Z M348 992 L519 1087 L505 986 L340 928 L348 992 Z M380 764 Q316 764 284 791.5 Q252 819 252 862 Q252 870 254 884 L334 884 Q333 880 333 872 Q333 850 348.5 838 Q364 826 389 826 Q418 826 439.5 841 Q461 856 466 884 L546 884 Q537 829 494.5 796.5 Q452 764 380 764 Z " />
<glyph glyph-name="uni1EB6" unicode="&#x1eb6;" horiz-adv-x="568" d="M312 700 L408 700 L510 0 L410 0 L385 189 L154 189 L63 0 L-37 0 L312 700 Z M369 275 L336 567 L200 275 L369 275 Z M373 764 Q309 764 277 791.5 Q245 819 245 862 Q245 870 247 884 L327 884 Q326 880 326 872 Q326 850 341.5 838 Q357 826 382 826 Q411 826 432.5 841 Q454 856 459 884 L539 884 Q530 829 487.5 796.5 Q445 764 373 764 Z M177 -81 L269 -81 L251 -171 L159 -171 L177 -81 Z " />
<glyph glyph-name="uni1EB0" unicode="&#x1eb0;" horiz-adv-x="568" d="M312 700 L408 700 L510 0 L410 0 L385 189 L154 189 L63 0 L-37 0 L312 700 Z M369 275 L336 567 L200 275 L369 275 Z M335 985 L352 1080 L512 985 L501 927 L335 985 Z M377 763 Q313 763 281 790.5 Q249 818 249 861 Q249 869 251 883 L331 883 Q330 879 330 871 Q330 849 345.5 837 Q361 825 386 825 Q415 825 436.5 840 Q458 855 463 883 L543 883 Q534 828 491.5 795.5 Q449 763 377 763 Z " />
<glyph glyph-name="uni1EB2" unicode="&#x1eb2;" horiz-adv-x="568" d="M312 700 L408 700 L510 0 L410 0 L385 189 L154 189 L63 0 L-37 0 L312 700 Z M369 275 L336 567 L200 275 L369 275 Z M411 940 Q452 954 452 983 Q452 996 442.5 1003.5 Q433 1011 416 1011 Q393 1011 355 993 L347 1044 Q385 1062 428 1062 Q465 1062 488 1044.5 Q511 1027 511 995 Q511 958 484.5 933.5 Q458 909 413 900 L411 940 Z M387 764 Q323 764 291 791.5 Q259 819 259 862 Q259 870 261 884 L341 884 Q340 880 340 872 Q340 850 355.5 838 Q371 826 396 826 Q425 826 446.5 841 Q468 856 473 884 L553 884 Q544 829 501.5 796.5 Q459 764 387 764 Z " />
<glyph glyph-name="uni1EB4" unicode="&#x1eb4;" horiz-adv-x="568" d="M312 700 L408 700 L510 0 L410 0 L385 189 L154 189 L63 0 L-37 0 L312 700 Z M369 275 L336 567 L200 275 L369 275 Z M498 931 Q483 931 467 936 Q451 941 424 952 Q382 970 367 970 Q353 970 343.5 961 Q334 952 333 936 L268 936 Q276 984 300 1010 Q324 1036 360 1036 Q375 1036 390.5 1031 Q406 1026 432 1015 Q448 1008 464.5 1002.5 Q481 997 493 997 Q507 997 516 1006 Q525 1015 527 1031 L592 1031 Q585 982 560 956.5 Q535 931 498 931 Z M384 764 Q320 764 288 791.5 Q256 819 256 862 Q256 870 258 884 L338 884 Q337 880 337 872 Q337 850 352.5 838 Q368 826 393 826 Q422 826 443.5 841 Q465 856 470 884 L550 884 Q541 829 498.5 796.5 Q456 764 384 764 Z " />
<glyph glyph-name="Acircumflex" unicode="&#xc2;" horiz-adv-x="568" d="M312 700 L408 700 L510 0 L410 0 L385 189 L154 189 L63 0 L-37 0 L312 700 Z M369 275 L336 567 L200 275 L369 275 Z M280 848 L408 945 L513 835 L501 774 L390 854 L265 784 L280 848 Z " />
<glyph glyph-name="uni1EA4" unicode="&#x1ea4;" horiz-adv-x="568" d="M312 700 L408 700 L510 0 L410 0 L385 189 L154 189 L63 0 L-37 0 L312 700 Z M369 275 L336 567 L200 275 L369 275 Z M541 1011 L637 1011 L523 899 L459 899 L541 1011 Z M381 819 L266 765 L276 826 L396 904 L507 814 L497 753 L381 819 Z " />
<glyph glyph-name="uni1EAC" unicode="&#x1eac;" horiz-adv-x="568" d="M312 700 L408 700 L510 0 L410 0 L385 189 L154 189 L63 0 L-37 0 L312 700 Z M369 275 L336 567 L200 275 L369 275 Z M381 819 L266 765 L276 826 L396 904 L507 814 L497 753 L381 819 Z M177 -81 L269 -81 L251 -171 L159 -171 L177 -81 Z " />
<glyph glyph-name="uni1EA6" unicode="&#x1ea6;" horiz-adv-x="568" d="M312 700 L408 700 L510 0 L410 0 L385 189 L154 189 L63 0 L-37 0 L312 700 Z M369 275 L336 567 L200 275 L369 275 Z M386 1016 L481 1016 L517 899 L453 899 L386 1016 Z M381 819 L266 765 L276 826 L396 904 L507 814 L497 753 L381 819 Z " />
<glyph glyph-name="uni1EA8" unicode="&#x1ea8;" horiz-adv-x="568" d="M312 700 L408 700 L510 0 L410 0 L385 189 L154 189 L63 0 L-37 0 L312 700 Z M369 275 L336 567 L200 275 L369 275 Z M475 912 Q516 926 516 955 Q516 968 506.5 975.5 Q497 983 480 983 Q457 983 419 965 L411 1016 Q449 1034 492 1034 Q529 1034 552 1016.5 Q575 999 575 967 Q575 930 548.5 905.5 Q522 881 477 872 L475 912 Z M381 819 L266 765 L276 826 L396 904 L507 814 L497 753 L381 819 Z " />
<glyph glyph-name="uni1EAA" unicode="&#x1eaa;" horiz-adv-x="568" d="M312 700 L408 700 L510 0 L410 0 L385 189 L154 189 L63 0 L-37 0 L312 700 Z M369 275 L336 567 L200 275 L369 275 Z M481 935 Q466 935 450 940 Q434 945 407 956 Q365 974 350 974 Q336 974 326.5 965 Q317 956 316 940 L251 940 Q259 988 283 1014 Q307 1040 343 1040 Q358 1040 373.5 1035 Q389 1030 415 1019 Q431 1012 447.5 1006.5 Q464 1001 476 1001 Q490 1001 499 1010 Q508 1019 510 1035 L575 1035 Q568 986 543 960.5 Q518 935 481 935 Z M381 819 L266 765 L276 826 L396 904 L507 814 L497 753 L381 819 Z " />
<glyph glyph-name="uni0200" unicode="&#x200;" horiz-adv-x="568" d="M312 700 L408 700 L510 0 L410 0 L385 189 L154 189 L63 0 L-37 0 L312 700 Z M369 275 L336 567 L200 275 L369 275 Z M206 935 L302 935 L339 788 L275 788 L206 935 Z M349 935 L445 935 L477 788 L413 788 L349 935 Z " />
<glyph glyph-name="Adieresis" unicode="&#xc4;" horiz-adv-x="568" d="M312 700 L408 700 L510 0 L410 0 L385 189 L154 189 L63 0 L-37 0 L312 700 Z M369 275 L336 567 L200 275 L369 275 Z M260 881 L344 881 L328 801 L244 801 L260 881 Z M446 881 L530 881 L514 801 L430 801 L446 881 Z " />
<glyph glyph-name="uni1EA0" unicode="&#x1ea0;" horiz-adv-x="568" d="M312 700 L408 700 L510 0 L410 0 L385 189 L154 189 L63 0 L-37 0 L312 700 Z M369 275 L336 567 L200 275 L369 275 Z M177 -81 L269 -81 L251 -171 L159 -171 L177 -81 Z " />
<glyph glyph-name="Agrave" unicode="&#xc0;" horiz-adv-x="568" d="M312 700 L408 700 L510 0 L410 0 L385 189 L154 189 L63 0 L-37 0 L312 700 Z M369 275 L336 567 L200 275 L369 275 Z M298 855 L315 953 L474 847 L463 786 L298 855 Z " />
<glyph glyph-name="uni1EA2" unicode="&#x1ea2;" horiz-adv-x="568" d="M312 700 L408 700 L510 0 L410 0 L385 189 L154 189 L63 0 L-37 0 L312 700 Z M369 275 L336 567 L200 275 L369 275 Z M354 768 Q386 794 399 809 Q412 824 412 844 Q412 871 377 871 Q351 871 311 852 L303 903 Q343 922 387 922 Q425 922 448 904.5 Q471 887 472 855 Q472 819 449 791 Q426 763 382 735 L354 768 Z " />
<glyph glyph-name="uni0202" unicode="&#x202;" horiz-adv-x="568" d="M312 700 L408 700 L510 0 L410 0 L385 189 L154 189 L63 0 L-37 0 L312 700 Z M369 275 L336 567 L200 275 L369 275 Z M230 779 Q239 829 282.5 864 Q326 899 396 899 Q458 899 489 871 Q520 843 520 800 Q520 793 518 779 L438 779 Q439 784 439 791 Q439 813 424 825 Q409 837 385 837 Q357 837 336 822 Q315 807 310 779 L230 779 Z " />
<glyph glyph-name="Amacron" unicode="&#x100;" horiz-adv-x="568" d="M312 700 L408 700 L510 0 L410 0 L385 189 L154 189 L63 0 L-37 0 L312 700 Z M369 275 L336 567 L200 275 L369 275 Z M230 861 L546 861 L534 793 L218 793 L230 861 Z " />
<glyph glyph-name="Aogonek" unicode="&#x104;" horiz-adv-x="568" d="M312 700 L408 700 L510 0 L410 0 L385 189 L154 189 L63 0 L-37 0 L312 700 Z M369 275 L336 567 L200 275 L369 275 Z M510 0 Q464 -32 438.5 -59.5 Q413 -87 413 -119 Q413 -138 422.5 -147.5 Q432 -157 450 -157 Q479 -157 510 -140 L516 -189 Q480 -208 436 -208 Q399 -208 375.5 -190 Q352 -172 351 -139 Q351 -99 382.5 -61 Q414 -23 457 0 L510 0 Z " />
<glyph glyph-name="Aring" unicode="&#xc5;" horiz-adv-x="568" d="M312 700 L408 700 L510 0 L410 0 L385 189 L154 189 L63 0 L-37 0 L312 700 Z M369 275 L336 567 L200 275 L369 275 Z M374 778 Q332 778 309.5 800.5 Q287 823 287 857 Q287 907 323.5 942.5 Q360 978 410 978 Q452 978 474.5 955.5 Q497 933 497 899 Q497 848 461.5 813 Q426 778 374 778 Z M381 822 Q407 822 426 842 Q445 862 445 889 Q445 909 433 921.5 Q421 934 403 934 Q378 934 358.5 913.5 Q339 893 339 866 Q339 846 351 834 Q363 822 381 822 Z " />
<glyph glyph-name="Aringacute" unicode="&#x1fa;" horiz-adv-x="568" d="M312 700 L408 700 L510 0 L410 0 L385 189 L154 189 L63 0 L-37 0 L312 700 Z M369 275 L336 567 L200 275 L369 275 Z M372 756 Q330 756 307.5 778.5 Q285 801 285 836 Q285 883 319.5 917.5 Q354 952 402 952 Q444 952 466.5 929 Q489 906 489 872 Q489 824 455 790 Q421 756 372 756 Z M377 800 Q402 800 420 819 Q438 838 438 865 Q438 884 426.5 896 Q415 908 397 908 Q373 908 354.5 888.5 Q336 869 336 844 Q336 824 347.5 812 Q359 800 377 800 Z M342 1049 L513 1144 L499 1043 L334 985 L342 1049 Z " />
<glyph glyph-name="Atilde" unicode="&#xc3;" horiz-adv-x="568" d="M312 700 L408 700 L510 0 L410 0 L385 189 L154 189 L63 0 L-37 0 L312 700 Z M369 275 L336 567 L200 275 L369 275 Z M456 790 Q441 790 426 796 Q411 802 388 813 Q368 823 354.5 828.5 Q341 834 330 834 Q300 834 292 798 L220 798 Q246 909 325 909 Q341 909 355 903.5 Q369 898 390 886 Q408 876 421 870.5 Q434 865 448 865 Q479 865 486 904 L558 904 Q545 845 520 817.5 Q495 790 456 790 Z " />
<glyph glyph-name="AE" unicode="&#xc6;" horiz-adv-x="788" d="M379 700 L817 700 L801 613 L525 613 L489 409 L702 409 L687 323 L474 323 L432 86 L717 86 L702 0 L310 0 L341 180 L155 180 L43 0 L-52 0 L379 700 Z M358 272 L417 611 L214 272 L358 272 Z " />
<glyph glyph-name="AEacute" unicode="&#x1fc;" horiz-adv-x="788" d="M379 700 L817 700 L801 613 L525 613 L489 409 L702 409 L687 323 L474 323 L432 86 L717 86 L702 0 L310 0 L341 180 L155 180 L43 0 L-52 0 L379 700 Z M358 272 L417 611 L214 272 L358 272 Z M541 828 L712 923 L698 822 L533 764 L541 828 Z " />
<glyph glyph-name="B" unicode="B" horiz-adv-x="565" d="M151 700 L309 700 Q411 700 463 666 Q515 632 515 550 Q515 489 488.5 445 Q462 401 416 377 Q513 341 513 231 Q513 118 437.5 59 Q362 0 233 0 L28 0 L151 700 Z M287 409 Q347 409 382.5 441 Q418 473 418 527 Q418 573 393 594 Q368 615 318 615 L231 615 L195 409 L287 409 Z M234 86 Q312 86 362.5 121 Q413 156 413 221 Q413 323 299 323 L180 323 L138 86 L234 86 Z " />
<glyph glyph-name="C" unicode="C" horiz-adv-x="565" d="M305 -14 Q226 -14 167.5 21.5 Q109 57 77.5 124 Q46 191 46 284 Q46 405 98.5 503.5 Q151 602 239.5 658 Q328 714 431 714 Q478 714 524 702.5 Q570 691 601 673 L575 585 L554 594 Q515 611 485 619.5 Q455 628 418 628 Q338 628 277 580.5 Q216 533 183.5 455 Q151 377 151 289 Q151 190 194.5 131 Q238 72 323 72 Q358 72 392.5 81 Q427 90 471 107 L492 114 L486 26 Q448 8 399 -3 Q350 -14 305 -14 Z " />
<glyph glyph-name="Cacute" unicode="&#x106;" horiz-adv-x="565" d="M305 -14 Q226 -14 167.5 21.5 Q109 57 77.5 124 Q46 191 46 284 Q46 405 98.5 503.5 Q151 602 239.5 658 Q328 714 431 714 Q478 714 524 702.5 Q570 691 601 673 L575 585 L554 594 Q515 611 485 619.5 Q455 628 418 628 Q338 628 277 580.5 Q216 533 183.5 455 Q151 377 151 289 Q151 190 194.5 131 Q238 72 323 72 Q358 72 392.5 81 Q427 90 471 107 L492 114 L486 26 Q448 8 399 -3 Q350 -14 305 -14 Z M386 828 L557 923 L543 822 L378 764 L386 828 Z " />
<glyph glyph-name="Ccaron" unicode="&#x10c;" horiz-adv-x="565" d="M305 -14 Q226 -14 167.5 21.5 Q109 57 77.5 124 Q46 191 46 284 Q46 405 98.5 503.5 Q151 602 239.5 658 Q328 714 431 714 Q478 714 524 702.5 Q570 691 601 673 L575 585 L554 594 Q515 611 485 619.5 Q455 628 418 628 Q338 628 277 580.5 Q216 533 183.5 455 Q151 377 151 289 Q151 190 194.5 131 Q238 72 323 72 Q358 72 392.5 81 Q427 90 471 107 L492 114 L486 26 Q448 8 399 -3 Q350 -14 305 -14 Z M338 843 L348 904 L464 838 L584 900 L575 835 L449 753 L338 843 Z " />
<glyph glyph-name="Ccedilla" unicode="&#xc7;" horiz-adv-x="565" d="M418 628 Q338 628 277 580.5 Q216 533 183.5 455 Q151 377 151 289 Q151 190 194.5 131 Q238 72 323 72 Q358 72 392.5 81 Q427 90 471 107 L492 114 L486 26 Q454 11 414 0.5 Q374 -10 335 -13 L314 -54 L322 -54 Q357 -54 377 -71.5 Q397 -89 397 -120 Q397 -166 361.5 -196 Q326 -226 273 -226 Q230 -226 198 -207 L222 -158 Q250 -175 282 -175 Q308 -175 323 -162.5 Q338 -150 338 -131 Q338 -97 294 -97 Q270 -97 246 -105 L285 -13 Q174 -7 110 71.5 Q46 150 46 284 Q46 405 98.5 503.5 Q151 602 239.5 658 Q328 714 431 714 Q478 714 524 702.5 Q570 691 601 673 L575 585 L554 594 Q515 611 485 619.5 Q455 628 418 628 Z " />
<glyph glyph-name="uni1E08" unicode="&#x1e08;" horiz-adv-x="565" d="M543 822 L378 764 L386 828 L557 923 L543 822 Z M418 628 Q338 628 277 580.5 Q216 533 183.5 455 Q151 377 151 289 Q151 190 194.5 131 Q238 72 323 72 Q358 72 392.5 81 Q427 90 471 107 L492 114 L486 26 Q454 11 414 0.5 Q374 -10 335 -13 L314 -54 L322 -54 Q357 -54 377 -71.5 Q397 -89 397 -120 Q397 -166 361.5 -196 Q326 -226 273 -226 Q230 -226 198 -207 L222 -158 Q250 -175 282 -175 Q308 -175 323 -162.5 Q338 -150 338 -131 Q338 -97 294 -97 Q270 -97 246 -105 L285 -13 Q174 -7 110 71.5 Q46 150 46 284 Q46 405 98.5 503.5 Q151 602 239.5 658 Q328 714 431 714 Q478 714 524 702.5 Q570 691 601 673 L575 585 L554 594 Q515 611 485 619.5 Q455 628 418 628 Z " />
<glyph glyph-name="Ccircumflex" unicode="&#x108;" horiz-adv-x="565" d="M305 -14 Q226 -14 167.5 21.5 Q109 57 77.5 124 Q46 191 46 284 Q46 405 98.5 503.5 Q151 602 239.5 658 Q328 714 431 714 Q478 714 524 702.5 Q570 691 601 673 L575 585 L554 594 Q515 611 485 619.5 Q455 628 418 628 Q338 628 277 580.5 Q216 533 183.5 455 Q151 377 151 289 Q151 190 194.5 131 Q238 72 323 72 Q358 72 392.5 81 Q427 90 471 107 L492 114 L486 26 Q448 8 399 -3 Q350 -14 305 -14 Z M464 819 L349 765 L359 826 L479 904 L590 814 L580 753 L464 819 Z " />
<glyph glyph-name="Cdotaccent" unicode="&#x10a;" horiz-adv-x="565" d="M305 -14 Q226 -14 167.5 21.5 Q109 57 77.5 124 Q46 191 46 284 Q46 405 98.5 503.5 Q151 602 239.5 658 Q328 714 431 714 Q478 714 524 702.5 Q570 691 601 673 L575 585 L554 594 Q515 611 485 619.5 Q455 628 418 628 Q338 628 277 580.5 Q216 533 183.5 455 Q151 377 151 289 Q151 190 194.5 131 Q238 72 323 72 Q358 72 392.5 81 Q427 90 471 107 L492 114 L486 26 Q448 8 399 -3 Q350 -14 305 -14 Z M428 881 L522 881 L506 791 L412 791 L428 881 Z " />
<glyph glyph-name="D" unicode="D" horiz-adv-x="672" d="M151 700 L385 700 Q505 700 574.5 625 Q644 550 644 411 Q644 292 593 198 Q542 104 454.5 52 Q367 0 262 0 L28 0 L151 700 Z M277 86 Q358 86 417.5 129.5 Q477 173 508 246 Q539 319 539 406 Q539 505 496.5 559.5 Q454 614 370 614 L231 614 L138 86 L277 86 Z " />
<glyph glyph-name="uni01C4" unicode="&#x1c4;" horiz-adv-x="1159" d="M151 700 L385 700 Q505 700 574.5 625 Q644 550 644 411 Q644 292 593 198 Q542 104 454.5 52 Q367 0 262 0 L28 0 L151 700 Z M277 86 Q358 86 417.5 129.5 Q477 173 508 246 Q539 319 539 406 Q539 505 496.5 559.5 Q454 614 370 614 L231 614 L138 86 L277 86 Z M1049 614 L767 614 L782 700 L1221 700 L789 86 L1072 86 L1057 0 L618 0 L1049 614 Z M910 878 L922 939 L1033 859 L1169 939 L1157 864 L1015 768 L910 878 Z " />
<glyph glyph-name="Eth" unicode="&#xd0;" horiz-adv-x="674" d="M389 700 Q467 700 525 666.5 Q583 633 614.5 570 Q646 507 646 421 Q646 295 595.5 199.5 Q545 104 458 52 Q371 0 266 0 L34 0 L89 315 L19 315 L33 397 L104 397 L157 700 L389 700 Z M281 87 Q363 87 422.5 130 Q482 173 512.5 247 Q543 321 543 414 Q543 507 500 560.5 Q457 614 374 614 L234 614 L196 397 L329 397 L314 315 L181 315 L141 87 L281 87 Z " />
<glyph glyph-name="Dcaron" unicode="&#x10e;" horiz-adv-x="672" d="M151 700 L385 700 Q505 700 574.5 625 Q644 550 644 411 Q644 292 593 198 Q542 104 454.5 52 Q367 0 262 0 L28 0 L151 700 Z M277 86 Q358 86 417.5 129.5 Q477 173 508 246 Q539 319 539 406 Q539 505 496.5 559.5 Q454 614 370 614 L231 614 L138 86 L277 86 Z M306 843 L316 904 L432 838 L552 900 L543 835 L417 753 L306 843 Z " />
<glyph glyph-name="Dcroat" unicode="&#x110;" horiz-adv-x="674" d="M389 700 Q467 700 525 666.5 Q583 633 614.5 570 Q646 507 646 421 Q646 295 595.5 199.5 Q545 104 458 52 Q371 0 266 0 L34 0 L89 315 L19 315 L33 397 L104 397 L157 700 L389 700 Z M281 87 Q363 87 422.5 130 Q482 173 512.5 247 Q543 321 543 414 Q543 507 500 560.5 Q457 614 374 614 L234 614 L196 397 L329 397 L314 315 L181 315 L141 87 L281 87 Z " />
<glyph glyph-name="uni1E0C" unicode="&#x1e0c;" horiz-adv-x="672" d="M151 700 L385 700 Q505 700 574.5 625 Q644 550 644 411 Q644 292 593 198 Q542 104 454.5 52 Q367 0 262 0 L28 0 L151 700 Z M277 86 Q358 86 417.5 129.5 Q477 173 508 246 Q539 319 539 406 Q539 505 496.5 559.5 Q454 614 370 614 L231 614 L138 86 L277 86 Z M276 -81 L368 -81 L350 -171 L258 -171 L276 -81 Z " />
<glyph glyph-name="uni1E0E" unicode="&#x1e0e;" horiz-adv-x="672" d="M151 700 L385 700 Q505 700 574.5 625 Q644 550 644 411 Q644 292 593 198 Q542 104 454.5 52 Q367 0 262 0 L28 0 L151 700 Z M277 86 Q358 86 417.5 129.5 Q477 173 508 246 Q539 319 539 406 Q539 505 496.5 559.5 Q454 614 370 614 L231 614 L138 86 L277 86 Z M167 -91 L479 -91 L465 -162 L153 -162 L167 -91 Z " />
<glyph glyph-name="uni01C5" unicode="&#x1c5;" horiz-adv-x="1094" d="M151 700 L385 700 Q505 700 574.5 625 Q644 550 644 411 Q644 292 593 198 Q542 104 454.5 52 Q367 0 262 0 L28 0 L151 700 Z M277 86 Q358 86 417.5 129.5 Q477 173 508 246 Q539 319 539 406 Q539 505 496.5 559.5 Q454 614 370 614 L231 614 L138 86 L277 86 Z M947 420 L718 420 L730 490 L1105 490 L794 70 L1025 70 L1012 0 L635 0 L947 420 Z M826 668 L838 729 L949 649 L1085 729 L1073 654 L931 558 L826 668 Z " />
<glyph glyph-name="E" unicode="E" horiz-adv-x="514" d="M151 700 L542 700 L527 614 L232 614 L196 409 L428 409 L413 323 L181 323 L139 86 L442 86 L427 0 L28 0 L151 700 Z " />
<glyph glyph-name="Eacute" unicode="&#xc9;" horiz-adv-x="514" d="M151 700 L542 700 L527 614 L232 614 L196 409 L428 409 L413 323 L181 323 L139 86 L442 86 L427 0 L28 0 L151 700 Z M290 853 L473 957 L456 846 L278 785 L290 853 Z " />
<glyph glyph-name="Ebreve" unicode="&#x114;" horiz-adv-x="514" d="M151 700 L542 700 L527 614 L232 614 L196 409 L428 409 L413 323 L181 323 L139 86 L442 86 L427 0 L28 0 L151 700 Z M358 764 Q294 764 262 791.5 Q230 819 230 862 Q230 870 232 884 L312 884 Q311 880 311 872 Q311 850 326.5 838 Q342 826 367 826 Q396 826 417.5 841 Q439 856 444 884 L524 884 Q515 829 472.5 796.5 Q430 764 358 764 Z " />
<glyph glyph-name="Ecaron" unicode="&#x11a;" horiz-adv-x="514" d="M151 700 L542 700 L527 614 L232 614 L196 409 L428 409 L413 323 L181 323 L139 86 L442 86 L427 0 L28 0 L151 700 Z M240 843 L250 904 L366 838 L486 900 L477 835 L351 753 L240 843 Z " />
<glyph glyph-name="uni1E1C" unicode="&#x1e1c;" horiz-adv-x="514" d="M151 700 L542 700 L527 614 L232 614 L196 409 L428 409 L413 323 L181 323 L139 86 L442 86 L427 0 L28 0 L151 700 Z M247 -54 Q282 -54 302 -71.5 Q322 -89 322 -120 Q322 -166 286.5 -196 Q251 -226 198 -226 Q155 -226 123 -207 L147 -158 Q175 -175 207 -175 Q233 -175 248 -162.5 Q263 -150 263 -131 Q263 -97 219 -97 Q195 -97 171 -105 L216 0 L266 0 L239 -54 L247 -54 Z M358 764 Q294 764 262 791.5 Q230 819 230 862 Q230 870 232 884 L312 884 Q311 880 311 872 Q311 850 326.5 838 Q342 826 367 826 Q396 826 417.5 841 Q439 856 444 884 L524 884 Q515 829 472.5 796.5 Q430 764 358 764 Z " />
<glyph glyph-name="Ecircumflex" unicode="&#xca;" horiz-adv-x="514" d="M151 700 L542 700 L527 614 L232 614 L196 409 L428 409 L413 323 L181 323 L139 86 L442 86 L427 0 L28 0 L151 700 Z M265 848 L393 945 L498 835 L486 774 L375 854 L250 784 L265 848 Z " />
<glyph glyph-name="uni1EBE" unicode="&#x1ebe;" horiz-adv-x="514" d="M151 700 L542 700 L527 614 L232 614 L196 409 L428 409 L413 323 L181 323 L139 86 L442 86 L427 0 L28 0 L151 700 Z M526 1011 L622 1011 L508 899 L444 899 L526 1011 Z M366 819 L251 765 L261 826 L381 904 L492 814 L482 753 L366 819 Z " />
<glyph glyph-name="uni1EC6" unicode="&#x1ec6;" horiz-adv-x="514" d="M151 700 L542 700 L527 614 L232 614 L196 409 L428 409 L413 323 L181 323 L139 86 L442 86 L427 0 L28 0 L151 700 Z M366 819 L251 765 L261 826 L381 904 L492 814 L482 753 L366 819 Z M178 -81 L270 -81 L252 -171 L160 -171 L178 -81 Z " />
<glyph glyph-name="uni1EC0" unicode="&#x1ec0;" horiz-adv-x="514" d="M151 700 L542 700 L527 614 L232 614 L196 409 L428 409 L413 323 L181 323 L139 86 L442 86 L427 0 L28 0 L151 700 Z M371 1016 L466 1016 L502 899 L438 899 L371 1016 Z M366 819 L251 765 L261 826 L381 904 L492 814 L482 753 L366 819 Z " />
<glyph glyph-name="uni1EC2" unicode="&#x1ec2;" horiz-adv-x="514" d="M151 700 L542 700 L527 614 L232 614 L196 409 L428 409 L413 323 L181 323 L139 86 L442 86 L427 0 L28 0 L151 700 Z M460 912 Q501 926 501 955 Q501 968 491.5 975.5 Q482 983 465 983 Q442 983 404 965 L396 1016 Q434 1034 477 1034 Q514 1034 537 1016.5 Q560 999 560 967 Q560 930 533.5 905.5 Q507 881 462 872 L460 912 Z M366 819 L251 765 L261 826 L381 904 L492 814 L482 753 L366 819 Z " />
<glyph glyph-name="uni1EC4" unicode="&#x1ec4;" horiz-adv-x="514" d="M151 700 L542 700 L527 614 L232 614 L196 409 L428 409 L413 323 L181 323 L139 86 L442 86 L427 0 L28 0 L151 700 Z M466 935 Q451 935 435 940 Q419 945 392 956 Q350 974 335 974 Q321 974 311.5 965 Q302 956 301 940 L236 940 Q244 988 268 1014 Q292 1040 328 1040 Q343 1040 358.5 1035 Q374 1030 400 1019 Q416 1012 432.5 1006.5 Q449 1001 461 1001 Q475 1001 484 1010 Q493 1019 495 1035 L560 1035 Q553 986 528 960.5 Q503 935 466 935 Z M366 819 L251 765 L261 826 L381 904 L492 814 L482 753 L366 819 Z " />
<glyph glyph-name="uni0204" unicode="&#x204;" horiz-adv-x="514" d="M151 700 L542 700 L527 614 L232 614 L196 409 L428 409 L413 323 L181 323 L139 86 L442 86 L427 0 L28 0 L151 700 Z M191 935 L287 935 L324 788 L260 788 L191 935 Z M334 935 L430 935 L462 788 L398 788 L334 935 Z " />
<glyph glyph-name="Edieresis" unicode="&#xcb;" horiz-adv-x="514" d="M151 700 L542 700 L527 614 L232 614 L196 409 L428 409 L413 323 L181 323 L139 86 L442 86 L427 0 L28 0 L151 700 Z M245 881 L329 881 L313 801 L229 801 L245 881 Z M431 881 L515 881 L499 801 L415 801 L431 881 Z " />
<glyph glyph-name="Edotaccent" unicode="&#x116;" horiz-adv-x="514" d="M151 700 L542 700 L527 614 L232 614 L196 409 L428 409 L413 323 L181 323 L139 86 L442 86 L427 0 L28 0 L151 700 Z M330 881 L424 881 L408 791 L314 791 L330 881 Z " />
<glyph glyph-name="uni1EB8" unicode="&#x1eb8;" horiz-adv-x="514" d="M151 700 L542 700 L527 614 L232 614 L196 409 L428 409 L413 323 L181 323 L139 86 L442 86 L427 0 L28 0 L151 700 Z M178 -81 L270 -81 L252 -171 L160 -171 L178 -81 Z " />
<glyph glyph-name="Egrave" unicode="&#xc8;" horiz-adv-x="514" d="M151 700 L542 700 L527 614 L232 614 L196 409 L428 409 L413 323 L181 323 L139 86 L442 86 L427 0 L28 0 L151 700 Z M283 855 L300 953 L459 847 L448 786 L283 855 Z " />
<glyph glyph-name="uni1EBA" unicode="&#x1eba;" horiz-adv-x="514" d="M151 700 L542 700 L527 614 L232 614 L196 409 L428 409 L413 323 L181 323 L139 86 L442 86 L427 0 L28 0 L151 700 Z M339 768 Q371 794 384 809 Q397 824 397 844 Q397 871 362 871 Q336 871 296 852 L288 903 Q328 922 372 922 Q410 922 433 904.5 Q456 887 457 855 Q457 819 434 791 Q411 763 367 735 L339 768 Z " />
<glyph glyph-name="uni0206" unicode="&#x206;" horiz-adv-x="514" d="M151 700 L542 700 L527 614 L232 614 L196 409 L428 409 L413 323 L181 323 L139 86 L442 86 L427 0 L28 0 L151 700 Z M215 779 Q224 829 267.5 864 Q311 899 381 899 Q443 899 474 871 Q505 843 505 800 Q505 793 503 779 L423 779 Q424 784 424 791 Q424 813 409 825 Q394 837 370 837 Q342 837 321 822 Q300 807 295 779 L215 779 Z " />
<glyph glyph-name="Emacron" unicode="&#x112;" horiz-adv-x="514" d="M151 700 L542 700 L527 614 L232 614 L196 409 L428 409 L413 323 L181 323 L139 86 L442 86 L427 0 L28 0 L151 700 Z M215 861 L531 861 L519 793 L203 793 L215 861 Z " />
<glyph glyph-name="uni1E16" unicode="&#x1e16;" horiz-adv-x="514" d="M151 700 L542 700 L527 614 L232 614 L196 409 L428 409 L413 323 L181 323 L139 86 L442 86 L427 0 L28 0 L151 700 Z M215 861 L531 861 L519 793 L203 793 L215 861 Z M325 980 L496 1075 L482 974 L317 916 L325 980 Z " />
<glyph glyph-name="uni1E14" unicode="&#x1e14;" horiz-adv-x="514" d="M151 700 L542 700 L527 614 L232 614 L196 409 L428 409 L413 323 L181 323 L139 86 L442 86 L427 0 L28 0 L151 700 Z M215 861 L531 861 L519 793 L203 793 L215 861 Z M315 974 L332 1069 L492 974 L481 916 L315 974 Z " />
<glyph glyph-name="Eogonek" unicode="&#x118;" horiz-adv-x="514" d="M151 700 L542 700 L527 614 L232 614 L196 409 L428 409 L413 323 L181 323 L139 86 L442 86 L427 0 L28 0 L151 700 Z M427 0 Q381 -32 355.5 -59.5 Q330 -87 330 -119 Q330 -138 339.5 -147.5 Q349 -157 367 -157 Q396 -157 427 -140 L433 -189 Q397 -208 353 -208 Q316 -208 292.5 -190 Q269 -172 268 -139 Q268 -99 299.5 -61 Q331 -23 374 0 L427 0 Z " />
<glyph glyph-name="uni1EBC" unicode="&#x1ebc;" horiz-adv-x="514" d="M151 700 L542 700 L527 614 L232 614 L196 409 L428 409 L413 323 L181 323 L139 86 L442 86 L427 0 L28 0 L151 700 Z M441 790 Q426 790 411 796 Q396 802 373 813 Q353 823 339.5 828.5 Q326 834 315 834 Q285 834 277 798 L205 798 Q231 909 310 909 Q326 909 340 903.5 Q354 898 375 886 Q393 876 406 870.5 Q419 865 433 865 Q464 865 471 904 L543 904 Q530 845 505 817.5 Q480 790 441 790 Z " />
<glyph glyph-name="F" unicode="F" horiz-adv-x="487" d="M151 700 L537 700 L522 614 L231 614 L195 409 L419 409 L404 323 L180 323 L123 0 L28 0 L151 700 Z " />
<glyph glyph-name="G" unicode="G" horiz-adv-x="621" d="M309 -14 Q231 -14 171.5 21.5 Q112 57 79.5 124.5 Q47 192 47 285 Q47 406 99 504 Q151 602 239 658 Q327 714 432 714 Q480 714 531 702.5 Q582 691 615 674 L591 591 Q552 607 507 617.5 Q462 628 422 628 Q337 628 275.5 579.5 Q214 531 182.5 453.5 Q151 376 151 290 Q151 188 197 130 Q243 72 335 72 Q394 72 438 91 L469 265 L379 265 L394 351 L579 351 L524 39 Q483 16 424 1 Q365 -14 309 -14 Z " />
<glyph glyph-name="Gbreve" unicode="&#x11e;" horiz-adv-x="621" d="M309 -14 Q231 -14 171.5 21.5 Q112 57 79.5 124.5 Q47 192 47 285 Q47 406 99 504 Q151 602 239 658 Q327 714 432 714 Q480 714 531 702.5 Q582 691 615 674 L591 591 Q552 607 507 617.5 Q462 628 422 628 Q337 628 275.5 579.5 Q214 531 182.5 453.5 Q151 376 151 290 Q151 188 197 130 Q243 72 335 72 Q394 72 438 91 L469 265 L379 265 L394 351 L579 351 L524 39 Q483 16 424 1 Q365 -14 309 -14 Z M440 764 Q376 764 344 791.5 Q312 819 312 862 Q312 870 314 884 L394 884 Q393 880 393 872 Q393 850 408.5 838 Q424 826 449 826 Q478 826 499.5 841 Q521 856 526 884 L606 884 Q597 829 554.5 796.5 Q512 764 440 764 Z " />
<glyph glyph-name="Gcaron" unicode="&#x1e6;" horiz-adv-x="621" d="M309 -14 Q231 -14 171.5 21.5 Q112 57 79.5 124.5 Q47 192 47 285 Q47 406 99 504 Q151 602 239 658 Q327 714 432 714 Q480 714 531 702.5 Q582 691 615 674 L591 591 Q552 607 507 617.5 Q462 628 422 628 Q337 628 275.5 579.5 Q214 531 182.5 453.5 Q151 376 151 290 Q151 188 197 130 Q243 72 335 72 Q394 72 438 91 L469 265 L379 265 L394 351 L579 351 L524 39 Q483 16 424 1 Q365 -14 309 -14 Z M322 843 L332 904 L448 838 L568 900 L559 835 L433 753 L322 843 Z " />
<glyph glyph-name="Gcircumflex" unicode="&#x11c;" horiz-adv-x="621" d="M309 -14 Q231 -14 171.5 21.5 Q112 57 79.5 124.5 Q47 192 47 285 Q47 406 99 504 Q151 602 239 658 Q327 714 432 714 Q480 714 531 702.5 Q582 691 615 674 L591 591 Q552 607 507 617.5 Q462 628 422 628 Q337 628 275.5 579.5 Q214 531 182.5 453.5 Q151 376 151 290 Q151 188 197 130 Q243 72 335 72 Q394 72 438 91 L469 265 L379 265 L394 351 L579 351 L524 39 Q483 16 424 1 Q365 -14 309 -14 Z M448 819 L333 765 L343 826 L463 904 L574 814 L564 753 L448 819 Z " />
<glyph glyph-name="Gcommaaccent" unicode="&#x122;" horiz-adv-x="621" d="M309 -14 Q231 -14 171.5 21.5 Q112 57 79.5 124.5 Q47 192 47 285 Q47 406 99 504 Q151 602 239 658 Q327 714 432 714 Q480 714 531 702.5 Q582 691 615 674 L591 591 Q552 607 507 617.5 Q462 628 422 628 Q337 628 275.5 579.5 Q214 531 182.5 453.5 Q151 376 151 290 Q151 188 197 130 Q243 72 335 72 Q394 72 438 91 L469 265 L379 265 L394 351 L579 351 L524 39 Q483 16 424 1 Q365 -14 309 -14 Z M229 -262 L273 -177 L237 -177 L252 -91 L348 -91 L333 -177 L266 -262 L229 -262 Z " />
<glyph glyph-name="Gdotaccent" unicode="&#x120;" horiz-adv-x="621" d="M309 -14 Q231 -14 171.5 21.5 Q112 57 79.5 124.5 Q47 192 47 285 Q47 406 99 504 Q151 602 239 658 Q327 714 432 714 Q480 714 531 702.5 Q582 691 615 674 L591 591 Q552 607 507 617.5 Q462 628 422 628 Q337 628 275.5 579.5 Q214 531 182.5 453.5 Q151 376 151 290 Q151 188 197 130 Q243 72 335 72 Q394 72 438 91 L469 265 L379 265 L394 351 L579 351 L524 39 Q483 16 424 1 Q365 -14 309 -14 Z M412 881 L506 881 L490 791 L396 791 L412 881 Z " />
<glyph glyph-name="uni1E20" unicode="&#x1e20;" horiz-adv-x="621" d="M309 -14 Q231 -14 171.5 21.5 Q112 57 79.5 124.5 Q47 192 47 285 Q47 406 99 504 Q151 602 239 658 Q327 714 432 714 Q480 714 531 702.5 Q582 691 615 674 L591 591 Q552 607 507 617.5 Q462 628 422 628 Q337 628 275.5 579.5 Q214 531 182.5 453.5 Q151 376 151 290 Q151 188 197 130 Q243 72 335 72 Q394 72 438 91 L469 265 L379 265 L394 351 L579 351 L524 39 Q483 16 424 1 Q365 -14 309 -14 Z M297 861 L613 861 L601 793 L285 793 L297 861 Z " />
<glyph glyph-name="H" unicode="H" horiz-adv-x="688" d="M151 700 L246 700 L195 411 L533 411 L584 700 L679 700 L555 0 L460 0 L517 321 L180 321 L123 0 L28 0 L151 700 Z " />
<glyph glyph-name="Hbar" unicode="&#x126;" horiz-adv-x="688" d="M704 501 L644 501 L555 0 L460 0 L517 321 L180 321 L123 0 L28 0 L116 501 L56 501 L66 563 L127 563 L151 700 L246 700 L222 563 L560 563 L584 700 L679 700 L655 563 L715 563 L704 501 Z M549 501 L211 501 L195 411 L533 411 L549 501 Z " />
<glyph glyph-name="uni1E2A" unicode="&#x1e2a;" horiz-adv-x="688" d="M151 700 L246 700 L195 411 L533 411 L584 700 L679 700 L555 0 L460 0 L517 321 L180 321 L123 0 L28 0 L151 700 Z M255 -218 Q194 -218 162.5 -189.5 Q131 -161 131 -117 Q131 -103 135 -91 L213 -91 Q210 -99 210 -108 Q210 -129 224 -140.5 Q238 -152 263 -152 Q291 -152 311 -136.5 Q331 -121 336 -91 L419 -91 Q410 -147 367.5 -182.5 Q325 -218 255 -218 Z " />
<glyph glyph-name="Hcircumflex" unicode="&#x124;" horiz-adv-x="688" d="M151 700 L246 700 L195 411 L533 411 L584 700 L679 700 L555 0 L460 0 L517 321 L180 321 L123 0 L28 0 L151 700 Z M436 819 L321 765 L331 826 L451 904 L562 814 L552 753 L436 819 Z " />
<glyph glyph-name="uni1E24" unicode="&#x1e24;" horiz-adv-x="688" d="M151 700 L246 700 L195 411 L533 411 L584 700 L679 700 L555 0 L460 0 L517 321 L180 321 L123 0 L28 0 L151 700 Z M232 -81 L324 -81 L306 -171 L214 -171 L232 -81 Z " />
<glyph glyph-name="I" unicode="I" horiz-adv-x="255" d="M151 700 L246 700 L123 0 L28 0 L151 700 Z " />
<glyph glyph-name="IJ" unicode="&#x132;" horiz-adv-x="668" d="M280 -14 Q174 -14 120.5 41 Q67 96 65 198 L165 221 Q167 151 197 111.5 Q227 72 295 72 Q391 72 439 146 Q487 220 509 343 L572 700 L667 700 L596 297 Q570 149 490 67.5 Q410 -14 280 -14 Z M145 700 L240 700 L177 343 Q171 311 169 291 L73 291 L145 700 Z " />
<glyph glyph-name="Iacute" unicode="&#xcd;" horiz-adv-x="255" d="M151 700 L246 700 L123 0 L28 0 L151 700 Z M143 853 L326 957 L309 846 L131 785 L143 853 Z " />
<glyph glyph-name="Ibreve" unicode="&#x12c;" horiz-adv-x="255" d="M151 700 L246 700 L123 0 L28 0 L151 700 Z M211 764 Q147 764 115 791.5 Q83 819 83 862 Q83 870 85 884 L165 884 Q164 880 164 872 Q164 850 179.5 838 Q195 826 220 826 Q249 826 270.5 841 Q292 856 297 884 L377 884 Q368 829 325.5 796.5 Q283 764 211 764 Z " />
<glyph glyph-name="Icircumflex" unicode="&#xce;" horiz-adv-x="255" d="M151 700 L246 700 L123 0 L28 0 L151 700 Z M118 848 L246 945 L351 835 L339 774 L228 854 L103 784 L118 848 Z " />
<glyph glyph-name="uni0208" unicode="&#x208;" horiz-adv-x="255" d="M151 700 L246 700 L123 0 L28 0 L151 700 Z M44 935 L140 935 L177 788 L113 788 L44 935 Z M187 935 L283 935 L315 788 L251 788 L187 935 Z " />
<glyph glyph-name="Idieresis" unicode="&#xcf;" horiz-adv-x="255" d="M151 700 L246 700 L123 0 L28 0 L151 700 Z M98 881 L182 881 L166 801 L82 801 L98 881 Z M284 881 L368 881 L352 801 L268 801 L284 881 Z " />
<glyph glyph-name="uni1E2E" unicode="&#x1e2e;" horiz-adv-x="255" d="M151 700 L246 700 L123 0 L28 0 L151 700 Z M94 869 L178 869 L164 794 L80 794 L94 869 Z M278 869 L362 869 L348 794 L264 794 L278 869 Z M169 988 L340 1083 L326 982 L161 924 L169 988 Z " />
<glyph glyph-name="Idot" unicode="&#x130;" horiz-adv-x="255" d="M151 700 L246 700 L123 0 L28 0 L151 700 Z M183 881 L277 881 L261 791 L167 791 L183 881 Z " />
<glyph glyph-name="uni1ECA" unicode="&#x1eca;" horiz-adv-x="255" d="M151 700 L246 700 L123 0 L28 0 L151 700 Z M16 -81 L108 -81 L90 -171 L-2 -171 L16 -81 Z " />
<glyph glyph-name="Igrave" unicode="&#xcc;" horiz-adv-x="255" d="M151 700 L246 700 L123 0 L28 0 L151 700 Z M136 855 L153 953 L312 847 L301 786 L136 855 Z " />
<glyph glyph-name="uni1EC8" unicode="&#x1ec8;" horiz-adv-x="255" d="M151 700 L246 700 L123 0 L28 0 L151 700 Z M192 768 Q224 794 237 809 Q250 824 250 844 Q250 871 215 871 Q189 871 149 852 L141 903 Q181 922 225 922 Q263 922 286 904.5 Q309 887 310 855 Q310 819 287 791 Q264 763 220 735 L192 768 Z " />
<glyph glyph-name="uni020A" unicode="&#x20a;" horiz-adv-x="255" d="M151 700 L246 700 L123 0 L28 0 L151 700 Z M68 779 Q77 829 120.5 864 Q164 899 234 899 Q296 899 327 871 Q358 843 358 800 Q358 793 356 779 L276 779 Q277 784 277 791 Q277 813 262 825 Q247 837 223 837 Q195 837 174 822 Q153 807 148 779 L68 779 Z " />
<glyph glyph-name="Imacron" unicode="&#x12a;" horiz-adv-x="255" d="M151 700 L246 700 L123 0 L28 0 L151 700 Z M68 861 L384 861 L372 793 L56 793 L68 861 Z " />
<glyph glyph-name="Iogonek" unicode="&#x12e;" horiz-adv-x="255" d="M151 700 L246 700 L123 0 L28 0 L151 700 Z M123 0 Q77 -32 51.5 -59.5 Q26 -87 26 -119 Q26 -138 35.5 -147.5 Q45 -157 63 -157 Q92 -157 123 -140 L129 -189 Q93 -208 49 -208 Q12 -208 -11.5 -190 Q-35 -172 -36 -139 Q-36 -99 -4.5 -61 Q27 -23 70 0 L123 0 Z " />
<glyph glyph-name="Itilde" unicode="&#x128;" horiz-adv-x="255" d="M151 700 L246 700 L123 0 L28 0 L151 700 Z M294 790 Q279 790 264 796 Q249 802 226 813 Q206 823 192.5 828.5 Q179 834 168 834 Q138 834 130 798 L58 798 Q84 909 163 909 Q179 909 193 903.5 Q207 898 228 886 Q246 876 259 870.5 Q272 865 286 865 Q317 865 324 904 L396 904 Q383 845 358 817.5 Q333 790 294 790 Z " />
<glyph glyph-name="J" unicode="J" horiz-adv-x="256" d="M-74 -116 L-65 -116 Q-22 -116 -2.5 -90 Q17 -64 28 -3 L152 700 L247 700 L118 -32 Q106 -100 62.5 -136 Q19 -172 -55 -172 L-76 -172 L-74 -116 Z " />
<glyph glyph-name="Jcircumflex" unicode="&#x134;" horiz-adv-x="256" d="M-74 -116 L-65 -116 Q-22 -116 -2.5 -90 Q17 -64 28 -3 L152 700 L247 700 L118 -32 Q106 -100 62.5 -136 Q19 -172 -55 -172 L-76 -172 L-74 -116 Z M221 819 L106 765 L116 826 L236 904 L347 814 L337 753 L221 819 Z " />
<glyph glyph-name="K" unicode="K" horiz-adv-x="547" d="M151 700 L246 700 L123 0 L28 0 L151 700 Z M197 371 L484 700 L598 700 L299 371 L492 0 L383 0 L197 371 Z " />
<glyph glyph-name="Kcommaaccent" unicode="&#x136;" horiz-adv-x="547" d="M151 700 L246 700 L123 0 L28 0 L151 700 Z M197 371 L484 700 L598 700 L299 371 L492 0 L383 0 L197 371 Z M171 -262 L215 -177 L179 -177 L194 -91 L290 -91 L275 -177 L208 -262 L171 -262 Z " />
<glyph glyph-name="L" unicode="L" horiz-adv-x="467" d="M151 700 L246 700 L138 86 L418 86 L402 0 L28 0 L151 700 Z " />
<glyph glyph-name="uni01C7" unicode="&#x1c7;" horiz-adv-x="723" d="M151 700 L246 700 L138 86 L418 86 L402 0 L28 0 L151 700 Z M393 -116 L402 -116 Q445 -116 464.5 -90 Q484 -64 495 -3 L619 700 L714 700 L585 -32 Q573 -100 529.5 -136 Q486 -172 412 -172 L391 -172 L393 -116 Z " />
<glyph glyph-name="Lacute" unicode="&#x139;" horiz-adv-x="467" d="M151 700 L246 700 L138 86 L418 86 L402 0 L28 0 L151 700 Z M142 828 L313 923 L299 822 L134 764 L142 828 Z " />
<glyph glyph-name="Lcaron" unicode="&#x13d;" horiz-adv-x="467" d="M151 700 L246 700 L138 86 L418 86 L402 0 L28 0 L151 700 Z M466 700 L559 700 L501 533 L436 533 L466 700 Z " />
<glyph glyph-name="Lcommaaccent" unicode="&#x13b;" horiz-adv-x="467" d="M151 700 L246 700 L138 86 L418 86 L402 0 L28 0 L151 700 Z M152 -262 L196 -177 L160 -177 L175 -91 L271 -91 L256 -177 L189 -262 L152 -262 Z " />
<glyph glyph-name="Ldot" unicode="&#x13f;" horiz-adv-x="467" d="M151 700 L246 700 L138 86 L418 86 L402 0 L28 0 L151 700 Z M326 435 L424 435 L406 333 L308 333 L326 435 Z " />
<glyph glyph-name="uni1E36" unicode="&#x1e36;" horiz-adv-x="467" d="M151 700 L246 700 L138 86 L418 86 L402 0 L28 0 L151 700 Z M174 -81 L266 -81 L248 -171 L156 -171 L174 -81 Z " />
<glyph glyph-name="uni01C8" unicode="&#x1c8;" horiz-adv-x="681" d="M151 700 L246 700 L138 86 L418 86 L402 0 L28 0 L151 700 Z M601 700 L692 700 L674 600 L583 600 L601 700 Z M385 -173 Q412 -170 426 -161.5 Q440 -153 448.5 -133.5 Q457 -114 464 -73 L563 490 L654 490 L549 -107 Q537 -171 501.5 -200 Q466 -229 414 -237 L382 -242 L385 -173 Z " />
<glyph glyph-name="uni1E3A" unicode="&#x1e3a;" horiz-adv-x="467" d="M151 700 L246 700 L138 86 L418 86 L402 0 L28 0 L151 700 Z M65 -91 L377 -91 L363 -162 L51 -162 L65 -91 Z " />
<glyph glyph-name="Lslash" unicode="&#x141;" horiz-adv-x="467" d="M418 86 L402 0 L28 0 L94 376 L20 348 L33 421 L107 449 L151 700 L246 700 L209 487 L399 559 L386 486 L196 414 L138 86 L418 86 Z " />
<glyph glyph-name="M" unicode="M" horiz-adv-x="752" d="M206 700 L292 700 L386 353 L602 700 L688 700 L650 0 L550 0 L584 516 L354 166 L245 516 L97 0 L-3 0 L206 700 Z " />
<glyph glyph-name="uni1E42" unicode="&#x1e42;" horiz-adv-x="752" d="M206 700 L292 700 L386 353 L602 700 L688 700 L650 0 L550 0 L584 516 L354 166 L245 516 L97 0 L-3 0 L206 700 Z M264 -81 L356 -81 L338 -171 L246 -171 L264 -81 Z " />
<glyph glyph-name="N" unicode="N" horiz-adv-x="653" d="M151 700 L251 700 L456 176 L548 700 L644 700 L520 0 L440 0 L221 553 L123 0 L28 0 L151 700 Z " />
<glyph glyph-name="uni01CA" unicode="&#x1ca;" horiz-adv-x="909" d="M151 700 L251 700 L456 176 L548 700 L644 700 L520 0 L440 0 L221 553 L123 0 L28 0 L151 700 Z M579 -116 L588 -116 Q631 -116 650.5 -90 Q670 -64 681 -3 L805 700 L900 700 L771 -32 Q759 -100 715.5 -136 Q672 -172 598 -172 L577 -172 L579 -116 Z " />
<glyph glyph-name="Nacute" unicode="&#x143;" horiz-adv-x="653" d="M151 700 L251 700 L456 176 L548 700 L644 700 L520 0 L440 0 L221 553 L123 0 L28 0 L151 700 Z M343 828 L514 923 L500 822 L335 764 L343 828 Z " />
<glyph glyph-name="Ncaron" unicode="&#x147;" horiz-adv-x="653" d="M151 700 L251 700 L456 176 L548 700 L644 700 L520 0 L440 0 L221 553 L123 0 L28 0 L151 700 Z M295 843 L305 904 L421 838 L541 900 L532 835 L406 753 L295 843 Z " />
<glyph glyph-name="Ncommaaccent" unicode="&#x145;" horiz-adv-x="653" d="M151 700 L251 700 L456 176 L548 700 L644 700 L520 0 L440 0 L221 553 L123 0 L28 0 L151 700 Z M200 -262 L244 -177 L208 -177 L223 -91 L319 -91 L304 -177 L237 -262 L200 -262 Z " />
<glyph glyph-name="uni1E44" unicode="&#x1e44;" horiz-adv-x="653" d="M151 700 L251 700 L456 176 L548 700 L644 700 L520 0 L440 0 L221 553 L123 0 L28 0 L151 700 Z M385 881 L479 881 L463 791 L369 791 L385 881 Z " />
<glyph glyph-name="uni1E46" unicode="&#x1e46;" horiz-adv-x="653" d="M151 700 L251 700 L456 176 L548 700 L644 700 L520 0 L440 0 L221 553 L123 0 L28 0 L151 700 Z M222 -81 L314 -81 L296 -171 L204 -171 L222 -81 Z " />
<glyph glyph-name="Eng" unicode="&#x14a;" horiz-adv-x="674" d="M554 40 Q534 -72 469.5 -128.5 Q405 -185 311 -185 Q253 -185 203 -163 L230 -79 Q275 -99 322 -99 Q376 -99 412.5 -63.5 Q449 -28 459 40 L532 450 Q536 471 536 495 Q536 560 503 594 Q470 628 405 628 Q308 628 225 545 L129 0 L34 0 L158 700 L238 700 L232 629 Q334 714 451 714 Q540 714 587 662 Q634 610 634 521 Q634 492 628 460 L554 40 Z " />
<glyph glyph-name="uni01CB" unicode="&#x1cb;" horiz-adv-x="857" d="M151 700 L251 700 L456 176 L548 700 L644 700 L520 0 L440 0 L221 553 L123 0 L28 0 L151 700 Z M777 700 L868 700 L850 600 L759 600 L777 700 Z M561 -173 Q588 -170 602 -161.5 Q616 -153 624.5 -133.5 Q633 -114 640 -73 L739 490 L830 490 L725 -107 Q713 -171 677.5 -200 Q642 -229 590 -237 L558 -242 L561 -173 Z " />
<glyph glyph-name="uni1E48" unicode="&#x1e48;" horiz-adv-x="653" d="M151 700 L251 700 L456 176 L548 700 L644 700 L520 0 L440 0 L221 553 L123 0 L28 0 L151 700 Z M113 -91 L425 -91 L411 -162 L99 -162 L113 -91 Z " />
<glyph glyph-name="Ntilde" unicode="&#xd1;" horiz-adv-x="653" d="M151 700 L251 700 L456 176 L548 700 L644 700 L520 0 L440 0 L221 553 L123 0 L28 0 L151 700 Z M493 788 Q478 788 462 793 Q446 798 419 809 Q377 827 362 827 Q348 827 338.5 818 Q329 809 328 793 L263 793 Q271 841 295 867 Q319 893 355 893 Q370 893 385.5 888 Q401 883 427 872 Q443 865 459.5 859.5 Q476 854 488 854 Q502 854 511 863 Q520 872 522 888 L587 888 Q580 839 555 813.5 Q530 788 493 788 Z " />
<glyph glyph-name="O" unicode="O" horiz-adv-x="710" d="M303 -14 Q184 -14 115 64.5 Q46 143 46 282 Q46 403 97.5 502 Q149 601 236.5 657.5 Q324 714 426 714 Q545 714 614 635.5 Q683 557 683 418 Q683 297 631 198 Q579 99 492 42.5 Q405 -14 303 -14 Z M319 72 Q396 72 455 120 Q514 168 546.5 246 Q579 324 579 412 Q579 510 537 569 Q495 628 410 628 Q333 628 274 580.5 Q215 533 183 454.5 Q151 376 151 288 Q151 191 192.5 131.5 Q234 72 319 72 Z " />
<glyph glyph-name="Oacute" unicode="&#xd3;" horiz-adv-x="710" d="M303 -14 Q184 -14 115 64.5 Q46 143 46 282 Q46 403 97.5 502 Q149 601 236.5 657.5 Q324 714 426 714 Q545 714 614 635.5 Q683 557 683 418 Q683 297 631 198 Q579 99 492 42.5 Q405 -14 303 -14 Z M319 72 Q396 72 455 120 Q514 168 546.5 246 Q579 324 579 412 Q579 510 537 569 Q495 628 410 628 Q333 628 274 580.5 Q215 533 183 454.5 Q151 376 151 288 Q151 191 192.5 131.5 Q234 72 319 72 Z M371 853 L554 957 L537 846 L359 785 L371 853 Z " />
<glyph glyph-name="Obreve" unicode="&#x14e;" horiz-adv-x="710" d="M303 -14 Q184 -14 115 64.5 Q46 143 46 282 Q46 403 97.5 502 Q149 601 236.5 657.5 Q324 714 426 714 Q545 714 614 635.5 Q683 557 683 418 Q683 297 631 198 Q579 99 492 42.5 Q405 -14 303 -14 Z M319 72 Q396 72 455 120 Q514 168 546.5 246 Q579 324 579 412 Q579 510 537 569 Q495 628 410 628 Q333 628 274 580.5 Q215 533 183 454.5 Q151 376 151 288 Q151 191 192.5 131.5 Q234 72 319 72 Z M439 764 Q375 764 343 791.5 Q311 819 311 862 Q311 870 313 884 L393 884 Q392 880 392 872 Q392 850 407.5 838 Q423 826 448 826 Q477 826 498.5 841 Q520 856 525 884 L605 884 Q596 829 553.5 796.5 Q511 764 439 764 Z " />
<glyph glyph-name="Ocircumflex" unicode="&#xd4;" horiz-adv-x="710" d="M303 -14 Q184 -14 115 64.5 Q46 143 46 282 Q46 403 97.5 502 Q149 601 236.5 657.5 Q324 714 426 714 Q545 714 614 635.5 Q683 557 683 418 Q683 297 631 198 Q579 99 492 42.5 Q405 -14 303 -14 Z M319 72 Q396 72 455 120 Q514 168 546.5 246 Q579 324 579 412 Q579 510 537 569 Q495 628 410 628 Q333 628 274 580.5 Q215 533 183 454.5 Q151 376 151 288 Q151 191 192.5 131.5 Q234 72 319 72 Z M346 848 L474 945 L579 835 L567 774 L456 854 L331 784 L346 848 Z " />
<glyph glyph-name="uni1ED0" unicode="&#x1ed0;" horiz-adv-x="710" d="M303 -14 Q184 -14 115 64.5 Q46 143 46 282 Q46 403 97.5 502 Q149 601 236.5 657.5 Q324 714 426 714 Q545 714 614 635.5 Q683 557 683 418 Q683 297 631 198 Q579 99 492 42.5 Q405 -14 303 -14 Z M319 72 Q396 72 455 120 Q514 168 546.5 246 Q579 324 579 412 Q579 510 537 569 Q495 628 410 628 Q333 628 274 580.5 Q215 533 183 454.5 Q151 376 151 288 Q151 191 192.5 131.5 Q234 72 319 72 Z M607 1011 L703 1011 L589 899 L525 899 L607 1011 Z M447 819 L332 765 L342 826 L462 904 L573 814 L563 753 L447 819 Z " />
<glyph glyph-name="uni1ED8" unicode="&#x1ed8;" horiz-adv-x="710" d="M303 -14 Q184 -14 115 64.5 Q46 143 46 282 Q46 403 97.5 502 Q149 601 236.5 657.5 Q324 714 426 714 Q545 714 614 635.5 Q683 557 683 418 Q683 297 631 198 Q579 99 492 42.5 Q405 -14 303 -14 Z M319 72 Q396 72 455 120 Q514 168 546.5 246 Q579 324 579 412 Q579 510 537 569 Q495 628 410 628 Q333 628 274 580.5 Q215 533 183 454.5 Q151 376 151 288 Q151 191 192.5 131.5 Q234 72 319 72 Z M447 819 L332 765 L342 826 L462 904 L573 814 L563 753 L447 819 Z M236 -81 L328 -81 L310 -171 L218 -171 L236 -81 Z " />
<glyph glyph-name="uni1ED2" unicode="&#x1ed2;" horiz-adv-x="710" d="M303 -14 Q184 -14 115 64.5 Q46 143 46 282 Q46 403 97.5 502 Q149 601 236.5 657.5 Q324 714 426 714 Q545 714 614 635.5 Q683 557 683 418 Q683 297 631 198 Q579 99 492 42.5 Q405 -14 303 -14 Z M319 72 Q396 72 455 120 Q514 168 546.5 246 Q579 324 579 412 Q579 510 537 569 Q495 628 410 628 Q333 628 274 580.5 Q215 533 183 454.5 Q151 376 151 288 Q151 191 192.5 131.5 Q234 72 319 72 Z M452 1016 L547 1016 L583 899 L519 899 L452 1016 Z M447 819 L332 765 L342 826 L462 904 L573 814 L563 753 L447 819 Z " />
<glyph glyph-name="uni1ED4" unicode="&#x1ed4;" horiz-adv-x="710" d="M303 -14 Q184 -14 115 64.5 Q46 143 46 282 Q46 403 97.5 502 Q149 601 236.5 657.5 Q324 714 426 714 Q545 714 614 635.5 Q683 557 683 418 Q683 297 631 198 Q579 99 492 42.5 Q405 -14 303 -14 Z M319 72 Q396 72 455 120 Q514 168 546.5 246 Q579 324 579 412 Q579 510 537 569 Q495 628 410 628 Q333 628 274 580.5 Q215 533 183 454.5 Q151 376 151 288 Q151 191 192.5 131.5 Q234 72 319 72 Z M541 912 Q582 926 582 955 Q582 968 572.5 975.5 Q563 983 546 983 Q523 983 485 965 L477 1016 Q515 1034 558 1034 Q595 1034 618 1016.5 Q641 999 641 967 Q641 930 614.5 905.5 Q588 881 543 872 L541 912 Z M447 819 L332 765 L342 826 L462 904 L573 814 L563 753 L447 819 Z " />
<glyph glyph-name="uni1ED6" unicode="&#x1ed6;" horiz-adv-x="710" d="M303 -14 Q184 -14 115 64.5 Q46 143 46 282 Q46 403 97.5 502 Q149 601 236.5 657.5 Q324 714 426 714 Q545 714 614 635.5 Q683 557 683 418 Q683 297 631 198 Q579 99 492 42.5 Q405 -14 303 -14 Z M319 72 Q396 72 455 120 Q514 168 546.5 246 Q579 324 579 412 Q579 510 537 569 Q495 628 410 628 Q333 628 274 580.5 Q215 533 183 454.5 Q151 376 151 288 Q151 191 192.5 131.5 Q234 72 319 72 Z M547 935 Q532 935 516 940 Q500 945 473 956 Q431 974 416 974 Q402 974 392.5 965 Q383 956 382 940 L317 940 Q325 988 349 1014 Q373 1040 409 1040 Q424 1040 439.5 1035 Q455 1030 481 1019 Q497 1012 513.5 1006.5 Q530 1001 542 1001 Q556 1001 565 1010 Q574 1019 576 1035 L641 1035 Q634 986 609 960.5 Q584 935 547 935 Z M447 819 L332 765 L342 826 L462 904 L573 814 L563 753 L447 819 Z " />
<glyph glyph-name="uni020C" unicode="&#x20c;" horiz-adv-x="710" d="M303 -14 Q184 -14 115 64.5 Q46 143 46 282 Q46 403 97.5 502 Q149 601 236.5 657.5 Q324 714 426 714 Q545 714 614 635.5 Q683 557 683 418 Q683 297 631 198 Q579 99 492 42.5 Q405 -14 303 -14 Z M319 72 Q396 72 455 120 Q514 168 546.5 246 Q579 324 579 412 Q579 510 537 569 Q495 628 410 628 Q333 628 274 580.5 Q215 533 183 454.5 Q151 376 151 288 Q151 191 192.5 131.5 Q234 72 319 72 Z M272 935 L368 935 L405 788 L341 788 L272 935 Z M415 935 L511 935 L543 788 L479 788 L415 935 Z " />
<glyph glyph-name="Odieresis" unicode="&#xd6;" horiz-adv-x="710" d="M303 -14 Q184 -14 115 64.5 Q46 143 46 282 Q46 403 97.5 502 Q149 601 236.5 657.5 Q324 714 426 714 Q545 714 614 635.5 Q683 557 683 418 Q683 297 631 198 Q579 99 492 42.5 Q405 -14 303 -14 Z M319 72 Q396 72 455 120 Q514 168 546.5 246 Q579 324 579 412 Q579 510 537 569 Q495 628 410 628 Q333 628 274 580.5 Q215 533 183 454.5 Q151 376 151 288 Q151 191 192.5 131.5 Q234 72 319 72 Z M326 881 L410 881 L394 801 L310 801 L326 881 Z M512 881 L596 881 L580 801 L496 801 L512 881 Z " />
<glyph glyph-name="uni022A" unicode="&#x22a;" horiz-adv-x="710" d="M303 -14 Q184 -14 115 64.5 Q46 143 46 282 Q46 403 97.5 502 Q149 601 236.5 657.5 Q324 714 426 714 Q545 714 614 635.5 Q683 557 683 418 Q683 297 631 198 Q579 99 492 42.5 Q405 -14 303 -14 Z M319 72 Q396 72 455 120 Q514 168 546.5 246 Q579 324 579 412 Q579 510 537 569 Q495 628 410 628 Q333 628 274 580.5 Q215 533 183 454.5 Q151 376 151 288 Q151 191 192.5 131.5 Q234 72 319 72 Z M322 869 L406 869 L392 794 L308 794 L322 869 Z M506 869 L590 869 L576 794 L492 794 L506 869 Z M324 1021 L640 1021 L628 953 L312 953 L324 1021 Z " />
<glyph glyph-name="uni0230" unicode="&#x230;" horiz-adv-x="710" d="M303 -14 Q184 -14 115 64.5 Q46 143 46 282 Q46 403 97.5 502 Q149 601 236.5 657.5 Q324 714 426 714 Q545 714 614 635.5 Q683 557 683 418 Q683 297 631 198 Q579 99 492 42.5 Q405 -14 303 -14 Z M319 72 Q396 72 455 120 Q514 168 546.5 246 Q579 324 579 412 Q579 510 537 569 Q495 628 410 628 Q333 628 274 580.5 Q215 533 183 454.5 Q151 376 151 288 Q151 191 192.5 131.5 Q234 72 319 72 Z M411 881 L505 881 L489 791 L395 791 L411 881 Z M325 1027 L641 1027 L629 959 L313 959 L325 1027 Z " />
<glyph glyph-name="uni1ECC" unicode="&#x1ecc;" horiz-adv-x="710" d="M303 -14 Q184 -14 115 64.5 Q46 143 46 282 Q46 403 97.5 502 Q149 601 236.5 657.5 Q324 714 426 714 Q545 714 614 635.5 Q683 557 683 418 Q683 297 631 198 Q579 99 492 42.5 Q405 -14 303 -14 Z M319 72 Q396 72 455 120 Q514 168 546.5 246 Q579 324 579 412 Q579 510 537 569 Q495 628 410 628 Q333 628 274 580.5 Q215 533 183 454.5 Q151 376 151 288 Q151 191 192.5 131.5 Q234 72 319 72 Z M236 -81 L328 -81 L310 -171 L218 -171 L236 -81 Z " />
<glyph glyph-name="Ograve" unicode="&#xd2;" horiz-adv-x="710" d="M303 -14 Q184 -14 115 64.5 Q46 143 46 282 Q46 403 97.5 502 Q149 601 236.5 657.5 Q324 714 426 714 Q545 714 614 635.5 Q683 557 683 418 Q683 297 631 198 Q579 99 492 42.5 Q405 -14 303 -14 Z M319 72 Q396 72 455 120 Q514 168 546.5 246 Q579 324 579 412 Q579 510 537 569 Q495 628 410 628 Q333 628 274 580.5 Q215 533 183 454.5 Q151 376 151 288 Q151 191 192.5 131.5 Q234 72 319 72 Z M364 855 L381 953 L540 847 L529 786 L364 855 Z " />
<glyph glyph-name="uni1ECE" unicode="&#x1ece;" horiz-adv-x="710" d="M303 -14 Q184 -14 115 64.5 Q46 143 46 282 Q46 403 97.5 502 Q149 601 236.5 657.5 Q324 714 426 714 Q545 714 614 635.5 Q683 557 683 418 Q683 297 631 198 Q579 99 492 42.5 Q405 -14 303 -14 Z M319 72 Q396 72 455 120 Q514 168 546.5 246 Q579 324 579 412 Q579 510 537 569 Q495 628 410 628 Q333 628 274 580.5 Q215 533 183 454.5 Q151 376 151 288 Q151 191 192.5 131.5 Q234 72 319 72 Z M420 768 Q452 794 465 809 Q478 824 478 844 Q478 871 443 871 Q417 871 377 852 L369 903 Q409 922 453 922 Q491 922 514 904.5 Q537 887 538 855 Q538 819 515 791 Q492 763 448 735 L420 768 Z " />
<glyph glyph-name="Ohorn" unicode="&#x1a0;" horiz-adv-x="710" d="M593 657 Q637 619 660 558.5 Q683 498 683 418 Q683 297 631 198 Q579 99 492 42.5 Q405 -14 303 -14 Q184 -14 115 64.5 Q46 143 46 282 Q46 403 97.5 502 Q149 601 236.5 657.5 Q324 714 426 714 Q471 714 515 701 Q582 706 595 774 L681 774 Q673 734 650.5 704 Q628 674 593 657 Z M319 72 Q396 72 455 120 Q514 168 546.5 246 Q579 324 579 412 Q579 510 537 569 Q495 628 410 628 Q333 628 274 580.5 Q215 533 183 454.5 Q151 376 151 288 Q151 191 192.5 131.5 Q234 72 319 72 Z " />
<glyph glyph-name="uni1EDA" unicode="&#x1eda;" horiz-adv-x="710" d="M593 657 Q637 619 660 558.5 Q683 498 683 418 Q683 297 631 198 Q579 99 492 42.5 Q405 -14 303 -14 Q184 -14 115 64.5 Q46 143 46 282 Q46 403 97.5 502 Q149 601 236.5 657.5 Q324 714 426 714 Q471 714 515 701 Q582 706 595 774 L681 774 Q673 734 650.5 704 Q628 674 593 657 Z M319 72 Q396 72 455 120 Q514 168 546.5 246 Q579 324 579 412 Q579 510 537 569 Q495 628 410 628 Q333 628 274 580.5 Q215 533 183 454.5 Q151 376 151 288 Q151 191 192.5 131.5 Q234 72 319 72 Z M371 853 L554 957 L537 846 L359 785 L371 853 Z " />
<glyph glyph-name="uni1EE2" unicode="&#x1ee2;" horiz-adv-x="710" d="M593 657 Q637 619 660 558.5 Q683 498 683 418 Q683 297 631 198 Q579 99 492 42.5 Q405 -14 303 -14 Q184 -14 115 64.5 Q46 143 46 282 Q46 403 97.5 502 Q149 601 236.5 657.5 Q324 714 426 714 Q471 714 515 701 Q582 706 595 774 L681 774 Q673 734 650.5 704 Q628 674 593 657 Z M319 72 Q396 72 455 120 Q514 168 546.5 246 Q579 324 579 412 Q579 510 537 569 Q495 628 410 628 Q333 628 274 580.5 Q215 533 183 454.5 Q151 376 151 288 Q151 191 192.5 131.5 Q234 72 319 72 Z M236 -81 L328 -81 L310 -171 L218 -171 L236 -81 Z " />
<glyph glyph-name="uni1EDC" unicode="&#x1edc;" horiz-adv-x="710" d="M593 657 Q637 619 660 558.5 Q683 498 683 418 Q683 297 631 198 Q579 99 492 42.5 Q405 -14 303 -14 Q184 -14 115 64.5 Q46 143 46 282 Q46 403 97.5 502 Q149 601 236.5 657.5 Q324 714 426 714 Q471 714 515 701 Q582 706 595 774 L681 774 Q673 734 650.5 704 Q628 674 593 657 Z M319 72 Q396 72 455 120 Q514 168 546.5 246 Q579 324 579 412 Q579 510 537 569 Q495 628 410 628 Q333 628 274 580.5 Q215 533 183 454.5 Q151 376 151 288 Q151 191 192.5 131.5 Q234 72 319 72 Z M364 855 L381 953 L540 847 L529 786 L364 855 Z " />
<glyph glyph-name="uni1EDE" unicode="&#x1ede;" horiz-adv-x="710" d="M593 657 Q637 619 660 558.5 Q683 498 683 418 Q683 297 631 198 Q579 99 492 42.5 Q405 -14 303 -14 Q184 -14 115 64.5 Q46 143 46 282 Q46 403 97.5 502 Q149 601 236.5 657.5 Q324 714 426 714 Q471 714 515 701 Q582 706 595 774 L681 774 Q673 734 650.5 704 Q628 674 593 657 Z M319 72 Q396 72 455 120 Q514 168 546.5 246 Q579 324 579 412 Q579 510 537 569 Q495 628 410 628 Q333 628 274 580.5 Q215 533 183 454.5 Q151 376 151 288 Q151 191 192.5 131.5 Q234 72 319 72 Z M420 768 Q452 794 465 809 Q478 824 478 844 Q478 871 443 871 Q417 871 377 852 L369 903 Q409 922 453 922 Q491 922 514 904.5 Q537 887 538 855 Q538 819 515 791 Q492 763 448 735 L420 768 Z " />
<glyph glyph-name="uni1EE0" unicode="&#x1ee0;" horiz-adv-x="710" d="M593 657 Q637 619 660 558.5 Q683 498 683 418 Q683 297 631 198 Q579 99 492 42.5 Q405 -14 303 -14 Q184 -14 115 64.5 Q46 143 46 282 Q46 403 97.5 502 Q149 601 236.5 657.5 Q324 714 426 714 Q471 714 515 701 Q582 706 595 774 L681 774 Q673 734 650.5 704 Q628 674 593 657 Z M319 72 Q396 72 455 120 Q514 168 546.5 246 Q579 324 579 412 Q579 510 537 569 Q495 628 410 628 Q333 628 274 580.5 Q215 533 183 454.5 Q151 376 151 288 Q151 191 192.5 131.5 Q234 72 319 72 Z M522 790 Q507 790 492 796 Q477 802 454 813 Q434 823 420.5 828.5 Q407 834 396 834 Q366 834 358 798 L286 798 Q312 909 391 909 Q407 909 421 903.5 Q435 898 456 886 Q474 876 487 870.5 Q500 865 514 865 Q545 865 552 904 L624 904 Q611 845 586 817.5 Q561 790 522 790 Z " />
<glyph glyph-name="Ohungarumlaut" unicode="&#x150;" horiz-adv-x="710" d="M303 -14 Q184 -14 115 64.5 Q46 143 46 282 Q46 403 97.5 502 Q149 601 236.5 657.5 Q324 714 426 714 Q545 714 614 635.5 Q683 557 683 418 Q683 297 631 198 Q579 99 492 42.5 Q405 -14 303 -14 Z M319 72 Q396 72 455 120 Q514 168 546.5 246 Q579 324 579 412 Q579 510 537 569 Q495 628 410 628 Q333 628 274 580.5 Q215 533 183 454.5 Q151 376 151 288 Q151 191 192.5 131.5 Q234 72 319 72 Z M421 935 L517 935 L403 788 L339 788 L421 935 Z M564 935 L660 935 L541 788 L477 788 L564 935 Z " />
<glyph glyph-name="uni020E" unicode="&#x20e;" horiz-adv-x="710" d="M303 -14 Q184 -14 115 64.5 Q46 143 46 282 Q46 403 97.5 502 Q149 601 236.5 657.5 Q324 714 426 714 Q545 714 614 635.5 Q683 557 683 418 Q683 297 631 198 Q579 99 492 42.5 Q405 -14 303 -14 Z M319 72 Q396 72 455 120 Q514 168 546.5 246 Q579 324 579 412 Q579 510 537 569 Q495 628 410 628 Q333 628 274 580.5 Q215 533 183 454.5 Q151 376 151 288 Q151 191 192.5 131.5 Q234 72 319 72 Z M296 779 Q305 829 348.5 864 Q392 899 462 899 Q524 899 555 871 Q586 843 586 800 Q586 793 584 779 L504 779 Q505 784 505 791 Q505 813 490 825 Q475 837 451 837 Q423 837 402 822 Q381 807 376 779 L296 779 Z " />
<glyph glyph-name="Omacron" unicode="&#x14c;" horiz-adv-x="710" d="M303 -14 Q184 -14 115 64.5 Q46 143 46 282 Q46 403 97.5 502 Q149 601 236.5 657.5 Q324 714 426 714 Q545 714 614 635.5 Q683 557 683 418 Q683 297 631 198 Q579 99 492 42.5 Q405 -14 303 -14 Z M319 72 Q396 72 455 120 Q514 168 546.5 246 Q579 324 579 412 Q579 510 537 569 Q495 628 410 628 Q333 628 274 580.5 Q215 533 183 454.5 Q151 376 151 288 Q151 191 192.5 131.5 Q234 72 319 72 Z M296 861 L612 861 L600 793 L284 793 L296 861 Z " />
<glyph glyph-name="uni1E52" unicode="&#x1e52;" horiz-adv-x="710" d="M303 -14 Q184 -14 115 64.5 Q46 143 46 282 Q46 403 97.5 502 Q149 601 236.5 657.5 Q324 714 426 714 Q545 714 614 635.5 Q683 557 683 418 Q683 297 631 198 Q579 99 492 42.5 Q405 -14 303 -14 Z M319 72 Q396 72 455 120 Q514 168 546.5 246 Q579 324 579 412 Q579 510 537 569 Q495 628 410 628 Q333 628 274 580.5 Q215 533 183 454.5 Q151 376 151 288 Q151 191 192.5 131.5 Q234 72 319 72 Z M296 861 L612 861 L600 793 L284 793 L296 861 Z M406 980 L577 1075 L563 974 L398 916 L406 980 Z " />
<glyph glyph-name="uni1E50" unicode="&#x1e50;" horiz-adv-x="710" d="M303 -14 Q184 -14 115 64.5 Q46 143 46 282 Q46 403 97.5 502 Q149 601 236.5 657.5 Q324 714 426 714 Q545 714 614 635.5 Q683 557 683 418 Q683 297 631 198 Q579 99 492 42.5 Q405 -14 303 -14 Z M319 72 Q396 72 455 120 Q514 168 546.5 246 Q579 324 579 412 Q579 510 537 569 Q495 628 410 628 Q333 628 274 580.5 Q215 533 183 454.5 Q151 376 151 288 Q151 191 192.5 131.5 Q234 72 319 72 Z M296 861 L612 861 L600 793 L284 793 L296 861 Z M396 974 L413 1069 L573 974 L562 916 L396 974 Z " />
<glyph glyph-name="uni01EA" unicode="&#x1ea;" horiz-adv-x="710" d="M352 -10 Q313 -39 291.5 -64.5 Q270 -90 270 -119 Q270 -138 280 -147.5 Q290 -157 307 -157 Q336 -157 367 -140 L373 -189 Q337 -208 293 -208 Q256 -208 232.5 -190 Q209 -172 208 -139 Q208 -105 231.5 -71.5 Q255 -38 291 -14 Q177 -9 111.5 69 Q46 147 46 282 Q46 403 97.5 502 Q149 601 236.5 657.5 Q324 714 426 714 Q545 714 614 635.5 Q683 557 683 418 Q683 307 639 214 Q595 121 519 62 Q443 3 352 -10 Z M151 288 Q151 191 192.5 131.5 Q234 72 319 72 Q396 72 455 120 Q514 168 546.5 246 Q579 324 579 412 Q579 510 537 569 Q495 628 410 628 Q333 628 274 580.5 Q215 533 183 454.5 Q151 376 151 288 Z " />
<glyph glyph-name="Oslash" unicode="&#xd8;" horiz-adv-x="710" d="M624 623 Q683 545 683 418 Q683 297 631 198 Q579 99 492 42.5 Q405 -14 303 -14 Q220 -14 161 24 L108 -44 L17 -44 L108 73 Q46 151 46 282 Q46 403 97.5 502 Q149 601 236.5 657.5 Q324 714 426 714 Q512 714 571 673 L626 744 L718 744 L624 623 Z M151 288 Q151 214 175 161 L511 596 Q471 628 410 628 Q333 628 274 580.5 Q215 533 183 454.5 Q151 376 151 288 Z M579 412 Q579 486 556 535 L221 102 Q260 72 319 72 Q396 72 455 120 Q514 168 546.5 246 Q579 324 579 412 Z " />
<glyph glyph-name="Oslashacute" unicode="&#x1fe;" horiz-adv-x="710" d="M624 623 Q683 545 683 418 Q683 297 631 198 Q579 99 492 42.5 Q405 -14 303 -14 Q220 -14 161 24 L108 -44 L17 -44 L108 73 Q46 151 46 282 Q46 403 97.5 502 Q149 601 236.5 657.5 Q324 714 426 714 Q512 714 571 673 L626 744 L718 744 L624 623 Z M151 288 Q151 214 175 161 L511 596 Q471 628 410 628 Q333 628 274 580.5 Q215 533 183 454.5 Q151 376 151 288 Z M579 412 Q579 486 556 535 L221 102 Q260 72 319 72 Q396 72 455 120 Q514 168 546.5 246 Q579 324 579 412 Z M369 828 L540 923 L526 822 L361 764 L369 828 Z " />
<glyph glyph-name="Otilde" unicode="&#xd5;" horiz-adv-x="710" d="M303 -14 Q184 -14 115 64.5 Q46 143 46 282 Q46 403 97.5 502 Q149 601 236.5 657.5 Q324 714 426 714 Q545 714 614 635.5 Q683 557 683 418 Q683 297 631 198 Q579 99 492 42.5 Q405 -14 303 -14 Z M319 72 Q396 72 455 120 Q514 168 546.5 246 Q579 324 579 412 Q579 510 537 569 Q495 628 410 628 Q333 628 274 580.5 Q215 533 183 454.5 Q151 376 151 288 Q151 191 192.5 131.5 Q234 72 319 72 Z M522 790 Q507 790 492 796 Q477 802 454 813 Q434 823 420.5 828.5 Q407 834 396 834 Q366 834 358 798 L286 798 Q312 909 391 909 Q407 909 421 903.5 Q435 898 456 886 Q474 876 487 870.5 Q500 865 514 865 Q545 865 552 904 L624 904 Q611 845 586 817.5 Q561 790 522 790 Z " />
<glyph glyph-name="uni1E4C" unicode="&#x1e4c;" horiz-adv-x="710" d="M303 -14 Q184 -14 115 64.5 Q46 143 46 282 Q46 403 97.5 502 Q149 601 236.5 657.5 Q324 714 426 714 Q545 714 614 635.5 Q683 557 683 418 Q683 297 631 198 Q579 99 492 42.5 Q405 -14 303 -14 Z M319 72 Q396 72 455 120 Q514 168 546.5 246 Q579 324 579 412 Q579 510 537 569 Q495 628 410 628 Q333 628 274 580.5 Q215 533 183 454.5 Q151 376 151 288 Q151 191 192.5 131.5 Q234 72 319 72 Z M519 788 Q504 788 488 793 Q472 798 445 809 Q403 827 388 827 Q374 827 364.5 818 Q355 809 354 793 L289 793 Q297 841 321 867 Q345 893 381 893 Q396 893 411.5 888 Q427 883 453 872 Q469 865 485.5 859.5 Q502 854 514 854 Q528 854 537 863 Q546 872 548 888 L613 888 Q606 839 581 813.5 Q556 788 519 788 Z M400 1004 L571 1099 L557 998 L392 940 L400 1004 Z " />
<glyph glyph-name="uni1E4E" unicode="&#x1e4e;" horiz-adv-x="710" d="M303 -14 Q184 -14 115 64.5 Q46 143 46 282 Q46 403 97.5 502 Q149 601 236.5 657.5 Q324 714 426 714 Q545 714 614 635.5 Q683 557 683 418 Q683 297 631 198 Q579 99 492 42.5 Q405 -14 303 -14 Z M319 72 Q396 72 455 120 Q514 168 546.5 246 Q579 324 579 412 Q579 510 537 569 Q495 628 410 628 Q333 628 274 580.5 Q215 533 183 454.5 Q151 376 151 288 Q151 191 192.5 131.5 Q234 72 319 72 Z M519 788 Q504 788 488 793 Q472 798 445 809 Q403 827 388 827 Q374 827 364.5 818 Q355 809 354 793 L289 793 Q297 841 321 867 Q345 893 381 893 Q396 893 411.5 888 Q427 883 453 872 Q469 865 485.5 859.5 Q502 854 514 854 Q528 854 537 863 Q546 872 548 888 L613 888 Q606 839 581 813.5 Q556 788 519 788 Z M353 1045 L437 1045 L423 970 L339 970 L353 1045 Z M537 1045 L621 1045 L607 970 L523 970 L537 1045 Z " />
<glyph glyph-name="uni022C" unicode="&#x22c;" horiz-adv-x="710" d="M303 -14 Q184 -14 115 64.5 Q46 143 46 282 Q46 403 97.5 502 Q149 601 236.5 657.5 Q324 714 426 714 Q545 714 614 635.5 Q683 557 683 418 Q683 297 631 198 Q579 99 492 42.5 Q405 -14 303 -14 Z M319 72 Q396 72 455 120 Q514 168 546.5 246 Q579 324 579 412 Q579 510 537 569 Q495 628 410 628 Q333 628 274 580.5 Q215 533 183 454.5 Q151 376 151 288 Q151 191 192.5 131.5 Q234 72 319 72 Z M519 788 Q504 788 488 793 Q472 798 445 809 Q403 827 388 827 Q374 827 364.5 818 Q355 809 354 793 L289 793 Q297 841 321 867 Q345 893 381 893 Q396 893 411.5 888 Q427 883 453 872 Q469 865 485.5 859.5 Q502 854 514 854 Q528 854 537 863 Q546 872 548 888 L613 888 Q606 839 581 813.5 Q556 788 519 788 Z M327 1037 L643 1037 L631 969 L315 969 L327 1037 Z " />
<glyph glyph-name="OE" unicode="&#x152;" horiz-adv-x="974" d="M692 614 L656 409 L888 409 L873 323 L641 323 L599 86 L902 86 L887 0 L498 0 L514 89 Q469 40 411 13 Q353 -14 286 -14 Q213 -14 159 21.5 Q105 57 75.5 123.5 Q46 190 46 282 Q46 400 95 499 Q144 598 226.5 656 Q309 714 406 714 Q475 714 524 679 Q573 644 600 581 L621 700 L1002 700 L987 614 L692 614 Z M308 72 Q380 72 436.5 120 Q493 168 523.5 246 Q554 324 554 412 Q554 510 515.5 569 Q477 628 399 628 Q326 628 269.5 580 Q213 532 182 454 Q151 376 151 288 Q151 191 190 131.5 Q229 72 308 72 Z " />
<glyph glyph-name="P" unicode="P" horiz-adv-x="538" d="M151 700 L344 700 Q448 700 498.5 654.5 Q549 609 549 512 Q549 419 513.5 359 Q478 299 421 272 Q364 245 298 245 L169 245 L126 0 L28 0 L151 700 Z M297 330 Q369 330 409 377.5 Q449 425 449 499 Q449 555 424 585 Q399 615 342 615 L235 615 L184 330 L297 330 Z " />
<glyph glyph-name="Thorn" unicode="&#xde;" horiz-adv-x="517" d="M144 700 L242 700 L214 545 L349 545 Q436 545 481.5 507 Q527 469 527 399 Q527 302 462 246.5 Q397 191 287 191 L152 191 L118 0 L20 0 L144 700 Z M295 276 Q357 276 392 304 Q427 332 427 383 Q427 421 401.5 440.5 Q376 460 327 460 L199 460 L167 276 L295 276 Z " />
<glyph glyph-name="Q" unicode="Q" horiz-adv-x="709" d="M301 -14 Q224 -14 166.5 21.5 Q109 57 77.5 124 Q46 191 46 283 Q46 404 97.5 502.5 Q149 601 236 657.5 Q323 714 425 714 Q505 714 563 678 Q621 642 652 576 Q683 510 683 420 Q683 340 656 266 Q629 192 570 111 L616 62 L553 3 L503 57 Q407 -14 301 -14 Z M320 72 Q395 72 446 112 L371 196 L434 257 L509 172 Q546 228 565 278 Q584 328 584 404 Q584 510 540.5 569 Q497 628 411 628 Q333 628 273.5 580 Q214 532 182.5 453.5 Q151 375 151 286 Q151 188 192.5 130 Q234 72 320 72 Z " />
<glyph glyph-name="R" unicode="R" horiz-adv-x="565" d="M151 700 L346 700 Q448 700 499.5 654.5 Q551 609 551 523 Q551 438 508 379 Q465 320 398 298 L491 0 L390 0 L302 273 L174 273 L126 0 L28 0 L151 700 Z M310 365 Q372 365 411 403.5 Q450 442 450 516 Q450 570 425 596.5 Q400 623 342 623 L236 623 L190 365 L310 365 Z " />
<glyph glyph-name="Racute" unicode="&#x154;" horiz-adv-x="565" d="M151 700 L346 700 Q448 700 499.5 654.5 Q551 609 551 523 Q551 438 508 379 Q465 320 398 298 L491 0 L390 0 L302 273 L174 273 L126 0 L28 0 L151 700 Z M310 365 Q372 365 411 403.5 Q450 442 450 516 Q450 570 425 596.5 Q400 623 342 623 L236 623 L190 365 L310 365 Z M319 828 L490 923 L476 822 L311 764 L319 828 Z " />
<glyph glyph-name="Rcaron" unicode="&#x158;" horiz-adv-x="565" d="M151 700 L346 700 Q448 700 499.5 654.5 Q551 609 551 523 Q551 438 508 379 Q465 320 398 298 L491 0 L390 0 L302 273 L174 273 L126 0 L28 0 L151 700 Z M310 365 Q372 365 411 403.5 Q450 442 450 516 Q450 570 425 596.5 Q400 623 342 623 L236 623 L190 365 L310 365 Z M271 843 L281 904 L397 838 L517 900 L508 835 L382 753 L271 843 Z " />
<glyph glyph-name="Rcommaaccent" unicode="&#x156;" horiz-adv-x="565" d="M151 700 L346 700 Q448 700 499.5 654.5 Q551 609 551 523 Q551 438 508 379 Q465 320 398 298 L491 0 L390 0 L302 273 L174 273 L126 0 L28 0 L151 700 Z M310 365 Q372 365 411 403.5 Q450 442 450 516 Q450 570 425 596.5 Q400 623 342 623 L236 623 L190 365 L310 365 Z M176 -262 L220 -177 L184 -177 L199 -91 L295 -91 L280 -177 L213 -262 L176 -262 Z " />
<glyph glyph-name="uni0210" unicode="&#x210;" horiz-adv-x="565" d="M151 700 L346 700 Q448 700 499.5 654.5 Q551 609 551 523 Q551 438 508 379 Q465 320 398 298 L491 0 L390 0 L302 273 L174 273 L126 0 L28 0 L151 700 Z M310 365 Q372 365 411 403.5 Q450 442 450 516 Q450 570 425 596.5 Q400 623 342 623 L236 623 L190 365 L310 365 Z M222 935 L318 935 L355 788 L291 788 L222 935 Z M365 935 L461 935 L493 788 L429 788 L365 935 Z " />
<glyph glyph-name="uni1E5A" unicode="&#x1e5a;" horiz-adv-x="565" d="M151 700 L346 700 Q448 700 499.5 654.5 Q551 609 551 523 Q551 438 508 379 Q465 320 398 298 L491 0 L390 0 L302 273 L174 273 L126 0 L28 0 L151 700 Z M310 365 Q372 365 411 403.5 Q450 442 450 516 Q450 570 425 596.5 Q400 623 342 623 L236 623 L190 365 L310 365 Z M198 -81 L290 -81 L272 -171 L180 -171 L198 -81 Z " />
<glyph glyph-name="uni0212" unicode="&#x212;" horiz-adv-x="565" d="M151 700 L346 700 Q448 700 499.5 654.5 Q551 609 551 523 Q551 438 508 379 Q465 320 398 298 L491 0 L390 0 L302 273 L174 273 L126 0 L28 0 L151 700 Z M310 365 Q372 365 411 403.5 Q450 442 450 516 Q450 570 425 596.5 Q400 623 342 623 L236 623 L190 365 L310 365 Z M246 779 Q255 829 298.5 864 Q342 899 412 899 Q474 899 505 871 Q536 843 536 800 Q536 793 534 779 L454 779 Q455 784 455 791 Q455 813 440 825 Q425 837 401 837 Q373 837 352 822 Q331 807 326 779 L246 779 Z " />
<glyph glyph-name="uni1E5E" unicode="&#x1e5e;" horiz-adv-x="565" d="M151 700 L346 700 Q448 700 499.5 654.5 Q551 609 551 523 Q551 438 508 379 Q465 320 398 298 L491 0 L390 0 L302 273 L174 273 L126 0 L28 0 L151 700 Z M310 365 Q372 365 411 403.5 Q450 442 450 516 Q450 570 425 596.5 Q400 623 342 623 L236 623 L190 365 L310 365 Z M89 -91 L401 -91 L387 -162 L75 -162 L89 -91 Z " />
<glyph glyph-name="S" unicode="S" horiz-adv-x="538" d="M204 -14 Q139 -14 86.5 -1 Q34 12 6 31 L38 142 Q119 72 219 72 Q288 72 334.5 102.5 Q381 133 381 192 Q381 227 364 250 Q347 273 320.5 287.5 Q294 302 247 321 Q188 345 157.5 360.5 Q127 376 102.5 406.5 Q78 437 78 485 Q78 535 105.5 588 Q133 641 193 677.5 Q253 714 344 714 Q401 714 450 700 Q499 686 534 666 L507 565 Q464 597 424.5 612.5 Q385 628 337 628 Q301 628 265.5 615.5 Q230 603 206.5 577 Q183 551 183 513 Q183 474 210 452.5 Q237 431 297 408 Q366 381 400.5 363.5 Q435 346 461.5 309.5 Q488 273 488 213 Q488 155 460.5 103.5 Q433 52 369.5 19 Q306 -14 204 -14 Z " />
<glyph glyph-name="Sacute" unicode="&#x15a;" horiz-adv-x="538" d="M204 -14 Q139 -14 86.5 -1 Q34 12 6 31 L38 142 Q119 72 219 72 Q288 72 334.5 102.5 Q381 133 381 192 Q381 227 364 250 Q347 273 320.5 287.5 Q294 302 247 321 Q188 345 157.5 360.5 Q127 376 102.5 406.5 Q78 437 78 485 Q78 535 105.5 588 Q133 641 193 677.5 Q253 714 344 714 Q401 714 450 700 Q499 686 534 666 L507 565 Q464 597 424.5 612.5 Q385 628 337 628 Q301 628 265.5 615.5 Q230 603 206.5 577 Q183 551 183 513 Q183 474 210 452.5 Q237 431 297 408 Q366 381 400.5 363.5 Q435 346 461.5 309.5 Q488 273 488 213 Q488 155 460.5 103.5 Q433 52 369.5 19 Q306 -14 204 -14 Z M284 828 L455 923 L441 822 L276 764 L284 828 Z " />
<glyph glyph-name="uni1E64" unicode="&#x1e64;" horiz-adv-x="538" d="M204 -14 Q139 -14 86.5 -1 Q34 12 6 31 L38 142 Q119 72 219 72 Q288 72 334.5 102.5 Q381 133 381 192 Q381 227 364 250 Q347 273 320.5 287.5 Q294 302 247 321 Q188 345 157.5 360.5 Q127 376 102.5 406.5 Q78 437 78 485 Q78 535 105.5 588 Q133 641 193 677.5 Q253 714 344 714 Q401 714 450 700 Q499 686 534 666 L507 565 Q464 597 424.5 612.5 Q385 628 337 628 Q301 628 265.5 615.5 Q230 603 206.5 577 Q183 551 183 513 Q183 474 210 452.5 Q237 431 297 408 Q366 381 400.5 363.5 Q435 346 461.5 309.5 Q488 273 488 213 Q488 155 460.5 103.5 Q433 52 369.5 19 Q306 -14 204 -14 Z M284 828 L455 923 L441 822 L276 764 L284 828 Z M361 1063 L455 1063 L439 973 L345 973 L361 1063 Z " />
<glyph glyph-name="Scaron" unicode="&#x160;" horiz-adv-x="538" d="M204 -14 Q139 -14 86.5 -1 Q34 12 6 31 L38 142 Q119 72 219 72 Q288 72 334.5 102.5 Q381 133 381 192 Q381 227 364 250 Q347 273 320.5 287.5 Q294 302 247 321 Q188 345 157.5 360.5 Q127 376 102.5 406.5 Q78 437 78 485 Q78 535 105.5 588 Q133 641 193 677.5 Q253 714 344 714 Q401 714 450 700 Q499 686 534 666 L507 565 Q464 597 424.5 612.5 Q385 628 337 628 Q301 628 265.5 615.5 Q230 603 206.5 577 Q183 551 183 513 Q183 474 210 452.5 Q237 431 297 408 Q366 381 400.5 363.5 Q435 346 461.5 309.5 Q488 273 488 213 Q488 155 460.5 103.5 Q433 52 369.5 19 Q306 -14 204 -14 Z M249 878 L261 939 L372 859 L508 939 L496 864 L354 768 L249 878 Z " />
<glyph glyph-name="uni1E66" unicode="&#x1e66;" horiz-adv-x="538" d="M204 -14 Q139 -14 86.5 -1 Q34 12 6 31 L38 142 Q119 72 219 72 Q288 72 334.5 102.5 Q381 133 381 192 Q381 227 364 250 Q347 273 320.5 287.5 Q294 302 247 321 Q188 345 157.5 360.5 Q127 376 102.5 406.5 Q78 437 78 485 Q78 535 105.5 588 Q133 641 193 677.5 Q253 714 344 714 Q401 714 450 700 Q499 686 534 666 L507 565 Q464 597 424.5 612.5 Q385 628 337 628 Q301 628 265.5 615.5 Q230 603 206.5 577 Q183 551 183 513 Q183 474 210 452.5 Q237 431 297 408 Q366 381 400.5 363.5 Q435 346 461.5 309.5 Q488 273 488 213 Q488 155 460.5 103.5 Q433 52 369.5 19 Q306 -14 204 -14 Z M236 843 L246 904 L362 838 L482 900 L473 835 L347 753 L236 843 Z M354 1029 L448 1029 L432 939 L338 939 L354 1029 Z " />
<glyph glyph-name="Scedilla" unicode="&#x15e;" horiz-adv-x="538" d="M337 628 Q301 628 265.5 615.5 Q230 603 206.5 577 Q183 551 183 513 Q183 474 210 452.5 Q237 431 297 408 Q366 381 400.5 363.5 Q435 346 461.5 309.5 Q488 273 488 213 Q488 129 432.5 64.5 Q377 0 254 -12 L233 -54 L241 -54 Q276 -54 296 -71.5 Q316 -89 316 -120 Q316 -166 280.5 -196 Q245 -226 192 -226 Q149 -226 117 -207 L141 -158 Q169 -175 201 -175 Q227 -175 242 -162.5 Q257 -150 257 -131 Q257 -97 213 -97 Q189 -97 165 -105 L204 -14 Q139 -14 86.5 -1 Q34 12 6 31 L38 142 Q119 72 219 72 Q288 72 334.5 102.5 Q381 133 381 192 Q381 227 364 250 Q347 273 320.5 287.5 Q294 302 247 321 Q188 345 157.5 360.5 Q127 376 102.5 406.5 Q78 437 78 485 Q78 535 105.5 588 Q133 641 193 677.5 Q253 714 344 714 Q401 714 450 700 Q499 686 534 666 L507 565 Q464 597 424.5 612.5 Q385 628 337 628 Z " />
<glyph glyph-name="Scircumflex" unicode="&#x15c;" horiz-adv-x="538" d="M204 -14 Q139 -14 86.5 -1 Q34 12 6 31 L38 142 Q119 72 219 72 Q288 72 334.5 102.5 Q381 133 381 192 Q381 227 364 250 Q347 273 320.5 287.5 Q294 302 247 321 Q188 345 157.5 360.5 Q127 376 102.5 406.5 Q78 437 78 485 Q78 535 105.5 588 Q133 641 193 677.5 Q253 714 344 714 Q401 714 450 700 Q499 686 534 666 L507 565 Q464 597 424.5 612.5 Q385 628 337 628 Q301 628 265.5 615.5 Q230 603 206.5 577 Q183 551 183 513 Q183 474 210 452.5 Q237 431 297 408 Q366 381 400.5 363.5 Q435 346 461.5 309.5 Q488 273 488 213 Q488 155 460.5 103.5 Q433 52 369.5 19 Q306 -14 204 -14 Z M362 819 L247 765 L257 826 L377 904 L488 814 L478 753 L362 819 Z " />
<glyph glyph-name="Scommaaccent" unicode="&#x218;" horiz-adv-x="538" d="M204 -14 Q139 -14 86.5 -1 Q34 12 6 31 L38 142 Q119 72 219 72 Q288 72 334.5 102.5 Q381 133 381 192 Q381 227 364 250 Q347 273 320.5 287.5 Q294 302 247 321 Q188 345 157.5 360.5 Q127 376 102.5 406.5 Q78 437 78 485 Q78 535 105.5 588 Q133 641 193 677.5 Q253 714 344 714 Q401 714 450 700 Q499 686 534 666 L507 565 Q464 597 424.5 612.5 Q385 628 337 628 Q301 628 265.5 615.5 Q230 603 206.5 577 Q183 551 183 513 Q183 474 210 452.5 Q237 431 297 408 Q366 381 400.5 363.5 Q435 346 461.5 309.5 Q488 273 488 213 Q488 155 460.5 103.5 Q433 52 369.5 19 Q306 -14 204 -14 Z M150 -262 L194 -177 L158 -177 L173 -91 L269 -91 L254 -177 L187 -262 L150 -262 Z " />
<glyph glyph-name="uni1E60" unicode="&#x1e60;" horiz-adv-x="538" d="M204 -14 Q139 -14 86.5 -1 Q34 12 6 31 L38 142 Q119 72 219 72 Q288 72 334.5 102.5 Q381 133 381 192 Q381 227 364 250 Q347 273 320.5 287.5 Q294 302 247 321 Q188 345 157.5 360.5 Q127 376 102.5 406.5 Q78 437 78 485 Q78 535 105.5 588 Q133 641 193 677.5 Q253 714 344 714 Q401 714 450 700 Q499 686 534 666 L507 565 Q464 597 424.5 612.5 Q385 628 337 628 Q301 628 265.5 615.5 Q230 603 206.5 577 Q183 551 183 513 Q183 474 210 452.5 Q237 431 297 408 Q366 381 400.5 363.5 Q435 346 461.5 309.5 Q488 273 488 213 Q488 155 460.5 103.5 Q433 52 369.5 19 Q306 -14 204 -14 Z M326 881 L420 881 L404 791 L310 791 L326 881 Z " />
<glyph glyph-name="uni1E62" unicode="&#x1e62;" horiz-adv-x="538" d="M204 -14 Q139 -14 86.5 -1 Q34 12 6 31 L38 142 Q119 72 219 72 Q288 72 334.5 102.5 Q381 133 381 192 Q381 227 364 250 Q347 273 320.5 287.5 Q294 302 247 321 Q188 345 157.5 360.5 Q127 376 102.5 406.5 Q78 437 78 485 Q78 535 105.5 588 Q133 641 193 677.5 Q253 714 344 714 Q401 714 450 700 Q499 686 534 666 L507 565 Q464 597 424.5 612.5 Q385 628 337 628 Q301 628 265.5 615.5 Q230 603 206.5 577 Q183 551 183 513 Q183 474 210 452.5 Q237 431 297 408 Q366 381 400.5 363.5 Q435 346 461.5 309.5 Q488 273 488 213 Q488 155 460.5 103.5 Q433 52 369.5 19 Q306 -14 204 -14 Z M172 -81 L264 -81 L246 -171 L154 -171 L172 -81 Z " />
<glyph glyph-name="uni1E68" unicode="&#x1e68;" horiz-adv-x="538" d="M204 -14 Q139 -14 86.5 -1 Q34 12 6 31 L38 142 Q119 72 219 72 Q288 72 334.5 102.5 Q381 133 381 192 Q381 227 364 250 Q347 273 320.5 287.5 Q294 302 247 321 Q188 345 157.5 360.5 Q127 376 102.5 406.5 Q78 437 78 485 Q78 535 105.5 588 Q133 641 193 677.5 Q253 714 344 714 Q401 714 450 700 Q499 686 534 666 L507 565 Q464 597 424.5 612.5 Q385 628 337 628 Q301 628 265.5 615.5 Q230 603 206.5 577 Q183 551 183 513 Q183 474 210 452.5 Q237 431 297 408 Q366 381 400.5 363.5 Q435 346 461.5 309.5 Q488 273 488 213 Q488 155 460.5 103.5 Q433 52 369.5 19 Q306 -14 204 -14 Z M326 881 L420 881 L404 791 L310 791 L326 881 Z M172 -81 L264 -81 L246 -171 L154 -171 L172 -81 Z " />
<glyph glyph-name="uni1E9E" unicode="&#x1e9e;" horiz-adv-x="576" d="M550 587 L401 396 Q464 380 499.5 334.5 Q535 289 535 221 Q535 154 503.5 100.5 Q472 47 415.5 16.5 Q359 -14 286 -14 Q242 -14 196 0 L213 85 Q249 72 288 72 Q354 72 392.5 111 Q431 150 431 214 Q431 269 397.5 298.5 Q364 328 303 333 L289 334 L302 404 L467 613 Q428 628 375 628 Q307 628 262 593 Q217 558 205 487 L119 0 L24 0 L110 485 Q130 601 200 657.5 Q270 714 375 714 Q430 714 478.5 700 Q527 686 566 663 L550 587 Z " />
<glyph glyph-name="uni018F" unicode="&#x18f;" horiz-adv-x="667" d="M379 714 Q504 714 573 639.5 Q642 565 642 432 Q642 313 593 210.5 Q544 108 458 47 Q372 -14 264 -14 Q156 -14 92 47 Q28 108 28 217 Q28 248 35 286 Q42 324 52 351 L533 351 Q538 389 538 421 Q538 520 490.5 574 Q443 628 353 628 Q259 628 135 581 L131 661 Q252 714 379 714 Z M282 72 Q364 72 424 125.5 Q484 179 514 267 L135 267 Q130 237 130 217 Q131 148 168.5 110 Q206 72 282 72 Z " />
<glyph glyph-name="T" unicode="T" horiz-adv-x="523" d="M269 614 L87 614 L102 700 L561 700 L546 614 L364 614 L256 0 L161 0 L269 614 Z " />
<glyph glyph-name="Tbar" unicode="&#x166;" horiz-adv-x="523" d="M364 614 L324 389 L445 389 L434 327 L314 327 L256 0 L161 0 L219 327 L98 327 L109 389 L229 389 L269 614 L87 614 L102 700 L561 700 L546 614 L364 614 Z " />
<glyph glyph-name="Tcaron" unicode="&#x164;" horiz-adv-x="523" d="M269 614 L87 614 L102 700 L561 700 L546 614 L364 614 L256 0 L161 0 L269 614 Z M227 843 L237 904 L353 838 L473 900 L464 835 L338 753 L227 843 Z " />
<glyph glyph-name="uni0162" unicode="&#x162;" horiz-adv-x="523" d="M269 614 L87 614 L102 700 L561 700 L546 614 L364 614 L256 0 L161 0 L269 614 Z M218 -54 Q253 -54 273 -71.5 Q293 -89 293 -120 Q293 -166 257.5 -196 Q222 -226 169 -226 Q126 -226 94 -207 L118 -158 Q146 -175 178 -175 Q204 -175 219 -162.5 Q234 -150 234 -131 Q234 -97 190 -97 Q166 -97 142 -105 L187 0 L237 0 L210 -54 L218 -54 Z " />
<glyph glyph-name="uni021A" unicode="&#x21a;" horiz-adv-x="523" d="M269 614 L87 614 L102 700 L561 700 L546 614 L364 614 L256 0 L161 0 L269 614 Z M127 -262 L171 -177 L135 -177 L150 -91 L246 -91 L231 -177 L164 -262 L127 -262 Z " />
<glyph glyph-name="uni1E6C" unicode="&#x1e6c;" horiz-adv-x="523" d="M269 614 L87 614 L102 700 L561 700 L546 614 L364 614 L256 0 L161 0 L269 614 Z M149 -81 L241 -81 L223 -171 L131 -171 L149 -81 Z " />
<glyph glyph-name="uni1E6E" unicode="&#x1e6e;" horiz-adv-x="523" d="M269 614 L87 614 L102 700 L561 700 L546 614 L364 614 L256 0 L161 0 L269 614 Z M40 -91 L352 -91 L338 -162 L26 -162 L40 -91 Z " />
<glyph glyph-name="U" unicode="U" horiz-adv-x="668" d="M280 -14 Q172 -14 118.5 42.5 Q65 99 65 204 Q65 248 74 297 L145 700 L240 700 L177 343 Q165 276 165 229 Q165 156 195 114 Q225 72 295 72 Q391 72 439 146 Q487 220 509 343 L572 700 L667 700 L596 297 Q570 149 490 67.5 Q410 -14 280 -14 Z " />
<glyph glyph-name="Uacute" unicode="&#xda;" horiz-adv-x="668" d="M280 -14 Q172 -14 118.5 42.5 Q65 99 65 204 Q65 248 74 297 L145 700 L240 700 L177 343 Q165 276 165 229 Q165 156 195 114 Q225 72 295 72 Q391 72 439 146 Q487 220 509 343 L572 700 L667 700 L596 297 Q570 149 490 67.5 Q410 -14 280 -14 Z M356 853 L539 957 L522 846 L344 785 L356 853 Z " />
<glyph glyph-name="Ubreve" unicode="&#x16c;" horiz-adv-x="668" d="M280 -14 Q172 -14 118.5 42.5 Q65 99 65 204 Q65 248 74 297 L145 700 L240 700 L177 343 Q165 276 165 229 Q165 156 195 114 Q225 72 295 72 Q391 72 439 146 Q487 220 509 343 L572 700 L667 700 L596 297 Q570 149 490 67.5 Q410 -14 280 -14 Z M424 764 Q360 764 328 791.5 Q296 819 296 862 Q296 870 298 884 L378 884 Q377 880 377 872 Q377 850 392.5 838 Q408 826 433 826 Q462 826 483.5 841 Q505 856 510 884 L590 884 Q581 829 538.5 796.5 Q496 764 424 764 Z " />
<glyph glyph-name="Ucircumflex" unicode="&#xdb;" horiz-adv-x="668" d="M280 -14 Q172 -14 118.5 42.5 Q65 99 65 204 Q65 248 74 297 L145 700 L240 700 L177 343 Q165 276 165 229 Q165 156 195 114 Q225 72 295 72 Q391 72 439 146 Q487 220 509 343 L572 700 L667 700 L596 297 Q570 149 490 67.5 Q410 -14 280 -14 Z M331 848 L459 945 L564 835 L552 774 L441 854 L316 784 L331 848 Z " />
<glyph glyph-name="uni0214" unicode="&#x214;" horiz-adv-x="668" d="M280 -14 Q172 -14 118.5 42.5 Q65 99 65 204 Q65 248 74 297 L145 700 L240 700 L177 343 Q165 276 165 229 Q165 156 195 114 Q225 72 295 72 Q391 72 439 146 Q487 220 509 343 L572 700 L667 700 L596 297 Q570 149 490 67.5 Q410 -14 280 -14 Z M257 935 L353 935 L390 788 L326 788 L257 935 Z M400 935 L496 935 L528 788 L464 788 L400 935 Z " />
<glyph glyph-name="Udieresis" unicode="&#xdc;" horiz-adv-x="668" d="M280 -14 Q172 -14 118.5 42.5 Q65 99 65 204 Q65 248 74 297 L145 700 L240 700 L177 343 Q165 276 165 229 Q165 156 195 114 Q225 72 295 72 Q391 72 439 146 Q487 220 509 343 L572 700 L667 700 L596 297 Q570 149 490 67.5 Q410 -14 280 -14 Z M311 881 L395 881 L379 801 L295 801 L311 881 Z M497 881 L581 881 L565 801 L481 801 L497 881 Z " />
<glyph glyph-name="uni1EE4" unicode="&#x1ee4;" horiz-adv-x="668" d="M280 -14 Q172 -14 118.5 42.5 Q65 99 65 204 Q65 248 74 297 L145 700 L240 700 L177 343 Q165 276 165 229 Q165 156 195 114 Q225 72 295 72 Q391 72 439 146 Q487 220 509 343 L572 700 L667 700 L596 297 Q570 149 490 67.5 Q410 -14 280 -14 Z M221 -81 L313 -81 L295 -171 L203 -171 L221 -81 Z " />
<glyph glyph-name="Ugrave" unicode="&#xd9;" horiz-adv-x="668" d="M280 -14 Q172 -14 118.5 42.5 Q65 99 65 204 Q65 248 74 297 L145 700 L240 700 L177 343 Q165 276 165 229 Q165 156 195 114 Q225 72 295 72 Q391 72 439 146 Q487 220 509 343 L572 700 L667 700 L596 297 Q570 149 490 67.5 Q410 -14 280 -14 Z M349 855 L366 953 L525 847 L514 786 L349 855 Z " />
<glyph glyph-name="uni1EE6" unicode="&#x1ee6;" horiz-adv-x="668" d="M280 -14 Q172 -14 118.5 42.5 Q65 99 65 204 Q65 248 74 297 L145 700 L240 700 L177 343 Q165 276 165 229 Q165 156 195 114 Q225 72 295 72 Q391 72 439 146 Q487 220 509 343 L572 700 L667 700 L596 297 Q570 149 490 67.5 Q410 -14 280 -14 Z M405 768 Q437 794 450 809 Q463 824 463 844 Q463 871 428 871 Q402 871 362 852 L354 903 Q394 922 438 922 Q476 922 499 904.5 Q522 887 523 855 Q523 819 500 791 Q477 763 433 735 L405 768 Z " />
<glyph glyph-name="Uhorn" unicode="&#x1af;" horiz-adv-x="668" d="M789 774 Q779 722 744.5 687.5 Q710 653 657 640 L596 297 Q570 149 490 67.5 Q410 -14 280 -14 Q172 -14 118.5 42.5 Q65 99 65 204 Q65 248 74 297 L145 700 L240 700 L177 343 Q165 276 165 229 Q165 156 195 114 Q225 72 295 72 Q391 72 439 146 Q487 220 509 343 L572 700 L610 700 Q689 700 703 774 L789 774 Z " />
<glyph glyph-name="uni1EE8" unicode="&#x1ee8;" horiz-adv-x="668" d="M789 774 Q779 722 744.5 687.5 Q710 653 657 640 L596 297 Q570 149 490 67.5 Q410 -14 280 -14 Q172 -14 118.5 42.5 Q65 99 65 204 Q65 248 74 297 L145 700 L240 700 L177 343 Q165 276 165 229 Q165 156 195 114 Q225 72 295 72 Q391 72 439 146 Q487 220 509 343 L572 700 L610 700 Q689 700 703 774 L789 774 Z M356 853 L539 957 L522 846 L344 785 L356 853 Z " />
<glyph glyph-name="uni1EF0" unicode="&#x1ef0;" horiz-adv-x="668" d="M789 774 Q779 722 744.5 687.5 Q710 653 657 640 L596 297 Q570 149 490 67.5 Q410 -14 280 -14 Q172 -14 118.5 42.5 Q65 99 65 204 Q65 248 74 297 L145 700 L240 700 L177 343 Q165 276 165 229 Q165 156 195 114 Q225 72 295 72 Q391 72 439 146 Q487 220 509 343 L572 700 L610 700 Q689 700 703 774 L789 774 Z M221 -81 L313 -81 L295 -171 L203 -171 L221 -81 Z " />
<glyph glyph-name="uni1EEA" unicode="&#x1eea;" horiz-adv-x="668" d="M789 774 Q779 722 744.5 687.5 Q710 653 657 640 L596 297 Q570 149 490 67.5 Q410 -14 280 -14 Q172 -14 118.5 42.5 Q65 99 65 204 Q65 248 74 297 L145 700 L240 700 L177 343 Q165 276 165 229 Q165 156 195 114 Q225 72 295 72 Q391 72 439 146 Q487 220 509 343 L572 700 L610 700 Q689 700 703 774 L789 774 Z M349 855 L366 953 L525 847 L514 786 L349 855 Z " />
<glyph glyph-name="uni1EEC" unicode="&#x1eec;" horiz-adv-x="668" d="M789 774 Q779 722 744.5 687.5 Q710 653 657 640 L596 297 Q570 149 490 67.5 Q410 -14 280 -14 Q172 -14 118.5 42.5 Q65 99 65 204 Q65 248 74 297 L145 700 L240 700 L177 343 Q165 276 165 229 Q165 156 195 114 Q225 72 295 72 Q391 72 439 146 Q487 220 509 343 L572 700 L610 700 Q689 700 703 774 L789 774 Z M405 768 Q437 794 450 809 Q463 824 463 844 Q463 871 428 871 Q402 871 362 852 L354 903 Q394 922 438 922 Q476 922 499 904.5 Q522 887 523 855 Q523 819 500 791 Q477 763 433 735 L405 768 Z " />
<glyph glyph-name="uni1EEE" unicode="&#x1eee;" horiz-adv-x="668" d="M789 774 Q779 722 744.5 687.5 Q710 653 657 640 L596 297 Q570 149 490 67.5 Q410 -14 280 -14 Q172 -14 118.5 42.5 Q65 99 65 204 Q65 248 74 297 L145 700 L240 700 L177 343 Q165 276 165 229 Q165 156 195 114 Q225 72 295 72 Q391 72 439 146 Q487 220 509 343 L572 700 L610 700 Q689 700 703 774 L789 774 Z M507 790 Q492 790 477 796 Q462 802 439 813 Q419 823 405.5 828.5 Q392 834 381 834 Q351 834 343 798 L271 798 Q297 909 376 909 Q392 909 406 903.5 Q420 898 441 886 Q459 876 472 870.5 Q485 865 499 865 Q530 865 537 904 L609 904 Q596 845 571 817.5 Q546 790 507 790 Z " />
<glyph glyph-name="Uhungarumlaut" unicode="&#x170;" horiz-adv-x="668" d="M280 -14 Q172 -14 118.5 42.5 Q65 99 65 204 Q65 248 74 297 L145 700 L240 700 L177 343 Q165 276 165 229 Q165 156 195 114 Q225 72 295 72 Q391 72 439 146 Q487 220 509 343 L572 700 L667 700 L596 297 Q570 149 490 67.5 Q410 -14 280 -14 Z M406 935 L502 935 L388 788 L324 788 L406 935 Z M549 935 L645 935 L526 788 L462 788 L549 935 Z " />
<glyph glyph-name="uni0216" unicode="&#x216;" horiz-adv-x="668" d="M280 -14 Q172 -14 118.5 42.5 Q65 99 65 204 Q65 248 74 297 L145 700 L240 700 L177 343 Q165 276 165 229 Q165 156 195 114 Q225 72 295 72 Q391 72 439 146 Q487 220 509 343 L572 700 L667 700 L596 297 Q570 149 490 67.5 Q410 -14 280 -14 Z M281 779 Q290 829 333.5 864 Q377 899 447 899 Q509 899 540 871 Q571 843 571 800 Q571 793 569 779 L489 779 Q490 784 490 791 Q490 813 475 825 Q460 837 436 837 Q408 837 387 822 Q366 807 361 779 L281 779 Z " />
<glyph glyph-name="Umacron" unicode="&#x16a;" horiz-adv-x="668" d="M280 -14 Q172 -14 118.5 42.5 Q65 99 65 204 Q65 248 74 297 L145 700 L240 700 L177 343 Q165 276 165 229 Q165 156 195 114 Q225 72 295 72 Q391 72 439 146 Q487 220 509 343 L572 700 L667 700 L596 297 Q570 149 490 67.5 Q410 -14 280 -14 Z M281 861 L597 861 L585 793 L269 793 L281 861 Z " />
<glyph glyph-name="uni1E7A" unicode="&#x1e7a;" horiz-adv-x="668" d="M280 -14 Q172 -14 118.5 42.5 Q65 99 65 204 Q65 248 74 297 L145 700 L240 700 L177 343 Q165 276 165 229 Q165 156 195 114 Q225 72 295 72 Q391 72 439 146 Q487 220 509 343 L572 700 L667 700 L596 297 Q570 149 490 67.5 Q410 -14 280 -14 Z M281 861 L597 861 L585 793 L269 793 L281 861 Z M344 1021 L428 1021 L414 946 L330 946 L344 1021 Z M528 1021 L612 1021 L598 946 L514 946 L528 1021 Z " />
<glyph glyph-name="Uogonek" unicode="&#x172;" horiz-adv-x="668" d="M667 700 L596 297 Q575 175 515.5 97 Q456 19 361 -5 Q319 -34 295 -61 Q271 -88 271 -119 Q271 -138 281 -147.5 Q291 -157 308 -157 Q337 -157 368 -140 L374 -189 Q338 -208 294 -208 Q257 -208 233.5 -190 Q210 -172 209 -139 Q209 -105 232.5 -71.5 Q256 -38 292 -14 L280 -14 Q172 -14 118.5 42.5 Q65 99 65 204 Q65 248 74 297 L145 700 L240 700 L177 343 Q165 276 165 229 Q165 156 195 114 Q225 72 295 72 Q391 72 439 146 Q487 220 509 343 L572 700 L667 700 Z " />
<glyph glyph-name="Uring" unicode="&#x16e;" horiz-adv-x="668" d="M280 -14 Q172 -14 118.5 42.5 Q65 99 65 204 Q65 248 74 297 L145 700 L240 700 L177 343 Q165 276 165 229 Q165 156 195 114 Q225 72 295 72 Q391 72 439 146 Q487 220 509 343 L572 700 L667 700 L596 297 Q570 149 490 67.5 Q410 -14 280 -14 Z M423 756 Q381 756 358.5 778.5 Q336 801 336 836 Q336 883 370.5 917.5 Q405 952 453 952 Q495 952 517.5 929 Q540 906 540 872 Q540 824 506 790 Q472 756 423 756 Z M428 800 Q453 800 471 819 Q489 838 489 865 Q489 884 477.5 896 Q466 908 448 908 Q424 908 405.5 888.5 Q387 869 387 844 Q387 824 398.5 812 Q410 800 428 800 Z " />
<glyph glyph-name="Utilde" unicode="&#x168;" horiz-adv-x="668" d="M280 -14 Q172 -14 118.5 42.5 Q65 99 65 204 Q65 248 74 297 L145 700 L240 700 L177 343 Q165 276 165 229 Q165 156 195 114 Q225 72 295 72 Q391 72 439 146 Q487 220 509 343 L572 700 L667 700 L596 297 Q570 149 490 67.5 Q410 -14 280 -14 Z M507 790 Q492 790 477 796 Q462 802 439 813 Q419 823 405.5 828.5 Q392 834 381 834 Q351 834 343 798 L271 798 Q297 909 376 909 Q392 909 406 903.5 Q420 898 441 886 Q459 876 472 870.5 Q485 865 499 865 Q530 865 537 904 L609 904 Q596 845 571 817.5 Q546 790 507 790 Z " />
<glyph glyph-name="uni1E78" unicode="&#x1e78;" horiz-adv-x="668" d="M280 -14 Q172 -14 118.5 42.5 Q65 99 65 204 Q65 248 74 297 L145 700 L240 700 L177 343 Q165 276 165 229 Q165 156 195 114 Q225 72 295 72 Q391 72 439 146 Q487 220 509 343 L572 700 L667 700 L596 297 Q570 149 490 67.5 Q410 -14 280 -14 Z M504 788 Q489 788 473 793 Q457 798 430 809 Q388 827 373 827 Q359 827 349.5 818 Q340 809 339 793 L274 793 Q282 841 306 867 Q330 893 366 893 Q381 893 396.5 888 Q412 883 438 872 Q454 865 470.5 859.5 Q487 854 499 854 Q513 854 522 863 Q531 872 533 888 L598 888 Q591 839 566 813.5 Q541 788 504 788 Z M385 1004 L556 1099 L542 998 L377 940 L385 1004 Z " />
<glyph glyph-name="V" unicode="V" horiz-adv-x="595" d="M75 700 L175 700 L261 115 L553 700 L653 700 L294 0 L188 0 L75 700 Z " />
<glyph glyph-name="W" unicode="W" horiz-adv-x="889" d="M93 700 L193 700 L220 118 L467 686 L566 686 L608 119 L846 700 L945 700 L637 0 L541 0 L496 574 L245 0 L146 0 L93 700 Z " />
<glyph glyph-name="Wacute" unicode="&#x1e82;" horiz-adv-x="889" d="M93 700 L193 700 L220 118 L467 686 L566 686 L608 119 L846 700 L945 700 L637 0 L541 0 L496 574 L245 0 L146 0 L93 700 Z M460 828 L631 923 L617 822 L452 764 L460 828 Z " />
<glyph glyph-name="Wcircumflex" unicode="&#x174;" horiz-adv-x="889" d="M93 700 L193 700 L220 118 L467 686 L566 686 L608 119 L846 700 L945 700 L637 0 L541 0 L496 574 L245 0 L146 0 L93 700 Z M538 819 L423 765 L433 826 L553 904 L664 814 L654 753 L538 819 Z " />
<glyph glyph-name="Wdieresis" unicode="&#x1e84;" horiz-adv-x="889" d="M93 700 L193 700 L220 118 L467 686 L566 686 L608 119 L846 700 L945 700 L637 0 L541 0 L496 574 L245 0 L146 0 L93 700 Z M413 869 L497 869 L483 794 L399 794 L413 869 Z M597 869 L681 869 L667 794 L583 794 L597 869 Z " />
<glyph glyph-name="Wgrave" unicode="&#x1e80;" horiz-adv-x="889" d="M93 700 L193 700 L220 118 L467 686 L566 686 L608 119 L846 700 L945 700 L637 0 L541 0 L496 574 L245 0 L146 0 L93 700 Z M450 822 L467 917 L627 822 L616 764 L450 822 Z " />
<glyph glyph-name="X" unicode="X" horiz-adv-x="562" d="M232 357 L88 700 L198 700 L306 422 L516 700 L619 700 L341 356 L500 0 L397 0 L275 287 L65 0 L-39 0 L232 357 Z " />
<glyph glyph-name="Y" unicode="Y" horiz-adv-x="546" d="M226 323 L78 700 L178 700 L292 409 L504 700 L604 700 L324 323 L267 0 L169 0 L226 323 Z " />
<glyph glyph-name="Yacute" unicode="&#xdd;" horiz-adv-x="546" d="M226 323 L78 700 L178 700 L292 409 L504 700 L604 700 L324 323 L267 0 L169 0 L226 323 Z M286 853 L469 957 L452 846 L274 785 L286 853 Z " />
<glyph glyph-name="Ycircumflex" unicode="&#x176;" horiz-adv-x="546" d="M226 323 L78 700 L178 700 L292 409 L504 700 L604 700 L324 323 L267 0 L169 0 L226 323 Z M362 819 L247 765 L257 826 L377 904 L488 814 L478 753 L362 819 Z " />
<glyph glyph-name="Ydieresis" unicode="&#x178;" horiz-adv-x="546" d="M226 323 L78 700 L178 700 L292 409 L504 700 L604 700 L324 323 L267 0 L169 0 L226 323 Z M241 881 L325 881 L309 801 L225 801 L241 881 Z M427 881 L511 881 L495 801 L411 801 L427 881 Z " />
<glyph glyph-name="uni1E8E" unicode="&#x1e8e;" horiz-adv-x="546" d="M226 323 L78 700 L178 700 L292 409 L504 700 L604 700 L324 323 L267 0 L169 0 L226 323 Z M326 881 L420 881 L404 791 L310 791 L326 881 Z " />
<glyph glyph-name="uni1EF4" unicode="&#x1ef4;" horiz-adv-x="546" d="M226 323 L78 700 L178 700 L292 409 L504 700 L604 700 L324 323 L267 0 L169 0 L226 323 Z M158 -81 L250 -81 L232 -171 L140 -171 L158 -81 Z " />
<glyph glyph-name="Ygrave" unicode="&#x1ef2;" horiz-adv-x="546" d="M226 323 L78 700 L178 700 L292 409 L504 700 L604 700 L324 323 L267 0 L169 0 L226 323 Z M279 855 L296 953 L455 847 L444 786 L279 855 Z " />
<glyph glyph-name="uni1EF6" unicode="&#x1ef6;" horiz-adv-x="546" d="M226 323 L78 700 L178 700 L292 409 L504 700 L604 700 L324 323 L267 0 L169 0 L226 323 Z M335 768 Q367 794 380 809 Q393 824 393 844 Q393 871 358 871 Q332 871 292 852 L284 903 Q324 922 368 922 Q406 922 429 904.5 Q452 887 453 855 Q453 819 430 791 Q407 763 363 735 L335 768 Z " />
<glyph glyph-name="uni0232" unicode="&#x232;" horiz-adv-x="546" d="M226 323 L78 700 L178 700 L292 409 L504 700 L604 700 L324 323 L267 0 L169 0 L226 323 Z M211 861 L527 861 L515 793 L199 793 L211 861 Z " />
<glyph glyph-name="uni1EF8" unicode="&#x1ef8;" horiz-adv-x="546" d="M226 323 L78 700 L178 700 L292 409 L504 700 L604 700 L324 323 L267 0 L169 0 L226 323 Z M437 790 Q422 790 407 796 Q392 802 369 813 Q349 823 335.5 828.5 Q322 834 311 834 Q281 834 273 798 L201 798 Q227 909 306 909 Q322 909 336 903.5 Q350 898 371 886 Q389 876 402 870.5 Q415 865 429 865 Q460 865 467 904 L539 904 Q526 845 501 817.5 Q476 790 437 790 Z " />
<glyph glyph-name="Z" unicode="Z" horiz-adv-x="500" d="M390 614 L108 614 L123 700 L562 700 L130 86 L413 86 L398 0 L-41 0 L390 614 Z " />
<glyph glyph-name="Zacute" unicode="&#x179;" horiz-adv-x="500" d="M390 614 L108 614 L123 700 L562 700 L130 86 L413 86 L398 0 L-41 0 L390 614 Z M286 828 L457 923 L443 822 L278 764 L286 828 Z " />
<glyph glyph-name="Zcaron" unicode="&#x17d;" horiz-adv-x="500" d="M390 614 L108 614 L123 700 L562 700 L130 86 L413 86 L398 0 L-41 0 L390 614 Z M251 878 L263 939 L374 859 L510 939 L498 864 L356 768 L251 878 Z " />
<glyph glyph-name="Zdotaccent" unicode="&#x17b;" horiz-adv-x="500" d="M390 614 L108 614 L123 700 L562 700 L130 86 L413 86 L398 0 L-41 0 L390 614 Z M328 881 L422 881 L406 791 L312 791 L328 881 Z " />
<glyph glyph-name="uni1E92" unicode="&#x1e92;" horiz-adv-x="500" d="M390 614 L108 614 L123 700 L562 700 L130 86 L413 86 L398 0 L-41 0 L390 614 Z M119 -81 L211 -81 L193 -171 L101 -171 L119 -81 Z " />
<glyph glyph-name="a" unicode="a" horiz-adv-x="540" d="M184 -10 Q110 -10 65.5 43.5 Q21 97 21 186 Q21 265 54.5 337.5 Q88 410 147.5 455 Q207 500 279 500 Q361 500 393 438 L412 490 L492 490 L433 143 Q429 122 429 104 Q429 80 439.5 71 Q450 62 476 62 L451 -10 Q416 -10 395 -6 Q374 -2 359 13.5 Q344 29 337 62 Q276 -10 184 -10 Z M214 70 Q253 70 289.5 94.5 Q326 119 348.5 166 Q371 213 371 277 Q371 349 343 384.5 Q315 420 269 420 Q226 420 191 390.5 Q156 361 135.5 311.5 Q115 262 115 205 Q115 145 139.5 107.5 Q164 70 214 70 Z " />
<glyph glyph-name="aacute" unicode="&#xe1;" horiz-adv-x="540" d="M184 -10 Q110 -10 65.5 43.5 Q21 97 21 186 Q21 265 54.5 337.5 Q88 410 147.5 455 Q207 500 279 500 Q361 500 393 438 L412 490 L492 490 L433 143 Q429 122 429 104 Q429 80 439.5 71 Q450 62 476 62 L451 -10 Q416 -10 395 -6 Q374 -2 359 13.5 Q344 29 337 62 Q276 -10 184 -10 Z M214 70 Q253 70 289.5 94.5 Q326 119 348.5 166 Q371 213 371 277 Q371 349 343 384.5 Q315 420 269 420 Q226 420 191 390.5 Q156 361 135.5 311.5 Q115 262 115 205 Q115 145 139.5 107.5 Q164 70 214 70 Z M266 643 L449 747 L432 636 L254 575 L266 643 Z " />
<glyph glyph-name="abreve" unicode="&#x103;" horiz-adv-x="540" d="M184 -10 Q110 -10 65.5 43.5 Q21 97 21 186 Q21 265 54.5 337.5 Q88 410 147.5 455 Q207 500 279 500 Q361 500 393 438 L412 490 L492 490 L433 143 Q429 122 429 104 Q429 80 439.5 71 Q450 62 476 62 L451 -10 Q416 -10 395 -6 Q374 -2 359 13.5 Q344 29 337 62 Q276 -10 184 -10 Z M214 70 Q253 70 289.5 94.5 Q326 119 348.5 166 Q371 213 371 277 Q371 349 343 384.5 Q315 420 269 420 Q226 420 191 390.5 Q156 361 135.5 311.5 Q115 262 115 205 Q115 145 139.5 107.5 Q164 70 214 70 Z M343 576 Q282 576 250.5 604.5 Q219 633 219 677 Q219 691 223 703 L301 703 Q298 696 298 686 Q298 665 312 653.5 Q326 642 351 642 Q379 642 399 657.5 Q419 673 424 703 L507 703 Q498 647 455.5 611.5 Q413 576 343 576 Z " />
<glyph glyph-name="uni1EAF" unicode="&#x1eaf;" horiz-adv-x="540" d="M184 -10 Q110 -10 65.5 43.5 Q21 97 21 186 Q21 265 54.5 337.5 Q88 410 147.5 455 Q207 500 279 500 Q361 500 393 438 L412 490 L492 490 L433 143 Q429 122 429 104 Q429 80 439.5 71 Q450 62 476 62 L451 -10 Q416 -10 395 -6 Q374 -2 359 13.5 Q344 29 337 62 Q276 -10 184 -10 Z M214 70 Q253 70 289.5 94.5 Q326 119 348.5 166 Q371 213 371 277 Q371 349 343 384.5 Q315 420 269 420 Q226 420 191 390.5 Q156 361 135.5 311.5 Q115 262 115 205 Q115 145 139.5 107.5 Q164 70 214 70 Z M309 782 L480 877 L466 776 L301 718 L309 782 Z M341 554 Q277 554 245 581.5 Q213 609 213 652 Q213 660 215 674 L295 674 Q294 670 294 662 Q294 640 309.5 628 Q325 616 350 616 Q379 616 400.5 631 Q422 646 427 674 L507 674 Q498 619 455.5 586.5 Q413 554 341 554 Z " />
<glyph glyph-name="uni1EB7" unicode="&#x1eb7;" horiz-adv-x="540" d="M184 -10 Q110 -10 65.5 43.5 Q21 97 21 186 Q21 265 54.5 337.5 Q88 410 147.5 455 Q207 500 279 500 Q361 500 393 438 L412 490 L492 490 L433 143 Q429 122 429 104 Q429 80 439.5 71 Q450 62 476 62 L451 -10 Q416 -10 395 -6 Q374 -2 359 13.5 Q344 29 337 62 Q276 -10 184 -10 Z M214 70 Q253 70 289.5 94.5 Q326 119 348.5 166 Q371 213 371 277 Q371 349 343 384.5 Q315 420 269 420 Q226 420 191 390.5 Q156 361 135.5 311.5 Q115 262 115 205 Q115 145 139.5 107.5 Q164 70 214 70 Z M343 576 Q282 576 250.5 604.5 Q219 633 219 677 Q219 691 223 703 L301 703 Q298 696 298 686 Q298 665 312 653.5 Q326 642 351 642 Q379 642 399 657.5 Q419 673 424 703 L507 703 Q498 647 455.5 611.5 Q413 576 343 576 Z M145 -81 L237 -81 L219 -171 L127 -171 L145 -81 Z " />
<glyph glyph-name="uni1EB1" unicode="&#x1eb1;" horiz-adv-x="540" d="M184 -10 Q110 -10 65.5 43.5 Q21 97 21 186 Q21 265 54.5 337.5 Q88 410 147.5 455 Q207 500 279 500 Q361 500 393 438 L412 490 L492 490 L433 143 Q429 122 429 104 Q429 80 439.5 71 Q450 62 476 62 L451 -10 Q416 -10 395 -6 Q374 -2 359 13.5 Q344 29 337 62 Q276 -10 184 -10 Z M214 70 Q253 70 289.5 94.5 Q326 119 348.5 166 Q371 213 371 277 Q371 349 343 384.5 Q315 420 269 420 Q226 420 191 390.5 Q156 361 135.5 311.5 Q115 262 115 205 Q115 145 139.5 107.5 Q164 70 214 70 Z M296 775 L313 870 L473 775 L462 717 L296 775 Z M338 553 Q274 553 242 580.5 Q210 608 210 651 Q210 659 212 673 L292 673 Q291 669 291 661 Q291 639 306.5 627 Q322 615 347 615 Q376 615 397.5 630 Q419 645 424 673 L504 673 Q495 618 452.5 585.5 Q410 553 338 553 Z " />
<glyph glyph-name="uni1EB3" unicode="&#x1eb3;" horiz-adv-x="540" d="M184 -10 Q110 -10 65.5 43.5 Q21 97 21 186 Q21 265 54.5 337.5 Q88 410 147.5 455 Q207 500 279 500 Q361 500 393 438 L412 490 L492 490 L433 143 Q429 122 429 104 Q429 80 439.5 71 Q450 62 476 62 L451 -10 Q416 -10 395 -6 Q374 -2 359 13.5 Q344 29 337 62 Q276 -10 184 -10 Z M214 70 Q253 70 289.5 94.5 Q326 119 348.5 166 Q371 213 371 277 Q371 349 343 384.5 Q315 420 269 420 Q226 420 191 390.5 Q156 361 135.5 311.5 Q115 262 115 205 Q115 145 139.5 107.5 Q164 70 214 70 Z M372 730 Q413 744 413 773 Q413 786 403.5 793.5 Q394 801 377 801 Q354 801 316 783 L308 834 Q346 852 389 852 Q426 852 449 834.5 Q472 817 472 785 Q472 748 445.5 723.5 Q419 699 374 690 L372 730 Z M348 554 Q284 554 252 581.5 Q220 609 220 652 Q220 660 222 674 L302 674 Q301 670 301 662 Q301 640 316.5 628 Q332 616 357 616 Q386 616 407.5 631 Q429 646 434 674 L514 674 Q505 619 462.5 586.5 Q420 554 348 554 Z " />
<glyph glyph-name="uni1EB5" unicode="&#x1eb5;" horiz-adv-x="540" d="M184 -10 Q110 -10 65.5 43.5 Q21 97 21 186 Q21 265 54.5 337.5 Q88 410 147.5 455 Q207 500 279 500 Q361 500 393 438 L412 490 L492 490 L433 143 Q429 122 429 104 Q429 80 439.5 71 Q450 62 476 62 L451 -10 Q416 -10 395 -6 Q374 -2 359 13.5 Q344 29 337 62 Q276 -10 184 -10 Z M214 70 Q253 70 289.5 94.5 Q326 119 348.5 166 Q371 213 371 277 Q371 349 343 384.5 Q315 420 269 420 Q226 420 191 390.5 Q156 361 135.5 311.5 Q115 262 115 205 Q115 145 139.5 107.5 Q164 70 214 70 Z M459 721 Q444 721 428 726 Q412 731 385 742 Q343 760 328 760 Q314 760 304.5 751 Q295 742 294 726 L229 726 Q237 774 261 800 Q285 826 321 826 Q336 826 351.5 821 Q367 816 393 805 Q409 798 425.5 792.5 Q442 787 454 787 Q468 787 477 796 Q486 805 488 821 L553 821 Q546 772 521 746.5 Q496 721 459 721 Z M345 554 Q281 554 249 581.5 Q217 609 217 652 Q217 660 219 674 L299 674 Q298 670 298 662 Q298 640 313.5 628 Q329 616 354 616 Q383 616 404.5 631 Q426 646 431 674 L511 674 Q502 619 459.5 586.5 Q417 554 345 554 Z " />
<glyph glyph-name="acircumflex" unicode="&#xe2;" horiz-adv-x="540" d="M184 -10 Q110 -10 65.5 43.5 Q21 97 21 186 Q21 265 54.5 337.5 Q88 410 147.5 455 Q207 500 279 500 Q361 500 393 438 L412 490 L492 490 L433 143 Q429 122 429 104 Q429 80 439.5 71 Q450 62 476 62 L451 -10 Q416 -10 395 -6 Q374 -2 359 13.5 Q344 29 337 62 Q276 -10 184 -10 Z M214 70 Q253 70 289.5 94.5 Q326 119 348.5 166 Q371 213 371 277 Q371 349 343 384.5 Q315 420 269 420 Q226 420 191 390.5 Q156 361 135.5 311.5 Q115 262 115 205 Q115 145 139.5 107.5 Q164 70 214 70 Z M241 638 L369 735 L474 625 L462 564 L351 644 L226 574 L241 638 Z " />
<glyph glyph-name="uni1EA5" unicode="&#x1ea5;" horiz-adv-x="540" d="M184 -10 Q110 -10 65.5 43.5 Q21 97 21 186 Q21 265 54.5 337.5 Q88 410 147.5 455 Q207 500 279 500 Q361 500 393 438 L412 490 L492 490 L433 143 Q429 122 429 104 Q429 80 439.5 71 Q450 62 476 62 L451 -10 Q416 -10 395 -6 Q374 -2 359 13.5 Q344 29 337 62 Q276 -10 184 -10 Z M214 70 Q253 70 289.5 94.5 Q326 119 348.5 166 Q371 213 371 277 Q371 349 343 384.5 Q315 420 269 420 Q226 420 191 390.5 Q156 361 135.5 311.5 Q115 262 115 205 Q115 145 139.5 107.5 Q164 70 214 70 Z M502 801 L598 801 L484 689 L420 689 L502 801 Z M342 609 L227 555 L237 616 L357 694 L468 604 L458 543 L342 609 Z " />
<glyph glyph-name="uni1EAD" unicode="&#x1ead;" horiz-adv-x="540" d="M184 -10 Q110 -10 65.5 43.5 Q21 97 21 186 Q21 265 54.5 337.5 Q88 410 147.5 455 Q207 500 279 500 Q361 500 393 438 L412 490 L492 490 L433 143 Q429 122 429 104 Q429 80 439.5 71 Q450 62 476 62 L451 -10 Q416 -10 395 -6 Q374 -2 359 13.5 Q344 29 337 62 Q276 -10 184 -10 Z M214 70 Q253 70 289.5 94.5 Q326 119 348.5 166 Q371 213 371 277 Q371 349 343 384.5 Q315 420 269 420 Q226 420 191 390.5 Q156 361 135.5 311.5 Q115 262 115 205 Q115 145 139.5 107.5 Q164 70 214 70 Z M241 638 L369 735 L474 625 L462 564 L351 644 L226 574 L241 638 Z M145 -81 L237 -81 L219 -171 L127 -171 L145 -81 Z " />
<glyph glyph-name="uni1EA7" unicode="&#x1ea7;" horiz-adv-x="540" d="M184 -10 Q110 -10 65.5 43.5 Q21 97 21 186 Q21 265 54.5 337.5 Q88 410 147.5 455 Q207 500 279 500 Q361 500 393 438 L412 490 L492 490 L433 143 Q429 122 429 104 Q429 80 439.5 71 Q450 62 476 62 L451 -10 Q416 -10 395 -6 Q374 -2 359 13.5 Q344 29 337 62 Q276 -10 184 -10 Z M214 70 Q253 70 289.5 94.5 Q326 119 348.5 166 Q371 213 371 277 Q371 349 343 384.5 Q315 420 269 420 Q226 420 191 390.5 Q156 361 135.5 311.5 Q115 262 115 205 Q115 145 139.5 107.5 Q164 70 214 70 Z M347 806 L442 806 L478 689 L414 689 L347 806 Z M342 609 L227 555 L237 616 L357 694 L468 604 L458 543 L342 609 Z " />
<glyph glyph-name="uni1EA9" unicode="&#x1ea9;" horiz-adv-x="540" d="M184 -10 Q110 -10 65.5 43.5 Q21 97 21 186 Q21 265 54.5 337.5 Q88 410 147.5 455 Q207 500 279 500 Q361 500 393 438 L412 490 L492 490 L433 143 Q429 122 429 104 Q429 80 439.5 71 Q450 62 476 62 L451 -10 Q416 -10 395 -6 Q374 -2 359 13.5 Q344 29 337 62 Q276 -10 184 -10 Z M214 70 Q253 70 289.5 94.5 Q326 119 348.5 166 Q371 213 371 277 Q371 349 343 384.5 Q315 420 269 420 Q226 420 191 390.5 Q156 361 135.5 311.5 Q115 262 115 205 Q115 145 139.5 107.5 Q164 70 214 70 Z M436 702 Q477 716 477 745 Q477 758 467.5 765.5 Q458 773 441 773 Q418 773 380 755 L372 806 Q410 824 453 824 Q490 824 513 806.5 Q536 789 536 757 Q536 720 509.5 695.5 Q483 671 438 662 L436 702 Z M342 609 L227 555 L237 616 L357 694 L468 604 L458 543 L342 609 Z " />
<glyph glyph-name="uni1EAB" unicode="&#x1eab;" horiz-adv-x="540" d="M184 -10 Q110 -10 65.5 43.5 Q21 97 21 186 Q21 265 54.5 337.5 Q88 410 147.5 455 Q207 500 279 500 Q361 500 393 438 L412 490 L492 490 L433 143 Q429 122 429 104 Q429 80 439.5 71 Q450 62 476 62 L451 -10 Q416 -10 395 -6 Q374 -2 359 13.5 Q344 29 337 62 Q276 -10 184 -10 Z M214 70 Q253 70 289.5 94.5 Q326 119 348.5 166 Q371 213 371 277 Q371 349 343 384.5 Q315 420 269 420 Q226 420 191 390.5 Q156 361 135.5 311.5 Q115 262 115 205 Q115 145 139.5 107.5 Q164 70 214 70 Z M442 725 Q427 725 411 730 Q395 735 368 746 Q326 764 311 764 Q297 764 287.5 755 Q278 746 277 730 L212 730 Q220 778 244 804 Q268 830 304 830 Q319 830 334.5 825 Q350 820 376 809 Q392 802 408.5 796.5 Q425 791 437 791 Q451 791 460 800 Q469 809 471 825 L536 825 Q529 776 504 750.5 Q479 725 442 725 Z M342 609 L227 555 L237 616 L357 694 L468 604 L458 543 L342 609 Z " />
<glyph glyph-name="uni0201" unicode="&#x201;" horiz-adv-x="540" d="M184 -10 Q110 -10 65.5 43.5 Q21 97 21 186 Q21 265 54.5 337.5 Q88 410 147.5 455 Q207 500 279 500 Q361 500 393 438 L412 490 L492 490 L433 143 Q429 122 429 104 Q429 80 439.5 71 Q450 62 476 62 L451 -10 Q416 -10 395 -6 Q374 -2 359 13.5 Q344 29 337 62 Q276 -10 184 -10 Z M214 70 Q253 70 289.5 94.5 Q326 119 348.5 166 Q371 213 371 277 Q371 349 343 384.5 Q315 420 269 420 Q226 420 191 390.5 Q156 361 135.5 311.5 Q115 262 115 205 Q115 145 139.5 107.5 Q164 70 214 70 Z M234 578 L161 745 L259 745 L300 578 L234 578 Z M373 578 L305 745 L403 745 L439 578 L373 578 Z " />
<glyph glyph-name="adieresis" unicode="&#xe4;" horiz-adv-x="540" d="M184 -10 Q110 -10 65.5 43.5 Q21 97 21 186 Q21 265 54.5 337.5 Q88 410 147.5 455 Q207 500 279 500 Q361 500 393 438 L412 490 L492 490 L433 143 Q429 122 429 104 Q429 80 439.5 71 Q450 62 476 62 L451 -10 Q416 -10 395 -6 Q374 -2 359 13.5 Q344 29 337 62 Q276 -10 184 -10 Z M214 70 Q253 70 289.5 94.5 Q326 119 348.5 166 Q371 213 371 277 Q371 349 343 384.5 Q315 420 269 420 Q226 420 191 390.5 Q156 361 135.5 311.5 Q115 262 115 205 Q115 145 139.5 107.5 Q164 70 214 70 Z M221 671 L305 671 L289 591 L205 591 L221 671 Z M407 671 L491 671 L475 591 L391 591 L407 671 Z " />
<glyph glyph-name="uni1EA1" unicode="&#x1ea1;" horiz-adv-x="540" d="M184 -10 Q110 -10 65.5 43.5 Q21 97 21 186 Q21 265 54.5 337.5 Q88 410 147.5 455 Q207 500 279 500 Q361 500 393 438 L412 490 L492 490 L433 143 Q429 122 429 104 Q429 80 439.5 71 Q450 62 476 62 L451 -10 Q416 -10 395 -6 Q374 -2 359 13.5 Q344 29 337 62 Q276 -10 184 -10 Z M214 70 Q253 70 289.5 94.5 Q326 119 348.5 166 Q371 213 371 277 Q371 349 343 384.5 Q315 420 269 420 Q226 420 191 390.5 Q156 361 135.5 311.5 Q115 262 115 205 Q115 145 139.5 107.5 Q164 70 214 70 Z M145 -81 L237 -81 L219 -171 L127 -171 L145 -81 Z " />
<glyph glyph-name="agrave" unicode="&#xe0;" horiz-adv-x="540" d="M184 -10 Q110 -10 65.5 43.5 Q21 97 21 186 Q21 265 54.5 337.5 Q88 410 147.5 455 Q207 500 279 500 Q361 500 393 438 L412 490 L492 490 L433 143 Q429 122 429 104 Q429 80 439.5 71 Q450 62 476 62 L451 -10 Q416 -10 395 -6 Q374 -2 359 13.5 Q344 29 337 62 Q276 -10 184 -10 Z M214 70 Q253 70 289.5 94.5 Q326 119 348.5 166 Q371 213 371 277 Q371 349 343 384.5 Q315 420 269 420 Q226 420 191 390.5 Q156 361 135.5 311.5 Q115 262 115 205 Q115 145 139.5 107.5 Q164 70 214 70 Z M259 645 L276 743 L435 637 L424 576 L259 645 Z " />
<glyph glyph-name="uni1EA3" unicode="&#x1ea3;" horiz-adv-x="540" d="M184 -10 Q110 -10 65.5 43.5 Q21 97 21 186 Q21 265 54.5 337.5 Q88 410 147.5 455 Q207 500 279 500 Q361 500 393 438 L412 490 L492 490 L433 143 Q429 122 429 104 Q429 80 439.5 71 Q450 62 476 62 L451 -10 Q416 -10 395 -6 Q374 -2 359 13.5 Q344 29 337 62 Q276 -10 184 -10 Z M214 70 Q253 70 289.5 94.5 Q326 119 348.5 166 Q371 213 371 277 Q371 349 343 384.5 Q315 420 269 420 Q226 420 191 390.5 Q156 361 135.5 311.5 Q115 262 115 205 Q115 145 139.5 107.5 Q164 70 214 70 Z M315 558 Q347 584 360 599 Q373 614 373 634 Q373 661 338 661 Q312 661 272 642 L264 693 Q304 712 348 712 Q386 712 409 694.5 Q432 677 433 645 Q433 609 410 581 Q387 553 343 525 L315 558 Z " />
<glyph glyph-name="uni0203" unicode="&#x203;" horiz-adv-x="540" d="M184 -10 Q110 -10 65.5 43.5 Q21 97 21 186 Q21 265 54.5 337.5 Q88 410 147.5 455 Q207 500 279 500 Q361 500 393 438 L412 490 L492 490 L433 143 Q429 122 429 104 Q429 80 439.5 71 Q450 62 476 62 L451 -10 Q416 -10 395 -6 Q374 -2 359 13.5 Q344 29 337 62 Q276 -10 184 -10 Z M214 70 Q253 70 289.5 94.5 Q326 119 348.5 166 Q371 213 371 277 Q371 349 343 384.5 Q315 420 269 420 Q226 420 191 390.5 Q156 361 135.5 311.5 Q115 262 115 205 Q115 145 139.5 107.5 Q164 70 214 70 Z M356 703 Q419 703 450.5 674 Q482 645 482 599 Q482 592 480 576 L402 576 Q403 580 403 589 Q403 612 387.5 624.5 Q372 637 347 637 Q318 637 296.5 621 Q275 605 270 576 L188 576 Q197 629 241 666 Q285 703 356 703 Z " />
<glyph glyph-name="amacron" unicode="&#x101;" horiz-adv-x="540" d="M184 -10 Q110 -10 65.5 43.5 Q21 97 21 186 Q21 265 54.5 337.5 Q88 410 147.5 455 Q207 500 279 500 Q361 500 393 438 L412 490 L492 490 L433 143 Q429 122 429 104 Q429 80 439.5 71 Q450 62 476 62 L451 -10 Q416 -10 395 -6 Q374 -2 359 13.5 Q344 29 337 62 Q276 -10 184 -10 Z M214 70 Q253 70 289.5 94.5 Q326 119 348.5 166 Q371 213 371 277 Q371 349 343 384.5 Q315 420 269 420 Q226 420 191 390.5 Q156 361 135.5 311.5 Q115 262 115 205 Q115 145 139.5 107.5 Q164 70 214 70 Z M199 662 L511 662 L497 591 L185 591 L199 662 Z " />
<glyph glyph-name="aogonek" unicode="&#x105;" horiz-adv-x="540" d="M429 104 Q429 80 439.5 71 Q450 62 476 62 L451 -10 Q430 -10 421 -9 Q381 -38 359 -63.5 Q337 -89 337 -119 Q337 -138 347 -147.5 Q357 -157 374 -157 Q403 -157 434 -140 L440 -189 Q404 -208 360 -208 Q323 -208 299.5 -190 Q276 -172 275 -139 Q275 -100 306 -62 Q337 -24 379 -1 Q346 14 337 62 Q276 -10 184 -10 Q110 -10 65.5 43.5 Q21 97 21 186 Q21 265 54.5 337.5 Q88 410 147.5 455 Q207 500 279 500 Q361 500 393 438 L412 490 L492 490 L433 143 Q429 122 429 104 Z M214 70 Q253 70 289.5 94.5 Q326 119 348.5 166 Q371 213 371 277 Q371 349 343 384.5 Q315 420 269 420 Q226 420 191 390.5 Q156 361 135.5 311.5 Q115 262 115 205 Q115 145 139.5 107.5 Q164 70 214 70 Z " />
<glyph glyph-name="aring" unicode="&#xe5;" horiz-adv-x="540" d="M184 -10 Q110 -10 65.5 43.5 Q21 97 21 186 Q21 265 54.5 337.5 Q88 410 147.5 455 Q207 500 279 500 Q361 500 393 438 L412 490 L492 490 L433 143 Q429 122 429 104 Q429 80 439.5 71 Q450 62 476 62 L451 -10 Q416 -10 395 -6 Q374 -2 359 13.5 Q344 29 337 62 Q276 -10 184 -10 Z M214 70 Q253 70 289.5 94.5 Q326 119 348.5 166 Q371 213 371 277 Q371 349 343 384.5 Q315 420 269 420 Q226 420 191 390.5 Q156 361 135.5 311.5 Q115 262 115 205 Q115 145 139.5 107.5 Q164 70 214 70 Z M335 568 Q293 568 270.5 590.5 Q248 613 248 647 Q248 697 284.5 732.5 Q321 768 371 768 Q413 768 435.5 745.5 Q458 723 458 689 Q458 638 422.5 603 Q387 568 335 568 Z M342 612 Q368 612 387 632 Q406 652 406 679 Q406 699 394 711.5 Q382 724 364 724 Q339 724 319.5 703.5 Q300 683 300 656 Q300 636 312 624 Q324 612 342 612 Z " />
<glyph glyph-name="aringacute" unicode="&#x1fb;" horiz-adv-x="540" d="M184 -10 Q110 -10 65.5 43.5 Q21 97 21 186 Q21 265 54.5 337.5 Q88 410 147.5 455 Q207 500 279 500 Q361 500 393 438 L412 490 L492 490 L433 143 Q429 122 429 104 Q429 80 439.5 71 Q450 62 476 62 L451 -10 Q416 -10 395 -6 Q374 -2 359 13.5 Q344 29 337 62 Q276 -10 184 -10 Z M214 70 Q253 70 289.5 94.5 Q326 119 348.5 166 Q371 213 371 277 Q371 349 343 384.5 Q315 420 269 420 Q226 420 191 390.5 Q156 361 135.5 311.5 Q115 262 115 205 Q115 145 139.5 107.5 Q164 70 214 70 Z M333 546 Q291 546 268.5 568.5 Q246 591 246 626 Q246 673 280.5 707.5 Q315 742 363 742 Q405 742 427.5 719 Q450 696 450 662 Q450 614 416 580 Q382 546 333 546 Z M338 590 Q363 590 381 609 Q399 628 399 655 Q399 674 387.5 686 Q376 698 358 698 Q334 698 315.5 678.5 Q297 659 297 634 Q297 614 308.5 602 Q320 590 338 590 Z M303 839 L474 934 L460 833 L295 775 L303 839 Z " />
<glyph glyph-name="atilde" unicode="&#xe3;" horiz-adv-x="540" d="M184 -10 Q110 -10 65.5 43.5 Q21 97 21 186 Q21 265 54.5 337.5 Q88 410 147.5 455 Q207 500 279 500 Q361 500 393 438 L412 490 L492 490 L433 143 Q429 122 429 104 Q429 80 439.5 71 Q450 62 476 62 L451 -10 Q416 -10 395 -6 Q374 -2 359 13.5 Q344 29 337 62 Q276 -10 184 -10 Z M214 70 Q253 70 289.5 94.5 Q326 119 348.5 166 Q371 213 371 277 Q371 349 343 384.5 Q315 420 269 420 Q226 420 191 390.5 Q156 361 135.5 311.5 Q115 262 115 205 Q115 145 139.5 107.5 Q164 70 214 70 Z M417 580 Q402 580 387 586 Q372 592 349 603 Q329 613 315.5 618.5 Q302 624 291 624 Q261 624 253 588 L181 588 Q207 699 286 699 Q302 699 316 693.5 Q330 688 351 676 Q369 666 382 660.5 Q395 655 409 655 Q440 655 447 694 L519 694 Q506 635 481 607.5 Q456 580 417 580 Z " />
<glyph glyph-name="ae" unicode="&#xe6;" horiz-adv-x="728" d="M111 -14 Q52 -14 22 14.5 Q-8 43 -8 93 Q-8 207 83.5 253.5 Q175 300 294 307 Q294 370 278 395 Q262 420 215 420 Q187 420 159 413 Q131 406 96 391 L100 461 Q184 500 255 500 Q303 500 338.5 474 Q374 448 374 380 Q401 443 450.5 471.5 Q500 500 560 500 Q627 500 665 459 Q703 418 703 343 Q703 317 698 295 Q693 273 684 245 L387 245 Q383 211 383 198 Q383 132 414 97 Q445 62 497 62 Q528 62 559 71 Q590 80 630 99 L630 30 Q591 11 554 0.5 Q517 -10 475 -10 Q408 -10 367.5 17 Q327 44 314 103 Q279 45 226.5 15.5 Q174 -14 111 -14 Z M615 307 Q619 327 619 348 Q618 385 599 402.5 Q580 420 542 420 Q446 420 404 307 L615 307 Z M144 62 Q190 62 230.5 95.5 Q271 129 283 198 Q289 240 290 245 Q244 245 197.5 231.5 Q151 218 119.5 188 Q88 158 88 112 Q88 86 103 74 Q118 62 144 62 Z " />
<glyph glyph-name="aeacute" unicode="&#x1fd;" horiz-adv-x="728" d="M111 -14 Q52 -14 22 14.5 Q-8 43 -8 93 Q-8 207 83.5 253.5 Q175 300 294 307 Q294 370 278 395 Q262 420 215 420 Q187 420 159 413 Q131 406 96 391 L100 461 Q184 500 255 500 Q303 500 338.5 474 Q374 448 374 380 Q401 443 450.5 471.5 Q500 500 560 500 Q627 500 665 459 Q703 418 703 343 Q703 317 698 295 Q693 273 684 245 L387 245 Q383 211 383 198 Q383 132 414 97 Q445 62 497 62 Q528 62 559 71 Q590 80 630 99 L630 30 Q591 11 554 0.5 Q517 -10 475 -10 Q408 -10 367.5 17 Q327 44 314 103 Q279 45 226.5 15.5 Q174 -14 111 -14 Z M615 307 Q619 327 619 348 Q618 385 599 402.5 Q580 420 542 420 Q446 420 404 307 L615 307 Z M144 62 Q190 62 230.5 95.5 Q271 129 283 198 Q289 240 290 245 Q244 245 197.5 231.5 Q151 218 119.5 188 Q88 158 88 112 Q88 86 103 74 Q118 62 144 62 Z M349 643 L532 747 L515 636 L337 575 L349 643 Z " />
<glyph glyph-name="b" unicode="b" horiz-adv-x="520" d="M246 -10 Q152 -10 110 62 L92 0 L10 0 L142 750 L233 750 L178 437 Q232 500 315 500 Q395 500 438.5 441 Q482 382 482 294 Q482 200 449.5 131 Q417 62 363 26 Q309 -10 246 -10 Z M241 70 Q283 70 316.5 98 Q350 126 369 175.5 Q388 225 388 285 Q388 346 363 383 Q338 420 290 420 Q250 420 214 393.5 Q178 367 156 317.5 Q134 268 134 204 Q134 135 163 102.5 Q192 70 241 70 Z " />
<glyph glyph-name="c" unicode="c" horiz-adv-x="418" d="M210 -10 Q114 -10 68.5 47.5 Q23 105 23 199 Q23 279 55 348 Q87 417 149.5 458.5 Q212 500 299 500 Q336 500 369.5 492.5 Q403 485 423 471 L397 390 Q350 420 299 420 Q211 420 163.5 361.5 Q116 303 116 212 Q116 143 146.5 106 Q177 69 239 69 Q290 69 347 99 L344 22 Q284 -10 210 -10 Z " />
<glyph glyph-name="cacute" unicode="&#x107;" horiz-adv-x="418" d="M210 -10 Q114 -10 68.5 47.5 Q23 105 23 199 Q23 279 55 348 Q87 417 149.5 458.5 Q212 500 299 500 Q336 500 369.5 492.5 Q403 485 423 471 L397 390 Q350 420 299 420 Q211 420 163.5 361.5 Q116 303 116 212 Q116 143 146.5 106 Q177 69 239 69 Q290 69 347 99 L344 22 Q284 -10 210 -10 Z M253 643 L436 747 L419 636 L241 575 L253 643 Z " />
<glyph glyph-name="ccaron" unicode="&#x10d;" horiz-adv-x="418" d="M210 -10 Q114 -10 68.5 47.5 Q23 105 23 199 Q23 279 55 348 Q87 417 149.5 458.5 Q212 500 299 500 Q336 500 369.5 492.5 Q403 485 423 471 L397 390 Q350 420 299 420 Q211 420 163.5 361.5 Q116 303 116 212 Q116 143 146.5 106 Q177 69 239 69 Q290 69 347 99 L344 22 Q284 -10 210 -10 Z M216 668 L228 729 L339 649 L475 729 L463 654 L321 558 L216 668 Z " />
<glyph glyph-name="ccedilla" unicode="&#xe7;" horiz-adv-x="418" d="M299 420 Q211 420 163.5 361.5 Q116 303 116 212 Q116 143 146.5 106 Q177 69 239 69 Q290 69 347 99 L344 22 Q296 -4 235 -9 L212 -54 L220 -54 Q255 -54 275 -71.5 Q295 -89 295 -120 Q295 -166 259.5 -196 Q224 -226 171 -226 Q128 -226 96 -207 L120 -158 Q148 -175 180 -175 Q206 -175 221 -162.5 Q236 -150 236 -131 Q236 -97 192 -97 Q168 -97 144 -105 L185 -9 Q102 -1 62.5 55.5 Q23 112 23 199 Q23 279 55 348 Q87 417 149.5 458.5 Q212 500 299 500 Q336 500 369.5 492.5 Q403 485 423 471 L397 390 Q350 420 299 420 Z " />
<glyph glyph-name="uni1E09" unicode="&#x1e09;" horiz-adv-x="418" d="M419 636 L241 575 L253 643 L436 747 L419 636 Z M23 199 Q23 279 55 348 Q87 417 149.5 458.5 Q212 500 299 500 Q336 500 369.5 492.5 Q403 485 423 471 L397 390 Q350 420 299 420 Q211 420 163.5 361.5 Q116 303 116 212 Q116 143 146.5 106 Q177 69 239 69 Q290 69 347 99 L344 22 Q296 -4 235 -9 L212 -54 L220 -54 Q255 -54 275 -71.5 Q295 -89 295 -120 Q295 -166 259.5 -196 Q224 -226 171 -226 Q128 -226 96 -207 L120 -158 Q148 -175 180 -175 Q206 -175 221 -162.5 Q236 -150 236 -131 Q236 -97 192 -97 Q168 -97 144 -105 L185 -9 Q102 -1 62.5 55.5 Q23 112 23 199 Z " />
<glyph glyph-name="ccircumflex" unicode="&#x109;" horiz-adv-x="418" d="M210 -10 Q114 -10 68.5 47.5 Q23 105 23 199 Q23 279 55 348 Q87 417 149.5 458.5 Q212 500 299 500 Q336 500 369.5 492.5 Q403 485 423 471 L397 390 Q350 420 299 420 Q211 420 163.5 361.5 Q116 303 116 212 Q116 143 146.5 106 Q177 69 239 69 Q290 69 347 99 L344 22 Q284 -10 210 -10 Z M228 638 L356 735 L461 625 L449 564 L338 644 L213 574 L228 638 Z " />
<glyph glyph-name="cdotaccent" unicode="&#x10b;" horiz-adv-x="418" d="M210 -10 Q114 -10 68.5 47.5 Q23 105 23 199 Q23 279 55 348 Q87 417 149.5 458.5 Q212 500 299 500 Q336 500 369.5 492.5 Q403 485 423 471 L397 390 Q350 420 299 420 Q211 420 163.5 361.5 Q116 303 116 212 Q116 143 146.5 106 Q177 69 239 69 Q290 69 347 99 L344 22 Q284 -10 210 -10 Z M299 681 L391 681 L373 591 L281 591 L299 681 Z " />
<glyph glyph-name="d" unicode="d" horiz-adv-x="520" d="M539 750 L407 0 L324 0 L328 62 Q297 27 260 8.5 Q223 -10 184 -10 Q136 -10 99 17 Q62 44 41.5 91 Q21 138 21 197 Q21 273 53.5 343 Q86 413 142.5 456.5 Q199 500 269 500 Q312 500 341.5 483.5 Q371 467 392 431 L448 750 L539 750 Z M214 70 Q253 70 289.5 94.5 Q326 119 348.5 166 Q371 213 371 277 Q371 349 343 384.5 Q315 420 269 420 Q226 420 191 390.5 Q156 361 135.5 311.5 Q115 262 115 205 Q115 145 139.5 107.5 Q164 70 214 70 Z " />
<glyph glyph-name="eth" unicode="&#xf0;" horiz-adv-x="487" d="M372 587 Q443 488 443 342 Q443 235 409.5 154.5 Q376 74 318.5 31 Q261 -12 189 -12 Q105 -12 57.5 39 Q10 90 10 170 Q10 239 39.5 297.5 Q69 356 120.5 391 Q172 426 235 426 Q309 426 350 371 Q350 480 301 557 L179 505 L153 561 L260 607 Q228 638 185 659 L217 701 Q277 681 329 636 L431 679 L456 623 L372 587 Z M197 71 Q232 71 262 93 Q292 115 309 153.5 Q326 192 326 238 Q326 286 304 314.5 Q282 343 242 343 Q203 343 172 321.5 Q141 300 124 263.5 Q107 227 107 184 Q107 134 130.5 102.5 Q154 71 197 71 Z " />
<glyph glyph-name="dcaron" unicode="&#x10f;" horiz-adv-x="572" d="M539 750 L407 0 L324 0 L328 62 Q297 27 260 8.5 Q223 -10 184 -10 Q136 -10 99 17 Q62 44 41.5 91 Q21 138 21 197 Q21 273 53.5 343 Q86 413 142.5 456.5 Q199 500 269 500 Q312 500 341.5 483.5 Q371 467 392 431 L448 750 L539 750 Z M214 70 Q253 70 289.5 94.5 Q326 119 348.5 166 Q371 213 371 277 Q371 349 343 384.5 Q315 420 269 420 Q226 420 191 390.5 Q156 361 135.5 311.5 Q115 262 115 205 Q115 145 139.5 107.5 Q164 70 214 70 Z M579 750 L672 750 L614 583 L549 583 L579 750 Z " />
<glyph glyph-name="dslash" unicode="&#x111;" horiz-adv-x="520" d="M570 584 L510 584 L407 0 L324 0 L328 62 Q297 27 260 8.5 Q223 -10 184 -10 Q136 -10 99 17 Q62 44 41.5 91 Q21 138 21 197 Q21 273 53.5 343 Q86 413 142.5 456.5 Q199 500 269 500 Q312 500 341.5 483.5 Q371 467 392 431 L419 584 L284 584 L296 647 L430 647 L448 750 L539 750 L521 647 L582 647 L570 584 Z M214 70 Q253 70 289.5 94.5 Q326 119 348.5 166 Q371 213 371 277 Q371 349 343 384.5 Q315 420 269 420 Q226 420 191 390.5 Q156 361 135.5 311.5 Q115 262 115 205 Q115 145 139.5 107.5 Q164 70 214 70 Z " />
<glyph glyph-name="uni1E0D" unicode="&#x1e0d;" horiz-adv-x="520" d="M539 750 L407 0 L324 0 L328 62 Q297 27 260 8.5 Q223 -10 184 -10 Q136 -10 99 17 Q62 44 41.5 91 Q21 138 21 197 Q21 273 53.5 343 Q86 413 142.5 456.5 Q199 500 269 500 Q312 500 341.5 483.5 Q371 467 392 431 L448 750 L539 750 Z M214 70 Q253 70 289.5 94.5 Q326 119 348.5 166 Q371 213 371 277 Q371 349 343 384.5 Q315 420 269 420 Q226 420 191 390.5 Q156 361 135.5 311.5 Q115 262 115 205 Q115 145 139.5 107.5 Q164 70 214 70 Z M200 -81 L292 -81 L274 -171 L182 -171 L200 -81 Z " />
<glyph glyph-name="uni1E0F" unicode="&#x1e0f;" horiz-adv-x="520" d="M539 750 L407 0 L324 0 L328 62 Q297 27 260 8.5 Q223 -10 184 -10 Q136 -10 99 17 Q62 44 41.5 91 Q21 138 21 197 Q21 273 53.5 343 Q86 413 142.5 456.5 Q199 500 269 500 Q312 500 341.5 483.5 Q371 467 392 431 L448 750 L539 750 Z M214 70 Q253 70 289.5 94.5 Q326 119 348.5 166 Q371 213 371 277 Q371 349 343 384.5 Q315 420 269 420 Q226 420 191 390.5 Q156 361 135.5 311.5 Q115 262 115 205 Q115 145 139.5 107.5 Q164 70 214 70 Z M91 -91 L403 -91 L389 -162 L77 -162 L91 -91 Z " />
<glyph glyph-name="uni01C6" unicode="&#x1c6;" horiz-adv-x="950" d="M539 750 L407 0 L324 0 L328 62 Q297 27 260 8.5 Q223 -10 184 -10 Q136 -10 99 17 Q62 44 41.5 91 Q21 138 21 197 Q21 273 53.5 343 Q86 413 142.5 456.5 Q199 500 269 500 Q312 500 341.5 483.5 Q371 467 392 431 L448 750 L539 750 Z M214 70 Q253 70 289.5 94.5 Q326 119 348.5 166 Q371 213 371 277 Q371 349 343 384.5 Q315 420 269 420 Q226 420 191 390.5 Q156 361 135.5 311.5 Q115 262 115 205 Q115 145 139.5 107.5 Q164 70 214 70 Z M803 420 L574 420 L586 490 L961 490 L650 70 L881 70 L868 0 L491 0 L803 420 Z M682 668 L694 729 L805 649 L941 729 L929 654 L787 558 L682 668 Z " />
<glyph glyph-name="e" unicode="e" horiz-adv-x="458" d="M221 -10 Q123 -10 72 49 Q21 108 21 202 Q21 280 55 348.5 Q89 417 150 458.5 Q211 500 288 500 Q358 500 396 466 Q434 432 434 375 Q434 334 412.5 296.5 Q391 259 340 234.5 Q289 210 206 210 Q182 210 156.5 212.5 Q131 215 118 218 Q118 136 151.5 103 Q185 70 245 70 Q276 70 312.5 77.5 Q349 85 380 99 L376 28 Q310 -10 221 -10 Z M198 271 Q279 271 315 299 Q351 327 351 364 Q351 392 331 406 Q311 420 279 420 Q231 420 192 385.5 Q153 351 128 281 Q158 271 198 271 Z " />
<glyph glyph-name="eacute" unicode="&#xe9;" horiz-adv-x="458" d="M221 -10 Q123 -10 72 49 Q21 108 21 202 Q21 280 55 348.5 Q89 417 150 458.5 Q211 500 288 500 Q358 500 396 466 Q434 432 434 375 Q434 334 412.5 296.5 Q391 259 340 234.5 Q289 210 206 210 Q182 210 156.5 212.5 Q131 215 118 218 Q118 136 151.5 103 Q185 70 245 70 Q276 70 312.5 77.5 Q349 85 380 99 L376 28 Q310 -10 221 -10 Z M198 271 Q279 271 315 299 Q351 327 351 364 Q351 392 331 406 Q311 420 279 420 Q231 420 192 385.5 Q153 351 128 281 Q158 271 198 271 Z M242 643 L425 747 L408 636 L230 575 L242 643 Z " />
<glyph glyph-name="ebreve" unicode="&#x115;" horiz-adv-x="458" d="M221 -10 Q123 -10 72 49 Q21 108 21 202 Q21 280 55 348.5 Q89 417 150 458.5 Q211 500 288 500 Q358 500 396 466 Q434 432 434 375 Q434 334 412.5 296.5 Q391 259 340 234.5 Q289 210 206 210 Q182 210 156.5 212.5 Q131 215 118 218 Q118 136 151.5 103 Q185 70 245 70 Q276 70 312.5 77.5 Q349 85 380 99 L376 28 Q310 -10 221 -10 Z M198 271 Q279 271 315 299 Q351 327 351 364 Q351 392 331 406 Q311 420 279 420 Q231 420 192 385.5 Q153 351 128 281 Q158 271 198 271 Z M319 576 Q258 576 226.5 604.5 Q195 633 195 677 Q195 691 199 703 L277 703 Q274 696 274 686 Q274 665 288 653.5 Q302 642 327 642 Q355 642 375 657.5 Q395 673 400 703 L483 703 Q474 647 431.5 611.5 Q389 576 319 576 Z " />
<glyph glyph-name="ecaron" unicode="&#x11b;" horiz-adv-x="458" d="M221 -10 Q123 -10 72 49 Q21 108 21 202 Q21 280 55 348.5 Q89 417 150 458.5 Q211 500 288 500 Q358 500 396 466 Q434 432 434 375 Q434 334 412.5 296.5 Q391 259 340 234.5 Q289 210 206 210 Q182 210 156.5 212.5 Q131 215 118 218 Q118 136 151.5 103 Q185 70 245 70 Q276 70 312.5 77.5 Q349 85 380 99 L376 28 Q310 -10 221 -10 Z M198 271 Q279 271 315 299 Q351 327 351 364 Q351 392 331 406 Q311 420 279 420 Q231 420 192 385.5 Q153 351 128 281 Q158 271 198 271 Z M205 668 L217 729 L328 649 L464 729 L452 654 L310 558 L205 668 Z " />
<glyph glyph-name="uni1E1D" unicode="&#x1e1d;" horiz-adv-x="458" d="M483 703 Q474 647 431.5 611.5 Q389 576 319 576 Q258 576 226.5 604.5 Q195 633 195 677 Q195 691 199 703 L277 703 Q274 696 274 686 Q274 665 288 653.5 Q302 642 327 642 Q355 642 375 657.5 Q395 673 400 703 L483 703 Z M288 500 Q358 500 396 466 Q434 432 434 375 Q434 334 412.5 296.5 Q391 259 340 234.5 Q289 210 206 210 Q182 210 156.5 212.5 Q131 215 118 218 Q118 136 151.5 103 Q185 70 245 70 Q276 70 312.5 77.5 Q349 85 380 99 L376 28 Q324 -2 257 -8 L234 -54 L242 -54 Q277 -54 297 -71.5 Q317 -89 317 -120 Q317 -166 281.5 -196 Q246 -226 193 -226 Q150 -226 118 -207 L142 -158 Q170 -175 202 -175 Q228 -175 243 -162.5 Q258 -150 258 -131 Q258 -97 214 -97 Q190 -97 166 -105 L207 -10 Q116 -5 68.5 53.5 Q21 112 21 202 Q21 280 55 348.5 Q89 417 150 458.5 Q211 500 288 500 Z M198 271 Q279 271 315 299 Q351 327 351 364 Q351 392 331 406 Q311 420 279 420 Q231 420 192 385.5 Q153 351 128 281 Q158 271 198 271 Z " />
<glyph glyph-name="ecircumflex" unicode="&#xea;" horiz-adv-x="458" d="M221 -10 Q123 -10 72 49 Q21 108 21 202 Q21 280 55 348.5 Q89 417 150 458.5 Q211 500 288 500 Q358 500 396 466 Q434 432 434 375 Q434 334 412.5 296.5 Q391 259 340 234.5 Q289 210 206 210 Q182 210 156.5 212.5 Q131 215 118 218 Q118 136 151.5 103 Q185 70 245 70 Q276 70 312.5 77.5 Q349 85 380 99 L376 28 Q310 -10 221 -10 Z M198 271 Q279 271 315 299 Q351 327 351 364 Q351 392 331 406 Q311 420 279 420 Q231 420 192 385.5 Q153 351 128 281 Q158 271 198 271 Z M217 638 L345 735 L450 625 L438 564 L327 644 L202 574 L217 638 Z " />
<glyph glyph-name="uni1EBF" unicode="&#x1ebf;" horiz-adv-x="458" d="M221 -10 Q123 -10 72 49 Q21 108 21 202 Q21 280 55 348.5 Q89 417 150 458.5 Q211 500 288 500 Q358 500 396 466 Q434 432 434 375 Q434 334 412.5 296.5 Q391 259 340 234.5 Q289 210 206 210 Q182 210 156.5 212.5 Q131 215 118 218 Q118 136 151.5 103 Q185 70 245 70 Q276 70 312.5 77.5 Q349 85 380 99 L376 28 Q310 -10 221 -10 Z M198 271 Q279 271 315 299 Q351 327 351 364 Q351 392 331 406 Q311 420 279 420 Q231 420 192 385.5 Q153 351 128 281 Q158 271 198 271 Z M478 801 L574 801 L460 689 L396 689 L478 801 Z M318 609 L203 555 L213 616 L333 694 L444 604 L434 543 L318 609 Z " />
<glyph glyph-name="uni1EC7" unicode="&#x1ec7;" horiz-adv-x="458" d="M221 -10 Q123 -10 72 49 Q21 108 21 202 Q21 280 55 348.5 Q89 417 150 458.5 Q211 500 288 500 Q358 500 396 466 Q434 432 434 375 Q434 334 412.5 296.5 Q391 259 340 234.5 Q289 210 206 210 Q182 210 156.5 212.5 Q131 215 118 218 Q118 136 151.5 103 Q185 70 245 70 Q276 70 312.5 77.5 Q349 85 380 99 L376 28 Q310 -10 221 -10 Z M198 271 Q279 271 315 299 Q351 327 351 364 Q351 392 331 406 Q311 420 279 420 Q231 420 192 385.5 Q153 351 128 281 Q158 271 198 271 Z M217 638 L345 735 L450 625 L438 564 L327 644 L202 574 L217 638 Z M173 -81 L265 -81 L247 -171 L155 -171 L173 -81 Z " />
<glyph glyph-name="uni1EC1" unicode="&#x1ec1;" horiz-adv-x="458" d="M221 -10 Q123 -10 72 49 Q21 108 21 202 Q21 280 55 348.5 Q89 417 150 458.5 Q211 500 288 500 Q358 500 396 466 Q434 432 434 375 Q434 334 412.5 296.5 Q391 259 340 234.5 Q289 210 206 210 Q182 210 156.5 212.5 Q131 215 118 218 Q118 136 151.5 103 Q185 70 245 70 Q276 70 312.5 77.5 Q349 85 380 99 L376 28 Q310 -10 221 -10 Z M198 271 Q279 271 315 299 Q351 327 351 364 Q351 392 331 406 Q311 420 279 420 Q231 420 192 385.5 Q153 351 128 281 Q158 271 198 271 Z M323 806 L418 806 L454 689 L390 689 L323 806 Z M318 609 L203 555 L213 616 L333 694 L444 604 L434 543 L318 609 Z " />
<glyph glyph-name="uni1EC3" unicode="&#x1ec3;" horiz-adv-x="458" d="M221 -10 Q123 -10 72 49 Q21 108 21 202 Q21 280 55 348.5 Q89 417 150 458.5 Q211 500 288 500 Q358 500 396 466 Q434 432 434 375 Q434 334 412.5 296.5 Q391 259 340 234.5 Q289 210 206 210 Q182 210 156.5 212.5 Q131 215 118 218 Q118 136 151.5 103 Q185 70 245 70 Q276 70 312.5 77.5 Q349 85 380 99 L376 28 Q310 -10 221 -10 Z M198 271 Q279 271 315 299 Q351 327 351 364 Q351 392 331 406 Q311 420 279 420 Q231 420 192 385.5 Q153 351 128 281 Q158 271 198 271 Z M412 702 Q453 716 453 745 Q453 758 443.5 765.5 Q434 773 417 773 Q394 773 356 755 L348 806 Q386 824 429 824 Q466 824 489 806.5 Q512 789 512 757 Q512 720 485.5 695.5 Q459 671 414 662 L412 702 Z M318 609 L203 555 L213 616 L333 694 L444 604 L434 543 L318 609 Z " />
<glyph glyph-name="uni1EC5" unicode="&#x1ec5;" horiz-adv-x="458" d="M221 -10 Q123 -10 72 49 Q21 108 21 202 Q21 280 55 348.5 Q89 417 150 458.5 Q211 500 288 500 Q358 500 396 466 Q434 432 434 375 Q434 334 412.5 296.5 Q391 259 340 234.5 Q289 210 206 210 Q182 210 156.5 212.5 Q131 215 118 218 Q118 136 151.5 103 Q185 70 245 70 Q276 70 312.5 77.5 Q349 85 380 99 L376 28 Q310 -10 221 -10 Z M198 271 Q279 271 315 299 Q351 327 351 364 Q351 392 331 406 Q311 420 279 420 Q231 420 192 385.5 Q153 351 128 281 Q158 271 198 271 Z M418 725 Q403 725 387 730 Q371 735 344 746 Q302 764 287 764 Q273 764 263.5 755 Q254 746 253 730 L188 730 Q196 778 220 804 Q244 830 280 830 Q295 830 310.5 825 Q326 820 352 809 Q368 802 384.5 796.5 Q401 791 413 791 Q427 791 436 800 Q445 809 447 825 L512 825 Q505 776 480 750.5 Q455 725 418 725 Z M318 609 L203 555 L213 616 L333 694 L444 604 L434 543 L318 609 Z " />
<glyph glyph-name="uni0205" unicode="&#x205;" horiz-adv-x="458" d="M221 -10 Q123 -10 72 49 Q21 108 21 202 Q21 280 55 348.5 Q89 417 150 458.5 Q211 500 288 500 Q358 500 396 466 Q434 432 434 375 Q434 334 412.5 296.5 Q391 259 340 234.5 Q289 210 206 210 Q182 210 156.5 212.5 Q131 215 118 218 Q118 136 151.5 103 Q185 70 245 70 Q276 70 312.5 77.5 Q349 85 380 99 L376 28 Q310 -10 221 -10 Z M198 271 Q279 271 315 299 Q351 327 351 364 Q351 392 331 406 Q311 420 279 420 Q231 420 192 385.5 Q153 351 128 281 Q158 271 198 271 Z M210 578 L137 745 L235 745 L276 578 L210 578 Z M349 578 L281 745 L379 745 L415 578 L349 578 Z " />
<glyph glyph-name="edieresis" unicode="&#xeb;" horiz-adv-x="458" d="M221 -10 Q123 -10 72 49 Q21 108 21 202 Q21 280 55 348.5 Q89 417 150 458.5 Q211 500 288 500 Q358 500 396 466 Q434 432 434 375 Q434 334 412.5 296.5 Q391 259 340 234.5 Q289 210 206 210 Q182 210 156.5 212.5 Q131 215 118 218 Q118 136 151.5 103 Q185 70 245 70 Q276 70 312.5 77.5 Q349 85 380 99 L376 28 Q310 -10 221 -10 Z M198 271 Q279 271 315 299 Q351 327 351 364 Q351 392 331 406 Q311 420 279 420 Q231 420 192 385.5 Q153 351 128 281 Q158 271 198 271 Z M197 671 L281 671 L265 591 L181 591 L197 671 Z M383 671 L467 671 L451 591 L367 591 L383 671 Z " />
<glyph glyph-name="edotaccent" unicode="&#x117;" horiz-adv-x="458" d="M221 -10 Q123 -10 72 49 Q21 108 21 202 Q21 280 55 348.5 Q89 417 150 458.5 Q211 500 288 500 Q358 500 396 466 Q434 432 434 375 Q434 334 412.5 296.5 Q391 259 340 234.5 Q289 210 206 210 Q182 210 156.5 212.5 Q131 215 118 218 Q118 136 151.5 103 Q185 70 245 70 Q276 70 312.5 77.5 Q349 85 380 99 L376 28 Q310 -10 221 -10 Z M198 271 Q279 271 315 299 Q351 327 351 364 Q351 392 331 406 Q311 420 279 420 Q231 420 192 385.5 Q153 351 128 281 Q158 271 198 271 Z M288 681 L380 681 L362 591 L270 591 L288 681 Z " />
<glyph glyph-name="uni1EB9" unicode="&#x1eb9;" horiz-adv-x="458" d="M221 -10 Q123 -10 72 49 Q21 108 21 202 Q21 280 55 348.5 Q89 417 150 458.5 Q211 500 288 500 Q358 500 396 466 Q434 432 434 375 Q434 334 412.5 296.5 Q391 259 340 234.5 Q289 210 206 210 Q182 210 156.5 212.5 Q131 215 118 218 Q118 136 151.5 103 Q185 70 245 70 Q276 70 312.5 77.5 Q349 85 380 99 L376 28 Q310 -10 221 -10 Z M198 271 Q279 271 315 299 Q351 327 351 364 Q351 392 331 406 Q311 420 279 420 Q231 420 192 385.5 Q153 351 128 281 Q158 271 198 271 Z M173 -81 L265 -81 L247 -171 L155 -171 L173 -81 Z " />
<glyph glyph-name="egrave" unicode="&#xe8;" horiz-adv-x="458" d="M221 -10 Q123 -10 72 49 Q21 108 21 202 Q21 280 55 348.5 Q89 417 150 458.5 Q211 500 288 500 Q358 500 396 466 Q434 432 434 375 Q434 334 412.5 296.5 Q391 259 340 234.5 Q289 210 206 210 Q182 210 156.5 212.5 Q131 215 118 218 Q118 136 151.5 103 Q185 70 245 70 Q276 70 312.5 77.5 Q349 85 380 99 L376 28 Q310 -10 221 -10 Z M198 271 Q279 271 315 299 Q351 327 351 364 Q351 392 331 406 Q311 420 279 420 Q231 420 192 385.5 Q153 351 128 281 Q158 271 198 271 Z M235 645 L252 743 L411 637 L400 576 L235 645 Z " />
<glyph glyph-name="uni1EBB" unicode="&#x1ebb;" horiz-adv-x="458" d="M221 -10 Q123 -10 72 49 Q21 108 21 202 Q21 280 55 348.5 Q89 417 150 458.5 Q211 500 288 500 Q358 500 396 466 Q434 432 434 375 Q434 334 412.5 296.5 Q391 259 340 234.5 Q289 210 206 210 Q182 210 156.5 212.5 Q131 215 118 218 Q118 136 151.5 103 Q185 70 245 70 Q276 70 312.5 77.5 Q349 85 380 99 L376 28 Q310 -10 221 -10 Z M198 271 Q279 271 315 299 Q351 327 351 364 Q351 392 331 406 Q311 420 279 420 Q231 420 192 385.5 Q153 351 128 281 Q158 271 198 271 Z M291 558 Q323 584 336 599 Q349 614 349 634 Q349 661 314 661 Q288 661 248 642 L240 693 Q280 712 324 712 Q362 712 385 694.5 Q408 677 409 645 Q409 609 386 581 Q363 553 319 525 L291 558 Z " />
<glyph glyph-name="uni0207" unicode="&#x207;" horiz-adv-x="458" d="M221 -10 Q123 -10 72 49 Q21 108 21 202 Q21 280 55 348.5 Q89 417 150 458.5 Q211 500 288 500 Q358 500 396 466 Q434 432 434 375 Q434 334 412.5 296.5 Q391 259 340 234.5 Q289 210 206 210 Q182 210 156.5 212.5 Q131 215 118 218 Q118 136 151.5 103 Q185 70 245 70 Q276 70 312.5 77.5 Q349 85 380 99 L376 28 Q310 -10 221 -10 Z M198 271 Q279 271 315 299 Q351 327 351 364 Q351 392 331 406 Q311 420 279 420 Q231 420 192 385.5 Q153 351 128 281 Q158 271 198 271 Z M332 703 Q395 703 426.5 674 Q458 645 458 599 Q458 592 456 576 L378 576 Q379 580 379 589 Q379 612 363.5 624.5 Q348 637 323 637 Q294 637 272.5 621 Q251 605 246 576 L164 576 Q173 629 217 666 Q261 703 332 703 Z " />
<glyph glyph-name="emacron" unicode="&#x113;" horiz-adv-x="458" d="M221 -10 Q123 -10 72 49 Q21 108 21 202 Q21 280 55 348.5 Q89 417 150 458.5 Q211 500 288 500 Q358 500 396 466 Q434 432 434 375 Q434 334 412.5 296.5 Q391 259 340 234.5 Q289 210 206 210 Q182 210 156.5 212.5 Q131 215 118 218 Q118 136 151.5 103 Q185 70 245 70 Q276 70 312.5 77.5 Q349 85 380 99 L376 28 Q310 -10 221 -10 Z M198 271 Q279 271 315 299 Q351 327 351 364 Q351 392 331 406 Q311 420 279 420 Q231 420 192 385.5 Q153 351 128 281 Q158 271 198 271 Z M175 662 L487 662 L473 591 L161 591 L175 662 Z " />
<glyph glyph-name="uni1E17" unicode="&#x1e17;" horiz-adv-x="458" d="M221 -10 Q123 -10 72 49 Q21 108 21 202 Q21 280 55 348.5 Q89 417 150 458.5 Q211 500 288 500 Q358 500 396 466 Q434 432 434 375 Q434 334 412.5 296.5 Q391 259 340 234.5 Q289 210 206 210 Q182 210 156.5 212.5 Q131 215 118 218 Q118 136 151.5 103 Q185 70 245 70 Q276 70 312.5 77.5 Q349 85 380 99 L376 28 Q310 -10 221 -10 Z M198 271 Q279 271 315 299 Q351 327 351 364 Q351 392 331 406 Q311 420 279 420 Q231 420 192 385.5 Q153 351 128 281 Q158 271 198 271 Z M167 651 L483 651 L471 583 L155 583 L167 651 Z M277 770 L448 865 L434 764 L269 706 L277 770 Z " />
<glyph glyph-name="uni1E15" unicode="&#x1e15;" horiz-adv-x="458" d="M221 -10 Q123 -10 72 49 Q21 108 21 202 Q21 280 55 348.5 Q89 417 150 458.5 Q211 500 288 500 Q358 500 396 466 Q434 432 434 375 Q434 334 412.5 296.5 Q391 259 340 234.5 Q289 210 206 210 Q182 210 156.5 212.5 Q131 215 118 218 Q118 136 151.5 103 Q185 70 245 70 Q276 70 312.5 77.5 Q349 85 380 99 L376 28 Q310 -10 221 -10 Z M198 271 Q279 271 315 299 Q351 327 351 364 Q351 392 331 406 Q311 420 279 420 Q231 420 192 385.5 Q153 351 128 281 Q158 271 198 271 Z M167 651 L483 651 L471 583 L155 583 L167 651 Z M267 764 L284 859 L444 764 L433 706 L267 764 Z " />
<glyph glyph-name="eogonek" unicode="&#x119;" horiz-adv-x="458" d="M434 375 Q434 334 412.5 296.5 Q391 259 340 234.5 Q289 210 206 210 Q182 210 156.5 212.5 Q131 215 118 218 Q118 136 151.5 103 Q185 70 245 70 Q276 70 312.5 77.5 Q349 85 380 99 L376 28 Q330 -4 304.5 -31.5 Q279 -59 279 -91 Q279 -110 289 -119.5 Q299 -129 316 -129 Q345 -129 376 -112 L382 -161 Q346 -180 302 -180 Q265 -180 241.5 -162 Q218 -144 217 -111 Q217 -84 232.5 -56.5 Q248 -29 274 -6 Q251 -10 221 -10 Q123 -10 72 49 Q21 108 21 202 Q21 280 55 348.5 Q89 417 150 458.5 Q211 500 288 500 Q358 500 396 466 Q434 432 434 375 Z M128 281 Q158 271 198 271 Q279 271 315 299 Q351 327 351 364 Q351 392 331 406 Q311 420 279 420 Q231 420 192 385.5 Q153 351 128 281 Z " />
<glyph glyph-name="uni1EBD" unicode="&#x1ebd;" horiz-adv-x="458" d="M221 -10 Q123 -10 72 49 Q21 108 21 202 Q21 280 55 348.5 Q89 417 150 458.5 Q211 500 288 500 Q358 500 396 466 Q434 432 434 375 Q434 334 412.5 296.5 Q391 259 340 234.5 Q289 210 206 210 Q182 210 156.5 212.5 Q131 215 118 218 Q118 136 151.5 103 Q185 70 245 70 Q276 70 312.5 77.5 Q349 85 380 99 L376 28 Q310 -10 221 -10 Z M198 271 Q279 271 315 299 Q351 327 351 364 Q351 392 331 406 Q311 420 279 420 Q231 420 192 385.5 Q153 351 128 281 Q158 271 198 271 Z M393 580 Q378 580 363 586 Q348 592 325 603 Q305 613 291.5 618.5 Q278 624 267 624 Q237 624 229 588 L157 588 Q183 699 262 699 Q278 699 292 693.5 Q306 688 327 676 Q345 666 358 660.5 Q371 655 385 655 Q416 655 423 694 L495 694 Q482 635 457 607.5 Q432 580 393 580 Z " />
<glyph glyph-name="f" unicode="f" horiz-adv-x="303" d="M108 420 L36 420 L58 490 L120 490 L142 614 Q153 679 187 714.5 Q221 750 287 750 Q328 750 363 737 L338 661 Q315 670 289 670 Q268 670 257 661 Q246 652 239 628 Q232 604 222 550 L211 490 L324 490 L311 420 L199 420 L125 0 L34 0 L108 420 Z " />
<glyph glyph-name="g" unicode="g" horiz-adv-x="459" d="M144 -250 Q79 -250 37 -230.5 Q-5 -211 -23.5 -182 Q-42 -153 -42 -123 Q-42 -89 -19.5 -51.5 Q3 -14 56 8 Q39 19 31 34.5 Q23 50 23 62 Q23 80 39 103.5 Q55 127 86 143 Q37 195 37 274 Q37 332 64 384 Q91 436 140.5 468 Q190 500 255 500 Q317 500 359 464 Q406 492 467 492 L481 492 L462 432 L435 432 Q428 432 414.5 430 Q401 428 390 425 Q409 386 409 337 Q409 283 381.5 231 Q354 179 305 146 Q256 113 193 113 Q161 113 135 122 Q112 106 112 89 Q112 73 136 64 Q160 55 232 40 Q300 26 345 0 Q390 -26 390 -81 Q390 -123 359.5 -162 Q329 -201 273 -225.5 Q217 -250 144 -250 Z M203 182 Q239 182 266.5 203.5 Q294 225 309 260 Q324 295 324 334 Q324 380 303 404 Q282 428 243 428 Q189 428 155.5 384.5 Q122 341 122 280 Q122 233 143.5 207.5 Q165 182 203 182 Z M156 -180 Q199 -180 232 -167.5 Q265 -155 283 -135.5 Q301 -116 301 -95 Q301 -66 269.5 -52 Q238 -38 180 -27 Q143 -20 125 -14 Q91 -26 66 -53.5 Q41 -81 41 -110 Q41 -140 71.5 -160 Q102 -180 156 -180 Z " />
<glyph glyph-name="gbreve" unicode="&#x11f;" horiz-adv-x="459" d="M144 -250 Q79 -250 37 -230.5 Q-5 -211 -23.5 -182 Q-42 -153 -42 -123 Q-42 -89 -19.5 -51.5 Q3 -14 56 8 Q39 19 31 34.5 Q23 50 23 62 Q23 80 39 103.5 Q55 127 86 143 Q37 195 37 274 Q37 332 64 384 Q91 436 140.5 468 Q190 500 255 500 Q317 500 359 464 Q406 492 467 492 L481 492 L462 432 L435 432 Q428 432 414.5 430 Q401 428 390 425 Q409 386 409 337 Q409 283 381.5 231 Q354 179 305 146 Q256 113 193 113 Q161 113 135 122 Q112 106 112 89 Q112 73 136 64 Q160 55 232 40 Q300 26 345 0 Q390 -26 390 -81 Q390 -123 359.5 -162 Q329 -201 273 -225.5 Q217 -250 144 -250 Z M203 182 Q239 182 266.5 203.5 Q294 225 309 260 Q324 295 324 334 Q324 380 303 404 Q282 428 243 428 Q189 428 155.5 384.5 Q122 341 122 280 Q122 233 143.5 207.5 Q165 182 203 182 Z M156 -180 Q199 -180 232 -167.5 Q265 -155 283 -135.5 Q301 -116 301 -95 Q301 -66 269.5 -52 Q238 -38 180 -27 Q143 -20 125 -14 Q91 -26 66 -53.5 Q41 -81 41 -110 Q41 -140 71.5 -160 Q102 -180 156 -180 Z M271 576 Q210 576 178.5 604.5 Q147 633 147 677 Q147 691 151 703 L229 703 Q226 696 226 686 Q226 665 240 653.5 Q254 642 279 642 Q307 642 327 657.5 Q347 673 352 703 L435 703 Q426 647 383.5 611.5 Q341 576 271 576 Z " />
<glyph glyph-name="gcaron" unicode="&#x1e7;" horiz-adv-x="459" d="M144 -250 Q79 -250 37 -230.5 Q-5 -211 -23.5 -182 Q-42 -153 -42 -123 Q-42 -89 -19.5 -51.5 Q3 -14 56 8 Q39 19 31 34.5 Q23 50 23 62 Q23 80 39 103.5 Q55 127 86 143 Q37 195 37 274 Q37 332 64 384 Q91 436 140.5 468 Q190 500 255 500 Q317 500 359 464 Q406 492 467 492 L481 492 L462 432 L435 432 Q428 432 414.5 430 Q401 428 390 425 Q409 386 409 337 Q409 283 381.5 231 Q354 179 305 146 Q256 113 193 113 Q161 113 135 122 Q112 106 112 89 Q112 73 136 64 Q160 55 232 40 Q300 26 345 0 Q390 -26 390 -81 Q390 -123 359.5 -162 Q329 -201 273 -225.5 Q217 -250 144 -250 Z M203 182 Q239 182 266.5 203.5 Q294 225 309 260 Q324 295 324 334 Q324 380 303 404 Q282 428 243 428 Q189 428 155.5 384.5 Q122 341 122 280 Q122 233 143.5 207.5 Q165 182 203 182 Z M156 -180 Q199 -180 232 -167.5 Q265 -155 283 -135.5 Q301 -116 301 -95 Q301 -66 269.5 -52 Q238 -38 180 -27 Q143 -20 125 -14 Q91 -26 66 -53.5 Q41 -81 41 -110 Q41 -140 71.5 -160 Q102 -180 156 -180 Z M157 668 L169 729 L280 649 L416 729 L404 654 L262 558 L157 668 Z " />
<glyph glyph-name="gcircumflex" unicode="&#x11d;" horiz-adv-x="459" d="M144 -250 Q79 -250 37 -230.5 Q-5 -211 -23.5 -182 Q-42 -153 -42 -123 Q-42 -89 -19.5 -51.5 Q3 -14 56 8 Q39 19 31 34.5 Q23 50 23 62 Q23 80 39 103.5 Q55 127 86 143 Q37 195 37 274 Q37 332 64 384 Q91 436 140.5 468 Q190 500 255 500 Q317 500 359 464 Q406 492 467 492 L481 492 L462 432 L435 432 Q428 432 414.5 430 Q401 428 390 425 Q409 386 409 337 Q409 283 381.5 231 Q354 179 305 146 Q256 113 193 113 Q161 113 135 122 Q112 106 112 89 Q112 73 136 64 Q160 55 232 40 Q300 26 345 0 Q390 -26 390 -81 Q390 -123 359.5 -162 Q329 -201 273 -225.5 Q217 -250 144 -250 Z M203 182 Q239 182 266.5 203.5 Q294 225 309 260 Q324 295 324 334 Q324 380 303 404 Q282 428 243 428 Q189 428 155.5 384.5 Q122 341 122 280 Q122 233 143.5 207.5 Q165 182 203 182 Z M156 -180 Q199 -180 232 -167.5 Q265 -155 283 -135.5 Q301 -116 301 -95 Q301 -66 269.5 -52 Q238 -38 180 -27 Q143 -20 125 -14 Q91 -26 66 -53.5 Q41 -81 41 -110 Q41 -140 71.5 -160 Q102 -180 156 -180 Z M169 638 L297 735 L402 625 L390 564 L279 644 L154 574 L169 638 Z " />
<glyph glyph-name="gcommaaccent" unicode="&#x123;" horiz-adv-x="459" d="M144 -250 Q79 -250 37 -230.5 Q-5 -211 -23.5 -182 Q-42 -153 -42 -123 Q-42 -89 -19.5 -51.5 Q3 -14 56 8 Q39 19 31 34.5 Q23 50 23 62 Q23 80 39 103.5 Q55 127 86 143 Q37 195 37 274 Q37 332 64 384 Q91 436 140.5 468 Q190 500 255 500 Q317 500 359 464 Q406 492 467 492 L481 492 L462 432 L435 432 Q428 432 414.5 430 Q401 428 390 425 Q409 386 409 337 Q409 283 381.5 231 Q354 179 305 146 Q256 113 193 113 Q161 113 135 122 Q112 106 112 89 Q112 73 136 64 Q160 55 232 40 Q300 26 345 0 Q390 -26 390 -81 Q390 -123 359.5 -162 Q329 -201 273 -225.5 Q217 -250 144 -250 Z M203 182 Q239 182 266.5 203.5 Q294 225 309 260 Q324 295 324 334 Q324 380 303 404 Q282 428 243 428 Q189 428 155.5 384.5 Q122 341 122 280 Q122 233 143.5 207.5 Q165 182 203 182 Z M156 -180 Q199 -180 232 -167.5 Q265 -155 283 -135.5 Q301 -116 301 -95 Q301 -66 269.5 -52 Q238 -38 180 -27 Q143 -20 125 -14 Q91 -26 66 -53.5 Q41 -81 41 -110 Q41 -140 71.5 -160 Q102 -180 156 -180 Z " />
<glyph glyph-name="gdotaccent" unicode="&#x121;" horiz-adv-x="459" d="M144 -250 Q79 -250 37 -230.5 Q-5 -211 -23.5 -182 Q-42 -153 -42 -123 Q-42 -89 -19.5 -51.5 Q3 -14 56 8 Q39 19 31 34.5 Q23 50 23 62 Q23 80 39 103.5 Q55 127 86 143 Q37 195 37 274 Q37 332 64 384 Q91 436 140.5 468 Q190 500 255 500 Q317 500 359 464 Q406 492 467 492 L481 492 L462 432 L435 432 Q428 432 414.5 430 Q401 428 390 425 Q409 386 409 337 Q409 283 381.5 231 Q354 179 305 146 Q256 113 193 113 Q161 113 135 122 Q112 106 112 89 Q112 73 136 64 Q160 55 232 40 Q300 26 345 0 Q390 -26 390 -81 Q390 -123 359.5 -162 Q329 -201 273 -225.5 Q217 -250 144 -250 Z M203 182 Q239 182 266.5 203.5 Q294 225 309 260 Q324 295 324 334 Q324 380 303 404 Q282 428 243 428 Q189 428 155.5 384.5 Q122 341 122 280 Q122 233 143.5 207.5 Q165 182 203 182 Z M156 -180 Q199 -180 232 -167.5 Q265 -155 283 -135.5 Q301 -116 301 -95 Q301 -66 269.5 -52 Q238 -38 180 -27 Q143 -20 125 -14 Q91 -26 66 -53.5 Q41 -81 41 -110 Q41 -140 71.5 -160 Q102 -180 156 -180 Z M240 681 L332 681 L314 591 L222 591 L240 681 Z " />
<glyph glyph-name="uni1E21" unicode="&#x1e21;" horiz-adv-x="459" d="M144 -250 Q79 -250 37 -230.5 Q-5 -211 -23.5 -182 Q-42 -153 -42 -123 Q-42 -89 -19.5 -51.5 Q3 -14 56 8 Q39 19 31 34.5 Q23 50 23 62 Q23 80 39 103.5 Q55 127 86 143 Q37 195 37 274 Q37 332 64 384 Q91 436 140.5 468 Q190 500 255 500 Q317 500 359 464 Q406 492 467 492 L481 492 L462 432 L435 432 Q428 432 414.5 430 Q401 428 390 425 Q409 386 409 337 Q409 283 381.5 231 Q354 179 305 146 Q256 113 193 113 Q161 113 135 122 Q112 106 112 89 Q112 73 136 64 Q160 55 232 40 Q300 26 345 0 Q390 -26 390 -81 Q390 -123 359.5 -162 Q329 -201 273 -225.5 Q217 -250 144 -250 Z M203 182 Q239 182 266.5 203.5 Q294 225 309 260 Q324 295 324 334 Q324 380 303 404 Q282 428 243 428 Q189 428 155.5 384.5 Q122 341 122 280 Q122 233 143.5 207.5 Q165 182 203 182 Z M156 -180 Q199 -180 232 -167.5 Q265 -155 283 -135.5 Q301 -116 301 -95 Q301 -66 269.5 -52 Q238 -38 180 -27 Q143 -20 125 -14 Q91 -26 66 -53.5 Q41 -81 41 -110 Q41 -140 71.5 -160 Q102 -180 156 -180 Z M127 662 L439 662 L425 591 L113 591 L127 662 Z " />
<glyph glyph-name="h" unicode="h" horiz-adv-x="506" d="M142 750 L234 750 L178 437 Q209 471 242.5 485.5 Q276 500 318 500 Q384 500 418 457 Q452 414 452 348 Q452 310 441 247 L398 0 L307 0 L349 245 Q360 309 360 336 Q360 375 339 397.5 Q318 420 281 420 Q246 420 218 403.5 Q190 387 164 356 L101 0 L10 0 L142 750 Z " />
<glyph glyph-name="hbar" unicode="&#x127;" horiz-adv-x="506" d="M318 500 Q384 500 418 457 Q452 414 452 348 Q452 310 441 247 L398 0 L307 0 L349 245 Q360 309 360 336 Q360 375 339 397.5 Q318 420 281 420 Q246 420 218 403.5 Q190 387 164 356 L101 0 L10 0 L113 584 L52 584 L64 647 L124 647 L142 750 L234 750 L216 647 L350 647 L338 584 L204 584 L178 437 Q209 471 242.5 485.5 Q276 500 318 500 Z " />
<glyph glyph-name="uni1E2B" unicode="&#x1e2b;" horiz-adv-x="506" d="M142 750 L234 750 L178 437 Q209 471 242.5 485.5 Q276 500 318 500 Q384 500 418 457 Q452 414 452 348 Q452 310 441 247 L398 0 L307 0 L349 245 Q360 309 360 336 Q360 375 339 397.5 Q318 420 281 420 Q246 420 218 403.5 Q190 387 164 356 L101 0 L10 0 L142 750 Z M167 -218 Q106 -218 74.5 -189.5 Q43 -161 43 -117 Q43 -103 47 -91 L125 -91 Q122 -99 122 -108 Q122 -129 136 -140.5 Q150 -152 175 -152 Q203 -152 223 -136.5 Q243 -121 248 -91 L331 -91 Q322 -147 279.5 -182.5 Q237 -218 167 -218 Z " />
<glyph glyph-name="hcircumflex" unicode="&#x125;" horiz-adv-x="506" d="M142 750 L234 750 L178 437 Q209 471 242.5 485.5 Q276 500 318 500 Q384 500 418 457 Q452 414 452 348 Q452 310 441 247 L398 0 L307 0 L349 245 Q360 309 360 336 Q360 375 339 397.5 Q318 420 281 420 Q246 420 218 403.5 Q190 387 164 356 L101 0 L10 0 L142 750 Z M209 869 L94 815 L104 876 L224 954 L335 864 L325 803 L209 869 Z " />
<glyph glyph-name="uni1E25" unicode="&#x1e25;" horiz-adv-x="506" d="M142 750 L234 750 L178 437 Q209 471 242.5 485.5 Q276 500 318 500 Q384 500 418 457 Q452 414 452 348 Q452 310 441 247 L398 0 L307 0 L349 245 Q360 309 360 336 Q360 375 339 397.5 Q318 420 281 420 Q246 420 218 403.5 Q190 387 164 356 L101 0 L10 0 L142 750 Z M144 -81 L236 -81 L218 -171 L126 -171 L144 -81 Z " />
<glyph glyph-name="i" unicode="i" horiz-adv-x="214" d="M133 700 L224 700 L207 600 L116 600 L133 700 Z M96 490 L187 490 L101 0 L10 0 L96 490 Z " />
<glyph glyph-name="dotlessi" unicode="&#x131;" horiz-adv-x="214" d="M96 490 L187 490 L101 0 L10 0 L96 490 Z " />
<glyph glyph-name="iacute" unicode="&#xed;" horiz-adv-x="214" d="M96 490 L187 490 L101 0 L10 0 L96 490 Z M87 643 L270 747 L253 636 L75 575 L87 643 Z " />
<glyph glyph-name="ibreve" unicode="&#x12d;" horiz-adv-x="214" d="M96 490 L187 490 L101 0 L10 0 L96 490 Z M164 576 Q103 576 71.5 604.5 Q40 633 40 677 Q40 691 44 703 L122 703 Q119 696 119 686 Q119 665 133 653.5 Q147 642 172 642 Q200 642 220 657.5 Q240 673 245 703 L328 703 Q319 647 276.5 611.5 Q234 576 164 576 Z " />
<glyph glyph-name="icircumflex" unicode="&#xee;" horiz-adv-x="214" d="M96 490 L187 490 L101 0 L10 0 L96 490 Z M62 638 L190 735 L295 625 L283 564 L172 644 L47 574 L62 638 Z " />
<glyph glyph-name="uni0209" unicode="&#x209;" horiz-adv-x="214" d="M96 490 L187 490 L101 0 L10 0 L96 490 Z M55 578 L-18 745 L80 745 L121 578 L55 578 Z M194 578 L126 745 L224 745 L260 578 L194 578 Z " />
<glyph glyph-name="idieresis" unicode="&#xef;" horiz-adv-x="214" d="M96 490 L187 490 L101 0 L10 0 L96 490 Z M42 671 L126 671 L110 591 L26 591 L42 671 Z M228 671 L312 671 L296 591 L212 591 L228 671 Z " />
<glyph glyph-name="uni1E2F" unicode="&#x1e2f;" horiz-adv-x="214" d="M96 490 L187 490 L101 0 L10 0 L96 490 Z M38 659 L122 659 L108 584 L24 584 L38 659 Z M222 659 L306 659 L292 584 L208 584 L222 659 Z M113 778 L284 873 L270 772 L105 714 L113 778 Z " />
<glyph glyph-name="uni1ECB" unicode="&#x1ecb;" horiz-adv-x="214" d="M133 700 L224 700 L207 600 L116 600 L133 700 Z M96 490 L187 490 L101 0 L10 0 L96 490 Z M-5 -81 L87 -81 L69 -171 L-23 -171 L-5 -81 Z " />
<glyph glyph-name="igrave" unicode="&#xec;" horiz-adv-x="214" d="M96 490 L187 490 L101 0 L10 0 L96 490 Z M80 645 L97 743 L256 637 L245 576 L80 645 Z " />
<glyph glyph-name="uni1EC9" unicode="&#x1ec9;" horiz-adv-x="214" d="M96 490 L187 490 L101 0 L10 0 L96 490 Z M136 558 Q168 584 181 599 Q194 614 194 634 Q194 661 159 661 Q133 661 93 642 L85 693 Q125 712 169 712 Q207 712 230 694.5 Q253 677 254 645 Q254 609 231 581 Q208 553 164 525 L136 558 Z " />
<glyph glyph-name="uni020B" unicode="&#x20b;" horiz-adv-x="214" d="M96 490 L187 490 L101 0 L10 0 L96 490 Z M177 703 Q240 703 271.5 674 Q303 645 303 599 Q303 592 301 576 L223 576 Q224 580 224 589 Q224 612 208.5 624.5 Q193 637 168 637 Q139 637 117.5 621 Q96 605 91 576 L9 576 Q18 629 62 666 Q106 703 177 703 Z " />
<glyph glyph-name="ij" unicode="&#x133;" horiz-adv-x="428" d="M133 700 L224 700 L207 600 L116 600 L133 700 Z M96 490 L187 490 L101 0 L10 0 L96 490 Z M348 700 L439 700 L421 600 L330 600 L348 700 Z M132 -173 Q159 -170 173 -161.5 Q187 -153 195.5 -133.5 Q204 -114 211 -73 L310 490 L401 490 L296 -107 Q284 -171 248.5 -200 Q213 -229 161 -237 L129 -242 L132 -173 Z " />
<glyph glyph-name="imacron" unicode="&#x12b;" horiz-adv-x="214" d="M96 490 L187 490 L101 0 L10 0 L96 490 Z M20 662 L332 662 L318 591 L6 591 L20 662 Z " />
<glyph glyph-name="iogonek" unicode="&#x12f;" horiz-adv-x="214" d="M96 490 L187 490 L101 0 L10 0 L96 490 Z M133 681 L225 681 L207 591 L115 591 L133 681 Z M101 0 Q55 -32 29.5 -59.5 Q4 -87 4 -119 Q4 -138 13.5 -147.5 Q23 -157 41 -157 Q70 -157 101 -140 L107 -189 Q71 -208 27 -208 Q-10 -208 -33.5 -190 Q-57 -172 -58 -139 Q-58 -99 -26.5 -61 Q5 -23 48 0 L101 0 Z " />
<glyph glyph-name="itilde" unicode="&#x129;" horiz-adv-x="214" d="M96 490 L187 490 L101 0 L10 0 L96 490 Z M238 580 Q223 580 208 586 Q193 592 170 603 Q150 613 136.5 618.5 Q123 624 112 624 Q82 624 74 588 L2 588 Q28 699 107 699 Q123 699 137 693.5 Q151 688 172 676 Q190 666 203 660.5 Q216 655 230 655 Q261 655 268 694 L340 694 Q327 635 302 607.5 Q277 580 238 580 Z " />
<glyph glyph-name="j" unicode="j" horiz-adv-x="214" d="M134 700 L225 700 L207 600 L116 600 L134 700 Z M-82 -173 Q-55 -170 -41 -161.5 Q-27 -153 -18.5 -133.5 Q-10 -114 -3 -73 L96 490 L187 490 L82 -107 Q70 -171 34.5 -200 Q-1 -229 -53 -237 L-85 -242 L-82 -173 Z " />
<glyph glyph-name="uni0237" unicode="&#x237;" horiz-adv-x="214" d="M-82 -173 Q-55 -170 -41 -161.5 Q-27 -153 -18.5 -133.5 Q-10 -114 -3 -73 L96 490 L187 490 L82 -107 Q70 -171 34.5 -200 Q-1 -229 -53 -237 L-85 -242 L-82 -173 Z " />
<glyph glyph-name="jcircumflex" unicode="&#x135;" horiz-adv-x="214" d="M-82 -173 Q-55 -170 -41 -161.5 Q-27 -153 -18.5 -133.5 Q-10 -114 -3 -73 L96 490 L187 490 L82 -107 Q70 -171 34.5 -200 Q-1 -229 -53 -237 L-85 -242 L-82 -173 Z M62 638 L190 735 L295 625 L283 564 L172 644 L47 574 L62 638 Z " />
<glyph glyph-name="k" unicode="k" horiz-adv-x="428" d="M142 750 L233 750 L148 269 L343 490 L451 490 L235 264 L367 0 L260 0 L145 249 L101 0 L10 0 L142 750 Z " />
<glyph glyph-name="kcommaaccent" unicode="&#x137;" horiz-adv-x="428" d="M142 750 L233 750 L148 269 L343 490 L451 490 L235 264 L367 0 L260 0 L145 249 L101 0 L10 0 L142 750 Z M99 -262 L143 -177 L107 -177 L122 -91 L218 -91 L203 -177 L136 -262 L99 -262 Z " />
<glyph glyph-name="kgreenlandic" unicode="&#x138;" horiz-adv-x="454" d="M96 490 L187 490 L148 269 L373 490 L484 490 L237 256 L394 0 L290 0 L145 249 L101 0 L10 0 L96 490 Z " />
<glyph glyph-name="l" unicode="l" horiz-adv-x="234" d="M120 -10 Q70 -10 47 13.5 Q24 37 24 76 Q24 88 34 150 L139 750 L230 750 L124 141 Q119 110 119 102 Q119 78 131 70 Q143 62 175 62 L151 -10 L120 -10 Z " />
<glyph glyph-name="lacute" unicode="&#x13a;" horiz-adv-x="234" d="M120 -10 Q70 -10 47 13.5 Q24 37 24 76 Q24 88 34 150 L139 750 L230 750 L124 141 Q119 110 119 102 Q119 78 131 70 Q143 62 175 62 L151 -10 L120 -10 Z M128 878 L299 973 L285 872 L120 814 L128 878 Z " />
<glyph glyph-name="lcaron" unicode="&#x13e;" horiz-adv-x="257" d="M120 -10 Q70 -10 47 13.5 Q24 37 24 76 Q24 88 34 150 L139 750 L230 750 L124 141 Q119 110 119 102 Q119 78 131 70 Q143 62 175 62 L151 -10 L120 -10 Z M270 750 L363 750 L305 583 L240 583 L270 750 Z " />
<glyph glyph-name="lcommaaccent" unicode="&#x13c;" horiz-adv-x="234" d="M120 -10 Q70 -10 47 13.5 Q24 37 24 76 Q24 88 34 150 L139 750 L230 750 L124 141 Q119 110 119 102 Q119 78 131 70 Q143 62 175 62 L151 -10 L120 -10 Z M35 -262 L79 -177 L43 -177 L58 -91 L154 -91 L139 -177 L72 -262 L35 -262 Z " />
<glyph glyph-name="ldot" unicode="&#x140;" horiz-adv-x="284" d="M120 -10 Q70 -10 47 13.5 Q24 37 24 76 Q24 88 34 150 L139 750 L230 750 L124 141 Q119 110 119 102 Q119 78 131 70 Q143 62 175 62 L151 -10 L120 -10 Z M233 460 L319 460 L303 370 L217 370 L233 460 Z " />
<glyph glyph-name="uni1E37" unicode="&#x1e37;" horiz-adv-x="234" d="M120 -10 Q70 -10 47 13.5 Q24 37 24 76 Q24 88 34 150 L139 750 L230 750 L124 141 Q119 110 119 102 Q119 78 131 70 Q143 62 175 62 L151 -10 L120 -10 Z M57 -81 L149 -81 L131 -171 L39 -171 L57 -81 Z " />
<glyph glyph-name="uni01C9" unicode="&#x1c9;" horiz-adv-x="448" d="M120 -10 Q70 -10 47 13.5 Q24 37 24 76 Q24 88 34 150 L139 750 L230 750 L124 141 Q119 110 119 102 Q119 78 131 70 Q143 62 175 62 L151 -10 L120 -10 Z M368 700 L459 700 L441 600 L350 600 L368 700 Z M152 -173 Q179 -170 193 -161.5 Q207 -153 215.5 -133.5 Q224 -114 231 -73 L330 490 L421 490 L316 -107 Q304 -171 268.5 -200 Q233 -229 181 -237 L149 -242 L152 -173 Z " />
<glyph glyph-name="uni1E3B" unicode="&#x1e3b;" horiz-adv-x="234" d="M120 -10 Q70 -10 47 13.5 Q24 37 24 76 Q24 88 34 150 L139 750 L230 750 L124 141 Q119 110 119 102 Q119 78 131 70 Q143 62 175 62 L151 -10 L120 -10 Z M-52 -91 L260 -91 L246 -162 L-66 -162 L-52 -91 Z " />
<glyph glyph-name="lslash" unicode="&#x142;" horiz-adv-x="234" d="M124 141 Q119 110 119 102 Q119 78 131 70 Q143 62 175 62 L151 -10 L120 -10 Q70 -10 47 13.5 Q24 37 24 76 Q24 88 34 150 L74 380 L-1 352 L11 421 L86 449 L139 750 L230 750 L184 486 L270 518 L258 449 L172 417 L124 141 Z " />
<glyph glyph-name="m" unicode="m" horiz-adv-x="801" d="M96 490 L168 490 L168 438 Q204 474 235.5 487 Q267 500 304 500 Q351 500 384.5 479 Q418 458 434 402 Q490 500 609 500 Q751 500 751 360 Q751 342 738.5 263.5 Q726 185 693 0 L602 0 Q634 180 646 253.5 Q658 327 658 340 Q658 381 639 400.5 Q620 420 580 420 Q517 420 487 380 Q457 340 447 284 L397 0 L306 0 Q342 204 351 261 Q360 318 360 334 Q360 382 340.5 401 Q321 420 283 420 Q206 420 164 356 L101 0 L10 0 L96 490 Z " />
<glyph glyph-name="uni1E43" unicode="&#x1e43;" horiz-adv-x="801" d="M96 490 L168 490 L168 438 Q204 474 235.5 487 Q267 500 304 500 Q351 500 384.5 479 Q418 458 434 402 Q490 500 609 500 Q751 500 751 360 Q751 342 738.5 263.5 Q726 185 693 0 L602 0 Q634 180 646 253.5 Q658 327 658 340 Q658 381 639 400.5 Q620 420 580 420 Q517 420 487 380 Q457 340 447 284 L397 0 L306 0 Q342 204 351 261 Q360 318 360 334 Q360 382 340.5 401 Q321 420 283 420 Q206 420 164 356 L101 0 L10 0 L96 490 Z M292 -81 L384 -81 L366 -171 L274 -171 L292 -81 Z " />
<glyph glyph-name="n" unicode="n" horiz-adv-x="515" d="M96 490 L173 490 L170 438 Q207 473 241.5 486.5 Q276 500 316 500 Q392 500 427 460 Q462 420 462 343 Q462 323 452.5 263 Q443 203 407 0 L316 0 Q352 203 361 259.5 Q370 316 370 331 Q370 377 349.5 398.5 Q329 420 286 420 Q248 420 216.5 404 Q185 388 164 356 L101 0 L10 0 L96 490 Z " />
<glyph glyph-name="nacute" unicode="&#x144;" horiz-adv-x="515" d="M96 490 L173 490 L170 438 Q207 473 241.5 486.5 Q276 500 316 500 Q392 500 427 460 Q462 420 462 343 Q462 323 452.5 263 Q443 203 407 0 L316 0 Q352 203 361 259.5 Q370 316 370 331 Q370 377 349.5 398.5 Q329 420 286 420 Q248 420 216.5 404 Q185 388 164 356 L101 0 L10 0 L96 490 Z M246 643 L429 747 L412 636 L234 575 L246 643 Z " />
<glyph glyph-name="napostrophe" unicode="&#x149;" horiz-adv-x="523" d="M104 490 L181 490 L178 438 Q215 473 249.5 486.5 Q284 500 324 500 Q400 500 435 460 Q470 420 470 343 Q470 323 460.5 263 Q451 203 415 0 L324 0 Q360 203 369 259.5 Q378 316 378 331 Q378 377 357.5 398.5 Q337 420 294 420 Q256 420 224.5 404 Q193 388 172 356 L109 0 L18 0 L104 490 Z M40 529 L84 614 L48 614 L63 700 L159 700 L144 614 L77 529 L40 529 Z " />
<glyph glyph-name="ncaron" unicode="&#x148;" horiz-adv-x="515" d="M96 490 L173 490 L170 438 Q207 473 241.5 486.5 Q276 500 316 500 Q392 500 427 460 Q462 420 462 343 Q462 323 452.5 263 Q443 203 407 0 L316 0 Q352 203 361 259.5 Q370 316 370 331 Q370 377 349.5 398.5 Q329 420 286 420 Q248 420 216.5 404 Q185 388 164 356 L101 0 L10 0 L96 490 Z M209 668 L221 729 L332 649 L468 729 L456 654 L314 558 L209 668 Z " />
<glyph glyph-name="ncommaaccent" unicode="&#x146;" horiz-adv-x="515" d="M96 490 L173 490 L170 438 Q207 473 241.5 486.5 Q276 500 316 500 Q392 500 427 460 Q462 420 462 343 Q462 323 452.5 263 Q443 203 407 0 L316 0 Q352 203 361 259.5 Q370 316 370 331 Q370 377 349.5 398.5 Q329 420 286 420 Q248 420 216.5 404 Q185 388 164 356 L101 0 L10 0 L96 490 Z M127 -262 L171 -177 L135 -177 L150 -91 L246 -91 L231 -177 L164 -262 L127 -262 Z " />
<glyph glyph-name="uni1E45" unicode="&#x1e45;" horiz-adv-x="515" d="M96 490 L173 490 L170 438 Q207 473 241.5 486.5 Q276 500 316 500 Q392 500 427 460 Q462 420 462 343 Q462 323 452.5 263 Q443 203 407 0 L316 0 Q352 203 361 259.5 Q370 316 370 331 Q370 377 349.5 398.5 Q329 420 286 420 Q248 420 216.5 404 Q185 388 164 356 L101 0 L10 0 L96 490 Z M292 681 L384 681 L366 591 L274 591 L292 681 Z " />
<glyph glyph-name="uni1E47" unicode="&#x1e47;" horiz-adv-x="515" d="M96 490 L173 490 L170 438 Q207 473 241.5 486.5 Q276 500 316 500 Q392 500 427 460 Q462 420 462 343 Q462 323 452.5 263 Q443 203 407 0 L316 0 Q352 203 361 259.5 Q370 316 370 331 Q370 377 349.5 398.5 Q329 420 286 420 Q248 420 216.5 404 Q185 388 164 356 L101 0 L10 0 L96 490 Z M149 -81 L241 -81 L223 -171 L131 -171 L149 -81 Z " />
<glyph glyph-name="eng" unicode="&#x14b;" horiz-adv-x="565" d="M438 17 Q421 -82 365 -130.5 Q309 -179 227 -179 Q176 -179 131 -162 L158 -84 Q194 -99 231 -99 Q276 -99 306.5 -70 Q337 -41 347 14 L392 270 Q398 302 398 325 Q398 374 377 397 Q356 420 311 420 Q273 420 239.5 404 Q206 388 185 356 L123 0 L32 0 L118 490 L189 490 L190 438 Q230 473 267 486.5 Q304 500 343 500 Q489 500 489 341 Q489 314 482 270 L438 17 Z " />
<glyph glyph-name="uni01CC" unicode="&#x1cc;" horiz-adv-x="729" d="M96 490 L173 490 L170 438 Q207 473 241.5 486.5 Q276 500 316 500 Q392 500 427 460 Q462 420 462 343 Q462 323 452.5 263 Q443 203 407 0 L316 0 Q352 203 361 259.5 Q370 316 370 331 Q370 377 349.5 398.5 Q329 420 286 420 Q248 420 216.5 404 Q185 388 164 356 L101 0 L10 0 L96 490 Z M649 700 L740 700 L722 600 L631 600 L649 700 Z M433 -173 Q460 -170 474 -161.5 Q488 -153 496.5 -133.5 Q505 -114 512 -73 L611 490 L702 490 L597 -107 Q585 -171 549.5 -200 Q514 -229 462 -237 L430 -242 L433 -173 Z " />
<glyph glyph-name="uni1E49" unicode="&#x1e49;" horiz-adv-x="515" d="M96 490 L173 490 L170 438 Q207 473 241.5 486.5 Q276 500 316 500 Q392 500 427 460 Q462 420 462 343 Q462 323 452.5 263 Q443 203 407 0 L316 0 Q352 203 361 259.5 Q370 316 370 331 Q370 377 349.5 398.5 Q329 420 286 420 Q248 420 216.5 404 Q185 388 164 356 L101 0 L10 0 L96 490 Z M40 -91 L352 -91 L338 -162 L26 -162 L40 -91 Z " />
<glyph glyph-name="ntilde" unicode="&#xf1;" horiz-adv-x="515" d="M96 490 L173 490 L170 438 Q207 473 241.5 486.5 Q276 500 316 500 Q392 500 427 460 Q462 420 462 343 Q462 323 452.5 263 Q443 203 407 0 L316 0 Q352 203 361 259.5 Q370 316 370 331 Q370 377 349.5 398.5 Q329 420 286 420 Q248 420 216.5 404 Q185 388 164 356 L101 0 L10 0 L96 490 Z M397 580 Q382 580 367 586 Q352 592 329 603 Q309 613 295.5 618.5 Q282 624 271 624 Q241 624 233 588 L161 588 Q187 699 266 699 Q282 699 296 693.5 Q310 688 331 676 Q349 666 362 660.5 Q375 655 389 655 Q420 655 427 694 L499 694 Q486 635 461 607.5 Q436 580 397 580 Z " />
<glyph glyph-name="o" unicode="o" horiz-adv-x="514" d="M206 -10 Q116 -10 68.5 47.5 Q21 105 21 197 Q21 277 56 347 Q91 417 152.5 458.5 Q214 500 290 500 Q380 500 427.5 442 Q475 384 475 292 Q475 212 440 142.5 Q405 73 343.5 31.5 Q282 -10 206 -10 Z M219 70 Q268 70 305 98.5 Q342 127 362 176 Q382 225 382 285 Q382 420 277 420 Q228 420 191 391.5 Q154 363 134 314 Q114 265 114 205 Q114 70 219 70 Z " />
<glyph glyph-name="oacute" unicode="&#xf3;" horiz-adv-x="514" d="M206 -10 Q116 -10 68.5 47.5 Q21 105 21 197 Q21 277 56 347 Q91 417 152.5 458.5 Q214 500 290 500 Q380 500 427.5 442 Q475 384 475 292 Q475 212 440 142.5 Q405 73 343.5 31.5 Q282 -10 206 -10 Z M219 70 Q268 70 305 98.5 Q342 127 362 176 Q382 225 382 285 Q382 420 277 420 Q228 420 191 391.5 Q154 363 134 314 Q114 265 114 205 Q114 70 219 70 Z M238 643 L421 747 L404 636 L226 575 L238 643 Z " />
<glyph glyph-name="obreve" unicode="&#x14f;" horiz-adv-x="514" d="M206 -10 Q116 -10 68.5 47.5 Q21 105 21 197 Q21 277 56 347 Q91 417 152.5 458.5 Q214 500 290 500 Q380 500 427.5 442 Q475 384 475 292 Q475 212 440 142.5 Q405 73 343.5 31.5 Q282 -10 206 -10 Z M219 70 Q268 70 305 98.5 Q342 127 362 176 Q382 225 382 285 Q382 420 277 420 Q228 420 191 391.5 Q154 363 134 314 Q114 265 114 205 Q114 70 219 70 Z M315 576 Q254 576 222.5 604.5 Q191 633 191 677 Q191 691 195 703 L273 703 Q270 696 270 686 Q270 665 284 653.5 Q298 642 323 642 Q351 642 371 657.5 Q391 673 396 703 L479 703 Q470 647 427.5 611.5 Q385 576 315 576 Z " />
<glyph glyph-name="ocircumflex" unicode="&#xf4;" horiz-adv-x="514" d="M206 -10 Q116 -10 68.5 47.5 Q21 105 21 197 Q21 277 56 347 Q91 417 152.5 458.5 Q214 500 290 500 Q380 500 427.5 442 Q475 384 475 292 Q475 212 440 142.5 Q405 73 343.5 31.5 Q282 -10 206 -10 Z M219 70 Q268 70 305 98.5 Q342 127 362 176 Q382 225 382 285 Q382 420 277 420 Q228 420 191 391.5 Q154 363 134 314 Q114 265 114 205 Q114 70 219 70 Z M213 638 L341 735 L446 625 L434 564 L323 644 L198 574 L213 638 Z " />
<glyph glyph-name="uni1ED1" unicode="&#x1ed1;" horiz-adv-x="514" d="M206 -10 Q116 -10 68.5 47.5 Q21 105 21 197 Q21 277 56 347 Q91 417 152.5 458.5 Q214 500 290 500 Q380 500 427.5 442 Q475 384 475 292 Q475 212 440 142.5 Q405 73 343.5 31.5 Q282 -10 206 -10 Z M219 70 Q268 70 305 98.5 Q342 127 362 176 Q382 225 382 285 Q382 420 277 420 Q228 420 191 391.5 Q154 363 134 314 Q114 265 114 205 Q114 70 219 70 Z M474 801 L570 801 L456 689 L392 689 L474 801 Z M314 609 L199 555 L209 616 L329 694 L440 604 L430 543 L314 609 Z " />
<glyph glyph-name="uni1ED9" unicode="&#x1ed9;" horiz-adv-x="514" d="M206 -10 Q116 -10 68.5 47.5 Q21 105 21 197 Q21 277 56 347 Q91 417 152.5 458.5 Q214 500 290 500 Q380 500 427.5 442 Q475 384 475 292 Q475 212 440 142.5 Q405 73 343.5 31.5 Q282 -10 206 -10 Z M219 70 Q268 70 305 98.5 Q342 127 362 176 Q382 225 382 285 Q382 420 277 420 Q228 420 191 391.5 Q154 363 134 314 Q114 265 114 205 Q114 70 219 70 Z M213 638 L341 735 L446 625 L434 564 L323 644 L198 574 L213 638 Z M145 -81 L237 -81 L219 -171 L127 -171 L145 -81 Z " />
<glyph glyph-name="uni1ED3" unicode="&#x1ed3;" horiz-adv-x="514" d="M206 -10 Q116 -10 68.5 47.5 Q21 105 21 197 Q21 277 56 347 Q91 417 152.5 458.5 Q214 500 290 500 Q380 500 427.5 442 Q475 384 475 292 Q475 212 440 142.5 Q405 73 343.5 31.5 Q282 -10 206 -10 Z M219 70 Q268 70 305 98.5 Q342 127 362 176 Q382 225 382 285 Q382 420 277 420 Q228 420 191 391.5 Q154 363 134 314 Q114 265 114 205 Q114 70 219 70 Z M319 806 L414 806 L450 689 L386 689 L319 806 Z M314 609 L199 555 L209 616 L329 694 L440 604 L430 543 L314 609 Z " />
<glyph glyph-name="uni1ED5" unicode="&#x1ed5;" horiz-adv-x="514" d="M206 -10 Q116 -10 68.5 47.5 Q21 105 21 197 Q21 277 56 347 Q91 417 152.5 458.5 Q214 500 290 500 Q380 500 427.5 442 Q475 384 475 292 Q475 212 440 142.5 Q405 73 343.5 31.5 Q282 -10 206 -10 Z M219 70 Q268 70 305 98.5 Q342 127 362 176 Q382 225 382 285 Q382 420 277 420 Q228 420 191 391.5 Q154 363 134 314 Q114 265 114 205 Q114 70 219 70 Z M408 702 Q449 716 449 745 Q449 758 439.5 765.5 Q430 773 413 773 Q390 773 352 755 L344 806 Q382 824 425 824 Q462 824 485 806.5 Q508 789 508 757 Q508 720 481.5 695.5 Q455 671 410 662 L408 702 Z M314 609 L199 555 L209 616 L329 694 L440 604 L430 543 L314 609 Z " />
<glyph glyph-name="uni1ED7" unicode="&#x1ed7;" horiz-adv-x="514" d="M206 -10 Q116 -10 68.5 47.5 Q21 105 21 197 Q21 277 56 347 Q91 417 152.5 458.5 Q214 500 290 500 Q380 500 427.5 442 Q475 384 475 292 Q475 212 440 142.5 Q405 73 343.5 31.5 Q282 -10 206 -10 Z M219 70 Q268 70 305 98.5 Q342 127 362 176 Q382 225 382 285 Q382 420 277 420 Q228 420 191 391.5 Q154 363 134 314 Q114 265 114 205 Q114 70 219 70 Z M414 725 Q399 725 383 730 Q367 735 340 746 Q298 764 283 764 Q269 764 259.5 755 Q250 746 249 730 L184 730 Q192 778 216 804 Q240 830 276 830 Q291 830 306.5 825 Q322 820 348 809 Q364 802 380.5 796.5 Q397 791 409 791 Q423 791 432 800 Q441 809 443 825 L508 825 Q501 776 476 750.5 Q451 725 414 725 Z M314 609 L199 555 L209 616 L329 694 L440 604 L430 543 L314 609 Z " />
<glyph glyph-name="uni020D" unicode="&#x20d;" horiz-adv-x="514" d="M206 -10 Q116 -10 68.5 47.5 Q21 105 21 197 Q21 277 56 347 Q91 417 152.5 458.5 Q214 500 290 500 Q380 500 427.5 442 Q475 384 475 292 Q475 212 440 142.5 Q405 73 343.5 31.5 Q282 -10 206 -10 Z M219 70 Q268 70 305 98.5 Q342 127 362 176 Q382 225 382 285 Q382 420 277 420 Q228 420 191 391.5 Q154 363 134 314 Q114 265 114 205 Q114 70 219 70 Z M206 578 L133 745 L231 745 L272 578 L206 578 Z M345 578 L277 745 L375 745 L411 578 L345 578 Z " />
<glyph glyph-name="odieresis" unicode="&#xf6;" horiz-adv-x="514" d="M206 -10 Q116 -10 68.5 47.5 Q21 105 21 197 Q21 277 56 347 Q91 417 152.5 458.5 Q214 500 290 500 Q380 500 427.5 442 Q475 384 475 292 Q475 212 440 142.5 Q405 73 343.5 31.5 Q282 -10 206 -10 Z M219 70 Q268 70 305 98.5 Q342 127 362 176 Q382 225 382 285 Q382 420 277 420 Q228 420 191 391.5 Q154 363 134 314 Q114 265 114 205 Q114 70 219 70 Z M193 671 L277 671 L261 591 L177 591 L193 671 Z M379 671 L463 671 L447 591 L363 591 L379 671 Z " />
<glyph glyph-name="uni022B" unicode="&#x22b;" horiz-adv-x="514" d="M206 -10 Q116 -10 68.5 47.5 Q21 105 21 197 Q21 277 56 347 Q91 417 152.5 458.5 Q214 500 290 500 Q380 500 427.5 442 Q475 384 475 292 Q475 212 440 142.5 Q405 73 343.5 31.5 Q282 -10 206 -10 Z M219 70 Q268 70 305 98.5 Q342 127 362 176 Q382 225 382 285 Q382 420 277 420 Q228 420 191 391.5 Q154 363 134 314 Q114 265 114 205 Q114 70 219 70 Z M189 659 L273 659 L259 584 L175 584 L189 659 Z M373 659 L457 659 L443 584 L359 584 L373 659 Z M191 811 L507 811 L495 743 L179 743 L191 811 Z " />
<glyph glyph-name="uni0231" unicode="&#x231;" horiz-adv-x="514" d="M206 -10 Q116 -10 68.5 47.5 Q21 105 21 197 Q21 277 56 347 Q91 417 152.5 458.5 Q214 500 290 500 Q380 500 427.5 442 Q475 384 475 292 Q475 212 440 142.5 Q405 73 343.5 31.5 Q282 -10 206 -10 Z M219 70 Q268 70 305 98.5 Q342 127 362 176 Q382 225 382 285 Q382 420 277 420 Q228 420 191 391.5 Q154 363 134 314 Q114 265 114 205 Q114 70 219 70 Z M278 671 L372 671 L356 581 L262 581 L278 671 Z M192 817 L508 817 L496 749 L180 749 L192 817 Z " />
<glyph glyph-name="uni1ECD" unicode="&#x1ecd;" horiz-adv-x="514" d="M206 -10 Q116 -10 68.5 47.5 Q21 105 21 197 Q21 277 56 347 Q91 417 152.5 458.5 Q214 500 290 500 Q380 500 427.5 442 Q475 384 475 292 Q475 212 440 142.5 Q405 73 343.5 31.5 Q282 -10 206 -10 Z M219 70 Q268 70 305 98.5 Q342 127 362 176 Q382 225 382 285 Q382 420 277 420 Q228 420 191 391.5 Q154 363 134 314 Q114 265 114 205 Q114 70 219 70 Z M145 -81 L237 -81 L219 -171 L127 -171 L145 -81 Z " />
<glyph glyph-name="ograve" unicode="&#xf2;" horiz-adv-x="514" d="M206 -10 Q116 -10 68.5 47.5 Q21 105 21 197 Q21 277 56 347 Q91 417 152.5 458.5 Q214 500 290 500 Q380 500 427.5 442 Q475 384 475 292 Q475 212 440 142.5 Q405 73 343.5 31.5 Q282 -10 206 -10 Z M219 70 Q268 70 305 98.5 Q342 127 362 176 Q382 225 382 285 Q382 420 277 420 Q228 420 191 391.5 Q154 363 134 314 Q114 265 114 205 Q114 70 219 70 Z M231 645 L248 743 L407 637 L396 576 L231 645 Z " />
<glyph glyph-name="uni1ECF" unicode="&#x1ecf;" horiz-adv-x="514" d="M206 -10 Q116 -10 68.5 47.5 Q21 105 21 197 Q21 277 56 347 Q91 417 152.5 458.5 Q214 500 290 500 Q380 500 427.5 442 Q475 384 475 292 Q475 212 440 142.5 Q405 73 343.5 31.5 Q282 -10 206 -10 Z M219 70 Q268 70 305 98.5 Q342 127 362 176 Q382 225 382 285 Q382 420 277 420 Q228 420 191 391.5 Q154 363 134 314 Q114 265 114 205 Q114 70 219 70 Z M287 558 Q319 584 332 599 Q345 614 345 634 Q345 661 310 661 Q284 661 244 642 L236 693 Q276 712 320 712 Q358 712 381 694.5 Q404 677 405 645 Q405 609 382 581 Q359 553 315 525 L287 558 Z " />
<glyph glyph-name="ohorn" unicode="&#x1a1;" horiz-adv-x="514" d="M510 564 Q493 484 423 447 Q475 391 475 292 Q475 212 440 142.5 Q405 73 343.5 31.5 Q282 -10 206 -10 Q116 -10 68.5 47.5 Q21 105 21 197 Q21 277 56 347 Q91 417 152.5 458.5 Q214 500 290 500 Q323 500 352 491 Q411 500 424 564 L510 564 Z M219 70 Q268 70 305 98.5 Q342 127 362 176 Q382 225 382 285 Q382 420 277 420 Q228 420 191 391.5 Q154 363 134 314 Q114 265 114 205 Q114 70 219 70 Z " />
<glyph glyph-name="uni1EDB" unicode="&#x1edb;" horiz-adv-x="514" d="M510 564 Q493 484 423 447 Q475 391 475 292 Q475 212 440 142.5 Q405 73 343.5 31.5 Q282 -10 206 -10 Q116 -10 68.5 47.5 Q21 105 21 197 Q21 277 56 347 Q91 417 152.5 458.5 Q214 500 290 500 Q323 500 352 491 Q411 500 424 564 L510 564 Z M219 70 Q268 70 305 98.5 Q342 127 362 176 Q382 225 382 285 Q382 420 277 420 Q228 420 191 391.5 Q154 363 134 314 Q114 265 114 205 Q114 70 219 70 Z M238 643 L421 747 L404 636 L226 575 L238 643 Z " />
<glyph glyph-name="uni1EE3" unicode="&#x1ee3;" horiz-adv-x="514" d="M510 564 Q493 484 423 447 Q475 391 475 292 Q475 212 440 142.5 Q405 73 343.5 31.5 Q282 -10 206 -10 Q116 -10 68.5 47.5 Q21 105 21 197 Q21 277 56 347 Q91 417 152.5 458.5 Q214 500 290 500 Q323 500 352 491 Q411 500 424 564 L510 564 Z M219 70 Q268 70 305 98.5 Q342 127 362 176 Q382 225 382 285 Q382 420 277 420 Q228 420 191 391.5 Q154 363 134 314 Q114 265 114 205 Q114 70 219 70 Z M145 -81 L237 -81 L219 -171 L127 -171 L145 -81 Z " />
<glyph glyph-name="uni1EDD" unicode="&#x1edd;" horiz-adv-x="514" d="M510 564 Q493 484 423 447 Q475 391 475 292 Q475 212 440 142.5 Q405 73 343.5 31.5 Q282 -10 206 -10 Q116 -10 68.5 47.5 Q21 105 21 197 Q21 277 56 347 Q91 417 152.5 458.5 Q214 500 290 500 Q323 500 352 491 Q411 500 424 564 L510 564 Z M219 70 Q268 70 305 98.5 Q342 127 362 176 Q382 225 382 285 Q382 420 277 420 Q228 420 191 391.5 Q154 363 134 314 Q114 265 114 205 Q114 70 219 70 Z M231 645 L248 743 L407 637 L396 576 L231 645 Z " />
<glyph glyph-name="uni1EDF" unicode="&#x1edf;" horiz-adv-x="514" d="M510 564 Q493 484 423 447 Q475 391 475 292 Q475 212 440 142.5 Q405 73 343.5 31.5 Q282 -10 206 -10 Q116 -10 68.5 47.5 Q21 105 21 197 Q21 277 56 347 Q91 417 152.5 458.5 Q214 500 290 500 Q323 500 352 491 Q411 500 424 564 L510 564 Z M219 70 Q268 70 305 98.5 Q342 127 362 176 Q382 225 382 285 Q382 420 277 420 Q228 420 191 391.5 Q154 363 134 314 Q114 265 114 205 Q114 70 219 70 Z M287 558 Q319 584 332 599 Q345 614 345 634 Q345 661 310 661 Q284 661 244 642 L236 693 Q276 712 320 712 Q358 712 381 694.5 Q404 677 405 645 Q405 609 382 581 Q359 553 315 525 L287 558 Z " />
<glyph glyph-name="uni1EE1" unicode="&#x1ee1;" horiz-adv-x="514" d="M510 564 Q493 484 423 447 Q475 391 475 292 Q475 212 440 142.5 Q405 73 343.5 31.5 Q282 -10 206 -10 Q116 -10 68.5 47.5 Q21 105 21 197 Q21 277 56 347 Q91 417 152.5 458.5 Q214 500 290 500 Q323 500 352 491 Q411 500 424 564 L510 564 Z M219 70 Q268 70 305 98.5 Q342 127 362 176 Q382 225 382 285 Q382 420 277 420 Q228 420 191 391.5 Q154 363 134 314 Q114 265 114 205 Q114 70 219 70 Z M389 580 Q374 580 359 586 Q344 592 321 603 Q301 613 287.5 618.5 Q274 624 263 624 Q233 624 225 588 L153 588 Q179 699 258 699 Q274 699 288 693.5 Q302 688 323 676 Q341 666 354 660.5 Q367 655 381 655 Q412 655 419 694 L491 694 Q478 635 453 607.5 Q428 580 389 580 Z " />
<glyph glyph-name="ohungarumlaut" unicode="&#x151;" horiz-adv-x="514" d="M206 -10 Q116 -10 68.5 47.5 Q21 105 21 197 Q21 277 56 347 Q91 417 152.5 458.5 Q214 500 290 500 Q380 500 427.5 442 Q475 384 475 292 Q475 212 440 142.5 Q405 73 343.5 31.5 Q282 -10 206 -10 Z M219 70 Q268 70 305 98.5 Q342 127 362 176 Q382 225 382 285 Q382 420 277 420 Q228 420 191 391.5 Q154 363 134 314 Q114 265 114 205 Q114 70 219 70 Z M312 745 L410 745 L272 578 L206 578 L312 745 Z M457 745 L555 745 L412 578 L346 578 L457 745 Z " />
<glyph glyph-name="uni020F" unicode="&#x20f;" horiz-adv-x="514" d="M206 -10 Q116 -10 68.5 47.5 Q21 105 21 197 Q21 277 56 347 Q91 417 152.5 458.5 Q214 500 290 500 Q380 500 427.5 442 Q475 384 475 292 Q475 212 440 142.5 Q405 73 343.5 31.5 Q282 -10 206 -10 Z M219 70 Q268 70 305 98.5 Q342 127 362 176 Q382 225 382 285 Q382 420 277 420 Q228 420 191 391.5 Q154 363 134 314 Q114 265 114 205 Q114 70 219 70 Z M328 703 Q391 703 422.5 674 Q454 645 454 599 Q454 592 452 576 L374 576 Q375 580 375 589 Q375 612 359.5 624.5 Q344 637 319 637 Q290 637 268.5 621 Q247 605 242 576 L160 576 Q169 629 213 666 Q257 703 328 703 Z " />
<glyph glyph-name="omacron" unicode="&#x14d;" horiz-adv-x="514" d="M206 -10 Q116 -10 68.5 47.5 Q21 105 21 197 Q21 277 56 347 Q91 417 152.5 458.5 Q214 500 290 500 Q380 500 427.5 442 Q475 384 475 292 Q475 212 440 142.5 Q405 73 343.5 31.5 Q282 -10 206 -10 Z M219 70 Q268 70 305 98.5 Q342 127 362 176 Q382 225 382 285 Q382 420 277 420 Q228 420 191 391.5 Q154 363 134 314 Q114 265 114 205 Q114 70 219 70 Z M171 662 L483 662 L469 591 L157 591 L171 662 Z " />
<glyph glyph-name="uni1E53" unicode="&#x1e53;" horiz-adv-x="514" d="M206 -10 Q116 -10 68.5 47.5 Q21 105 21 197 Q21 277 56 347 Q91 417 152.5 458.5 Q214 500 290 500 Q380 500 427.5 442 Q475 384 475 292 Q475 212 440 142.5 Q405 73 343.5 31.5 Q282 -10 206 -10 Z M219 70 Q268 70 305 98.5 Q342 127 362 176 Q382 225 382 285 Q382 420 277 420 Q228 420 191 391.5 Q154 363 134 314 Q114 265 114 205 Q114 70 219 70 Z M163 651 L479 651 L467 583 L151 583 L163 651 Z M273 770 L444 865 L430 764 L265 706 L273 770 Z " />
<glyph glyph-name="uni1E51" unicode="&#x1e51;" horiz-adv-x="514" d="M206 -10 Q116 -10 68.5 47.5 Q21 105 21 197 Q21 277 56 347 Q91 417 152.5 458.5 Q214 500 290 500 Q380 500 427.5 442 Q475 384 475 292 Q475 212 440 142.5 Q405 73 343.5 31.5 Q282 -10 206 -10 Z M219 70 Q268 70 305 98.5 Q342 127 362 176 Q382 225 382 285 Q382 420 277 420 Q228 420 191 391.5 Q154 363 134 314 Q114 265 114 205 Q114 70 219 70 Z M163 651 L479 651 L467 583 L151 583 L163 651 Z M263 764 L280 859 L440 764 L429 706 L263 764 Z " />
<glyph glyph-name="uni01EB" unicode="&#x1eb;" horiz-adv-x="514" d="M266 -3 Q222 -33 197.5 -60 Q173 -87 173 -119 Q173 -138 183 -147.5 Q193 -157 210 -157 Q239 -157 270 -140 L276 -189 Q240 -208 196 -208 Q159 -208 135.5 -190 Q112 -172 111 -139 Q111 -104 136.5 -69 Q162 -34 200 -10 Q113 -8 67 49.5 Q21 107 21 197 Q21 277 56 347 Q91 417 152.5 458.5 Q214 500 290 500 Q380 500 427.5 442 Q475 384 475 292 Q475 223 448.5 161 Q422 99 374.5 55.5 Q327 12 266 -3 Z M114 205 Q114 70 219 70 Q268 70 305 98.5 Q342 127 362 176 Q382 225 382 285 Q382 420 277 420 Q228 420 191 391.5 Q154 363 134 314 Q114 265 114 205 Z " />
<glyph glyph-name="oslash" unicode="&#xf8;" horiz-adv-x="514" d="M433 435 Q475 380 475 292 Q475 212 440 142.5 Q405 73 343.5 31.5 Q282 -10 206 -10 Q150 -10 110 13 L70 -40 L-10 -40 L63 55 Q21 109 21 197 Q21 277 56 347 Q91 417 152.5 458.5 Q214 500 290 500 Q345 500 385 477 L426 530 L506 530 L433 435 Z M114 205 Q114 162 124 135 L332 407 Q310 420 277 420 Q228 420 191 391.5 Q154 363 134 314 Q114 265 114 205 Z M382 285 Q382 328 372 355 L164 83 Q186 70 219 70 Q268 70 305 98.5 Q342 127 362 176 Q382 225 382 285 Z " />
<glyph glyph-name="oslashacute" unicode="&#x1ff;" horiz-adv-x="514" d="M433 435 Q475 380 475 292 Q475 212 440 142.5 Q405 73 343.5 31.5 Q282 -10 206 -10 Q150 -10 110 13 L70 -40 L-10 -40 L63 55 Q21 109 21 197 Q21 277 56 347 Q91 417 152.5 458.5 Q214 500 290 500 Q345 500 385 477 L426 530 L506 530 L433 435 Z M114 205 Q114 162 124 135 L332 407 Q310 420 277 420 Q228 420 191 391.5 Q154 363 134 314 Q114 265 114 205 Z M382 285 Q382 328 372 355 L164 83 Q186 70 219 70 Q268 70 305 98.5 Q342 127 362 176 Q382 225 382 285 Z M238 643 L421 747 L404 636 L226 575 L238 643 Z " />
<glyph glyph-name="otilde" unicode="&#xf5;" horiz-adv-x="514" d="M206 -10 Q116 -10 68.5 47.5 Q21 105 21 197 Q21 277 56 347 Q91 417 152.5 458.5 Q214 500 290 500 Q380 500 427.5 442 Q475 384 475 292 Q475 212 440 142.5 Q405 73 343.5 31.5 Q282 -10 206 -10 Z M219 70 Q268 70 305 98.5 Q342 127 362 176 Q382 225 382 285 Q382 420 277 420 Q228 420 191 391.5 Q154 363 134 314 Q114 265 114 205 Q114 70 219 70 Z M389 580 Q374 580 359 586 Q344 592 321 603 Q301 613 287.5 618.5 Q274 624 263 624 Q233 624 225 588 L153 588 Q179 699 258 699 Q274 699 288 693.5 Q302 688 323 676 Q341 666 354 660.5 Q367 655 381 655 Q412 655 419 694 L491 694 Q478 635 453 607.5 Q428 580 389 580 Z " />
<glyph glyph-name="uni1E4D" unicode="&#x1e4d;" horiz-adv-x="514" d="M206 -10 Q116 -10 68.5 47.5 Q21 105 21 197 Q21 277 56 347 Q91 417 152.5 458.5 Q214 500 290 500 Q380 500 427.5 442 Q475 384 475 292 Q475 212 440 142.5 Q405 73 343.5 31.5 Q282 -10 206 -10 Z M219 70 Q268 70 305 98.5 Q342 127 362 176 Q382 225 382 285 Q382 420 277 420 Q228 420 191 391.5 Q154 363 134 314 Q114 265 114 205 Q114 70 219 70 Z M386 578 Q371 578 355 583 Q339 588 312 599 Q270 617 255 617 Q241 617 231.5 608 Q222 599 221 583 L156 583 Q164 631 188 657 Q212 683 248 683 Q263 683 278.5 678 Q294 673 320 662 Q336 655 352.5 649.5 Q369 644 381 644 Q395 644 404 653 Q413 662 415 678 L480 678 Q473 629 448 603.5 Q423 578 386 578 Z M267 794 L438 889 L424 788 L259 730 L267 794 Z " />
<glyph glyph-name="uni1E4F" unicode="&#x1e4f;" horiz-adv-x="514" d="M206 -10 Q116 -10 68.5 47.5 Q21 105 21 197 Q21 277 56 347 Q91 417 152.5 458.5 Q214 500 290 500 Q380 500 427.5 442 Q475 384 475 292 Q475 212 440 142.5 Q405 73 343.5 31.5 Q282 -10 206 -10 Z M219 70 Q268 70 305 98.5 Q342 127 362 176 Q382 225 382 285 Q382 420 277 420 Q228 420 191 391.5 Q154 363 134 314 Q114 265 114 205 Q114 70 219 70 Z M386 578 Q371 578 355 583 Q339 588 312 599 Q270 617 255 617 Q241 617 231.5 608 Q222 599 221 583 L156 583 Q164 631 188 657 Q212 683 248 683 Q263 683 278.5 678 Q294 673 320 662 Q336 655 352.5 649.5 Q369 644 381 644 Q395 644 404 653 Q413 662 415 678 L480 678 Q473 629 448 603.5 Q423 578 386 578 Z M220 835 L304 835 L290 760 L206 760 L220 835 Z M404 835 L488 835 L474 760 L390 760 L404 835 Z " />
<glyph glyph-name="uni022D" unicode="&#x22d;" horiz-adv-x="514" d="M206 -10 Q116 -10 68.5 47.5 Q21 105 21 197 Q21 277 56 347 Q91 417 152.5 458.5 Q214 500 290 500 Q380 500 427.5 442 Q475 384 475 292 Q475 212 440 142.5 Q405 73 343.5 31.5 Q282 -10 206 -10 Z M219 70 Q268 70 305 98.5 Q342 127 362 176 Q382 225 382 285 Q382 420 277 420 Q228 420 191 391.5 Q154 363 134 314 Q114 265 114 205 Q114 70 219 70 Z M386 578 Q371 578 355 583 Q339 588 312 599 Q270 617 255 617 Q241 617 231.5 608 Q222 599 221 583 L156 583 Q164 631 188 657 Q212 683 248 683 Q263 683 278.5 678 Q294 673 320 662 Q336 655 352.5 649.5 Q369 644 381 644 Q395 644 404 653 Q413 662 415 678 L480 678 Q473 629 448 603.5 Q423 578 386 578 Z M194 827 L510 827 L498 759 L182 759 L194 827 Z " />
<glyph glyph-name="oe" unicode="&#x153;" horiz-adv-x="822" d="M205 -10 Q118 -10 70 49 Q22 108 22 200 Q22 282 56 350.5 Q90 419 151 459.5 Q212 500 291 500 Q348 500 392.5 474 Q437 448 451 398 Q485 448 534.5 474 Q584 500 634 500 Q708 500 752 456 Q796 412 796 335 Q796 304 792 287 Q788 270 784 260 Q780 250 778 245 L475 245 Q470 212 470 191 Q470 118 503 90 Q536 62 582 62 Q617 62 656.5 72.5 Q696 83 728 99 L722 22 Q654 -10 575 -10 Q498 -10 456.5 16.5 Q415 43 400 97 Q369 46 316.5 18 Q264 -10 205 -10 Z M221 70 Q272 70 309.5 100.5 Q347 131 366.5 181 Q386 231 386 288 Q386 348 359.5 384 Q333 420 283 420 Q204 420 159 359 Q114 298 114 200 Q114 138 141.5 104 Q169 70 221 70 Z M701 307 Q703 325 703 332 Q703 374 682 397 Q661 420 620 420 Q574 420 540.5 391 Q507 362 488 307 L701 307 Z " />
<glyph glyph-name="p" unicode="p" horiz-adv-x="522" d="M96 490 L170 490 L167 420 Q202 461 236.5 480.5 Q271 500 315 500 Q396 500 439 441.5 Q482 383 482 293 Q482 215 450.5 145 Q419 75 362.5 32.5 Q306 -10 236 -10 Q149 -10 111 62 L58 -242 L-33 -242 L96 490 Z M231 70 Q276 70 311.5 100.5 Q347 131 367.5 180.5 Q388 230 388 287 Q388 348 363.5 384 Q339 420 292 420 Q252 420 215.5 394 Q179 368 156.5 319 Q134 270 134 206 Q134 136 160.5 103 Q187 70 231 70 Z " />
<glyph glyph-name="thorn" unicode="&#xfe;" horiz-adv-x="522" d="M142 750 L233 750 L177 442 Q237 500 320 500 Q398 500 440 441.5 Q482 383 482 293 Q482 215 450.5 145 Q419 75 362.5 32.5 Q306 -10 236 -10 Q149 -10 111 62 L58 -242 L-33 -242 L142 750 Z M231 70 Q276 70 311.5 100.5 Q347 131 367.5 180.5 Q388 230 388 287 Q388 348 363.5 384 Q339 420 292 420 Q252 420 215.5 394 Q179 368 156.5 319 Q134 270 134 206 Q134 136 160.5 103 Q187 70 231 70 Z " />
<glyph glyph-name="q" unicode="q" horiz-adv-x="521" d="M328 62 Q299 28 260 9 Q221 -10 187 -10 Q106 -10 63.5 45 Q21 100 21 189 Q21 269 54 340.5 Q87 412 145 456 Q203 500 276 500 Q322 500 349.5 480.5 Q377 461 399 420 L420 490 L494 490 L365 -242 L274 -242 L328 62 Z M213 70 Q253 70 289 95.5 Q325 121 347.5 169 Q370 217 370 281 Q370 352 343 386 Q316 420 271 420 Q227 420 191.5 390.5 Q156 361 136 311.5 Q116 262 116 205 Q116 144 140 107 Q164 70 213 70 Z " />
<glyph glyph-name="r" unicode="r" horiz-adv-x="307" d="M96 490 L175 490 L168 409 Q210 460 248.5 484 Q287 508 326 508 L340 508 L304 409 L271 409 Q244 409 212.5 389.5 Q181 370 165 346 L104 0 L10 0 L96 490 Z " />
<glyph glyph-name="racute" unicode="&#x155;" horiz-adv-x="307" d="M96 490 L175 490 L168 409 Q210 460 248.5 484 Q287 508 326 508 L340 508 L304 409 L271 409 Q244 409 212.5 389.5 Q181 370 165 346 L104 0 L10 0 L96 490 Z M159 643 L342 747 L325 636 L147 575 L159 643 Z " />
<glyph glyph-name="rcaron" unicode="&#x159;" horiz-adv-x="307" d="M96 490 L175 490 L168 409 Q210 460 248.5 484 Q287 508 326 508 L340 508 L304 409 L271 409 Q244 409 212.5 389.5 Q181 370 165 346 L104 0 L10 0 L96 490 Z M122 668 L134 729 L245 649 L381 729 L369 654 L227 558 L122 668 Z " />
<glyph glyph-name="rcommaaccent" unicode="&#x157;" horiz-adv-x="307" d="M96 490 L175 490 L168 409 Q210 460 248.5 484 Q287 508 326 508 L340 508 L304 409 L271 409 Q244 409 212.5 389.5 Q181 370 165 346 L104 0 L10 0 L96 490 Z M-25 -262 L19 -177 L-17 -177 L-2 -91 L94 -91 L79 -177 L12 -262 L-25 -262 Z " />
<glyph glyph-name="uni0211" unicode="&#x211;" horiz-adv-x="307" d="M96 490 L175 490 L168 409 Q210 460 248.5 484 Q287 508 326 508 L340 508 L304 409 L271 409 Q244 409 212.5 389.5 Q181 370 165 346 L104 0 L10 0 L96 490 Z M127 578 L54 745 L152 745 L193 578 L127 578 Z M266 578 L198 745 L296 745 L332 578 L266 578 Z " />
<glyph glyph-name="uni1E5B" unicode="&#x1e5b;" horiz-adv-x="307" d="M96 490 L175 490 L168 409 Q210 460 248.5 484 Q287 508 326 508 L340 508 L304 409 L271 409 Q244 409 212.5 389.5 Q181 370 165 346 L104 0 L10 0 L96 490 Z M-3 -81 L89 -81 L71 -171 L-21 -171 L-3 -81 Z " />
<glyph glyph-name="uni0213" unicode="&#x213;" horiz-adv-x="307" d="M96 490 L175 490 L168 409 Q210 460 248.5 484 Q287 508 326 508 L340 508 L304 409 L271 409 Q244 409 212.5 389.5 Q181 370 165 346 L104 0 L10 0 L96 490 Z M249 703 Q312 703 343.5 674 Q375 645 375 599 Q375 592 373 576 L295 576 Q296 580 296 589 Q296 612 280.5 624.5 Q265 637 240 637 Q211 637 189.5 621 Q168 605 163 576 L81 576 Q90 629 134 666 Q178 703 249 703 Z " />
<glyph glyph-name="uni1E5F" unicode="&#x1e5f;" horiz-adv-x="307" d="M96 490 L175 490 L168 409 Q210 460 248.5 484 Q287 508 326 508 L340 508 L304 409 L271 409 Q244 409 212.5 389.5 Q181 370 165 346 L104 0 L10 0 L96 490 Z M-112 -91 L200 -91 L186 -162 L-126 -162 L-112 -91 Z " />
<glyph glyph-name="s" unicode="s" horiz-adv-x="389" d="M138 -10 Q84 -10 47.5 3 Q11 16 -10 33 L15 120 Q34 101 68.5 85.5 Q103 70 146 70 Q192 70 215 89 Q238 108 238 140 Q238 171 218.5 186 Q199 201 165 212 Q128 224 105 235.5 Q82 247 66.5 270 Q51 293 51 331 Q51 372 71 410.5 Q91 449 134 474.5 Q177 500 244 500 Q317 500 366 468 L342 386 Q325 405 298.5 417 Q272 429 238 429 Q196 429 169 409.5 Q142 390 142 355 Q142 327 160.5 314 Q179 301 231 283 Q276 267 304.5 241 Q333 215 333 160 Q333 123 317.5 84.5 Q302 46 258.5 18 Q215 -10 138 -10 Z " />
<glyph glyph-name="sacute" unicode="&#x15b;" horiz-adv-x="389" d="M138 -10 Q84 -10 47.5 3 Q11 16 -10 33 L15 120 Q34 101 68.5 85.5 Q103 70 146 70 Q192 70 215 89 Q238 108 238 140 Q238 171 218.5 186 Q199 201 165 212 Q128 224 105 235.5 Q82 247 66.5 270 Q51 293 51 331 Q51 372 71 410.5 Q91 449 134 474.5 Q177 500 244 500 Q317 500 366 468 L342 386 Q325 405 298.5 417 Q272 429 238 429 Q196 429 169 409.5 Q142 390 142 355 Q142 327 160.5 314 Q179 301 231 283 Q276 267 304.5 241 Q333 215 333 160 Q333 123 317.5 84.5 Q302 46 258.5 18 Q215 -10 138 -10 Z M182 643 L365 747 L348 636 L170 575 L182 643 Z " />
<glyph glyph-name="uni1E65" unicode="&#x1e65;" horiz-adv-x="389" d="M138 -10 Q84 -10 47.5 3 Q11 16 -10 33 L15 120 Q34 101 68.5 85.5 Q103 70 146 70 Q192 70 215 89 Q238 108 238 140 Q238 171 218.5 186 Q199 201 165 212 Q128 224 105 235.5 Q82 247 66.5 270 Q51 293 51 331 Q51 372 71 410.5 Q91 449 134 474.5 Q177 500 244 500 Q317 500 366 468 L342 386 Q325 405 298.5 417 Q272 429 238 429 Q196 429 169 409.5 Q142 390 142 355 Q142 327 160.5 314 Q179 301 231 283 Q276 267 304.5 241 Q333 215 333 160 Q333 123 317.5 84.5 Q302 46 258.5 18 Q215 -10 138 -10 Z M180 618 L351 713 L337 612 L172 554 L180 618 Z M257 853 L351 853 L335 763 L241 763 L257 853 Z " />
<glyph glyph-name="scaron" unicode="&#x161;" horiz-adv-x="389" d="M138 -10 Q84 -10 47.5 3 Q11 16 -10 33 L15 120 Q34 101 68.5 85.5 Q103 70 146 70 Q192 70 215 89 Q238 108 238 140 Q238 171 218.5 186 Q199 201 165 212 Q128 224 105 235.5 Q82 247 66.5 270 Q51 293 51 331 Q51 372 71 410.5 Q91 449 134 474.5 Q177 500 244 500 Q317 500 366 468 L342 386 Q325 405 298.5 417 Q272 429 238 429 Q196 429 169 409.5 Q142 390 142 355 Q142 327 160.5 314 Q179 301 231 283 Q276 267 304.5 241 Q333 215 333 160 Q333 123 317.5 84.5 Q302 46 258.5 18 Q215 -10 138 -10 Z M145 668 L157 729 L268 649 L404 729 L392 654 L250 558 L145 668 Z " />
<glyph glyph-name="uni1E67" unicode="&#x1e67;" horiz-adv-x="389" d="M138 -10 Q84 -10 47.5 3 Q11 16 -10 33 L15 120 Q34 101 68.5 85.5 Q103 70 146 70 Q192 70 215 89 Q238 108 238 140 Q238 171 218.5 186 Q199 201 165 212 Q128 224 105 235.5 Q82 247 66.5 270 Q51 293 51 331 Q51 372 71 410.5 Q91 449 134 474.5 Q177 500 244 500 Q317 500 366 468 L342 386 Q325 405 298.5 417 Q272 429 238 429 Q196 429 169 409.5 Q142 390 142 355 Q142 327 160.5 314 Q179 301 231 283 Q276 267 304.5 241 Q333 215 333 160 Q333 123 317.5 84.5 Q302 46 258.5 18 Q215 -10 138 -10 Z M132 633 L142 694 L258 628 L378 690 L369 625 L243 543 L132 633 Z M250 819 L344 819 L328 729 L234 729 L250 819 Z " />
<glyph glyph-name="scedilla" unicode="&#x15f;" horiz-adv-x="389" d="M244 500 Q317 500 366 468 L342 386 Q325 405 298.5 417 Q272 429 238 429 Q196 429 169 409.5 Q142 390 142 355 Q142 327 160.5 314 Q179 301 231 283 Q276 267 304.5 241 Q333 215 333 160 Q333 102 296.5 50.5 Q260 -1 167 -9 L144 -54 L152 -54 Q187 -54 207 -71.5 Q227 -89 227 -120 Q227 -166 191.5 -196 Q156 -226 103 -226 Q60 -226 28 -207 L52 -158 Q80 -175 112 -175 Q138 -175 153 -162.5 Q168 -150 168 -131 Q168 -97 124 -97 Q100 -97 76 -105 L117 -9 Q71 -6 39.5 6 Q8 18 -10 33 L15 120 Q34 101 68.5 85.5 Q103 70 146 70 Q192 70 215 89 Q238 108 238 140 Q238 171 218.5 186 Q199 201 165 212 Q128 224 105 235.5 Q82 247 66.5 270 Q51 293 51 331 Q51 372 71 410.5 Q91 449 134 474.5 Q177 500 244 500 Z " />
<glyph glyph-name="scircumflex" unicode="&#x15d;" horiz-adv-x="389" d="M138 -10 Q84 -10 47.5 3 Q11 16 -10 33 L15 120 Q34 101 68.5 85.5 Q103 70 146 70 Q192 70 215 89 Q238 108 238 140 Q238 171 218.5 186 Q199 201 165 212 Q128 224 105 235.5 Q82 247 66.5 270 Q51 293 51 331 Q51 372 71 410.5 Q91 449 134 474.5 Q177 500 244 500 Q317 500 366 468 L342 386 Q325 405 298.5 417 Q272 429 238 429 Q196 429 169 409.5 Q142 390 142 355 Q142 327 160.5 314 Q179 301 231 283 Q276 267 304.5 241 Q333 215 333 160 Q333 123 317.5 84.5 Q302 46 258.5 18 Q215 -10 138 -10 Z M157 638 L285 735 L390 625 L378 564 L267 644 L142 574 L157 638 Z " />
<glyph glyph-name="scommaaccent" unicode="&#x219;" horiz-adv-x="389" d="M138 -10 Q84 -10 47.5 3 Q11 16 -10 33 L15 120 Q34 101 68.5 85.5 Q103 70 146 70 Q192 70 215 89 Q238 108 238 140 Q238 171 218.5 186 Q199 201 165 212 Q128 224 105 235.5 Q82 247 66.5 270 Q51 293 51 331 Q51 372 71 410.5 Q91 449 134 474.5 Q177 500 244 500 Q317 500 366 468 L342 386 Q325 405 298.5 417 Q272 429 238 429 Q196 429 169 409.5 Q142 390 142 355 Q142 327 160.5 314 Q179 301 231 283 Q276 267 304.5 241 Q333 215 333 160 Q333 123 317.5 84.5 Q302 46 258.5 18 Q215 -10 138 -10 Z M61 -262 L105 -177 L69 -177 L84 -91 L180 -91 L165 -177 L98 -262 L61 -262 Z " />
<glyph glyph-name="uni1E61" unicode="&#x1e61;" horiz-adv-x="389" d="M138 -10 Q84 -10 47.5 3 Q11 16 -10 33 L15 120 Q34 101 68.5 85.5 Q103 70 146 70 Q192 70 215 89 Q238 108 238 140 Q238 171 218.5 186 Q199 201 165 212 Q128 224 105 235.5 Q82 247 66.5 270 Q51 293 51 331 Q51 372 71 410.5 Q91 449 134 474.5 Q177 500 244 500 Q317 500 366 468 L342 386 Q325 405 298.5 417 Q272 429 238 429 Q196 429 169 409.5 Q142 390 142 355 Q142 327 160.5 314 Q179 301 231 283 Q276 267 304.5 241 Q333 215 333 160 Q333 123 317.5 84.5 Q302 46 258.5 18 Q215 -10 138 -10 Z M228 681 L320 681 L302 591 L210 591 L228 681 Z " />
<glyph glyph-name="uni1E63" unicode="&#x1e63;" horiz-adv-x="389" d="M138 -10 Q84 -10 47.5 3 Q11 16 -10 33 L15 120 Q34 101 68.5 85.5 Q103 70 146 70 Q192 70 215 89 Q238 108 238 140 Q238 171 218.5 186 Q199 201 165 212 Q128 224 105 235.5 Q82 247 66.5 270 Q51 293 51 331 Q51 372 71 410.5 Q91 449 134 474.5 Q177 500 244 500 Q317 500 366 468 L342 386 Q325 405 298.5 417 Q272 429 238 429 Q196 429 169 409.5 Q142 390 142 355 Q142 327 160.5 314 Q179 301 231 283 Q276 267 304.5 241 Q333 215 333 160 Q333 123 317.5 84.5 Q302 46 258.5 18 Q215 -10 138 -10 Z M83 -81 L175 -81 L157 -171 L65 -171 L83 -81 Z " />
<glyph glyph-name="uni1E69" unicode="&#x1e69;" horiz-adv-x="389" d="M138 -10 Q84 -10 47.5 3 Q11 16 -10 33 L15 120 Q34 101 68.5 85.5 Q103 70 146 70 Q192 70 215 89 Q238 108 238 140 Q238 171 218.5 186 Q199 201 165 212 Q128 224 105 235.5 Q82 247 66.5 270 Q51 293 51 331 Q51 372 71 410.5 Q91 449 134 474.5 Q177 500 244 500 Q317 500 366 468 L342 386 Q325 405 298.5 417 Q272 429 238 429 Q196 429 169 409.5 Q142 390 142 355 Q142 327 160.5 314 Q179 301 231 283 Q276 267 304.5 241 Q333 215 333 160 Q333 123 317.5 84.5 Q302 46 258.5 18 Q215 -10 138 -10 Z M228 681 L320 681 L302 591 L210 591 L228 681 Z M83 -81 L175 -81 L157 -171 L65 -171 L83 -81 Z " />
<glyph glyph-name="germandbls" unicode="&#xdf;" horiz-adv-x="553" d="M282 -14 Q222 -14 170 0 L182 80 Q235 66 289 66 Q343 66 379 90.5 Q415 115 415 158 Q415 191 397.5 212.5 Q380 234 344 261 Q309 288 292 308.5 Q275 329 275 361 Q275 394 299.5 426 Q324 458 378 506 Q410 536 424.5 559.5 Q439 583 439 615 Q438 647 416 665.5 Q394 684 353 684 Q294 684 257.5 649.5 Q221 615 210 552 L113 0 L22 0 L96 420 L24 420 L44 490 L108 490 L119 550 Q137 655 204.5 709.5 Q272 764 370 764 Q443 764 486 728.5 Q529 693 529 635 Q529 586 511 552.5 Q493 519 451 479 L433 462 Q394 424 382 408.5 Q370 393 370 375 Q370 357 382.5 342.5 Q395 328 423 305 Q464 272 486 243 Q508 214 508 167 Q508 113 477 71.5 Q446 30 394.5 8 Q343 -14 282 -14 Z " />
<glyph glyph-name="uni0259" unicode="&#x259;" horiz-adv-x="458" d="M237 500 Q335 500 386 441 Q437 382 437 288 Q437 210 403 141.5 Q369 73 308 31.5 Q247 -10 170 -10 Q100 -10 62 24 Q24 58 24 115 Q24 156 45.5 193.5 Q67 231 118 255.5 Q169 280 252 280 Q276 280 301.5 277.5 Q327 275 340 272 Q340 354 306.5 387 Q273 420 213 420 Q182 420 145.5 412.5 Q109 405 78 391 L82 462 Q148 500 237 500 Z M260 219 Q179 219 143 191 Q107 163 107 126 Q107 98 127 84 Q147 70 179 70 Q227 70 266 104.5 Q305 139 330 209 Q300 219 260 219 Z " />
<glyph glyph-name="t" unicode="t" horiz-adv-x="303" d="M148 -10 Q97 -10 73.5 15.5 Q50 41 50 81 Q50 98 107 420 L35 420 L55 490 L119 490 L141 611 L233 620 L210 490 L321 490 L308 420 L197 420 Q167 252 155.5 182 Q144 112 144 101 Q144 75 158.5 68.5 Q173 62 219 62 L243 62 L223 -10 L148 -10 Z " />
<glyph glyph-name="tbar" unicode="&#x167;" horiz-adv-x="314" d="M208 420 L188 305 L299 305 L287 242 L177 242 Q155 113 155 101 Q155 75 169.5 68.5 Q184 62 230 62 L254 62 L234 -10 L159 -10 Q108 -10 84.5 15.5 Q61 41 61 81 Q61 92 87 242 L14 242 L26 305 L98 305 Q103 335 118 420 L46 420 L66 490 L130 490 L152 611 L244 620 L221 490 L332 490 L319 420 L208 420 Z " />
<glyph glyph-name="tcaron" unicode="&#x165;" horiz-adv-x="303" d="M148 -10 Q97 -10 73.5 15.5 Q50 41 50 81 Q50 98 107 420 L35 420 L55 490 L119 490 L141 611 L233 620 L210 490 L321 490 L308 420 L197 420 Q167 252 155.5 182 Q144 112 144 101 Q144 75 158.5 68.5 Q173 62 219 62 L243 62 L223 -10 L148 -10 Z M298 708 L391 708 L333 541 L268 541 L298 708 Z " />
<glyph glyph-name="uni0163" unicode="&#x163;" horiz-adv-x="303" d="M197 420 Q167 252 155.5 182 Q144 112 144 101 Q144 75 158.5 68.5 Q173 62 219 62 L243 62 L223 -10 L175 -10 L153 -54 L161 -54 Q196 -54 216 -71.5 Q236 -89 236 -120 Q236 -166 200.5 -196 Q165 -226 112 -226 Q69 -226 37 -207 L61 -158 Q89 -175 121 -175 Q147 -175 162 -162.5 Q177 -150 177 -131 Q177 -97 133 -97 Q109 -97 85 -105 L126 -9 Q87 -3 68.5 21.5 Q50 46 50 81 Q50 98 107 420 L35 420 L55 490 L119 490 L141 611 L233 620 L210 490 L321 490 L308 420 L197 420 Z " />
<glyph glyph-name="uni021B" unicode="&#x21b;" horiz-adv-x="303" d="M148 -10 Q97 -10 73.5 15.5 Q50 41 50 81 Q50 98 107 420 L35 420 L55 490 L119 490 L141 611 L233 620 L210 490 L321 490 L308 420 L197 420 Q167 252 155.5 182 Q144 112 144 101 Q144 75 158.5 68.5 Q173 62 219 62 L243 62 L223 -10 L148 -10 Z M70 -262 L114 -177 L78 -177 L93 -91 L189 -91 L174 -177 L107 -262 L70 -262 Z " />
<glyph glyph-name="uni1E97" unicode="&#x1e97;" horiz-adv-x="303" d="M148 -10 Q97 -10 73.5 15.5 Q50 41 50 81 Q50 98 107 420 L35 420 L55 490 L119 490 L141 611 L233 620 L210 490 L321 490 L308 420 L197 420 Q167 252 155.5 182 Q144 112 144 101 Q144 75 158.5 68.5 Q173 62 219 62 L243 62 L223 -10 L148 -10 Z M87 792 L171 792 L155 712 L71 712 L87 792 Z M273 792 L357 792 L341 712 L257 712 L273 792 Z " />
<glyph glyph-name="uni1E6D" unicode="&#x1e6d;" horiz-adv-x="303" d="M148 -10 Q97 -10 73.5 15.5 Q50 41 50 81 Q50 98 107 420 L35 420 L55 490 L119 490 L141 611 L233 620 L210 490 L321 490 L308 420 L197 420 Q167 252 155.5 182 Q144 112 144 101 Q144 75 158.5 68.5 Q173 62 219 62 L243 62 L223 -10 L148 -10 Z M92 -81 L184 -81 L166 -171 L74 -171 L92 -81 Z " />
<glyph glyph-name="uni1E6F" unicode="&#x1e6f;" horiz-adv-x="303" d="M148 -10 Q97 -10 73.5 15.5 Q50 41 50 81 Q50 98 107 420 L35 420 L55 490 L119 490 L141 611 L233 620 L210 490 L321 490 L308 420 L197 420 Q167 252 155.5 182 Q144 112 144 101 Q144 75 158.5 68.5 Q173 62 219 62 L243 62 L223 -10 L148 -10 Z M-17 -91 L295 -91 L281 -162 L-31 -162 L-17 -91 Z " />
<glyph glyph-name="u" unicode="u" horiz-adv-x="494" d="M170 -10 Q105 -10 69.5 27.5 Q34 65 34 134 Q34 158 42 202 L91 490 L182 490 L135 216 Q129 181 129 162 Q129 70 207 70 Q237 70 264.5 84 Q292 98 312 126 L376 490 L467 490 L381 0 L298 0 L301 54 Q245 -10 170 -10 Z " />
<glyph glyph-name="uacute" unicode="&#xfa;" horiz-adv-x="494" d="M170 -10 Q105 -10 69.5 27.5 Q34 65 34 134 Q34 158 42 202 L91 490 L182 490 L135 216 Q129 181 129 162 Q129 70 207 70 Q237 70 264.5 84 Q292 98 312 126 L376 490 L467 490 L381 0 L298 0 L301 54 Q245 -10 170 -10 Z M224 643 L407 747 L390 636 L212 575 L224 643 Z " />
<glyph glyph-name="ubreve" unicode="&#x16d;" horiz-adv-x="494" d="M170 -10 Q105 -10 69.5 27.5 Q34 65 34 134 Q34 158 42 202 L91 490 L182 490 L135 216 Q129 181 129 162 Q129 70 207 70 Q237 70 264.5 84 Q292 98 312 126 L376 490 L467 490 L381 0 L298 0 L301 54 Q245 -10 170 -10 Z M301 576 Q240 576 208.5 604.5 Q177 633 177 677 Q177 691 181 703 L259 703 Q256 696 256 686 Q256 665 270 653.5 Q284 642 309 642 Q337 642 357 657.5 Q377 673 382 703 L465 703 Q456 647 413.5 611.5 Q371 576 301 576 Z " />
<glyph glyph-name="ucircumflex" unicode="&#xfb;" horiz-adv-x="494" d="M170 -10 Q105 -10 69.5 27.5 Q34 65 34 134 Q34 158 42 202 L91 490 L182 490 L135 216 Q129 181 129 162 Q129 70 207 70 Q237 70 264.5 84 Q292 98 312 126 L376 490 L467 490 L381 0 L298 0 L301 54 Q245 -10 170 -10 Z M199 638 L327 735 L432 625 L420 564 L309 644 L184 574 L199 638 Z " />
<glyph glyph-name="uni0215" unicode="&#x215;" horiz-adv-x="494" d="M170 -10 Q105 -10 69.5 27.5 Q34 65 34 134 Q34 158 42 202 L91 490 L182 490 L135 216 Q129 181 129 162 Q129 70 207 70 Q237 70 264.5 84 Q292 98 312 126 L376 490 L467 490 L381 0 L298 0 L301 54 Q245 -10 170 -10 Z M192 578 L119 745 L217 745 L258 578 L192 578 Z M331 578 L263 745 L361 745 L397 578 L331 578 Z " />
<glyph glyph-name="udieresis" unicode="&#xfc;" horiz-adv-x="494" d="M170 -10 Q105 -10 69.5 27.5 Q34 65 34 134 Q34 158 42 202 L91 490 L182 490 L135 216 Q129 181 129 162 Q129 70 207 70 Q237 70 264.5 84 Q292 98 312 126 L376 490 L467 490 L381 0 L298 0 L301 54 Q245 -10 170 -10 Z M179 671 L263 671 L247 591 L163 591 L179 671 Z M365 671 L449 671 L433 591 L349 591 L365 671 Z " />
<glyph glyph-name="uni1EE5" unicode="&#x1ee5;" horiz-adv-x="494" d="M170 -10 Q105 -10 69.5 27.5 Q34 65 34 134 Q34 158 42 202 L91 490 L182 490 L135 216 Q129 181 129 162 Q129 70 207 70 Q237 70 264.5 84 Q292 98 312 126 L376 490 L467 490 L381 0 L298 0 L301 54 Q245 -10 170 -10 Z M111 -81 L203 -81 L185 -171 L93 -171 L111 -81 Z " />
<glyph glyph-name="ugrave" unicode="&#xf9;" horiz-adv-x="494" d="M170 -10 Q105 -10 69.5 27.5 Q34 65 34 134 Q34 158 42 202 L91 490 L182 490 L135 216 Q129 181 129 162 Q129 70 207 70 Q237 70 264.5 84 Q292 98 312 126 L376 490 L467 490 L381 0 L298 0 L301 54 Q245 -10 170 -10 Z M217 645 L234 743 L393 637 L382 576 L217 645 Z " />
<glyph glyph-name="uni1EE7" unicode="&#x1ee7;" horiz-adv-x="494" d="M170 -10 Q105 -10 69.5 27.5 Q34 65 34 134 Q34 158 42 202 L91 490 L182 490 L135 216 Q129 181 129 162 Q129 70 207 70 Q237 70 264.5 84 Q292 98 312 126 L376 490 L467 490 L381 0 L298 0 L301 54 Q245 -10 170 -10 Z M273 558 Q305 584 318 599 Q331 614 331 634 Q331 661 296 661 Q270 661 230 642 L222 693 Q262 712 306 712 Q344 712 367 694.5 Q390 677 391 645 Q391 609 368 581 Q345 553 301 525 L273 558 Z " />
<glyph glyph-name="uhorn" unicode="&#x1b0;" horiz-adv-x="494" d="M592 564 Q581 511 546 476.5 Q511 442 456 430 L381 0 L298 0 L301 54 Q245 -10 170 -10 Q105 -10 69.5 27.5 Q34 65 34 134 Q34 158 42 202 L91 490 L182 490 L135 216 Q129 181 129 162 Q129 70 207 70 Q237 70 264.5 84 Q292 98 312 126 L376 490 L413 490 Q492 490 506 564 L592 564 Z " />
<glyph glyph-name="uni1EE9" unicode="&#x1ee9;" horiz-adv-x="494" d="M592 564 Q581 511 546 476.5 Q511 442 456 430 L381 0 L298 0 L301 54 Q245 -10 170 -10 Q105 -10 69.5 27.5 Q34 65 34 134 Q34 158 42 202 L91 490 L182 490 L135 216 Q129 181 129 162 Q129 70 207 70 Q237 70 264.5 84 Q292 98 312 126 L376 490 L413 490 Q492 490 506 564 L592 564 Z M224 643 L407 747 L390 636 L212 575 L224 643 Z " />
<glyph glyph-name="uni1EF1" unicode="&#x1ef1;" horiz-adv-x="494" d="M592 564 Q581 511 546 476.5 Q511 442 456 430 L381 0 L298 0 L301 54 Q245 -10 170 -10 Q105 -10 69.5 27.5 Q34 65 34 134 Q34 158 42 202 L91 490 L182 490 L135 216 Q129 181 129 162 Q129 70 207 70 Q237 70 264.5 84 Q292 98 312 126 L376 490 L413 490 Q492 490 506 564 L592 564 Z M111 -81 L203 -81 L185 -171 L93 -171 L111 -81 Z " />
<glyph glyph-name="uni1EEB" unicode="&#x1eeb;" horiz-adv-x="494" d="M592 564 Q581 511 546 476.5 Q511 442 456 430 L381 0 L298 0 L301 54 Q245 -10 170 -10 Q105 -10 69.5 27.5 Q34 65 34 134 Q34 158 42 202 L91 490 L182 490 L135 216 Q129 181 129 162 Q129 70 207 70 Q237 70 264.5 84 Q292 98 312 126 L376 490 L413 490 Q492 490 506 564 L592 564 Z M217 645 L234 743 L393 637 L382 576 L217 645 Z " />
<glyph glyph-name="uni1EED" unicode="&#x1eed;" horiz-adv-x="494" d="M592 564 Q581 511 546 476.5 Q511 442 456 430 L381 0 L298 0 L301 54 Q245 -10 170 -10 Q105 -10 69.5 27.5 Q34 65 34 134 Q34 158 42 202 L91 490 L182 490 L135 216 Q129 181 129 162 Q129 70 207 70 Q237 70 264.5 84 Q292 98 312 126 L376 490 L413 490 Q492 490 506 564 L592 564 Z M273 558 Q305 584 318 599 Q331 614 331 634 Q331 661 296 661 Q270 661 230 642 L222 693 Q262 712 306 712 Q344 712 367 694.5 Q390 677 391 645 Q391 609 368 581 Q345 553 301 525 L273 558 Z " />
<glyph glyph-name="uni1EEF" unicode="&#x1eef;" horiz-adv-x="494" d="M592 564 Q581 511 546 476.5 Q511 442 456 430 L381 0 L298 0 L301 54 Q245 -10 170 -10 Q105 -10 69.5 27.5 Q34 65 34 134 Q34 158 42 202 L91 490 L182 490 L135 216 Q129 181 129 162 Q129 70 207 70 Q237 70 264.5 84 Q292 98 312 126 L376 490 L413 490 Q492 490 506 564 L592 564 Z M375 580 Q360 580 345 586 Q330 592 307 603 Q287 613 273.5 618.5 Q260 624 249 624 Q219 624 211 588 L139 588 Q165 699 244 699 Q260 699 274 693.5 Q288 688 309 676 Q327 666 340 660.5 Q353 655 367 655 Q398 655 405 694 L477 694 Q464 635 439 607.5 Q414 580 375 580 Z " />
<glyph glyph-name="uhungarumlaut" unicode="&#x171;" horiz-adv-x="494" d="M170 -10 Q105 -10 69.5 27.5 Q34 65 34 134 Q34 158 42 202 L91 490 L182 490 L135 216 Q129 181 129 162 Q129 70 207 70 Q237 70 264.5 84 Q292 98 312 126 L376 490 L467 490 L381 0 L298 0 L301 54 Q245 -10 170 -10 Z M298 745 L396 745 L258 578 L192 578 L298 745 Z M443 745 L541 745 L398 578 L332 578 L443 745 Z " />
<glyph glyph-name="uni0217" unicode="&#x217;" horiz-adv-x="494" d="M170 -10 Q105 -10 69.5 27.5 Q34 65 34 134 Q34 158 42 202 L91 490 L182 490 L135 216 Q129 181 129 162 Q129 70 207 70 Q237 70 264.5 84 Q292 98 312 126 L376 490 L467 490 L381 0 L298 0 L301 54 Q245 -10 170 -10 Z M314 703 Q377 703 408.5 674 Q440 645 440 599 Q440 592 438 576 L360 576 Q361 580 361 589 Q361 612 345.5 624.5 Q330 637 305 637 Q276 637 254.5 621 Q233 605 228 576 L146 576 Q155 629 199 666 Q243 703 314 703 Z " />
<glyph glyph-name="umacron" unicode="&#x16b;" horiz-adv-x="494" d="M170 -10 Q105 -10 69.5 27.5 Q34 65 34 134 Q34 158 42 202 L91 490 L182 490 L135 216 Q129 181 129 162 Q129 70 207 70 Q237 70 264.5 84 Q292 98 312 126 L376 490 L467 490 L381 0 L298 0 L301 54 Q245 -10 170 -10 Z M157 662 L469 662 L455 591 L143 591 L157 662 Z " />
<glyph glyph-name="uni1E7B" unicode="&#x1e7b;" horiz-adv-x="494" d="M170 -10 Q105 -10 69.5 27.5 Q34 65 34 134 Q34 158 42 202 L91 490 L182 490 L135 216 Q129 181 129 162 Q129 70 207 70 Q237 70 264.5 84 Q292 98 312 126 L376 490 L467 490 L381 0 L298 0 L301 54 Q245 -10 170 -10 Z M149 651 L465 651 L453 583 L137 583 L149 651 Z M212 811 L296 811 L282 736 L198 736 L212 811 Z M396 811 L480 811 L466 736 L382 736 L396 811 Z " />
<glyph glyph-name="uogonek" unicode="&#x173;" horiz-adv-x="494" d="M170 -10 Q105 -10 69.5 27.5 Q34 65 34 134 Q34 158 42 202 L91 490 L182 490 L135 216 Q129 181 129 162 Q129 70 207 70 Q237 70 264.5 84 Q292 98 312 126 L376 490 L467 490 L381 0 L298 0 L301 54 Q245 -10 170 -10 Z M473 10 Q427 -22 401.5 -49.5 Q376 -77 376 -109 Q376 -128 385.5 -137.5 Q395 -147 413 -147 Q442 -147 473 -130 L479 -179 Q443 -198 399 -198 Q362 -198 338.5 -180 Q315 -162 314 -129 Q314 -89 345.5 -51 Q377 -13 420 10 L473 10 Z " />
</font>
</svg>
